<svg xmlns="http://www.w3.org/2000/svg" viewBox="0 0 472 82"><defs><style>.cls-1{fill:#fff;}.cls-2{fill:#0043ce;}.cls-3{fill:#f3f8ff;}.cls-4{fill:#e4eaf2;}.cls-5{fill:#010b23;}</style></defs><title>Banner</title><g id="Layer_2" data-name="Layer 2"><g id="Layer_1-2" data-name="Layer 1"><rect class="cls-1" width="472" height="82"/><circle class="cls-2" cx="45" cy="41" r="40"/><path d="M42.1,28.7,39.6,45.4a10.9,10.9,0,0,1-3.5,6.9,10.8,10.8,0,0,1-6.9,2.3,7.9,7.9,0,0,1-6.1-2.4c-1.4-1.7-1.9-3.9-1.5-6.8l2.5-16.7H29L26.5,45.4a5.4,5.4,0,0,0,.5,4,3.1,3.1,0,0,0,2.8,1.4,4.1,4.1,0,0,0,3.1-1.4,6.7,6.7,0,0,0,1.7-4l2.5-16.7Z"/><path d="M53.7,44.9h.1l5-16.2h5.1L55,54.3H50.4L49.1,38.5H49L42.9,54.3H38.3L37.1,28.7h5l.2,16.2h.1l6.1-16.3h3.9Z"/><path d="M55.3,54.3l3.8-25.6h7.3a8.7,8.7,0,0,1,5.9,1.8c1.4,1.2,1.9,2.9,1.5,5.2A7.9,7.9,0,0,1,72.5,39a6,6,0,0,1-2.7,2,3.9,3.9,0,0,1,2.8,2.1,5.7,5.7,0,0,1,.6,3.7,8.1,8.1,0,0,1-3,5.6,9.8,9.8,0,0,1-6.4,1.9Zm6.6-11.4-1.1,7.5h3.6a3.9,3.9,0,0,0,2.6-.9,4.8,4.8,0,0,0,1.2-2.7,3.8,3.8,0,0,0-.4-2.9,2.7,2.7,0,0,0-2.3-1Zm.5-3.4h2.5a4.5,4.5,0,0,0,2.6-.8,4.3,4.3,0,0,0,1.3-2.6,3.3,3.3,0,0,0-.5-2.7,3.4,3.4,0,0,0-2.5-.8H63.5Z"/><circle class="cls-1" cx="26.7" cy="28.5" r="3"/><circle class="cls-1" cx="39.7" cy="28.5" r="3"/><circle class="cls-1" cx="50.3" cy="28.5" r="3"/><circle class="cls-1" cx="61.8" cy="28.5" r="3"/><circle class="cls-1" cx="52" cy="53.5" r="3"/><circle class="cls-1" cx="40.7" cy="53.5" r="3"/><rect class="cls-1" x="89.7" width="382.3" height="82"/><ellipse class="cls-3" cx="114.8" cy="11.1" rx="5.7" ry="5.5"/><ellipse class="cls-3" cx="277.2" cy="72.3" rx="5.7" ry="5.5"/><ellipse class="cls-3" cx="402" cy="19.9" rx="5.7" ry="5.5"/><rect class="cls-4" x="97.6" y="61" width="4.5" height="4.41"/><rect class="cls-4" x="177.8" y="9.9" width="4.5" height="8.83"/><rect class="cls-4" x="206.7" y="12.1" width="13.6" height="4.41"/><rect class="cls-4" x="163.5" y="28.1" width="4.5" height="17.66"/><rect class="cls-4" x="128.9" y="54.4" width="22.7" height="4.41"/><rect class="cls-4" x="189.2" y="61" width="18.2" height="4.41"/><rect class="cls-4" x="202.8" y="47.8" width="4.5" height="17.66"/><rect class="cls-4" x="119.1" y="32" width="18.2" height="4.41"/><rect class="cls-4" x="125.9" y="25.4" width="4.5" height="17.66"/><rect class="cls-4" x="145.3" y="14.3" width="4.5" height="4.41"/><rect class="cls-4" x="161.2" y="65.5" width="4.5" height="8.83"/><rect class="cls-4" x="224.7" y="45.6" width="13.6" height="4.41"/><rect class="cls-4" x="95.3" y="28.1" width="4.5" height="17.66"/><rect class="cls-4" x="267.7" y="52.2" width="22.7" height="4.41"/><rect class="cls-4" x="242.8" y="32" width="18.2" height="4.41"/><rect class="cls-4" x="242.8" y="18.8" width="4.5" height="17.66"/><polygon class="cls-4" points="249.9 73.3 237.1 60.8 240.3 57.7 253.1 70.1 249.9 73.3"/><polygon class="cls-4" points="253.1 60.8 240.3 73.3 237.1 70.1 249.9 57.7 253.1 60.8"/><rect class="cls-4" x="97.6" y="7.7" width="4.5" height="4.41"/><rect class="cls-4" x="267.7" y="9" width="22.7" height="4.41"/><rect class="cls-4" x="303.8" y="62" width="4.5" height="4.41"/><rect class="cls-4" x="377.7" y="24.6" width="4.5" height="8.83"/><rect class="cls-4" x="365.1" y="9" width="13.6" height="4.41"/><rect class="cls-4" x="417.4" y="24.9" width="4.5" height="17.66"/><rect class="cls-4" x="433.8" y="51.3" width="22.7" height="4.41"/><rect class="cls-4" x="377.7" y="52.2" width="18.2" height="4.41"/><rect class="cls-4" x="391.4" y="39" width="4.5" height="17.66"/><rect class="cls-4" x="448.2" y="28.8" width="18.2" height="4.41"/><rect class="cls-4" x="455" y="22.2" width="4.5" height="17.66"/><rect class="cls-4" x="435.6" y="11.2" width="4.5" height="4.41"/><rect class="cls-4" x="419.7" y="62.3" width="4.5" height="8.83"/><rect class="cls-4" x="347.2" y="42.4" width="13.6" height="4.41"/><rect class="cls-4" x="301.5" y="29" width="4.5" height="17.66"/><rect class="cls-4" x="324.4" y="28.8" width="18.2" height="4.41"/><rect class="cls-4" x="338.1" y="15.6" width="4.5" height="17.66"/><polygon class="cls-4" points="335.5 70.1 348.4 57.6 345.2 54.5 332.3 67 335.5 70.1"/><polygon class="cls-4" points="332.3 57.6 345.2 70.1 348.4 67 335.5 54.5 332.3 57.6"/><path class="cls-5" d="M98,32.9H95.1V20.1H98Z"/><path class="cls-5" d="M102.8,23.4v1.3a6.3,6.3,0,0,1,1.2-1.1,2.8,2.8,0,0,1,1.5-.4,2.5,2.5,0,0,1,2.2,1,4.7,4.7,0,0,1,.8,3v5.7h-3V27.2a2.1,2.1,0,0,0-.3-1.3.8.8,0,0,0-.8-.4l-.9.2-.6.4v6.8h-3V23.4Z"/><path class="cls-5" d="M109.8,28.2a5.7,5.7,0,0,1,1-3.6,3.1,3.1,0,0,1,2.7-1.4,2.1,2.1,0,0,1,1.2.3,2.8,2.8,0,0,1,1,.9V19.2h2.9V32.9H116l-.2-1.2a2.4,2.4,0,0,1-1,1,2,2,0,0,1-1.3.4,3.2,3.2,0,0,1-2.7-1.3,5.4,5.4,0,0,1-1-3.5Zm3,.1a5,5,0,0,0,.3,1.9,1.2,1.2,0,0,0,1.2.6l.8-.2.6-.5V26.3a1.7,1.7,0,0,0-.6-.6l-.8-.2a1.3,1.3,0,0,0-1.2.7,5.6,5.6,0,0,0-.3,2Z"/><path class="cls-5" d="M119.9,28.1a5,5,0,0,1,1.2-3.5,4.6,4.6,0,0,1,3.4-1.4,4.3,4.3,0,0,1,3.4,1.4,5,5,0,0,1,1.2,3.5h0a5,5,0,0,1-1.2,3.5,4.3,4.3,0,0,1-3.4,1.4,4.6,4.6,0,0,1-3.4-1.4,5,5,0,0,1-1.2-3.5Zm3,.1a3.4,3.4,0,0,0,.4,1.9,1.1,1.1,0,0,0,1.2.7,1.4,1.4,0,0,0,1.3-.7,4.5,4.5,0,0,0,.4-1.9h0a4.9,4.9,0,0,0-.4-1.9,1.4,1.4,0,0,0-1.3-.7,1.1,1.1,0,0,0-1.2.7,3.6,3.6,0,0,0-.4,1.9Z"/><path class="cls-5" d="M130,28.1a5,5,0,0,1,1.3-3.5,4.2,4.2,0,0,1,3.3-1.4,4.3,4.3,0,0,1,3.4,1.4,5,5,0,0,1,1.2,3.5h0a5,5,0,0,1-1.2,3.5,4.2,4.2,0,0,1-3.3,1.4,4.3,4.3,0,0,1-3.4-1.4,5,5,0,0,1-1.3-3.5Zm3,.1a3.4,3.4,0,0,0,.4,1.9,1.3,1.3,0,0,0,1.3.7,1.2,1.2,0,0,0,1.2-.7,3.4,3.4,0,0,0,.4-1.9h0a3.6,3.6,0,0,0-.4-1.9,1.3,1.3,0,0,0-1.3-.7,1.2,1.2,0,0,0-1.2.7,3.6,3.6,0,0,0-.4,1.9Z"/><path class="cls-5" d="M145.8,25.9h-1l-.8.2a1.2,1.2,0,0,0-.5.5v6.3h-2.9V23.4h2.8v1.4a2.5,2.5,0,0,1,.8-1.2,2.1,2.1,0,0,1,1.1-.4h.7Z"/><path class="cls-5" d="M154.5,30.6H160v2.3h-8.4V20.1h2.9Z"/><path class="cls-5" d="M161,28.1a5,5,0,0,1,1.3-3.5,4.2,4.2,0,0,1,3.3-1.4,4.3,4.3,0,0,1,3.4,1.4,5,5,0,0,1,1.2,3.5h0a5,5,0,0,1-1.2,3.5,4.2,4.2,0,0,1-3.3,1.4,4.3,4.3,0,0,1-3.4-1.4,5,5,0,0,1-1.3-3.5Zm3,.1a3.4,3.4,0,0,0,.4,1.9,1.3,1.3,0,0,0,1.3.7,1.2,1.2,0,0,0,1.2-.7,3.4,3.4,0,0,0,.4-1.9h0a3.6,3.6,0,0,0-.4-1.9,1.3,1.3,0,0,0-1.3-.7,1.2,1.2,0,0,0-1.2.7,3.6,3.6,0,0,0-.4,1.9Z"/><path class="cls-5" d="M175.6,30.8a1.2,1.2,0,0,0,.9-.3,1.7,1.7,0,0,0,.3-1h2.8a3.4,3.4,0,0,1-1.1,2.5,4.1,4.1,0,0,1-2.9,1,4.2,4.2,0,0,1-3.3-1.4,5,5,0,0,1-1.2-3.5V28a4.9,4.9,0,0,1,1.2-3.4,4.2,4.2,0,0,1,3.3-1.4,3.9,3.9,0,0,1,2.9,1,3.8,3.8,0,0,1,1.1,2.8h-2.8a2,2,0,0,0-.3-1.1,1,1,0,0,0-.9-.4,1.1,1.1,0,0,0-1.2.7,4.5,4.5,0,0,0-.3,1.8v.2a4.7,4.7,0,0,0,.3,1.9A1.1,1.1,0,0,0,175.6,30.8Z"/><path class="cls-5" d="M186.3,32.9l-.3-.7a1.9,1.9,0,0,1-.2-.8,4,4,0,0,1-1,1.2,2,2,0,0,1-1.4.5,3.6,3.6,0,0,1-2.4-.8,2.9,2.9,0,0,1-.8-2.1,2.7,2.7,0,0,1,1.1-2.2,5.6,5.6,0,0,1,3.2-.7h1.2v-.7a1.2,1.2,0,0,0-.3-.9,1,1,0,0,0-.9-.4,1,1,0,0,0-1,1h-2.9a2.5,2.5,0,0,1,1.1-2.2,4.9,4.9,0,0,1,3-.9,4.4,4.4,0,0,1,2.9.9,3.1,3.1,0,0,1,1.1,2.5v3.6a6.1,6.1,0,0,0,.1,1.4,6.5,6.5,0,0,0,.4,1.3ZM184.2,31a1.4,1.4,0,0,0,.9-.3,1.7,1.7,0,0,0,.6-.6V28.8h-1.2a1.3,1.3,0,0,0-1,.4,1.2,1.2,0,0,0-.3.9.9.9,0,0,0,.3.6A.8.8,0,0,0,184.2,31Z"/><path class="cls-5" d="M193.4,32.9h-3V19.2h3Z"/><path class="cls-5" d="M198.4,21.2h-3v-2h3Zm0,11.7h-3V23.4h3Z"/><path class="cls-5" d="M203.7,30.6H208v2.3h-8.1V31.2l4.2-5.5h-4V23.4h7.8V25Z"/><path class="cls-5" d="M214.9,32.9l-.3-.7c0-.2-.1-.5-.1-.8a4,4,0,0,1-1,1.2,2.5,2.5,0,0,1-1.5.5,3.4,3.4,0,0,1-2.3-.8,2.5,2.5,0,0,1-.8-2.1,2.6,2.6,0,0,1,1-2.2,5.8,5.8,0,0,1,3.3-.7h1.2v-.7a1.2,1.2,0,0,0-.3-.9,1,1,0,0,0-.9-.4,1.1,1.1,0,0,0-.8.3,1.2,1.2,0,0,0-.2.7h-2.9a2.3,2.3,0,0,1,1.1-2.2,4.5,4.5,0,0,1,3-.9,4.6,4.6,0,0,1,2.9.9,3,3,0,0,1,1,2.5v3.6a5.9,5.9,0,0,0,.2,1.4,6.5,6.5,0,0,0,.4,1.3ZM212.8,31a1.9,1.9,0,0,0,1.6-.9V28.8h-1.2a1.3,1.3,0,0,0-1,.4,1,1,0,0,0-.4.9.9.9,0,0,0,.3.6A.9.9,0,0,0,212.8,31Z"/><path class="cls-5" d="M222.4,21v2.4h1.5v2h-1.5v4.4a1.2,1.2,0,0,0,.2.7.5.5,0,0,0,.5.3h.8l.2,2.2h-1.7a2.9,2.9,0,0,1-2.2-.8,3.4,3.4,0,0,1-.8-2.5V25.4h-1.3v-2h1.3V21Z"/><path class="cls-5" d="M228.4,21.2h-2.9v-2h2.9Zm0,11.7h-2.9V23.4h2.9Z"/><path class="cls-5" d="M229.9,28.1a5,5,0,0,1,1.2-3.5,4.3,4.3,0,0,1,3.4-1.4,4.6,4.6,0,0,1,3.4,1.4,5,5,0,0,1,1.2,3.5h0a5,5,0,0,1-1.2,3.5,4.6,4.6,0,0,1-3.4,1.4,4.3,4.3,0,0,1-3.4-1.4,5,5,0,0,1-1.2-3.5Zm2.9.1a4.5,4.5,0,0,0,.4,1.9,1.4,1.4,0,0,0,1.3.7,1.1,1.1,0,0,0,1.2-.7,3.4,3.4,0,0,0,.4-1.9h0a3.6,3.6,0,0,0-.4-1.9,1.1,1.1,0,0,0-1.2-.7,1.4,1.4,0,0,0-1.3.7,4.9,4.9,0,0,0-.4,1.9Z"/><path class="cls-5" d="M243.1,23.4v1.3a4.3,4.3,0,0,1,1.2-1.1,2.4,2.4,0,0,1,1.5-.4,2.6,2.6,0,0,1,2.2,1,4.7,4.7,0,0,1,.8,3v5.7h-3V27.2a2.1,2.1,0,0,0-.3-1.3.9.9,0,0,0-.8-.4l-.9.2-.6.4v6.8h-3V23.4Z"/><path class="cls-5" d="M256.8,26.1l-.8-1.4a6.9,6.9,0,0,1-.2-1.3,3.3,3.3,0,0,1,1-2.6,3.6,3.6,0,0,1,2.6-.9,3.2,3.2,0,0,1,2.3.9,2.9,2.9,0,0,1,.9,2.2,3.8,3.8,0,0,1-.4,1.6,2.7,2.7,0,0,1-.9,1.2l-.9.6,2,2.4a3.7,3.7,0,0,0,.5-1.1,5,5,0,0,0,.2-1.2h2.3a9.3,9.3,0,0,1-.3,2.4,4,4,0,0,1-1,1.8l1.9,2.2h-3.3l-.7-.7-1.5.7-1.7.2a4.7,4.7,0,0,1-3-1,3.3,3.3,0,0,1-1.1-2.6,2.7,2.7,0,0,1,.5-1.8,5.3,5.3,0,0,1,1.5-1.5Zm2.2,4.7h.8l.8-.2-2.3-2.6-.5.6a2.4,2.4,0,0,0-.2.8,2.1,2.1,0,0,0,.4,1.1A1.4,1.4,0,0,0,259,30.8Zm-.6-7.5a1.5,1.5,0,0,0,.1.7,2.5,2.5,0,0,0,.4.7l.4-.2a1.4,1.4,0,0,0,.7-.6,1.9,1.9,0,0,0,.2-.7,1.4,1.4,0,0,0-.2-.7,1,1,0,0,0-1.4,0A1.2,1.2,0,0,0,258.4,23.3Z"/><path class="cls-5" d="M278.5,30.4h-3.8l-.8,2.5h-3.1L275,20.1h3.2l4.1,12.8h-3.1Zm-3.2-2.3h2.5l-1.2-3.9h-.1Z"/><path class="cls-5" d="M285.4,23.4v1.3a4.3,4.3,0,0,1,1.2-1.1,2.4,2.4,0,0,1,1.5-.4,2.7,2.7,0,0,1,2.2,1,4.7,4.7,0,0,1,.8,3v5.7h-3V27.2a2.1,2.1,0,0,0-.3-1.3,1,1,0,0,0-.9-.4l-.8.2a.9.9,0,0,0-.6.4v6.8h-3V23.4Z"/><path class="cls-5" d="M296.8,30.8a1.2,1.2,0,0,0,.9-.3,1.7,1.7,0,0,0,.3-1h2.8a3.4,3.4,0,0,1-1.1,2.5,4.1,4.1,0,0,1-2.9,1,4.2,4.2,0,0,1-3.3-1.4,5,5,0,0,1-1.2-3.5V28a4.9,4.9,0,0,1,1.2-3.4,4.2,4.2,0,0,1,3.3-1.4,3.9,3.9,0,0,1,2.9,1,3.8,3.8,0,0,1,1.1,2.8H298a2,2,0,0,0-.3-1.1,1,1,0,0,0-.9-.4,1.1,1.1,0,0,0-1.2.7,4.5,4.5,0,0,0-.3,1.8v.2a4.7,4.7,0,0,0,.3,1.9A1.2,1.2,0,0,0,296.8,30.8Z"/><path class="cls-5" d="M304.9,24.6a1.9,1.9,0,0,1,1-1,2.3,2.3,0,0,1,1.4-.4,3.1,3.1,0,0,1,2.3,1,4.9,4.9,0,0,1,.8,3.2v5.5h-2.9V27.4a2.8,2.8,0,0,0-.3-1.5,1,1,0,0,0-.9-.4h-.8a1,1,0,0,0-.6.5v6.8h-3V19.2h3Z"/><path class="cls-5" d="M311.7,28.1a5,5,0,0,1,1.2-3.5,4.8,4.8,0,0,1,6.8,0,5,5,0,0,1,1.2,3.5h0a5,5,0,0,1-1.2,3.5,4.3,4.3,0,0,1-3.4,1.4,4.4,4.4,0,0,1-3.4-1.4,5,5,0,0,1-1.2-3.5Zm3,.1a4.7,4.7,0,0,0,.3,1.9,1.6,1.6,0,0,0,2.6,0,4.7,4.7,0,0,0,.3-1.9h0a5,5,0,0,0-.3-1.9,1.6,1.6,0,0,0-2.6,0,5,5,0,0,0-.3,1.9Z"/><path class="cls-5" d="M327.5,25.9h-1l-.8.2a.8.8,0,0,0-.5.5v6.3h-3V23.4H325v1.4a3.6,3.6,0,0,1,.8-1.2,2.1,2.1,0,0,1,1.2-.4h.6Z"/><path class="cls-5" d="M339.8,29.5a1.1,1.1,0,0,0-.4-1,5.4,5.4,0,0,0-1.7-.8,12.7,12.7,0,0,1-3.5-1.7,2.9,2.9,0,0,1-1.2-2.5,3.1,3.1,0,0,1,1.4-2.6,5.3,5.3,0,0,1,3.4-1,6.1,6.1,0,0,1,3.5,1,3.2,3.2,0,0,1,1.3,2.9h-2.9c0-.6-.1-1.1-.5-1.3a2,2,0,0,0-1.4-.4,1.7,1.7,0,0,0-1.3.4,1.1,1.1,0,0,0,0,1.8,7.2,7.2,0,0,0,1.8.9,8.4,8.4,0,0,1,3.3,1.6,3.1,3.1,0,0,1,1.2,2.6,3.2,3.2,0,0,1-1.3,2.6,5.6,5.6,0,0,1-3.5,1,7,7,0,0,1-3.7-1,3.7,3.7,0,0,1-1.5-3.3h2.9a2,2,0,0,0,.6,1.6,3.6,3.6,0,0,0,3.1.1A1.3,1.3,0,0,0,339.8,29.5Z"/><path class="cls-5" d="M348.4,33.1a4.5,4.5,0,0,1-3.3-1.3,4.4,4.4,0,0,1-1.3-3.3v-.4a5.1,5.1,0,0,1,1.2-3.5,4.2,4.2,0,0,1,3.3-1.4,3.8,3.8,0,0,1,3,1.2,4.3,4.3,0,0,1,1.1,3.1v1.6h-5.5a1.7,1.7,0,0,0,.6,1.2,1.8,1.8,0,0,0,1.4.5h1.4l1.3-.5.7,1.8a5.4,5.4,0,0,1-1.7.8A7.8,7.8,0,0,1,348.4,33.1Zm-.1-7.6a1,1,0,0,0-1,.5,2.1,2.1,0,0,0-.4,1.2h2.6V27a1.6,1.6,0,0,0-.3-1.1A1,1,0,0,0,348.3,25.5Z"/><path class="cls-5" d="M356.7,32.9h-2.9V19.2h2.9Z"/><path class="cls-5" d="M359.2,32.9V25.4h-1.4v-2h1.4v-1a3,3,0,0,1,1-2.5A3.9,3.9,0,0,1,363,19h1.4l-.2,2.2h-.9a1.1,1.1,0,0,0-.8.3,1,1,0,0,0-.3.8v1h1.9v2h-1.9v7.5Z"/><path class="cls-5" d="M370.5,28.5h-5.1V26.2h5.1Z"/><path class="cls-5" d="M382.7,28.6h0a4.5,4.5,0,0,1-1.2,3.4,5.7,5.7,0,0,1-3.6,1.1,5.1,5.1,0,0,1-5.3-5.3V25.2a5.2,5.2,0,0,1,1.4-3.8,5,5,0,0,1,3.7-1.5,5.6,5.6,0,0,1,3.8,1.2,4.1,4.1,0,0,1,1.3,3.2h-3a2.2,2.2,0,0,0-.5-1.7,2.2,2.2,0,0,0-1.6-.5,1.6,1.6,0,0,0-1.5.8,3.5,3.5,0,0,0-.6,2.1v2.7a3.6,3.6,0,0,0,.6,2.2,2.1,2.1,0,0,0,1.7.8,2.1,2.1,0,0,0,1.5-.5,2.7,2.7,0,0,0,.4-1.7Z"/><path class="cls-5" d="M389.7,32.9l-.3-.7c-.1-.2-.1-.5-.2-.8a3.8,3.8,0,0,1-.9,1.2,2.5,2.5,0,0,1-1.5.5,3.2,3.2,0,0,1-2.3-.8,2.6,2.6,0,0,1-.9-2.1,2.7,2.7,0,0,1,1.1-2.2,5.6,5.6,0,0,1,3.2-.7h1.2v-.7a2,2,0,0,0-.2-.9,1.2,1.2,0,0,0-1.7-.1.8.8,0,0,0-.3.7H384a2.8,2.8,0,0,1,1.1-2.2,5,5,0,0,1,3.1-.9,4.3,4.3,0,0,1,2.8.9,3.1,3.1,0,0,1,1.1,2.5v3.6c0,.5.1,1,.1,1.4l.4,1.3ZM387.6,31a1.7,1.7,0,0,0,1-.3l.5-.6V28.8h-1.2a1.5,1.5,0,0,0-1,.4,1.2,1.2,0,0,0-.3.9.9.9,0,0,0,.3.6A.9.9,0,0,0,387.6,31Z"/><path class="cls-5" d="M396.8,32.9h-2.9V19.2h2.9Z"/><path class="cls-5" d="M401.8,21.2h-3v-2h3Zm0,11.7h-3V23.4h3Z"/><path class="cls-5" d="M412.4,28.3a6.1,6.1,0,0,1-.9,3.5,3.2,3.2,0,0,1-2.8,1.3,1.8,1.8,0,0,1-1.3-.4,2.2,2.2,0,0,1-1-.9l-.2,1.1h-2.6V19.2h3v5.1a2.4,2.4,0,0,1,.9-.8,2.1,2.1,0,0,1,1.2-.3,3.4,3.4,0,0,1,2.8,1.4,6.4,6.4,0,0,1,.9,3.6Zm-3-.1a5.3,5.3,0,0,0-.3-2,1.1,1.1,0,0,0-1.2-.7l-.8.2a1.2,1.2,0,0,0-.5.5v4a1,1,0,0,0,.5.4l.9.2a1.1,1.1,0,0,0,1.1-.6,4.4,4.4,0,0,0,.3-1.9Z"/><path class="cls-5" d="M419,25.9h-1l-.8.2-.5.5v6.3h-3V23.4h2.8v1.4a3.6,3.6,0,0,1,.8-1.2,2.1,2.1,0,0,1,1.2-.4h.7Z"/><path class="cls-5" d="M425.6,32.9a.9.9,0,0,1-.3-.7,1.9,1.9,0,0,1-.2-.8,4,4,0,0,1-1,1.2,2,2,0,0,1-1.4.5,3.6,3.6,0,0,1-2.4-.8,2.9,2.9,0,0,1-.8-2.1,2.7,2.7,0,0,1,1.1-2.2,5.4,5.4,0,0,1,3.2-.7H425v-.7a1.2,1.2,0,0,0-.3-.9,1,1,0,0,0-.9-.4,1,1,0,0,0-1,1h-2.9a2.5,2.5,0,0,1,1.1-2.2,4.9,4.9,0,0,1,3-.9,4.4,4.4,0,0,1,2.9.9,3.1,3.1,0,0,1,1.1,2.5v3.6a6.1,6.1,0,0,0,.1,1.4,6.5,6.5,0,0,0,.4,1.3ZM423.5,31a1.6,1.6,0,0,0,.9-.3,1.7,1.7,0,0,0,.6-.6V28.8h-1.2a1.3,1.3,0,0,0-1,.4,1.2,1.2,0,0,0-.3.9,1.4,1.4,0,0,0,.2.6A1.1,1.1,0,0,0,423.5,31Z"/><path class="cls-5" d="M433,21v2.4h1.5v2H433v4.4a1.2,1.2,0,0,0,.2.7.7.7,0,0,0,.6.3c.1,0,.3,0,.3-.1h.4l.2,2.2H433a3.1,3.1,0,0,1-2.2-.8,3.4,3.4,0,0,1-.8-2.5V25.4h-1.3v-2H430V21Z"/><path class="cls-5" d="M439.1,21.2h-3v-2h3Zm0,11.7h-3V23.4h3Z"/><path class="cls-5" d="M440.5,28.1a5,5,0,0,1,1.2-3.5,4.3,4.3,0,0,1,3.4-1.4,4.4,4.4,0,0,1,3.4,1.4,5,5,0,0,1,1.2,3.5h0a5,5,0,0,1-1.2,3.5,4.3,4.3,0,0,1-3.4,1.4,4.4,4.4,0,0,1-3.4-1.4,5,5,0,0,1-1.2-3.5Zm3,.1a4.7,4.7,0,0,0,.3,1.9,1.6,1.6,0,0,0,2.6,0,4.7,4.7,0,0,0,.3-1.9h0a5,5,0,0,0-.3-1.9,1.6,1.6,0,0,0-2.6,0,5,5,0,0,0-.3,1.9Z"/><path class="cls-5" d="M453.7,23.4l.2,1.3a3.8,3.8,0,0,1,1.1-1.1,2.8,2.8,0,0,1,1.5-.4,2.5,2.5,0,0,1,2.2,1,4.7,4.7,0,0,1,.8,3v5.7h-3V27.2a2.1,2.1,0,0,0-.3-1.3c-.1-.3-.4-.4-.8-.4l-.9.2-.6.4v6.8H451V23.4Z"/><path class="cls-5" d="M99.3,47.6a2.4,2.4,0,0,1-.9.8l-1.3.2h-.9a1.8,1.8,0,0,1-.7-.5,1.6,1.6,0,0,1-.5-.8,3.7,3.7,0,0,1-.2-1.2V41.6h.8V46a3.1,3.1,0,0,0,.1,1l.4.6.5.3H98l.6-.3a1,1,0,0,0,.4-.5l.3-.5v-5h.7v6.9h-.7Z"/><path class="cls-5" d="M106.1,46.8v-.5l-.3-.4-.6-.3-.9-.3-1-.3-.8-.4c-.2-.1-.3-.3-.5-.5a1.5,1.5,0,0,1-.1-.7.8.8,0,0,1,.2-.7.9.9,0,0,1,.4-.6l.8-.4,1-.2,1.1.2a2,2,0,0,1,.8.4l.5.6a2.8,2.8,0,0,1,.1.9h-.7c0-.2-.1-.4-.1-.6l-.4-.4-.5-.3h-1.5a1.1,1.1,0,0,0-.6.2l-.3.4v.9l.3.3.6.3.9.3,1.1.3.7.4a2.1,2.1,0,0,1,.4.6,1.4,1.4,0,0,1,.2.7,1.9,1.9,0,0,1-.2.8l-.5.6-.8.4h-2.2l-.8-.5a2,2,0,0,1-.6-.7,1.7,1.7,0,0,1-.1-.7h.7a1.9,1.9,0,0,0,.2.7l.5.4.6.2h1.4l.6-.3.3-.4A.6.6,0,0,0,106.1,46.8Z"/><path class="cls-5" d="M108.5,39.6c0-.1.1-.2.2-.3l.4-.2.4.2c0,.1.1.2.1.3s-.1.3-.1.4l-.4.2-.4-.2A.5.5,0,0,1,108.5,39.6Zm.9,8.9h-.7V41.6h.7Z"/><path class="cls-5" d="M112.2,41.6v1.2a2.9,2.9,0,0,1,.9-.9l.6-.3h1.6a1.8,1.8,0,0,1,.7.5,2,2,0,0,1,.4.8,3.6,3.6,0,0,1,.2,1.1v4.5h-.8V44a2.8,2.8,0,0,0-.1-.9l-.3-.5a.5.5,0,0,0-.5-.3h-1.4l-.6.4a1,1,0,0,0-.4.5.9.9,0,0,0-.3.6v4.7h-.8V41.6Z"/><path class="cls-5" d="M118.3,45a5.9,5.9,0,0,1,.2-1.4,2.8,2.8,0,0,1,.5-1.1,2.8,2.8,0,0,1,.9-.7,2,2,0,0,1,1.1-.3,2.8,2.8,0,0,1,1.3.3,3,3,0,0,1,.8.8v-1h.7v6.8a5,5,0,0,1-.2,1.2,2.4,2.4,0,0,1-.6.9l-.8.5a2.5,2.5,0,0,1-1.2.2h-.6l-.7-.3-.6-.3-.5-.5.5-.5a3,3,0,0,0,.8.8l1.1.2.8-.2.7-.4a1.6,1.6,0,0,0,.4-.7,2.2,2.2,0,0,0,.1-.9v-.8a2.4,2.4,0,0,1-.9.8l-1.2.2-1.1-.2-.9-.7a4.3,4.3,0,0,1-.5-1.2,5.2,5.2,0,0,1-.2-1.4Zm.8.1c0,.4.1.8.1,1.2a3.6,3.6,0,0,0,.4.9l.6.6.9.2h.7l.6-.3c.1-.1.3-.2.4-.4l.3-.5V43.5l-.3-.5a.8.8,0,0,0-.4-.4.5.5,0,0,0-.5-.3h-.8a1.5,1.5,0,0,0-.9.2,1.7,1.7,0,0,0-.6.6,1.9,1.9,0,0,0-.4.9c0,.3-.1.7-.1,1.1Z"/><path class="cls-5" d="M135.6,39.3v6.2a3.2,3.2,0,0,1-.3,1.4,3.6,3.6,0,0,1-.7,1,3.1,3.1,0,0,1-1,.5,4.3,4.3,0,0,1-2.6,0,3.1,3.1,0,0,1-1-.5,3.6,3.6,0,0,1-.7-1,3.2,3.2,0,0,1-.2-1.4V39.3h.7v6.2a3.6,3.6,0,0,0,.2,1.1,1.8,1.8,0,0,0,.5.7,1.8,1.8,0,0,0,.8.5l1,.2,1-.2a1.4,1.4,0,0,0,.8-.5,1.8,1.8,0,0,0,.5-.7,3.6,3.6,0,0,0,.2-1.1V39.3Z"/><path class="cls-5" d="M138.4,48.5h-.7V38.7h.7Z"/><path class="cls-5" d="M141.7,39.9v1.7h1.4v.7h-1.4v5.1l.2.4h1.3v.6h-1.4a.5.5,0,0,1-.5-.3l-.3-.5a2.2,2.2,0,0,1-.1-.9V42.3h-1.3v-.7h1.3V39.9Z"/><path class="cls-5" d="M147.8,42.3h-1.2a2.9,2.9,0,0,0-.9.9,3.3,3.3,0,0,0-.3.6v4.7h-.7V41.6h.7v1.1a1.8,1.8,0,0,1,.8-.9,2,2,0,0,1,1.1-.3h.5Z"/><path class="cls-5" d="M153.1,48.5c0-.1-.1-.3-.1-.4v-.6l-.4.5-.6.3-.6.2h-1.7l-.7-.4-.4-.6a2.4,2.4,0,0,1-.2-.8,2,2,0,0,1,.2-.9,2.3,2.3,0,0,1,.7-.7,2.5,2.5,0,0,1,.9-.4l1.3-.2H153v-.8a1.3,1.3,0,0,0-.5-1.1,1.7,1.7,0,0,0-1.3-.5l-.8.2a.5.5,0,0,0-.5.3.8.8,0,0,0-.4.4c-.1.2-.2.3-.2.5h-.7a1,1,0,0,1,.2-.7,1.8,1.8,0,0,1,.5-.7,2,2,0,0,1,.8-.4l1.1-.2h1l.8.5a1.3,1.3,0,0,1,.5.7,1.3,1.3,0,0,1,.2.9v3.7c0,.2,0,.3.1.4v.3a.4.4,0,0,1,.1.3h-.8Zm-2.4-.5.8-.2.6-.2c.2-.2.4-.3.5-.5a1,1,0,0,0,.4-.5V45.1h-2.4l-.8.3c-.2.1-.3.3-.5.5a1.3,1.3,0,0,0-.1.6.7.7,0,0,0,.1.5l.3.5.5.2Z"/><path class="cls-5" d="M158.1,44.7h-3v-.6h3Z"/><path class="cls-5" d="M161.3,46l.3,1.4.4-1.3,2-6.8h.7l2,6.8.3,1.4.3-1.5,1.7-6.7h.8l-2.4,9.2h-.7l-2.1-7.2-.3-.9-.2.9L162,48.5h-.8l-2.3-9.2h.8Z"/><path class="cls-5" d="M171.1,39.6a.4.4,0,0,1,.1-.3l.4-.2.4.2a.4.4,0,0,1,.1.3c0,.2,0,.3-.1.4l-.4.2-.4-.2C171.1,39.9,171.1,39.8,171.1,39.6Zm.9,8.9h-.8V41.6h.8Z"/><path class="cls-5" d="M173.7,45a5.9,5.9,0,0,1,.2-1.4,2.8,2.8,0,0,1,.5-1.1c.3-.3.5-.6.9-.7a2,2,0,0,1,1.1-.3,2.1,2.1,0,0,1,1.2.3,2.4,2.4,0,0,1,.9.8V38.7h.8v9.8h-.8v-.9a1.6,1.6,0,0,1-.9.7,2.1,2.1,0,0,1-1.2.3l-1.1-.2a3.1,3.1,0,0,1-.9-.7,4.3,4.3,0,0,1-.5-1.2,5.2,5.2,0,0,1-.2-1.4Zm.8.1a4.9,4.9,0,0,0,.1,1.2,3.6,3.6,0,0,0,.4.9c.1.2.4.4.6.6l.9.2h.7l.6-.3.4-.4.3-.5V43.5l-.3-.5a.8.8,0,0,0-.4-.4c-.2-.2-.3-.3-.5-.3h-.8a1.5,1.5,0,0,0-.9.2,1.2,1.2,0,0,0-.6.6,1.9,1.9,0,0,0-.4.9,3.7,3.7,0,0,0-.1,1.1Z"/><path class="cls-5" d="M183.9,48.6l-1.2-.2-1-.7a2.4,2.4,0,0,1-.6-1.1,2.8,2.8,0,0,1-.3-1.3V45a3.2,3.2,0,0,1,.3-1.4,2,2,0,0,1,.6-1.1,2.8,2.8,0,0,1,.9-.7,2.7,2.7,0,0,1,1.2-.3l1.1.2a2.2,2.2,0,0,1,.9.7,3.1,3.1,0,0,1,.5,1,5.1,5.1,0,0,1,.2,1.3v.4h-4.9v.2a1.8,1.8,0,0,0,.2,1,2.5,2.5,0,0,0,.4.9l.8.6.9.2,1.1-.2.9-.7.4.3-.4.5-.5.4-.7.2Zm-.1-6.4H183a1.8,1.8,0,0,0-.7.5,1.6,1.6,0,0,0-.4.7,2.9,2.9,0,0,0-.3,1h4.1a1.9,1.9,0,0,0-.1-.8,2,2,0,0,0-.4-.8c-.1-.2-.3-.3-.6-.5Z"/><path class="cls-5" d="M191.3,48.5V39.3h4a1.9,1.9,0,0,1,.9.4,1.6,1.6,0,0,1,.6.8,2,2,0,0,1,.3,1.1c0,.2-.1.4-.1.6a3.3,3.3,0,0,1-.3.6l-.5.5-.6.3a.9.9,0,0,1,.7.3c.3.1.4.3.6.5l.4.6c0,.3.1.5.1.8a3.6,3.6,0,0,1-.2,1.1l-.6.8a1.9,1.9,0,0,1-1,.5l-1.2.2Zm.8-5.1h2.1a2.1,2.1,0,0,0,1.5-.5,1.4,1.4,0,0,0,.6-1.2,1.7,1.7,0,0,0-.6-1.4,3.5,3.5,0,0,0-1.7-.4h-1.9Zm0,.7v3.7h3.2l.7-.4a1,1,0,0,0,.5-.6,1.9,1.9,0,0,0,.1-.8,1.7,1.7,0,0,0-.1-.7,2.1,2.1,0,0,0-.4-.6l-.7-.4h-3.3Z"/><path class="cls-5" d="M203.4,48.5a.6.6,0,0,0-.1-.4v-.6l-.4.5-.6.3-.6.2H200l-.7-.4-.4-.6a2.4,2.4,0,0,1-.2-.8,1.2,1.2,0,0,1,.3-.9,1.3,1.3,0,0,1,.6-.7,2.3,2.3,0,0,1,1-.4l1.3-.2h1.4v-.8a1.3,1.3,0,0,0-.5-1.1,1.7,1.7,0,0,0-1.3-.5l-.7.2a.6.6,0,0,0-.6.3.8.8,0,0,0-.4.4.9.9,0,0,0-.1.5h-.8a1.9,1.9,0,0,1,.2-.7,1.8,1.8,0,0,1,.5-.7l.9-.4,1-.2h1l.8.5c.3.1.4.4.5.7a1.3,1.3,0,0,1,.2.9v3.7a.8.8,0,0,1,.1.4.4.4,0,0,0,.1.3v.3h-.8ZM201,48l.8-.2.6-.2c.2-.2.4-.3.5-.5a1,1,0,0,0,.4-.5V45.1h-2.4l-.7.3a.8.8,0,0,0-.5.5,1.4,1.4,0,0,0-.2.6.7.7,0,0,0,.1.5l.3.5.5.2Z"/><path class="cls-5" d="M206.8,41.6v1.2l.4-.5.5-.4.6-.3H210l.7.5a5.9,5.9,0,0,1,.4.8,3.7,3.7,0,0,1,.1,1.1v4.5h-.7V44c0-.3-.1-.6-.1-.9a1,1,0,0,0-.4-.5.5.5,0,0,0-.5-.3h-1.4l-.6.4-.4.5-.3.6v4.7h-.7V41.6Z"/><path class="cls-5" d="M212.9,45a5.9,5.9,0,0,1,.2-1.4,2.8,2.8,0,0,1,.5-1.1,1.8,1.8,0,0,1,.8-.7,2.3,2.3,0,0,1,1.1-.3,2.5,2.5,0,0,1,1.3.3l.9.8V38.7h.7v9.8h-.7v-.9a1.6,1.6,0,0,1-.9.7,2.5,2.5,0,0,1-1.3.3l-1.1-.2a2.7,2.7,0,0,1-.8-.7,4.3,4.3,0,0,1-.5-1.2,5.2,5.2,0,0,1-.2-1.4Zm.8.1a4.9,4.9,0,0,0,.1,1.2l.3.9.7.6.9.2h.7l.5-.3.5-.4.3-.5V43.5l-.3-.5c-.1-.2-.3-.3-.4-.4a.9.9,0,0,0-.6-.3h-.7c-.4,0-.7,0-.9.2a1.3,1.3,0,0,0-.7.6,4.6,4.6,0,0,0-.3.9,3.7,3.7,0,0,0-.1,1.1Z"/><path class="cls-5" d="M223.8,48.5V39.3h4l.9.4a1.6,1.6,0,0,1,.6.8,3.6,3.6,0,0,1,.2,1.1,1.3,1.3,0,0,1-.1.6,1.1,1.1,0,0,1-.3.6l-.4.5-.6.3a1.1,1.1,0,0,1,.7.3l.6.5.3.6a2.2,2.2,0,0,1,.1.8,2,2,0,0,1-.2,1.1,1.6,1.6,0,0,1-.6.8,1.3,1.3,0,0,1-.9.5l-1.2.2Zm.7-5.1h2.2a2.5,2.5,0,0,0,1.5-.5,1.7,1.7,0,0,0,.5-1.2,2,2,0,0,0-.5-1.4,3.9,3.9,0,0,0-1.7-.4h-2Zm0,.7v3.7h3.3l.7-.4a.9.9,0,0,0,.4-.6,1.9,1.9,0,0,0,.2-.8,1.9,1.9,0,0,0-.2-.7l-.4-.6c-.1-.2-.4-.3-.6-.4h-3.4Z"/><path class="cls-5" d="M234.2,48.6l-1.2-.2-1-.7a2.4,2.4,0,0,1-.6-1.1,2.8,2.8,0,0,1-.3-1.3V45a3.2,3.2,0,0,1,.3-1.4,2,2,0,0,1,.6-1.1,2.8,2.8,0,0,1,.9-.7,2.7,2.7,0,0,1,1.2-.3l1.1.2a2.2,2.2,0,0,1,.9.7,3.1,3.1,0,0,1,.5,1,5.1,5.1,0,0,1,.2,1.3v.4h-4.9v.2a1.8,1.8,0,0,0,.2,1,2.5,2.5,0,0,0,.4.9l.8.6.9.2,1.1-.2.9-.7.4.3-.4.5-.5.4-.7.2Zm-.1-6.4h-.8a1.8,1.8,0,0,0-.7.5,1.6,1.6,0,0,0-.4.7,2.9,2.9,0,0,0-.3,1H236a1.9,1.9,0,0,0-.1-.8,2,2,0,0,0-.4-.8c-.1-.2-.3-.3-.6-.5Z"/><path class="cls-5" d="M242.6,48.5c0-.1-.1-.3-.1-.4v-.6l-.5.5-.5.3-.6.2h-1.7l-.7-.4-.4-.6a2.4,2.4,0,0,1-.2-.8,2,2,0,0,1,.2-.9l.6-.7,1-.4,1.3-.2h1.4v-.8a1.2,1.2,0,0,0-.4-1.1,1.7,1.7,0,0,0-1.3-.5l-.8.2a.5.5,0,0,0-.5.3.8.8,0,0,0-.4.4c-.1.2-.2.3-.2.5h-.7a1,1,0,0,1,.2-.7,1.8,1.8,0,0,1,.5-.7,2,2,0,0,1,.8-.4l1.1-.2h1l.8.5a1.3,1.3,0,0,1,.5.7,2.4,2.4,0,0,1,.2.9v3.7c0,.2,0,.3.1.4v.3c0,.1.1.2.1.3h-.8Zm-2.4-.5.8-.2.6-.2c.2-.2.4-.3.5-.5a.5.5,0,0,0,.3-.5V45.1h-2.3l-.8.3c-.2.1-.3.3-.5.5a1.3,1.3,0,0,0-.1.6.7.7,0,0,0,.1.5l.3.5.5.2Z"/><path class="cls-5" d="M247.8,48h.7l.6-.3.4-.5a1.9,1.9,0,0,0,.2-.7h.7a2.9,2.9,0,0,1-.2.9l-.6.7-.8.5h-1l-1.3-.2a2.4,2.4,0,0,1-.9-.8,2,2,0,0,1-.6-1.1,5.1,5.1,0,0,1-.2-1.3v-.3a5.1,5.1,0,0,1,.2-1.3,2.4,2.4,0,0,1,.6-1.1,1.6,1.6,0,0,1,.9-.7,2.8,2.8,0,0,1,1.3-.3l1,.2.8.5.6.7a3.6,3.6,0,0,1,.2,1h-.7a1.9,1.9,0,0,0-.2-.7,2.1,2.1,0,0,0-.4-.6l-.6-.3h-.7a1.5,1.5,0,0,0-1,.2,1.3,1.3,0,0,0-.7.6,2.5,2.5,0,0,0-.4.9,3.4,3.4,0,0,0-.1,1v.3a4.1,4.1,0,0,0,.1,1.1,2,2,0,0,0,.4.8,2.3,2.3,0,0,0,.7.7Z"/><path class="cls-5" d="M251.5,45a5.9,5.9,0,0,1,.2-1.4l.6-1.1a2.3,2.3,0,0,1,1-.7,2.8,2.8,0,0,1,1.3-.3,2.4,2.4,0,0,1,1.2.3,2.3,2.3,0,0,1,1,.7,2.4,2.4,0,0,1,.6,1.1,3.2,3.2,0,0,1,.2,1.4v.2a3.4,3.4,0,0,1-.2,1.4,3,3,0,0,1-.6,1.1l-1,.7-1.2.2-1.3-.2-1-.7-.6-1.1a6.8,6.8,0,0,1-.2-1.4Zm.8.2a3.4,3.4,0,0,0,.1,1,1.9,1.9,0,0,0,.5.9,2.3,2.3,0,0,0,.7.7l1,.2,1-.2a2.3,2.3,0,0,0,.7-.7,1.9,1.9,0,0,0,.4-.9,3.6,3.6,0,0,0,.2-1V45a3.6,3.6,0,0,0-.2-1.1,3.6,3.6,0,0,0-.4-.9,1.9,1.9,0,0,0-.7-.6,1.8,1.8,0,0,0-1-.2,1.6,1.6,0,0,0-1,.2,1.3,1.3,0,0,0-.7.6,4.1,4.1,0,0,0-.5.9,3.7,3.7,0,0,0-.1,1.1Z"/><path class="cls-5" d="M259.9,41.6v1.2a2.9,2.9,0,0,1,.9-.9l.6-.3h1.6a1.8,1.8,0,0,1,.7.5,2,2,0,0,1,.4.8,3.6,3.6,0,0,1,.2,1.1v4.5h-.8V44a2.8,2.8,0,0,0-.1-.9l-.3-.5a.5.5,0,0,0-.5-.3h-1.4l-.6.4a1,1,0,0,0-.4.5.9.9,0,0,0-.3.6v4.7h-.8V41.6Z"/><path class="cls-5" d="M270.5,46.8c0-.2-.1-.3-.1-.5l-.3-.4-.5-.3-1-.3-1-.3-.7-.4a.8.8,0,0,1-.5-.5,1.3,1.3,0,0,1,0-1.4,1,1,0,0,1,.5-.6l.7-.4,1-.2,1.1.2a2,2,0,0,1,.8.4l.5.6a2.9,2.9,0,0,1,.2.9h-.8a1.3,1.3,0,0,0-.1-.6l-.3-.4-.6-.3h-1.5l-.5.2c-.2.2-.3.3-.3.4a.9.9,0,0,0-.1.5.8.8,0,0,0,.1.4c0,.1.1.2.2.3l.6.3.9.3,1.1.3.7.4.5.6a1.5,1.5,0,0,1,.1.7,1.1,1.1,0,0,1-.2.8,1.3,1.3,0,0,1-.5.6,2,2,0,0,1-.8.4h-2.2l-.8-.5a1.8,1.8,0,0,1-.5-.7,1.9,1.9,0,0,1-.2-.7h.8a1,1,0,0,0,.2.7c.1.1.2.3.4.4l.6.2h1.5l.5-.3c.2-.1.3-.2.3-.4A.8.8,0,0,0,270.5,46.8Z"/></g></g></svg>