<svg xmlns="http://www.w3.org/2000/svg" viewBox="0 0 1920 1080"><defs><style>.cls-1{fill:#fff;}.cls-11,.cls-12,.cls-2,.cls-3,.cls-5,.cls-7,.cls-8{fill:none;stroke-miterlimit:10;}.cls-2{stroke:#b6b6b7;}.cls-2,.cls-5{stroke-width:3px;}.cls-3{stroke:#000;stroke-width:2px;}.cls-4{fill:#2a3fd8;}.cls-5{stroke:#f66;}.cls-6{fill:#b6b6b7;}.cls-11,.cls-7{stroke:#2a3fd8;}.cls-7,.cls-8{stroke-width:4px;}.cls-12,.cls-8{stroke:#8598f9;}.cls-9{fill:#8598f9;}.cls-10{fill:#f66;}.cls-11,.cls-12{stroke-width:10px;}</style></defs><title>MDS - Partial Simulation Drawing</title><g id="Layer_2" data-name="Layer 2"><g id="Other_Layers" data-name="Other Layers"><rect class="cls-1" width="1920" height="1080"/><rect class="cls-2" x="209.6" y="660.8" width="140.8" height="140.8"/><rect class="cls-2" x="209.6" y="518.6" width="281.6" height="281.59"/><rect class="cls-2" x="209.6" y="379.2" width="422.4" height="422.39"/><rect class="cls-2" x="209.6" y="237" width="563.2" height="563.19"/><rect class="cls-3" x="209.6" y="196.2" width="816.6" height="605.43"/><circle class="cls-4" cx="1026.2" cy="196.2" r="28.9"/><circle class="cls-4" cx="1026.2" cy="801.6" r="28.9"/><circle class="cls-5" cx="772.8" cy="237" r="28.9"/><circle class="cls-5" cx="491.2" cy="518.6" r="28.9"/><circle class="cls-5" cx="350.4" cy="660.8" r="28.9"/><line class="cls-3" x1="209.6" y1="883.1" x2="1026.2" y2="883.1"/><line class="cls-3" x1="115.4" y1="196.2" x2="115.4" y2="801.6"/><rect class="cls-1" x="563.4" y="853.6" width="137.3" height="59.13"/><path d="M573.2,884.1l1.8-16.8h17.6v5.4h-12l-.7,6.3a5.1,5.1,0,0,1,2.1-1,12.7,12.7,0,0,1,2.9-.4,7.5,7.5,0,0,1,6.4,2.6c1.5,1.7,2.3,4.2,2.3,7.5a10.9,10.9,0,0,1-2.5,7.2c-1.7,1.9-4.4,2.9-8,2.9a12.5,12.5,0,0,1-7.4-2.3,7,7,0,0,1-3.1-6h.1l6.8-.4a3,3,0,0,0,1,2.5,3.7,3.7,0,0,0,2.6.9,2.9,2.9,0,0,0,2.7-1.2,5.5,5.5,0,0,0,.8-3.5,7.5,7.5,0,0,0-.9-3.9,3.1,3.1,0,0,0-2.8-1.4,3.6,3.6,0,0,0-2.2.6,2.9,2.9,0,0,0-1.2,1.5Z"/><path d="M617.5,875.2a7,7,0,0,1-1.1,3.8,7.7,7.7,0,0,1-3,2.7,10.1,10.1,0,0,1,3.8,2.9,7.4,7.4,0,0,1,1.4,4.3,7.5,7.5,0,0,1-3.1,6.5,11.7,11.7,0,0,1-7.6,2.4,13,13,0,0,1-8.1-2.4,7.5,7.5,0,0,1-3.1-6.5,7.4,7.4,0,0,1,1.4-4.3,10.1,10.1,0,0,1,4-2.9,7.1,7.1,0,0,1-3.2-2.7,6.3,6.3,0,0,1-1.1-3.8,7.5,7.5,0,0,1,2.7-6.2,11.9,11.9,0,0,1,7.3-2.1,11,11,0,0,1,7,2.1A7.5,7.5,0,0,1,617.5,875.2Zm-5.9,13.3a4,4,0,0,0-1.1-2.9,3.3,3.3,0,0,0-2.7-1.1,3.6,3.6,0,0,0-2.9,1.1,3.7,3.7,0,0,0-1.2,2.9,3.8,3.8,0,0,0,1.2,2.9,4,4,0,0,0,3,1,3.5,3.5,0,0,0,2.6-1A4,4,0,0,0,611.6,888.5Zm-1.1-13a3.6,3.6,0,0,0-.7-2.4,2.5,2.5,0,0,0-2-.9,2.8,2.8,0,0,0-2.2.9,3.2,3.2,0,0,0-.8,2.4,3.5,3.5,0,0,0,.8,2.6,2.6,2.6,0,0,0,2.3,1,2.2,2.2,0,0,0,1.9-1A4,4,0,0,0,610.5,875.5Z"/><path d="M641.7,892.4a2.3,2.3,0,0,0,2.1-.8,2.9,2.9,0,0,0,.7-2.2h6.4a7.4,7.4,0,0,1-2.5,6,9.9,9.9,0,0,1-6.7,2.3,9.7,9.7,0,0,1-7.8-3.2,11.7,11.7,0,0,1-2.8-8.2V886a11.7,11.7,0,0,1,2.8-8.2,9.7,9.7,0,0,1,7.8-3.2,9.6,9.6,0,0,1,6.8,2.4,7.9,7.9,0,0,1,2.4,6.4v.2h-6.4a4,4,0,0,0-.7-2.6,2.4,2.4,0,0,0-2.1-1,2.7,2.7,0,0,0-2.8,1.6,9.1,9.1,0,0,0-.8,4.4v.4a8.9,8.9,0,0,0,.8,4.4A2.7,2.7,0,0,0,641.7,892.4Z"/><path d="M660.3,875l.3,3a7.7,7.7,0,0,1,2.6-2.5,7.5,7.5,0,0,1,3.7-.9,6.9,6.9,0,0,1,3.6.9,5.9,5.9,0,0,1,2.3,2.8,6.2,6.2,0,0,1,2.6-2.7,6.7,6.7,0,0,1,3.8-1,6,6,0,0,1,5.1,2.4c1.3,1.5,1.9,3.9,1.9,7.2v13.1h-7V884.2a5.4,5.4,0,0,0-.7-3.3,2.3,2.3,0,0,0-2-.9,4.8,4.8,0,0,0-1.8.3l-1.3,1v.6a1.3,1.3,0,0,1,.1.6v14.8h-7V884.2a5.4,5.4,0,0,0-.7-3.3,2.3,2.3,0,0,0-2-.9,4.7,4.7,0,0,0-1.7.3,3.4,3.4,0,0,0-1.3,1v16h-7V875Z"/><rect class="cls-1" x="46.8" y="460.2" width="137.3" height="59.13"/><path d="M74.5,492.2h3v5.4h-3V504h-7v-6.4H55.6l-.4-4.3L67.5,474h7Zm-13.4,0h6.4v-9.3h-.1l-.8,1.5Z"/><path d="M90.6,486a3.6,3.6,0,0,0,2.8-1,3.6,3.6,0,0,0,1.1-2.8,3.4,3.4,0,0,0-1.1-2.4,4.1,4.1,0,0,0-2.8-.9,3.4,3.4,0,0,0-2.2.7,2.7,2.7,0,0,0-.9,2.1H80.7v-.2a6.6,6.6,0,0,1,2.8-5.8,11.3,11.3,0,0,1,7.1-2.2,12.8,12.8,0,0,1,7.9,2.2,7.7,7.7,0,0,1,2.9,6.4,6.3,6.3,0,0,1-1.2,3.7,8.2,8.2,0,0,1-3.4,2.7,8.3,8.3,0,0,1,3.8,2.7A8,8,0,0,1,98.7,502a13,13,0,0,1-8.1,2.4,11.9,11.9,0,0,1-7.3-2.2,7.3,7.3,0,0,1-3.1-6.4v-.2H87a3.4,3.4,0,0,0,1.1,2.5,3.5,3.5,0,0,0,2.5.9,4.5,4.5,0,0,0,3.1-1,3.4,3.4,0,0,0,1.2-2.6,4.3,4.3,0,0,0-1.1-3.2,4.7,4.7,0,0,0-3.2-1H87.3V486Z"/><path d="M125.1,499a2.9,2.9,0,0,0,2.2-.7,3.9,3.9,0,0,0,.7-2.3h6.4a7.3,7.3,0,0,1-2.6,6,9.7,9.7,0,0,1-6.7,2.3,10,10,0,0,1-7.8-3.1,12.3,12.3,0,0,1-2.8-8.2v-.5a12.1,12.1,0,0,1,2.8-8.2,9.7,9.7,0,0,1,7.8-3.2,9.6,9.6,0,0,1,6.8,2.4,8.4,8.4,0,0,1,2.5,6.5H128a4.2,4.2,0,0,0-.8-2.6,2.2,2.2,0,0,0-2.1-1,2.8,2.8,0,0,0-2.8,1.6,10.5,10.5,0,0,0-.8,4.4v.5a10,10,0,0,0,.8,4.3A2.8,2.8,0,0,0,125.1,499Z"/><path d="M143.8,481.6l.2,3a7.4,7.4,0,0,1,6.3-3.4,6.9,6.9,0,0,1,3.6.9,5.8,5.8,0,0,1,2.3,2.8,7.5,7.5,0,0,1,2.6-2.7,8,8,0,0,1,3.8-1,6,6,0,0,1,5.1,2.4c1.3,1.5,1.9,3.9,1.9,7.2V504h-7V490.8a5.4,5.4,0,0,0-.7-3.3,2.3,2.3,0,0,0-2-.9,3.3,3.3,0,0,0-1.7.4,2.8,2.8,0,0,0-1.4,1c0,.2.1.4.1.6V504h-7V490.8a6.4,6.4,0,0,0-.6-3.3,2.6,2.6,0,0,0-2.1-.9,3.3,3.3,0,0,0-1.7.4,2.6,2.6,0,0,0-1.3,1v16h-7V481.6Z"/><rect class="cls-1" x="317.1" y="731" width="68.6" height="29.57"/><path class="cls-6" d="M329.5,752.9H326V740.8h-3v-2.6l6.5-.6Z"/><path class="cls-6" d="M344.4,747.3a6.5,6.5,0,0,1-1.4,4.3,5,5,0,0,1-3.8,1.5,4.9,4.9,0,0,1-3.8-1.5,6.1,6.1,0,0,1-1.5-4.3v-3.9a5.7,5.7,0,0,1,1.5-4.2,4.6,4.6,0,0,1,3.8-1.6,4.9,4.9,0,0,1,3.8,1.6,6.1,6.1,0,0,1,1.4,4.2Zm-3.5-4.2a4.1,4.1,0,0,0-.4-2.1,1.9,1.9,0,0,0-1.3-.7,1.6,1.6,0,0,0-1.3.7,4.1,4.1,0,0,0-.5,2.1v4.5a4.1,4.1,0,0,0,.5,2.1,1.4,1.4,0,0,0,1.3.7,1.5,1.5,0,0,0,1.3-.7,4.1,4.1,0,0,0,.4-2.1Z"/><path class="cls-6" d="M356.3,750.4a1.4,1.4,0,0,0,1.1-.4,1.6,1.6,0,0,0,.3-1.1h3.2a3.7,3.7,0,0,1-1.2,2.9,4.9,4.9,0,0,1-3.4,1.2,4.7,4.7,0,0,1-3.9-1.6,6,6,0,0,1-1.4-4.1v-.2a6,6,0,0,1,1.4-4.1,4.7,4.7,0,0,1,3.9-1.6,4.9,4.9,0,0,1,3.4,1.2,4.2,4.2,0,0,1,1.2,3.2h-3.2a2.3,2.3,0,0,0-.3-1.3,1.2,1.2,0,0,0-1.1-.5,1.4,1.4,0,0,0-1.4.8,4.6,4.6,0,0,0-.4,2.2v.2a4.6,4.6,0,0,0,.4,2.2A1.4,1.4,0,0,0,356.3,750.4Z"/><path class="cls-6" d="M365.6,741.7v1.5a3.5,3.5,0,0,1,1.4-1.3,3.8,3.8,0,0,1,3.6.1,2.4,2.4,0,0,1,1.1,1.3,4.4,4.4,0,0,1,1.4-1.3,3.6,3.6,0,0,1,1.9-.5,3,3,0,0,1,2.5,1.2,6,6,0,0,1,.9,3.6v6.6h-3.4v-6.6a3.2,3.2,0,0,0-.4-1.7,1.1,1.1,0,0,0-1-.4,1.5,1.5,0,0,0-.9.2,1.5,1.5,0,0,0-.6.5v8h-3.5v-6.6a3.4,3.4,0,0,0-.3-1.7,1.4,1.4,0,0,0-1.1-.4,1.1,1.1,0,0,0-.8.2,1.8,1.8,0,0,0-.7.5v8h-3.5V741.7Z"/><rect class="cls-1" x="456.9" y="731" width="68.6" height="29.57"/><path class="cls-6" d="M472,752.9H461.6v-2.3l4.6-5.1a7,7,0,0,0,1.4-1.9,2.7,2.7,0,0,0,.4-1.4,2.1,2.1,0,0,0-.4-1.4,1.6,1.6,0,0,0-2.5.2,2.9,2.9,0,0,0-.4,1.7h-3.5a4.8,4.8,0,0,1,1.4-3.5,5,5,0,0,1,3.8-1.5,5.6,5.6,0,0,1,3.8,1.2,4.5,4.5,0,0,1,1.3,3.4,4.3,4.3,0,0,1-.7,2.5,35.3,35.3,0,0,1-2.7,3.2l-1.9,2.2H472Z"/><path class="cls-6" d="M484.1,747.3a6,6,0,0,1-1.4,4.3,4.9,4.9,0,0,1-3.8,1.5,5,5,0,0,1-3.8-1.5,6.5,6.5,0,0,1-1.4-4.3v-3.9a6.1,6.1,0,0,1,1.4-4.2,5.3,5.3,0,0,1,7.6,0,5.6,5.6,0,0,1,1.4,4.2Zm-3.4-4.2a4.1,4.1,0,0,0-.5-2.1,1.6,1.6,0,0,0-1.3-.7,1.7,1.7,0,0,0-1.3.7,4.1,4.1,0,0,0-.4,2.1v4.5a4.1,4.1,0,0,0,.4,2.1,1.5,1.5,0,0,0,1.3.7,1.4,1.4,0,0,0,1.3-.7,4.1,4.1,0,0,0,.5-2.1Z"/><path class="cls-6" d="M496.1,750.4a1.2,1.2,0,0,0,1-.4,1.2,1.2,0,0,0,.4-1.1h3.2a3.5,3.5,0,0,1-1.3,2.9,4.8,4.8,0,0,1-3.3,1.2,5.1,5.1,0,0,1-4-1.6,5.9,5.9,0,0,1-1.3-4.1v-.2a5.9,5.9,0,0,1,1.3-4.1,4.7,4.7,0,0,1,3.9-1.6,4.5,4.5,0,0,1,3.4,1.2,3.9,3.9,0,0,1,1.3,3.2h-3.2a2.2,2.2,0,0,0-.4-1.3c-.2-.4-.6-.5-1.1-.5a1.6,1.6,0,0,0-1.4.8,6.2,6.2,0,0,0-.4,2.2v.2a6.2,6.2,0,0,0,.4,2.2A1.6,1.6,0,0,0,496.1,750.4Z"/><path class="cls-6" d="M505.4,741.7v1.5a3.3,3.3,0,0,1,1.3-1.3,3.9,3.9,0,0,1,1.8-.4,3.5,3.5,0,0,1,1.8.5,3,3,0,0,1,1.2,1.3,4,4,0,0,1,1.3-1.3,3.8,3.8,0,0,1,1.9-.5,3.2,3.2,0,0,1,2.6,1.2,6,6,0,0,1,.9,3.6v6.6h-3.5v-6.6a3.4,3.4,0,0,0-.3-1.7,1.3,1.3,0,0,0-1-.4c-.4,0-.7,0-.9.2a1.8,1.8,0,0,0-.7.5v8h-3.5v-6.6a3.4,3.4,0,0,0-.3-1.7,1.1,1.1,0,0,0-1-.4,1.5,1.5,0,0,0-.9.2l-.6.5v8h-3.5V741.7Z"/><rect class="cls-1" x="597.7" y="731" width="68.6" height="29.57"/><path class="cls-6" d="M607.3,743.9a2.3,2.3,0,0,0,1.5-.5,2,2,0,0,0,.5-1.4,1.7,1.7,0,0,0-.5-1.2,2.2,2.2,0,0,0-1.4-.5,1.4,1.4,0,0,0-1.1.4,1.1,1.1,0,0,0-.5,1h-3.4a3.4,3.4,0,0,1,1.4-3,6.1,6.1,0,0,1,3.6-1.1,6.1,6.1,0,0,1,3.9,1.2,3.6,3.6,0,0,1,1.5,3.1,3.4,3.4,0,0,1-.7,1.9,4.4,4.4,0,0,1-1.6,1.4,3,3,0,0,1,1.8,1.3,3.2,3.2,0,0,1,.7,2.2,3.8,3.8,0,0,1-1.6,3.2,6.3,6.3,0,0,1-4,1.2,6.5,6.5,0,0,1-3.7-1.1,3.4,3.4,0,0,1-1.5-3.2h3.4a1.3,1.3,0,0,0,.5,1.2,1.7,1.7,0,0,0,1.3.5,2.5,2.5,0,0,0,1.5-.5,1.8,1.8,0,0,0,.6-1.3,2,2,0,0,0-.6-1.6,2.3,2.3,0,0,0-1.6-.5h-1.6v-2.6Z"/><path class="cls-6" d="M624.9,747.3a6,6,0,0,1-1.4,4.3,4.9,4.9,0,0,1-3.8,1.5,5,5,0,0,1-3.8-1.5,6.5,6.5,0,0,1-1.4-4.3v-3.9a6.1,6.1,0,0,1,1.4-4.2,5.3,5.3,0,0,1,7.6,0,5.6,5.6,0,0,1,1.4,4.2Zm-3.4-4.2a4.1,4.1,0,0,0-.5-2.1,1.6,1.6,0,0,0-2.6,0,4.1,4.1,0,0,0-.4,2.1v4.5a4.1,4.1,0,0,0,.4,2.1,1.5,1.5,0,0,0,1.3.7,1.4,1.4,0,0,0,1.3-.7,4.1,4.1,0,0,0,.5-2.1Z"/><path class="cls-6" d="M636.9,750.4a1.2,1.2,0,0,0,1-.4,1.2,1.2,0,0,0,.4-1.1h3.2a3.5,3.5,0,0,1-1.3,2.9,4.8,4.8,0,0,1-3.3,1.2,4.9,4.9,0,0,1-4-1.6,5.9,5.9,0,0,1-1.3-4.1v-.2a5.9,5.9,0,0,1,1.3-4.1,5.5,5.5,0,0,1,7.3-.4,3.9,3.9,0,0,1,1.3,3.2h-3.2a2.2,2.2,0,0,0-.4-1.3c-.2-.4-.6-.5-1.1-.5a1.6,1.6,0,0,0-1.4.8,6.2,6.2,0,0,0-.4,2.2v.2a6.2,6.2,0,0,0,.4,2.2A1.6,1.6,0,0,0,636.9,750.4Z"/><path class="cls-6" d="M646.2,741.7v1.5a3.3,3.3,0,0,1,1.3-1.3,3.7,3.7,0,0,1,1.8-.4,3.5,3.5,0,0,1,1.8.5,3,3,0,0,1,1.2,1.3,4,4,0,0,1,1.3-1.3,3.8,3.8,0,0,1,1.9-.5,3.2,3.2,0,0,1,2.6,1.2,6,6,0,0,1,.9,3.6v6.6h-3.5v-6.6a3.4,3.4,0,0,0-.3-1.7,1.3,1.3,0,0,0-1-.4c-.4,0-.7,0-.9.2a1.8,1.8,0,0,0-.7.5v8h-3.5v-6.6a3.4,3.4,0,0,0-.3-1.7,1.2,1.2,0,0,0-1-.4,1.5,1.5,0,0,0-.9.2l-.6.5v8h-3.5V741.7Z"/><rect class="cls-1" x="738.5" y="731" width="68.6" height="29.57"/><path class="cls-6" d="M752.3,747h1.5v2.7h-1.5v3.2h-3.5v-3.2h-5.9l-.2-2.1,6.1-9.7h3.5Zm-6.6,0h3.1v-4.7h0l-.4.8Z"/><path class="cls-6" d="M765.7,747.3a6,6,0,0,1-1.4,4.3,4.9,4.9,0,0,1-3.8,1.5,5,5,0,0,1-3.8-1.5,6.5,6.5,0,0,1-1.4-4.3v-3.9a6.1,6.1,0,0,1,1.4-4.2,5.3,5.3,0,0,1,7.6,0,5.6,5.6,0,0,1,1.4,4.2Zm-3.4-4.2a4.1,4.1,0,0,0-.5-2.1,1.6,1.6,0,0,0-2.6,0,4.1,4.1,0,0,0-.4,2.1v4.5a4.1,4.1,0,0,0,.4,2.1,1.5,1.5,0,0,0,1.3.7,1.4,1.4,0,0,0,1.3-.7,4.1,4.1,0,0,0,.5-2.1Z"/><path class="cls-6" d="M777.7,750.4a1.2,1.2,0,0,0,1-.4,1.6,1.6,0,0,0,.4-1.1h3.2a3.5,3.5,0,0,1-1.3,2.9,4.8,4.8,0,0,1-3.3,1.2,4.9,4.9,0,0,1-4-1.6,5.9,5.9,0,0,1-1.3-4.1v-.2a5.9,5.9,0,0,1,1.3-4.1,5.5,5.5,0,0,1,7.3-.4,3.9,3.9,0,0,1,1.3,3.2h-3.2a2.2,2.2,0,0,0-.4-1.3c-.2-.4-.6-.5-1.1-.5a1.6,1.6,0,0,0-1.4.8,6.2,6.2,0,0,0-.4,2.2v.2a6.2,6.2,0,0,0,.4,2.2A1.6,1.6,0,0,0,777.7,750.4Z"/><path class="cls-6" d="M787,741.7v1.5a3.3,3.3,0,0,1,1.3-1.3,3.7,3.7,0,0,1,1.8-.4,3.5,3.5,0,0,1,1.8.5,3,3,0,0,1,1.2,1.3,4,4,0,0,1,1.3-1.3,3.8,3.8,0,0,1,1.9-.5,3.2,3.2,0,0,1,2.6,1.2,6,6,0,0,1,.9,3.6v6.6h-3.5v-6.6a3.4,3.4,0,0,0-.3-1.7,1.4,1.4,0,0,0-1.1-.4,1.1,1.1,0,0,0-.8.2,1.8,1.8,0,0,0-.7.5v8H790v-6.6a3.4,3.4,0,0,0-.3-1.7,1.2,1.2,0,0,0-1-.4,1.5,1.5,0,0,0-.9.2,1.5,1.5,0,0,0-.6.5v8h-3.5V741.7Z"/><rect class="cls-1" x="229.8" y="646" width="68.6" height="29.57"/><path class="cls-6" d="M242.2,667.9h-3.5v-12h-3v-2.7l6.5-.5Z"/><path class="cls-6" d="M257.1,662.4a6.1,6.1,0,0,1-1.4,4.2,5,5,0,0,1-3.8,1.5,4.9,4.9,0,0,1-3.8-1.5,5.6,5.6,0,0,1-1.4-4.2v-4a5.6,5.6,0,0,1,1.4-4.2,4.9,4.9,0,0,1,3.8-1.5,5.2,5.2,0,0,1,3.8,1.5,6.1,6.1,0,0,1,1.4,4.2Zm-3.5-4.2a4.1,4.1,0,0,0-.4-2.1,1.6,1.6,0,0,0-1.3-.7,1.4,1.4,0,0,0-1.3.7,4.1,4.1,0,0,0-.5,2.1v4.4a3.6,3.6,0,0,0,.5,2.1,1.4,1.4,0,0,0,1.3.8,1.6,1.6,0,0,0,1.3-.8,3.7,3.7,0,0,0,.4-2.1Z"/><path class="cls-6" d="M269,665.5a1.8,1.8,0,0,0,1.1-.4,2.1,2.1,0,0,0,.3-1.2h3.2a3.7,3.7,0,0,1-1.2,3,4.8,4.8,0,0,1-3.4,1.1,5,5,0,0,1-3.9-1.5,6.4,6.4,0,0,1-1.4-4.1v-.3a6.2,6.2,0,0,1,1.4-4.1,5,5,0,0,1,3.9-1.5,4.8,4.8,0,0,1,3.4,1.1,4.1,4.1,0,0,1,1.2,3.3h-3.2a2.8,2.8,0,0,0-.3-1.3,1.4,1.4,0,0,0-1.1-.5,1.5,1.5,0,0,0-1.4.8,4.8,4.8,0,0,0-.4,2.2v.3a4.8,4.8,0,0,0,.4,2.2A1.5,1.5,0,0,0,269,665.5Z"/><path class="cls-6" d="M278.3,656.8l.2,1.4a3,3,0,0,1,1.3-1.2,4.2,4.2,0,0,1,3.6,0,2.6,2.6,0,0,1,1.1,1.4,4.7,4.7,0,0,1,1.4-1.4,3.6,3.6,0,0,1,1.9-.4,3,3,0,0,1,2.5,1.1,5.9,5.9,0,0,1,1,3.6v6.6h-3.5v-6.6a2.8,2.8,0,0,0-.4-1.6,1.1,1.1,0,0,0-1-.5l-.9.2a1.5,1.5,0,0,0-.6.5v8h-3.5v-6.6a3,3,0,0,0-.3-1.6,1.2,1.2,0,0,0-1-.5l-.9.2a1.8,1.8,0,0,0-.7.5v8h-3.4V656.8Z"/><rect class="cls-1" x="233.5" y="503.8" width="68.6" height="29.57"/><path class="cls-6" d="M248.7,525.7H238.3v-2.3l4.6-5a15,15,0,0,0,1.4-1.9,5.1,5.1,0,0,0,.4-1.4,2,2,0,0,0-.4-1.4,1.7,1.7,0,0,0-2.5.1,3.1,3.1,0,0,0-.5,1.7h-3.4a4.8,4.8,0,0,1,1.4-3.6,5.1,5.1,0,0,1,3.7-1.4,5.4,5.4,0,0,1,3.8,1.2,4.2,4.2,0,0,1,1.4,3.3,4.7,4.7,0,0,1-.8,2.6,35.3,35.3,0,0,1-2.7,3.2l-1.8,2.2h5.8Z"/><path class="cls-6" d="M260.8,520.2a6.1,6.1,0,0,1-1.4,4.2,5,5,0,0,1-3.8,1.5,4.9,4.9,0,0,1-3.8-1.5,5.7,5.7,0,0,1-1.5-4.2v-4a5.7,5.7,0,0,1,1.5-4.2,4.9,4.9,0,0,1,3.8-1.5,5.2,5.2,0,0,1,3.8,1.5,6.1,6.1,0,0,1,1.4,4.2Zm-3.5-4.2a4.1,4.1,0,0,0-.4-2.1,1.6,1.6,0,0,0-1.3-.7,1.4,1.4,0,0,0-1.3.7,4.1,4.1,0,0,0-.5,2.1v4.4a3.8,3.8,0,0,0,.5,2.1,1.4,1.4,0,0,0,1.3.7,1.5,1.5,0,0,0,1.3-.7,3.9,3.9,0,0,0,.4-2.1Z"/><path class="cls-6" d="M272.7,523.2a1.8,1.8,0,0,0,1.1-.3,2.1,2.1,0,0,0,.3-1.2h3.2a3.7,3.7,0,0,1-1.2,3,5.3,5.3,0,0,1-3.4,1.1,5,5,0,0,1-3.9-1.5,6.4,6.4,0,0,1-1.4-4.1V520a6.2,6.2,0,0,1,1.4-4.1,5,5,0,0,1,3.9-1.5,4.8,4.8,0,0,1,3.4,1.1,4.1,4.1,0,0,1,1.2,3.3h-3.2a2.8,2.8,0,0,0-.3-1.3,1.4,1.4,0,0,0-1.1-.5,1.5,1.5,0,0,0-1.4.8,4.8,4.8,0,0,0-.4,2.2v.3a4.8,4.8,0,0,0,.4,2.2A1.4,1.4,0,0,0,272.7,523.2Z"/><path class="cls-6" d="M282,514.6l.2,1.4a3,3,0,0,1,1.3-1.2,4.3,4.3,0,0,1,3.6,0,2.6,2.6,0,0,1,1.1,1.4,3.8,3.8,0,0,1,1.4-1.4,3.6,3.6,0,0,1,1.9-.4,3,3,0,0,1,2.5,1.1,6,6,0,0,1,.9,3.6v6.6h-3.4v-6.6a2.8,2.8,0,0,0-.4-1.6,1.1,1.1,0,0,0-1-.5l-.9.2a1.5,1.5,0,0,0-.6.5v8h-3.5v-6.6a3,3,0,0,0-.3-1.6,1.4,1.4,0,0,0-1.1-.5l-.8.2a1.8,1.8,0,0,0-.7.5v8h-3.5V514.6Z"/><rect class="cls-1" x="233.5" y="364.4" width="68.6" height="29.57"/><path class="cls-6" d="M243.2,377.4a2,2,0,0,0,1.4-.5,1.7,1.7,0,0,0,.5-1.4,1.3,1.3,0,0,0-.5-1.2,1.6,1.6,0,0,0-1.4-.5,1.5,1.5,0,0,0-1.1.4,1.2,1.2,0,0,0-.4,1h-3.4a3.2,3.2,0,0,1,1.4-2.9,5.6,5.6,0,0,1,3.5-1.1,6.2,6.2,0,0,1,3.9,1.1,3.8,3.8,0,0,1,1.5,3.2,3.3,3.3,0,0,1-.6,1.9,4.5,4.5,0,0,1-1.7,1.3,4.6,4.6,0,0,1,1.9,1.3,4,4,0,0,1-.9,5.5,7.3,7.3,0,0,1-4.1,1.1,6,6,0,0,1-3.7-1.1,3.7,3.7,0,0,1-1.5-3.2h3.4a1.8,1.8,0,0,0,.5,1.2,2.2,2.2,0,0,0,2.9-.1,1.5,1.5,0,0,0,.6-1.3,1.8,1.8,0,0,0-.6-1.5,2.1,2.1,0,0,0-1.6-.5h-1.7v-2.6Z"/><path class="cls-6" d="M260.8,380.8a6.1,6.1,0,0,1-1.4,4.2,5,5,0,0,1-3.8,1.5,4.9,4.9,0,0,1-3.8-1.5,5.7,5.7,0,0,1-1.5-4.2v-4a5.7,5.7,0,0,1,1.5-4.2,4.9,4.9,0,0,1,3.8-1.5,5.2,5.2,0,0,1,3.8,1.5,6.1,6.1,0,0,1,1.4,4.2Zm-3.5-4.2a4.1,4.1,0,0,0-.4-2.1,1.6,1.6,0,0,0-1.3-.7,1.4,1.4,0,0,0-1.3.7,4.1,4.1,0,0,0-.5,2.1V381a3.6,3.6,0,0,0,.5,2.1,1.4,1.4,0,0,0,1.3.8,1.6,1.6,0,0,0,1.3-.8,3.7,3.7,0,0,0,.4-2.1Z"/><path class="cls-6" d="M272.7,383.9a1.8,1.8,0,0,0,1.1-.4,2,2,0,0,0,.3-1.1h3.2a3.7,3.7,0,0,1-1.2,3,4.8,4.8,0,0,1-3.4,1.1,5,5,0,0,1-3.9-1.5,6.2,6.2,0,0,1-1.4-4.1v-.3a6.4,6.4,0,0,1,1.4-4.1,5,5,0,0,1,3.9-1.5,5.3,5.3,0,0,1,3.4,1.1,4.1,4.1,0,0,1,1.2,3.3h-3.2a2.8,2.8,0,0,0-.3-1.3,1.4,1.4,0,0,0-1.1-.5,1.4,1.4,0,0,0-1.4.9,4.1,4.1,0,0,0-.4,2.1v.3a4.8,4.8,0,0,0,.4,2.2A1.5,1.5,0,0,0,272.7,383.9Z"/><path class="cls-6" d="M282,375.2l.2,1.4a3,3,0,0,1,1.3-1.2,4.3,4.3,0,0,1,3.6,0,2.6,2.6,0,0,1,1.1,1.4,4.7,4.7,0,0,1,1.4-1.4,3.6,3.6,0,0,1,1.9-.4,3.3,3.3,0,0,1,2.5,1.1,6,6,0,0,1,.9,3.6v6.6h-3.4v-6.6a2.8,2.8,0,0,0-.4-1.6,1.1,1.1,0,0,0-1-.5l-.9.2a1.5,1.5,0,0,0-.6.5v8h-3.5v-6.6a3,3,0,0,0-.3-1.6,1.4,1.4,0,0,0-1.1-.5l-.8.2a1.8,1.8,0,0,0-.7.5v8h-3.5V375.2Z"/><rect class="cls-1" x="233.5" y="222.2" width="68.6" height="29.57"/><path class="cls-6" d="M247.4,238.3h1.5V241h-1.5v3.1h-3.5V241h-6l-.2-2.2,6.2-9.7h3.5Zm-6.7,0h3.2v-4.7h-.1l-.3.7Z"/><path class="cls-6" d="M260.8,238.6a6.1,6.1,0,0,1-1.4,4.2,5,5,0,0,1-3.8,1.5,4.9,4.9,0,0,1-3.8-1.5,5.7,5.7,0,0,1-1.5-4.2v-4a5.7,5.7,0,0,1,1.5-4.2,4.9,4.9,0,0,1,3.8-1.5,5.2,5.2,0,0,1,3.8,1.5,6.1,6.1,0,0,1,1.4,4.2Zm-3.5-4.2a4.1,4.1,0,0,0-.4-2.1,1.6,1.6,0,0,0-1.3-.7,1.4,1.4,0,0,0-1.3.7,4.1,4.1,0,0,0-.5,2.1v4.4a3.6,3.6,0,0,0,.5,2.1,1.4,1.4,0,0,0,1.3.8,1.6,1.6,0,0,0,1.3-.8,3.7,3.7,0,0,0,.4-2.1Z"/><path class="cls-6" d="M272.7,241.7a1.8,1.8,0,0,0,1.1-.4,2.1,2.1,0,0,0,.3-1.2h3.2a3.7,3.7,0,0,1-1.2,3,4.8,4.8,0,0,1-3.4,1.1,5,5,0,0,1-3.9-1.5,6.4,6.4,0,0,1-1.4-4.1v-.3a6.2,6.2,0,0,1,1.4-4.1,5,5,0,0,1,3.9-1.5,4.8,4.8,0,0,1,3.4,1.1,4.1,4.1,0,0,1,1.2,3.3h-3.2a2.8,2.8,0,0,0-.3-1.3,1.4,1.4,0,0,0-1.1-.5,1.5,1.5,0,0,0-1.4.8,4.8,4.8,0,0,0-.4,2.2v.3a4.8,4.8,0,0,0,.4,2.2A1.5,1.5,0,0,0,272.7,241.7Z"/><path class="cls-6" d="M282,233l.2,1.4a3,3,0,0,1,1.3-1.2,4.3,4.3,0,0,1,3.6,0,2.6,2.6,0,0,1,1.1,1.4,4.7,4.7,0,0,1,1.4-1.4,3.6,3.6,0,0,1,1.9-.4,3,3,0,0,1,2.5,1.1,6,6,0,0,1,.9,3.6v6.6h-3.4v-6.6a2.8,2.8,0,0,0-.4-1.6,1.1,1.1,0,0,0-1-.5l-.9.2a1.5,1.5,0,0,0-.6.5v8h-3.5v-6.6a3,3,0,0,0-.3-1.6,1.4,1.4,0,0,0-1.1-.5l-.8.2a1.8,1.8,0,0,0-.7.5v8h-3.5V233Z"/><polyline class="cls-7" points="209.6 196.2 1026.2 196.2 1026.2 801.6 632 379.2 1026.2 196.2"/><line class="cls-8" x1="632" y1="379.2" x2="209.6" y2="196.2"/><circle class="cls-9" cx="209.6" cy="196.2" r="28.9"/><circle class="cls-10" cx="632" cy="379.2" r="28.9"/><circle class="cls-4" cx="1173.5" cy="343.8" r="28.9"/><circle class="cls-9" cx="1173.5" cy="442.3" r="28.9"/><circle class="cls-10" cx="1173.5" cy="540.9" r="28.9"/><path d="M1257.6,347.7a4.8,4.8,0,0,0-.4-2.2,4,4,0,0,0-1.4-1.8,8.2,8.2,0,0,0-2.5-1.4,28,28,0,0,0-3.9-1.4,32.6,32.6,0,0,1-4.1-1.4,18,18,0,0,1-3.1-1.7,7.2,7.2,0,0,1-1.9-2.4,5.8,5.8,0,0,1-.7-3,6.6,6.6,0,0,1,.7-3.2,6.1,6.1,0,0,1,2.1-2.4,8.8,8.8,0,0,1,3.2-1.6,13.1,13.1,0,0,1,4.1-.6,11.2,11.2,0,0,1,4.2.7,10.6,10.6,0,0,1,3.3,1.9,8.6,8.6,0,0,1,2.1,2.9,9.5,9.5,0,0,1,.7,3.5h-2.6a7.6,7.6,0,0,0-.5-2.7,4.8,4.8,0,0,0-1.5-2.2,7.2,7.2,0,0,0-2.4-1.4,8.8,8.8,0,0,0-3.3-.5,10.6,10.6,0,0,0-3.3.4,9,9,0,0,0-2.4,1.2,4.9,4.9,0,0,0-1.4,1.8,5,5,0,0,0-.5,2.1,6.5,6.5,0,0,0,.4,2,5.5,5.5,0,0,0,1.4,1.7,9.7,9.7,0,0,0,2.5,1.4,20.9,20.9,0,0,0,3.8,1.3,29.5,29.5,0,0,1,4.2,1.4,12.3,12.3,0,0,1,3.2,1.9,7.2,7.2,0,0,1,1.9,2.4,7.9,7.9,0,0,1,.7,3.2,7.3,7.3,0,0,1-.8,3.3,6.5,6.5,0,0,1-2.2,2.5,10.5,10.5,0,0,1-3.2,1.5,14.2,14.2,0,0,1-4.2.5,11.8,11.8,0,0,1-2.6-.2,11.1,11.1,0,0,1-2.6-.7,10.8,10.8,0,0,1-2.4-1.2,8.6,8.6,0,0,1-3.1-4,8.2,8.2,0,0,1-.5-2.8h2.6a5.7,5.7,0,0,0,.8,3.2,6.6,6.6,0,0,0,2,2.1,7.8,7.8,0,0,0,2.8,1.1,12.2,12.2,0,0,0,6.2,0,8.2,8.2,0,0,0,2.5-1.1,5.5,5.5,0,0,0,1.6-1.8A5.9,5.9,0,0,0,1257.6,347.7Z"/><path d="M1264.9,326.3a1.7,1.7,0,0,1,2.9-1.2,1.3,1.3,0,0,1,.5,1.2,1.3,1.3,0,0,1-.5,1.1,1.7,1.7,0,0,1-2.4,0A1.6,1.6,0,0,1,1264.9,326.3Zm2.9,28.7h-2.5V332.7h2.5Z"/><path d="M1276.8,332.7v3.7a7.6,7.6,0,0,1,1.3-1.7,10.9,10.9,0,0,1,1.7-1.3,9.3,9.3,0,0,1,2-.8,8,8,0,0,1,2.3-.3,9.3,9.3,0,0,1,4.2,1,6.1,6.1,0,0,1,2.5,3.3,7,7,0,0,1,1.3-1.7,7.9,7.9,0,0,1,1.7-1.4l2.1-.9a10.2,10.2,0,0,1,5.6.2,6.8,6.8,0,0,1,2.3,1.4,7.2,7.2,0,0,1,1.4,2.6,13.2,13.2,0,0,1,.5,3.7V355h-2.5V340.5a8.7,8.7,0,0,0-.4-3,4.2,4.2,0,0,0-2.8-2.8,7.8,7.8,0,0,0-2.2-.2,7.2,7.2,0,0,0-2.7.5,6,6,0,0,0-2,1.4,5.9,5.9,0,0,0-1.3,1.9,4.9,4.9,0,0,0-.5,2V355h-2.5V340.3a7.5,7.5,0,0,0-.4-2.8,5.4,5.4,0,0,0-1.1-1.8,5.9,5.9,0,0,0-1.7-1l-2.3-.2a6.1,6.1,0,0,0-2.4.4,6.2,6.2,0,0,0-1.9,1.2,5.5,5.5,0,0,0-1.3,1.7,7.7,7.7,0,0,0-.8,1.9V355h-2.5V332.7Z"/><path d="M1326.3,352.2a7.3,7.3,0,0,1-2.8,2.4,11.7,11.7,0,0,1-7.3.4,5.1,5.1,0,0,1-2.3-1.5,5.6,5.6,0,0,1-1.5-2.6,11.5,11.5,0,0,1-.5-3.9V332.7h2.4v14.4a11.2,11.2,0,0,0,.4,2.9,7.5,7.5,0,0,0,1.1,2,5.9,5.9,0,0,0,1.7,1,6.4,6.4,0,0,0,2,.3,10.3,10.3,0,0,0,2.6-.3,6.3,6.3,0,0,0,2-1,4.4,4.4,0,0,0,1.3-1.4,5.6,5.6,0,0,0,.9-1.7V332.7h2.4V355h-2.4Z"/><path d="M1337.9,355h-2.5V323.4h2.5Z"/><path d="M1358.7,355a10.6,10.6,0,0,1-.3-1.4c-.1-.5-.1-1.1-.2-1.7a5.7,5.7,0,0,1-1.3,1.4l-1.7,1.1a10.2,10.2,0,0,1-2.1.8,9.3,9.3,0,0,1-2.4.2,9.5,9.5,0,0,1-3-.4,6.8,6.8,0,0,1-2.3-1.4,4.8,4.8,0,0,1-1.4-2,5.1,5.1,0,0,1-.5-2.5,5.7,5.7,0,0,1,.7-2.9,5.3,5.3,0,0,1,2-2.2,9.5,9.5,0,0,1,3.2-1.5,18.7,18.7,0,0,1,4.2-.4h4.6v-2.6a4.7,4.7,0,0,0-1.5-3.7c-.9-1-2.4-1.4-4.3-1.4a9.9,9.9,0,0,0-2.4.3,7.7,7.7,0,0,0-1.8,1,4.3,4.3,0,0,0-1.3,1.4,3.9,3.9,0,0,0-.4,1.8H1344a5.4,5.4,0,0,1,.6-2.5,7.6,7.6,0,0,1,4.5-3.5,9.5,9.5,0,0,1,3.5-.6,11.3,11.3,0,0,1,3.2.5,7.1,7.1,0,0,1,2.6,1.3,6.6,6.6,0,0,1,1.7,2.3,7.9,7.9,0,0,1,.6,3.2v12c0,.4.1.8.1,1.2l.3,1.1a2.9,2.9,0,0,0,.2.9v.2Zm-7.7-1.7a9.3,9.3,0,0,0,2.4-.4,6.7,6.7,0,0,0,2.1-.9,7.3,7.3,0,0,0,1.6-1.4,6.2,6.2,0,0,0,1.1-1.7V344H1354a17.2,17.2,0,0,0-3.4.3,8.2,8.2,0,0,0-2.5,1,4.6,4.6,0,0,0-1.6,1.5,3.9,3.9,0,0,0-.6,2.1,4.7,4.7,0,0,0,.4,1.7,4.5,4.5,0,0,0,1,1.4,4.2,4.2,0,0,0,1.6.9A6.5,6.5,0,0,0,1351,353.3Z"/><path d="M1371.1,327v5.7h4.6v2h-4.6v14.9a9.2,9.2,0,0,0,.2,1.9,3,3,0,0,0,.7,1.1,1.1,1.1,0,0,0,.9.5l1.1.2h2v2l-1.2.3h-1.4a6.5,6.5,0,0,1-2-.2,3.1,3.1,0,0,1-1.5-1,3.2,3.2,0,0,1-1-1.8,7.5,7.5,0,0,1-.4-2.8V334.7h-4.1v-2h4.1V327Z"/><path d="M1389.5,355.4a9.4,9.4,0,0,1-4.1-.8,9.7,9.7,0,0,1-3.1-2.2,11.3,11.3,0,0,1-2.1-3.5,12.3,12.3,0,0,1-.7-4.4v-.9a13.5,13.5,0,0,1,.7-4.6,10.7,10.7,0,0,1,2.1-3.6,9.1,9.1,0,0,1,6.7-3.1,9.2,9.2,0,0,1,3.8.8,8.3,8.3,0,0,1,2.8,2.1,10.9,10.9,0,0,1,1.7,3.2,18.4,18.4,0,0,1,.5,4.1V344h-15.9v.5a10.3,10.3,0,0,0,.6,3.5,8.4,8.4,0,0,0,1.5,2.8,8.8,8.8,0,0,0,2.4,1.9,8.3,8.3,0,0,0,3.2.7,8.2,8.2,0,0,0,3.5-.8,6.4,6.4,0,0,0,2.7-2.3l1.6,1.2a9.3,9.3,0,0,1-1.3,1.5,10.9,10.9,0,0,1-1.7,1.3,8.3,8.3,0,0,1-2.2.8A11.2,11.2,0,0,1,1389.5,355.4Zm-.5-21a7.5,7.5,0,0,0-2.6.5,6.5,6.5,0,0,0-2.1,1.6,7,7,0,0,0-1.5,2.4,9.5,9.5,0,0,0-.8,3h13.4v-.2a10.8,10.8,0,0,0-.5-2.7,9,9,0,0,0-1.2-2.4,6.4,6.4,0,0,0-2-1.6A5.7,5.7,0,0,0,1389,334.4Z"/><path d="M1401.6,343.7a16.8,16.8,0,0,1,.6-4.7,10.2,10.2,0,0,1,1.8-3.6,6.7,6.7,0,0,1,2.7-2.3,8,8,0,0,1,3.6-.8,7.4,7.4,0,0,1,4,1,8,8,0,0,1,2.9,2.6V323.4h2.4V355h-2.3v-2.9a8.4,8.4,0,0,1-2.8,2.5,9.3,9.3,0,0,1-4.2.8,7.5,7.5,0,0,1-6.2-3.1,10.2,10.2,0,0,1-1.8-3.6,16.5,16.5,0,0,1-.6-4.6Zm2.5.4a19.8,19.8,0,0,0,.4,3.6,11.7,11.7,0,0,0,1.2,3,6.4,6.4,0,0,0,2.1,1.9,5.4,5.4,0,0,0,2.9.7,8.5,8.5,0,0,0,2.3-.3l1.8-.8a8.6,8.6,0,0,0,1.4-1.3c.3-.5.7-1,1-1.6V338.8l-.9-1.6a6.2,6.2,0,0,0-1.4-1.4,7.7,7.7,0,0,0-1.8-1,8.8,8.8,0,0,0-2.4-.3,5.9,5.9,0,0,0-5,2.6,11,11,0,0,0-1.2,2.9,22.1,22.1,0,0,0-.4,3.7Z"/><path d="M1453.2,346.6h-13.7l-3.1,8.4h-2.6l11.3-30h2.5l11.3,30h-2.6Zm-12.9-2.1h12.1l-6.1-16.4Z"/><path d="M1465.1,332.7v3.8a10.9,10.9,0,0,1,1.3-1.7,7,7,0,0,1,1.7-1.3,7.2,7.2,0,0,1,2-.9,8.5,8.5,0,0,1,2.3-.3,9.4,9.4,0,0,1,3,.5,5.2,5.2,0,0,1,2.2,1.4,6.5,6.5,0,0,1,1.4,2.6,12.7,12.7,0,0,1,.5,3.7V355h-2.5V340.5a11.7,11.7,0,0,0-.3-2.9,4,4,0,0,0-1.1-1.8,3.4,3.4,0,0,0-1.6-1,7.8,7.8,0,0,0-2.2-.3,6.1,6.1,0,0,0-2.4.4,6.2,6.2,0,0,0-1.9,1.2,5.8,5.8,0,0,0-1.4,1.7,7.5,7.5,0,0,0-1,2V355h-2.4V332.7Z"/><path d="M1494.2,353.4a6.2,6.2,0,0,0,2.3-.4,5,5,0,0,0,1.9-1,5.4,5.4,0,0,0,1.4-1.6,4.1,4.1,0,0,0,.6-2.3h2.4a7.4,7.4,0,0,1-.8,3,8.3,8.3,0,0,1-1.9,2.3,11.7,11.7,0,0,1-2.7,1.5,8.6,8.6,0,0,1-3.2.5,8.4,8.4,0,0,1-7.1-3.2,10.6,10.6,0,0,1-1.8-3.5,15.6,15.6,0,0,1-.6-4.4v-.9a14.9,14.9,0,0,1,.6-4.3,10.2,10.2,0,0,1,1.8-3.6,8.6,8.6,0,0,1,3-2.3,9.6,9.6,0,0,1,7.4-.3,7.4,7.4,0,0,1,2.7,1.6,5.8,5.8,0,0,1,1.8,2.5,7.9,7.9,0,0,1,.8,3.2h-2.4a4.8,4.8,0,0,0-.6-2.4,5.9,5.9,0,0,0-1.3-1.8,7.6,7.6,0,0,0-1.9-1.2,7.3,7.3,0,0,0-5.7.4,5,5,0,0,0-2.1,2,9,9,0,0,0-1.3,2.8,19.5,19.5,0,0,0-.3,3.4v.9a17.9,17.9,0,0,0,.3,3.4,8.6,8.6,0,0,0,1.3,2.9,5.1,5.1,0,0,0,2.1,2A6.7,6.7,0,0,0,1494.2,353.4Z"/><path d="M1510.2,336.5a10.9,10.9,0,0,1,1.3-1.7,7,7,0,0,1,1.7-1.3,7.2,7.2,0,0,1,2-.9,7.8,7.8,0,0,1,2.2-.3,9.4,9.4,0,0,1,3,.5,4.9,4.9,0,0,1,2.3,1.4,8,8,0,0,1,1.4,2.6,13.1,13.1,0,0,1,.4,3.7V355h-2.4V340.5a8.1,8.1,0,0,0-.4-2.9,3.9,3.9,0,0,0-1-1.8,3.7,3.7,0,0,0-1.7-1,7.3,7.3,0,0,0-2.2-.3,6.7,6.7,0,0,0-2.4.4,7.6,7.6,0,0,0-1.9,1.2,7.9,7.9,0,0,0-1.4,1.7,7.2,7.2,0,0,0-.9,2V355h-2.5V323.4h2.5Z"/><path d="M1529.5,343.5a12.3,12.3,0,0,1,.8-4.4,9.1,9.1,0,0,1,2-3.6,7.9,7.9,0,0,1,3.1-2.3,9.8,9.8,0,0,1,8.2,0,9,9,0,0,1,3.2,2.3,12.5,12.5,0,0,1,2,3.6,15,15,0,0,1,.7,4.4v.7a15.2,15.2,0,0,1-.7,4.5,12.5,12.5,0,0,1-2,3.6,8.2,8.2,0,0,1-3.2,2.3,10.9,10.9,0,0,1-8.2,0,7.9,7.9,0,0,1-3.1-2.3,9.1,9.1,0,0,1-2-3.6,12.5,12.5,0,0,1-.8-4.5Zm2.5.7a12.9,12.9,0,0,0,.5,3.5,7.3,7.3,0,0,0,1.5,2.9,6.3,6.3,0,0,0,2.3,2,7,7,0,0,0,8.8-2,8.7,8.7,0,0,0,1.4-2.9,12.9,12.9,0,0,0,.5-3.5v-.7a13.3,13.3,0,0,0-.5-3.4,8.7,8.7,0,0,0-1.4-2.9,6.9,6.9,0,0,0-8.8-2,6.3,6.3,0,0,0-2.3,2,7.3,7.3,0,0,0-1.5,2.9,13.3,13.3,0,0,0-.5,3.4Z"/><path d="M1564.9,334.8h-1.7a5.9,5.9,0,0,0-2.3.4,5.4,5.4,0,0,0-1.8,1,7,7,0,0,0-1.3,1.6,11.9,11.9,0,0,0-.8,2V355h-2.4V332.7h2.4v3.6a6.5,6.5,0,0,1,2.5-2.9,6.6,6.6,0,0,1,3.8-1.1h.9l.7.2Z"/><path d="M1262.9,453.6h-2.6V439.2h-17.2v14.4h-2.5v-30h2.5v13.5h17.2V423.6h2.6Z"/><path d="M1284,453.6l-.3-1.4c-.1-.6-.1-1.1-.2-1.7a5.3,5.3,0,0,1-1.3,1.3,7.4,7.4,0,0,1-3.8,1.9,9.3,9.3,0,0,1-2.4.3,9.4,9.4,0,0,1-3-.5,6.5,6.5,0,0,1-2.3-1.3,5.6,5.6,0,0,1-1.4-2,5.3,5.3,0,0,1-.5-2.5,6,6,0,0,1,.7-3,5.9,5.9,0,0,1,2-2.2,9.4,9.4,0,0,1,3.2-1.4,17.9,17.9,0,0,1,4.2-.5h4.6v-2.5a4.9,4.9,0,0,0-1.5-3.8,6,6,0,0,0-4.3-1.3,9.9,9.9,0,0,0-2.4.3,5.2,5.2,0,0,0-1.8,1,4.3,4.3,0,0,0-1.3,1.4,3.3,3.3,0,0,0-.4,1.7h-2.5a5.3,5.3,0,0,1,.6-2.4,6,6,0,0,1,1.8-2.1,8.7,8.7,0,0,1,2.7-1.5,12.3,12.3,0,0,1,3.5-.5,11.2,11.2,0,0,1,3.2.4,7.2,7.2,0,0,1,2.6,1.4,5.8,5.8,0,0,1,1.7,2.3,7.5,7.5,0,0,1,.6,3.1v12c0,.4.1.8.1,1.2l.3,1.1a2,2,0,0,0,.2.9v.3Zm-7.8-1.8a9.5,9.5,0,0,0,2.5-.3,6.8,6.8,0,0,0,2.1-1,7,7,0,0,0,1.6-1.3,8.7,8.7,0,0,0,1.1-1.8v-4.9h-4.2a11.8,11.8,0,0,0-3.4.4,7.3,7.3,0,0,0-2.5.9,4.9,4.9,0,0,0-1.6,1.6,3.7,3.7,0,0,0-.6,2.1,5.3,5.3,0,0,0,.4,1.7,4.5,4.5,0,0,0,1,1.4,4.8,4.8,0,0,0,1.6.9A6.4,6.4,0,0,0,1276.2,451.8Z"/><path d="M1302.9,433.4l-1.7-.2a7.9,7.9,0,0,0-2.3.4,5.4,5.4,0,0,0-1.8,1.1,6.4,6.4,0,0,0-1.3,1.5,13.1,13.1,0,0,0-.8,2.1v15.3h-2.5V431.3h2.5v3.5a7.1,7.1,0,0,1,2.5-2.9,6.5,6.5,0,0,1,3.8-1h.9l.7.2Z"/><path d="M1305.4,442.2a17.3,17.3,0,0,1,.6-4.7,9.5,9.5,0,0,1,1.7-3.5,6.7,6.7,0,0,1,2.7-2.3,7.3,7.3,0,0,1,3.6-.8,8.8,8.8,0,0,1,4.1.9,8.6,8.6,0,0,1,2.8,2.6V421.9h2.4v31.7H1321v-3a7.5,7.5,0,0,1-2.8,2.5,8.8,8.8,0,0,1-4.1.9,8,8,0,0,1-3.6-.8,7.8,7.8,0,0,1-2.7-2.4,9.5,9.5,0,0,1-1.7-3.5,17,17,0,0,1-.6-4.6Zm2.5.5a13.7,13.7,0,0,0,.4,3.6,6.9,6.9,0,0,0,1.2,2.9,6.4,6.4,0,0,0,2,2,6.5,6.5,0,0,0,2.9.7,8.5,8.5,0,0,0,2.3-.3,5.1,5.1,0,0,0,1.8-.9,5.7,5.7,0,0,0,1.4-1.3,6.2,6.2,0,0,0,1-1.6V437.4l-.9-1.7a8.6,8.6,0,0,0-1.3-1.4,6.6,6.6,0,0,0-1.9-.9,5.7,5.7,0,0,0-2.4-.4,5.4,5.4,0,0,0-4.9,2.7,6.9,6.9,0,0,0-1.2,2.9,13.7,13.7,0,0,0-.4,3.6Z"/><path d="M1335.2,448.5l.3,1.9.5-2,5.4-17.1h2.1l5.3,16.9.6,2.4.5-2.2,4.5-17.1h2.6l-6.5,22.3h-2.1l-5.7-17.7-.3-1.2-.3,1.2-5.6,17.7h-2.1l-6.5-22.3h2.5Z"/><path d="M1375.8,453.6a5.7,5.7,0,0,1-.4-1.4c0-.6-.1-1.1-.1-1.7a8,8,0,0,1-1.3,1.3,10.4,10.4,0,0,1-1.7,1.2l-2.1.7a10.1,10.1,0,0,1-2.5.3,8.4,8.4,0,0,1-2.9-.5,5.8,5.8,0,0,1-2.3-1.3,7.5,7.5,0,0,1-1.5-2,7,7,0,0,1-.5-2.5,7.3,7.3,0,0,1,.7-3,8.3,8.3,0,0,1,2-2.2,10,10,0,0,1,3.3-1.4,17.3,17.3,0,0,1,4.2-.5h4.6v-2.5a4.9,4.9,0,0,0-1.5-3.8,6.1,6.1,0,0,0-4.3-1.3,8.8,8.8,0,0,0-2.4.3,5.7,5.7,0,0,0-1.9,1,5.3,5.3,0,0,0-1.2,1.4,3.4,3.4,0,0,0-.5,1.7h-2.4a5.3,5.3,0,0,1,.6-2.4,6.8,6.8,0,0,1,1.7-2.1,11.7,11.7,0,0,1,2.7-1.5,12.9,12.9,0,0,1,3.5-.5,11.5,11.5,0,0,1,3.3.4,8.2,8.2,0,0,1,2.6,1.4,5.6,5.6,0,0,1,1.6,2.3,7.5,7.5,0,0,1,.6,3.1v10.8a5332726728044.4,5332726728044.4,0,0,0,.2,2.4c.1.4.1.8.2,1.1a4.6,4.6,0,0,0,.3.9v.3Zm-7.8-1.8a10.1,10.1,0,0,0,2.5-.3,8.1,8.1,0,0,0,2.1-1l1.6-1.3a17.4,17.4,0,0,0,1.1-1.8v-4.9H1371a12.2,12.2,0,0,0-3.4.4,8.1,8.1,0,0,0-2.5.9,6.1,6.1,0,0,0-1.6,1.6,4.6,4.6,0,0,0-.5,2.1,5.1,5.1,0,0,0,.3,1.7,7.1,7.1,0,0,0,1,1.4,8.3,8.3,0,0,0,1.6.9A6.6,6.6,0,0,0,1368,451.8Z"/><path d="M1394.6,433.4l-1.7-.2a7.2,7.2,0,0,0-2.2.4,5.4,5.4,0,0,0-1.8,1.1,4.7,4.7,0,0,0-1.3,1.5,7.6,7.6,0,0,0-.8,2.1v15.3h-2.5V431.3h2.4v3.5a7.6,7.6,0,0,1,2.4-2.9,6.7,6.7,0,0,1,3.8-1h1l.7.2Z"/><path d="M1406.8,454a11.1,11.1,0,0,1-4.1-.8,10,10,0,0,1-3.1-2.3,9.8,9.8,0,0,1-2.1-3.4,12.7,12.7,0,0,1-.7-4.4v-.9a14.1,14.1,0,0,1,.7-4.7,9.3,9.3,0,0,1,2.1-3.5,8.7,8.7,0,0,1,3.1-2.3,7.3,7.3,0,0,1,3.6-.8,9.2,9.2,0,0,1,3.8.7,7.4,7.4,0,0,1,2.8,2.2,9.7,9.7,0,0,1,1.7,3.2,17,17,0,0,1,.5,4.1v1.5h-15.9v.5a9.3,9.3,0,0,0,.6,3.4,8.4,8.4,0,0,0,1.5,2.8,7.2,7.2,0,0,0,2.4,1.9,6.8,6.8,0,0,0,3.2.7,8.1,8.1,0,0,0,3.5-.7,7.2,7.2,0,0,0,2.7-2.3l1.6,1.2-1.3,1.5a10.9,10.9,0,0,1-1.7,1.3l-2.2.8A11.2,11.2,0,0,1,1406.8,454Zm-.5-21a5.8,5.8,0,0,0-2.6.5,8,8,0,0,0-2.1,1.5,9.7,9.7,0,0,0-1.5,2.4,10.1,10.1,0,0,0-.8,3.1h13.4v-.3a8.6,8.6,0,0,0-.5-2.7,6.3,6.3,0,0,0-1.2-2.3,5.3,5.3,0,0,0-2-1.6A5.4,5.4,0,0,0,1406.3,433Z"/><path d="M1447,445.2h-13.6l-3.1,8.4h-2.7l11.4-30h2.4l11.4,30h-2.7Zm-12.9-2.2h12.1l-6-16.3Z"/><path d="M1458.9,431.3v3.8a11.5,11.5,0,0,1,1.4-1.7,7,7,0,0,1,1.6-1.4l2-.8a9.1,9.1,0,0,1,2.3-.3,9.5,9.5,0,0,1,3,.4,4.8,4.8,0,0,1,2.2,1.5,6.1,6.1,0,0,1,1.4,2.5,10.6,10.6,0,0,1,.5,3.8v14.5H1471V439.1a10.6,10.6,0,0,0-.4-2.9,5,5,0,0,0-1.1-1.9,3.4,3.4,0,0,0-1.6-1,7.8,7.8,0,0,0-2.2-.3,6,6,0,0,0-2.4.5,7.2,7.2,0,0,0-1.9,1.1,11.5,11.5,0,0,0-1.4,1.7,18.6,18.6,0,0,0-1,2v15.3h-2.4V431.3Z"/><path d="M1488,451.9a8.5,8.5,0,0,0,2.3-.3,5.7,5.7,0,0,0,1.9-1,5.2,5.2,0,0,0,1.4-1.6,5.6,5.6,0,0,0,.7-2.3h2.3a5.7,5.7,0,0,1-.8,2.9,6.8,6.8,0,0,1-1.8,2.3,9.2,9.2,0,0,1-2.7,1.6,12,12,0,0,1-3.3.5,10.7,10.7,0,0,1-4.1-.8,8.9,8.9,0,0,1-3-2.4,10.6,10.6,0,0,1-1.8-3.5,16.1,16.1,0,0,1-.6-4.4V442a15.6,15.6,0,0,1,.6-4.4,10.6,10.6,0,0,1,1.8-3.5,8.9,8.9,0,0,1,3-2.4,10.7,10.7,0,0,1,4.1-.8,12.7,12.7,0,0,1,3.4.5,7.6,7.6,0,0,1,2.6,1.6,7.9,7.9,0,0,1,1.9,2.5,8.8,8.8,0,0,1,.7,3.3h-2.3a8.4,8.4,0,0,0-.6-2.4,6.7,6.7,0,0,0-1.4-1.9,4.5,4.5,0,0,0-1.9-1.1,7.6,7.6,0,0,0-5.6.3,7,7,0,0,0-2.2,2,7.4,7.4,0,0,0-1.2,2.9,12.7,12.7,0,0,0-.4,3.4v.9a12.7,12.7,0,0,0,.4,3.4,6.9,6.9,0,0,0,1.2,2.9,6.1,6.1,0,0,0,2.2,2A6.6,6.6,0,0,0,1488,451.9Z"/><path d="M1504,435.1a8.3,8.3,0,0,1,1.3-1.8l1.7-1.3a7,7,0,0,1,2-.8,8.5,8.5,0,0,1,2.3-.3,9.5,9.5,0,0,1,3,.4,5.4,5.4,0,0,1,2.2,1.5,6.1,6.1,0,0,1,1.4,2.5,13.5,13.5,0,0,1,.5,3.8v14.5h-2.5V439.1a11.2,11.2,0,0,0-.3-2.9,5,5,0,0,0-1.1-1.9,3.7,3.7,0,0,0-1.7-1,6.6,6.6,0,0,0-2.1-.3,6,6,0,0,0-2.4.5,5.9,5.9,0,0,0-1.9,1.1,7.5,7.5,0,0,0-1.4,1.7,9.3,9.3,0,0,0-1,2v15.3h-2.4V421.9h2.4Z"/><path d="M1523.4,442.1a13.3,13.3,0,0,1,.7-4.5,10,10,0,0,1,2-3.5,10.3,10.3,0,0,1,3.1-2.4,9.4,9.4,0,0,1,4.1-.8,9.1,9.1,0,0,1,4.1.8,9.6,9.6,0,0,1,3.2,2.4,10,10,0,0,1,2,3.5,13.3,13.3,0,0,1,.7,4.5v.7a13.3,13.3,0,0,1-.7,4.5,10,10,0,0,1-2,3.5,10.3,10.3,0,0,1-3.1,2.4,11.1,11.1,0,0,1-4.1.8,10.3,10.3,0,0,1-4.1-.8,9.6,9.6,0,0,1-3.2-2.4,10,10,0,0,1-2-3.5,13.3,13.3,0,0,1-.7-4.5Zm2.4.7a13.4,13.4,0,0,0,.5,3.5,11.3,11.3,0,0,0,1.5,2.9,7.4,7.4,0,0,0,2.3,2,7,7,0,0,0,3.3.7,6.8,6.8,0,0,0,3.2-.7,7.4,7.4,0,0,0,2.3-2,8.7,8.7,0,0,0,1.4-2.9,10.2,10.2,0,0,0,.5-3.5v-.7a9.7,9.7,0,0,0-.5-3.4,9.2,9.2,0,0,0-1.4-3,6.8,6.8,0,0,0-2.4-2,6.6,6.6,0,0,0-3.2-.7,6.8,6.8,0,0,0-3.2.7,7.4,7.4,0,0,0-2.3,2,12,12,0,0,0-1.5,3,12.7,12.7,0,0,0-.5,3.4Z"/><path d="M1558.7,433.4l-1.7-.2a7.2,7.2,0,0,0-2.2.4,5.4,5.4,0,0,0-1.8,1.1,4.7,4.7,0,0,0-1.3,1.5,7.8,7.8,0,0,0-.9,2.1v15.3h-2.4V431.3h2.4v3.5a7.9,7.9,0,0,1,2.5-2.9,6.5,6.5,0,0,1,3.8-1h1l.7.2Z"/><path d="M1262.9,552.2h-2.6V537.8h-17.2v14.4h-2.5V522.1h2.5v13.5h17.2V522.1h2.6Z"/><path d="M1284,552.2q-.1-.6-.3-1.5c-.1-.5-.1-1.1-.2-1.7a5.7,5.7,0,0,1-1.3,1.4l-1.7,1.1a10.2,10.2,0,0,1-2.1.8,9.3,9.3,0,0,1-2.4.3,9.4,9.4,0,0,1-3-.5,8.6,8.6,0,0,1-2.3-1.3,6.6,6.6,0,0,1-1.4-2,5.8,5.8,0,0,1-.5-2.6,5.7,5.7,0,0,1,.7-2.9,5.3,5.3,0,0,1,2-2.2,9.4,9.4,0,0,1,3.2-1.4,13.8,13.8,0,0,1,4.2-.5h4.6v-2.6a4.7,4.7,0,0,0-1.5-3.7,6,6,0,0,0-4.3-1.4,6.7,6.7,0,0,0-2.4.4,5.1,5.1,0,0,0-1.8.9,3.7,3.7,0,0,0-1.3,1.5,3.3,3.3,0,0,0-.4,1.7h-2.5a5.4,5.4,0,0,1,.6-2.5,6.7,6.7,0,0,1,1.8-2,7,7,0,0,1,2.7-1.5,9.5,9.5,0,0,1,3.5-.6,11.3,11.3,0,0,1,3.2.5,7.1,7.1,0,0,1,2.6,1.3,6.6,6.6,0,0,1,1.7,2.3,7.9,7.9,0,0,1,.6,3.2v12c0,.4.1.8.1,1.2l.3,1.1a2.9,2.9,0,0,0,.2.9v.3Zm-7.8-1.8a6.6,6.6,0,0,0,2.5-.4,6.7,6.7,0,0,0,2.1-.9,7.3,7.3,0,0,0,1.6-1.4,6.2,6.2,0,0,0,1.1-1.7v-4.9h-4.2a17.2,17.2,0,0,0-3.4.3,7.2,7.2,0,0,0-2.5,1,3.5,3.5,0,0,0-1.6,1.6,3.6,3.6,0,0,0-.6,2,4.7,4.7,0,0,0,.4,1.7,3.6,3.6,0,0,0,1,1.4,3.5,3.5,0,0,0,1.6.9A4.5,4.5,0,0,0,1276.2,550.4Z"/><path d="M1302.9,531.9h-1.7a5.6,5.6,0,0,0-2.3.4,5.2,5.2,0,0,0-1.8,1,10.1,10.1,0,0,0-1.3,1.6,11.9,11.9,0,0,0-.8,2v15.4h-2.5V529.8h2.5v3.6a7.1,7.1,0,0,1,2.5-2.9,6.6,6.6,0,0,1,3.8-1.1h.9l.7.2Z"/><path d="M1305.4,540.8a17.3,17.3,0,0,1,.6-4.7,10,10,0,0,1,1.7-3.6,7.5,7.5,0,0,1,2.7-2.3,8.6,8.6,0,0,1,3.6-.8,7.8,7.8,0,0,1,4.1,1,8.6,8.6,0,0,1,2.8,2.6V520.5h2.4v31.7H1321v-3a8.4,8.4,0,0,1-2.8,2.5,8.8,8.8,0,0,1-4.1.9,6.9,6.9,0,0,1-3.6-.9,6.7,6.7,0,0,1-2.7-2.3,10,10,0,0,1-1.7-3.6,16.5,16.5,0,0,1-.6-4.6Zm2.5.4a15,15,0,0,0,.4,3.7,6.9,6.9,0,0,0,1.2,2.9,5.2,5.2,0,0,0,2,1.9,5.4,5.4,0,0,0,2.9.7,8.5,8.5,0,0,0,2.3-.3,7.5,7.5,0,0,0,1.8-.8,7.2,7.2,0,0,0,2.4-2.9V535.9l-.9-1.6a8.6,8.6,0,0,0-1.3-1.4l-1.9-1a8.3,8.3,0,0,0-2.4-.3,5.4,5.4,0,0,0-2.9.7,6.1,6.1,0,0,0-2,1.9,7.3,7.3,0,0,0-1.2,3,13.7,13.7,0,0,0-.4,3.6Z"/><path d="M1335.2,547l.3,1.9.5-2,5.4-17.1h2.1l5.3,17,.6,2.3.5-2.1,4.5-17.2h2.6l-6.5,22.4h-2.1l-5.7-17.7-.3-1.3-.3,1.3-5.6,17.7h-2.1l-6.5-22.4h2.5Z"/><path d="M1375.8,552.2a5.4,5.4,0,0,1-.4-1.5c0-.5-.1-1.1-.1-1.7a8.6,8.6,0,0,1-1.3,1.4l-1.7,1.1-2.1.8a10.1,10.1,0,0,1-2.5.3,8.4,8.4,0,0,1-2.9-.5,7.3,7.3,0,0,1-2.3-1.3,9.5,9.5,0,0,1-1.5-2,7.5,7.5,0,0,1-.5-2.6,6.9,6.9,0,0,1,.7-2.9,7,7,0,0,1,2-2.2,10,10,0,0,1,3.3-1.4,13.4,13.4,0,0,1,4.2-.5h4.6v-2.6a4.7,4.7,0,0,0-1.5-3.7,6.2,6.2,0,0,0-4.3-1.4,6.1,6.1,0,0,0-2.4.4,5.6,5.6,0,0,0-1.9.9,4.4,4.4,0,0,0-1.2,1.5,3.4,3.4,0,0,0-.5,1.7h-2.4a5.4,5.4,0,0,1,.6-2.5,7.9,7.9,0,0,1,1.7-2,8.9,8.9,0,0,1,2.7-1.5,9.9,9.9,0,0,1,3.5-.6,11.4,11.4,0,0,1,3.3.5,7.9,7.9,0,0,1,2.6,1.3,6.3,6.3,0,0,1,1.6,2.3,7.9,7.9,0,0,1,.6,3.2v10.8a5332726728068,5332726728068,0,0,0,.2,2.4c.1.4.1.7.2,1.1l.3.9v.3Zm-7.8-1.8a6.9,6.9,0,0,0,2.5-.4,7.8,7.8,0,0,0,2.1-.9,10.7,10.7,0,0,0,1.6-1.4,9.9,9.9,0,0,0,1.1-1.7v-4.9H1371a17.9,17.9,0,0,0-3.4.3,8.2,8.2,0,0,0-2.5,1,4.1,4.1,0,0,0-1.6,1.6,4.6,4.6,0,0,0-.5,2,4.7,4.7,0,0,0,.3,1.7,5,5,0,0,0,1,1.4,5.1,5.1,0,0,0,1.6.9A4.6,4.6,0,0,0,1368,550.4Z"/><path d="M1394.6,531.9h-1.7a5.1,5.1,0,0,0-2.2.4,5.2,5.2,0,0,0-1.8,1,6.5,6.5,0,0,0-1.3,1.6,7,7,0,0,0-.8,2v15.4h-2.5V529.8h2.4v3.6a7.6,7.6,0,0,1,2.4-2.9,6.8,6.8,0,0,1,3.8-1.1h1l.7.2Z"/><path d="M1406.8,552.6a11.1,11.1,0,0,1-4.1-.8,10,10,0,0,1-3.1-2.3,10.2,10.2,0,0,1-2.1-3.5,12.3,12.3,0,0,1-.7-4.4v-.9a13.5,13.5,0,0,1,.7-4.6,10.7,10.7,0,0,1,2.1-3.6,10,10,0,0,1,3.1-2.3,8.6,8.6,0,0,1,3.6-.8,9.2,9.2,0,0,1,3.8.8,8.3,8.3,0,0,1,2.8,2.1,10.3,10.3,0,0,1,1.7,3.3,17,17,0,0,1,.5,4.1v1.5h-15.9v.4a9.9,9.9,0,0,0,.6,3.5,8.4,8.4,0,0,0,1.5,2.8,8.8,8.8,0,0,0,2.4,1.9,6.8,6.8,0,0,0,3.2.7,9.9,9.9,0,0,0,3.5-.7,8.3,8.3,0,0,0,2.7-2.3l1.6,1.1a10.1,10.1,0,0,1-1.3,1.6,10.4,10.4,0,0,1-1.7,1.2,8.5,8.5,0,0,1-2.2.9A11.2,11.2,0,0,1,1406.8,552.6Zm-.5-21.1a5.8,5.8,0,0,0-2.6.6,5.1,5.1,0,0,0-2.1,1.5,8.2,8.2,0,0,0-1.5,2.4,9.4,9.4,0,0,0-.8,3.1h13.4v-.3a8.1,8.1,0,0,0-.5-2.7,5.6,5.6,0,0,0-1.2-2.3,5.5,5.5,0,0,0-2-1.7A5.4,5.4,0,0,0,1406.3,531.5Z"/><path d="M1450.3,524.3H1440v27.9h-2.5V524.3h-10.3v-2.2h23.1Z"/><path d="M1466.4,552.2a5.4,5.4,0,0,1-.4-1.5c0-.5-.1-1.1-.1-1.7a8.6,8.6,0,0,1-1.3,1.4l-1.7,1.1-2.1.8a10.1,10.1,0,0,1-2.5.3,8.4,8.4,0,0,1-2.9-.5,7.3,7.3,0,0,1-2.3-1.3,9.5,9.5,0,0,1-1.5-2,7.5,7.5,0,0,1-.5-2.6,6.9,6.9,0,0,1,.7-2.9,7,7,0,0,1,2-2.2,10,10,0,0,1,3.3-1.4,13.4,13.4,0,0,1,4.2-.5h4.6v-2.6a4.7,4.7,0,0,0-1.5-3.7,6.2,6.2,0,0,0-4.3-1.4,6.1,6.1,0,0,0-2.4.4,5.6,5.6,0,0,0-1.9.9,4.4,4.4,0,0,0-1.2,1.5,3.4,3.4,0,0,0-.5,1.7h-2.4a5.4,5.4,0,0,1,.6-2.5,7.9,7.9,0,0,1,1.7-2,8.9,8.9,0,0,1,2.7-1.5,9.9,9.9,0,0,1,3.5-.6,11.4,11.4,0,0,1,3.3.5,7.9,7.9,0,0,1,2.6,1.3,6.3,6.3,0,0,1,1.6,2.3,7.9,7.9,0,0,1,.6,3.2v10.8a5332726728547.3,5332726728547.3,0,0,1,.2,2.4c.1.4.1.7.2,1.1l.3.9v.3Zm-7.8-1.8a6.9,6.9,0,0,0,2.5-.4,7.8,7.8,0,0,0,2.1-.9,10.7,10.7,0,0,0,1.6-1.4,9.9,9.9,0,0,0,1.1-1.7v-4.9h-4.3a16.1,16.1,0,0,0-3.3.3,8.8,8.8,0,0,0-2.6,1,4.1,4.1,0,0,0-1.6,1.6,4.6,4.6,0,0,0-.5,2,4.7,4.7,0,0,0,.3,1.7,3.8,3.8,0,0,0,1.1,1.4,3.8,3.8,0,0,0,1.5.9A4.6,4.6,0,0,0,1458.6,550.4Z"/><path d="M1473.9,540.8a17.3,17.3,0,0,1,.6-4.7,12,12,0,0,1,1.7-3.6,7.5,7.5,0,0,1,2.7-2.3,8.6,8.6,0,0,1,3.6-.8,7.6,7.6,0,0,1,4.1,1,7.5,7.5,0,0,1,2.9,2.7v-3.3h2.3v22a11.2,11.2,0,0,1-.6,3.8,10.9,10.9,0,0,1-1.8,3,7.9,7.9,0,0,1-2.9,1.8,10.6,10.6,0,0,1-3.7.6,7.5,7.5,0,0,1-2.1-.2l-2.1-.7a7.6,7.6,0,0,1-1.9-1.2,6.5,6.5,0,0,1-1.6-1.7l1.4-1.5a7.4,7.4,0,0,0,6.2,3.3,8.2,8.2,0,0,0,2.8-.5,6,6,0,0,0,2.1-1.4,7.3,7.3,0,0,0,1.3-2.3,8.5,8.5,0,0,0,.4-2.9v-2.6a8.1,8.1,0,0,1-2.8,2.4,8.8,8.8,0,0,1-4.1.9,7.4,7.4,0,0,1-3.6-.9,6.7,6.7,0,0,1-2.7-2.3,12,12,0,0,1-1.7-3.6,16.5,16.5,0,0,1-.6-4.6Zm2.5.4a15,15,0,0,0,.4,3.7,11,11,0,0,0,1.2,2.9,5.2,5.2,0,0,0,2,1.9,5.4,5.4,0,0,0,2.9.7,7.5,7.5,0,0,0,2.3-.3l1.9-.8a8,8,0,0,0,1.3-1.3,9.5,9.5,0,0,0,1-1.7V536a5.6,5.6,0,0,0-.9-1.7,8.6,8.6,0,0,0-1.3-1.4,7.7,7.7,0,0,0-1.8-1,8.8,8.8,0,0,0-2.4-.3,5.8,5.8,0,0,0-3,.7,6.1,6.1,0,0,0-2,1.9,11.7,11.7,0,0,0-1.2,3,13.7,13.7,0,0,0-.4,3.6Z"/><path d="M1256.2,643.3a5.4,5.4,0,0,0-.4-2.2,4.4,4.4,0,0,0-1.4-1.7,8.2,8.2,0,0,0-2.5-1.5,29.4,29.4,0,0,0-3.9-1.3,32.6,32.6,0,0,1-4.1-1.4,13.3,13.3,0,0,1-3.1-1.8,6,6,0,0,1-1.9-2.3,6.2,6.2,0,0,1-.7-3.1,6.4,6.4,0,0,1,.7-3.1,7.2,7.2,0,0,1,2.1-2.5,10.7,10.7,0,0,1,3.2-1.6,17,17,0,0,1,4.1-.5,11.2,11.2,0,0,1,4.2.7,8.9,8.9,0,0,1,3.3,1.9,6.9,6.9,0,0,1,2,2.8,8.5,8.5,0,0,1,.8,3.5H1256a8.6,8.6,0,0,0-.5-2.7,6.2,6.2,0,0,0-1.5-2.1,7.2,7.2,0,0,0-2.4-1.4,8.8,8.8,0,0,0-3.3-.6,10.4,10.4,0,0,0-3.3.5,7.7,7.7,0,0,0-2.4,1.2,5.5,5.5,0,0,0-1.4,1.7,5.4,5.4,0,0,0-.5,2.2,6.5,6.5,0,0,0,.4,2,4.2,4.2,0,0,0,1.4,1.6,8.2,8.2,0,0,0,2.5,1.5,33,33,0,0,0,3.8,1.3,29.5,29.5,0,0,1,4.2,1.4,12.2,12.2,0,0,1,3.2,1.8,8.7,8.7,0,0,1,1.9,2.5,7.9,7.9,0,0,1,.7,3.2,7.3,7.3,0,0,1-.8,3.3,7.2,7.2,0,0,1-2.2,2.4,10.7,10.7,0,0,1-3.2,1.6,18.6,18.6,0,0,1-4.2.5l-2.7-.2-2.5-.7a9,9,0,0,1-2.4-1.2,10.1,10.1,0,0,1-1.9-1.7,8.4,8.4,0,0,1-1.2-2.3,8.8,8.8,0,0,1-.5-2.9h2.6a6.1,6.1,0,0,0,.7,3.2,7.3,7.3,0,0,0,2.1,2.2,8.1,8.1,0,0,0,2.7,1.1,11.5,11.5,0,0,0,3.1.4,14.7,14.7,0,0,0,3.2-.4,8.3,8.3,0,0,0,2.5-1.2,4.3,4.3,0,0,0,1.5-1.8A4.1,4.1,0,0,0,1256.2,643.3Z"/><path d="M1263.5,621.9a1.3,1.3,0,0,1,.5-1.1,1.7,1.7,0,0,1,2.4,0,1.6,1.6,0,0,1,.5,1.1,1.7,1.7,0,0,1-2.9,1.2A1.3,1.3,0,0,1,1263.5,621.9Zm2.9,28.8h-2.5V628.4h2.5Z"/><path d="M1275.4,628.4V632a10.1,10.1,0,0,1,1.3-1.6,7,7,0,0,1,1.7-1.3,6.4,6.4,0,0,1,1.9-.8,9.3,9.3,0,0,1,2.4-.3,8.2,8.2,0,0,1,4.2,1,6.1,6.1,0,0,1,2.5,3.3,6.6,6.6,0,0,1,1.2-1.7,12.4,12.4,0,0,1,1.8-1.4,6.7,6.7,0,0,1,2.1-.9,9.5,9.5,0,0,1,2.5-.3,10.1,10.1,0,0,1,3.1.4,7,7,0,0,1,2.3,1.5,6.5,6.5,0,0,1,1.4,2.6,12.7,12.7,0,0,1,.5,3.7v14.5h-2.5V636.2a8.7,8.7,0,0,0-.4-3,3.3,3.3,0,0,0-1.1-1.8,3.7,3.7,0,0,0-1.7-1,7.8,7.8,0,0,0-2.2-.3,5.4,5.4,0,0,0-2.7.6,6,6,0,0,0-2,1.4,5.5,5.5,0,0,0-1.3,1.8,5.3,5.3,0,0,0-.5,2v14.8h-2.5V636a10.4,10.4,0,0,0-.4-2.8,4,4,0,0,0-1.1-1.8,4.2,4.2,0,0,0-1.7-1,8.5,8.5,0,0,0-2.3-.3,6,6,0,0,0-2.4.5,5.2,5.2,0,0,0-1.9,1.2,6.5,6.5,0,0,0-1.3,1.6,8.4,8.4,0,0,0-.8,2v15.3H1273V628.4Z"/><path d="M1324.9,647.9a7.3,7.3,0,0,1-2.8,2.4,11,11,0,0,1-4.3.8,9.5,9.5,0,0,1-3-.4,5.1,5.1,0,0,1-2.3-1.5,6.1,6.1,0,0,1-1.5-2.6,11.5,11.5,0,0,1-.5-3.9V628.4h2.4v14.3a12.1,12.1,0,0,0,.4,3,5.6,5.6,0,0,0,1.1,1.9,4.5,4.5,0,0,0,1.7,1.1,6.4,6.4,0,0,0,2,.3,7.1,7.1,0,0,0,2.6-.4,5.6,5.6,0,0,0,1.9-.9,3.8,3.8,0,0,0,1.4-1.4,7.6,7.6,0,0,0,.9-1.8V628.4h2.4v22.3h-2.4Z"/><path d="M1336.5,650.7H1334V619h2.5Z"/><path d="M1357.3,650.7c-.1-.4-.2-.8-.3-1.4s-.1-1.1-.2-1.7a8.3,8.3,0,0,1-1.3,1.4l-1.7,1.1a10.3,10.3,0,0,1-2.1.7,9.3,9.3,0,0,1-2.4.3,7.3,7.3,0,0,1-3-.5,6.5,6.5,0,0,1-2.3-1.3,5.6,5.6,0,0,1-1.4-2,5.3,5.3,0,0,1-.5-2.5,5.4,5.4,0,0,1,.7-2.9,5.5,5.5,0,0,1,2-2.3,9.4,9.4,0,0,1,3.2-1.4,17.9,17.9,0,0,1,4.2-.5h4.6v-2.5a5,5,0,0,0-1.5-3.8,6.1,6.1,0,0,0-4.3-1.3,9.9,9.9,0,0,0-2.4.3l-1.9,1a5.3,5.3,0,0,0-1.2,1.4,3.7,3.7,0,0,0-.4,1.8h-2.5a5.3,5.3,0,0,1,.6-2.4,6,6,0,0,1,1.8-2.1,8.7,8.7,0,0,1,2.7-1.5,12.3,12.3,0,0,1,3.5-.5,11.2,11.2,0,0,1,3.2.4,7.2,7.2,0,0,1,2.6,1.4,6.6,6.6,0,0,1,1.7,2.3,7.5,7.5,0,0,1,.6,3.1v12c0,.5.1.9.1,1.2a5.2,5.2,0,0,1,.2,1.1l.3,1v.2Zm-7.8-1.8a9.5,9.5,0,0,0,2.5-.3,6.7,6.7,0,0,0,2.1-.9,7.3,7.3,0,0,0,1.6-1.4,6.7,6.7,0,0,0,1.1-1.8v-4.9h-4.2a11.8,11.8,0,0,0-3.4.4,5.7,5.7,0,0,0-2.5,1,3.9,3.9,0,0,0-1.6,1.5,3.7,3.7,0,0,0-.6,2.1,4.5,4.5,0,0,0,1.4,3.1,3.5,3.5,0,0,0,1.6.9A6.4,6.4,0,0,0,1349.5,648.9Z"/><path d="M1369.7,622.7v5.7h4.6v2h-4.6v14.9a9.2,9.2,0,0,0,.2,1.9l.6,1.1a1.9,1.9,0,0,0,1,.5l1.1.2h2v2l-1.2.2H1372a5.8,5.8,0,0,1-1.9-.3,2.9,2.9,0,0,1-1.5-.9,4,4,0,0,1-1-1.8,7.9,7.9,0,0,1-.4-2.8V630.4h-4.1v-2h4.1v-5.7Z"/><path d="M1388,651.1a9.2,9.2,0,0,1-4-.8,7.9,7.9,0,0,1-3.1-2.3,9.8,9.8,0,0,1-2.1-3.4,12.3,12.3,0,0,1-.8-4.4v-.9a14,14,0,0,1,.8-4.7,9.3,9.3,0,0,1,2.1-3.5,9.1,9.1,0,0,1,6.7-3.1,9.2,9.2,0,0,1,3.8.7,8.4,8.4,0,0,1,2.7,2.2,7.6,7.6,0,0,1,1.7,3.2,13.5,13.5,0,0,1,.6,4.1v1.5h-15.9v.5a9.3,9.3,0,0,0,.6,3.4,8.9,8.9,0,0,0,1.5,2.9,8.8,8.8,0,0,0,2.4,1.9,8.3,8.3,0,0,0,3.2.6,7.4,7.4,0,0,0,3.4-.7,6.8,6.8,0,0,0,2.8-2.3l1.5,1.2a15.8,15.8,0,0,1-1.2,1.5,10.9,10.9,0,0,1-1.7,1.3l-2.2.8A11.4,11.4,0,0,1,1388,651.1Zm-.4-21a7.5,7.5,0,0,0-2.6.5,8,8,0,0,0-2.1,1.5,9.7,9.7,0,0,0-1.5,2.4,10.9,10.9,0,0,0-.8,3.1H1394v-.3a12.8,12.8,0,0,0-.5-2.7,10.1,10.1,0,0,0-1.2-2.3,5.3,5.3,0,0,0-2-1.6A5.7,5.7,0,0,0,1387.6,630.1Z"/><path d="M1400.2,639.3a16.5,16.5,0,0,1,.6-4.6,12,12,0,0,1,1.7-3.6,7.7,7.7,0,0,1,2.8-2.3,8,8,0,0,1,3.6-.8,8.4,8.4,0,0,1,4,.9,7.3,7.3,0,0,1,2.8,2.7V619h2.5v31.7h-2.3v-3a8.3,8.3,0,0,1-2.8,2.5,9.3,9.3,0,0,1-4.2.9,7.8,7.8,0,0,1-3.5-.8,8.9,8.9,0,0,1-2.8-2.3,12,12,0,0,1-1.7-3.6,16.5,16.5,0,0,1-.6-4.6Zm2.5.5a19.8,19.8,0,0,0,.4,3.6,11,11,0,0,0,1.2,2.9,5.7,5.7,0,0,0,2.1,2,6.2,6.2,0,0,0,2.9.7,8.5,8.5,0,0,0,2.3-.3,7.6,7.6,0,0,0,1.8-.9,3.7,3.7,0,0,0,1.3-1.2,7,7,0,0,0,1-1.6V634.5a5.1,5.1,0,0,0-.9-1.6,4.4,4.4,0,0,0-1.3-1.4,5.2,5.2,0,0,0-1.8-1,6.1,6.1,0,0,0-2.4-.4,6.5,6.5,0,0,0-2.9.7,6.7,6.7,0,0,0-2.1,2,11,11,0,0,0-1.2,2.9,20.9,20.9,0,0,0-.4,3.6Z"/><path d="M1435.5,650.7v-30h8.4a12.7,12.7,0,0,1,5.2,1,11.3,11.3,0,0,1,4.1,2.7,12.4,12.4,0,0,1,2.6,4.3,14.7,14.7,0,0,1,1,5.6v2.8a14.7,14.7,0,0,1-1,5.6,12.4,12.4,0,0,1-2.6,4.3,11.3,11.3,0,0,1-4.1,2.7,13.2,13.2,0,0,1-5.3,1Zm2.6-27.9v25.8h5.7a10,10,0,0,0,4.3-.9,8.6,8.6,0,0,0,3.3-2.3,10.7,10.7,0,0,0,2.1-3.6,14.5,14.5,0,0,0,.8-4.7v-2.8a13.6,13.6,0,0,0-.8-4.7,10.7,10.7,0,0,0-2.1-3.6,9,9,0,0,0-3.2-2.3,10,10,0,0,0-4.3-.9Z"/><path d="M1462.5,621.9a1.5,1.5,0,0,1,.4-1.1,1.5,1.5,0,0,1,1.3-.5,1.3,1.3,0,0,1,1.2.5,1.6,1.6,0,0,1,.5,1.1,1.7,1.7,0,0,1-1.7,1.7,1.9,1.9,0,0,1-1.3-.5A1.6,1.6,0,0,1,1462.5,621.9Zm2.9,28.8h-2.5V628.4h2.5Z"/><path d="M1485.5,645a3.1,3.1,0,0,0-.3-1.3,2.2,2.2,0,0,0-.9-1.3,5,5,0,0,0-1.8-1.1,15,15,0,0,0-3-1,15.9,15.9,0,0,1-3.3-.9,8.3,8.3,0,0,1-2.5-1.2,6.5,6.5,0,0,1-1.5-1.8,5.2,5.2,0,0,1-.5-2.3,5,5,0,0,1,.6-2.4,4.5,4.5,0,0,1,1.5-1.9,6.6,6.6,0,0,1,2.5-1.3,8.8,8.8,0,0,1,3.3-.5,11.6,11.6,0,0,1,3.4.5,6.5,6.5,0,0,1,2.6,1.4,6.8,6.8,0,0,1,1.7,2.1,7.5,7.5,0,0,1,.5,2.6h-2.5a4.5,4.5,0,0,0-.3-1.6,5.1,5.1,0,0,0-3-2.5,6.1,6.1,0,0,0-2.4-.4,9,9,0,0,0-2.5.3l-1.7.9a3.8,3.8,0,0,0-.9,1.3,3.5,3.5,0,0,0-.3,1.4,5.1,5.1,0,0,0,.2,1.3,3.1,3.1,0,0,0,.9,1.2,7.4,7.4,0,0,0,1.8.9l3,.9a20.8,20.8,0,0,1,3.5,1.1,8.9,8.9,0,0,1,2.4,1.3,4.8,4.8,0,0,1,1.9,4.2,6.6,6.6,0,0,1-.5,2.5,5.5,5.5,0,0,1-1.7,2,9,9,0,0,1-2.6,1.3,11.8,11.8,0,0,1-3.4.4,13.2,13.2,0,0,1-3.7-.5,10.6,10.6,0,0,1-2.8-1.5,6.8,6.8,0,0,1-1.7-2.1,5.6,5.6,0,0,1-.5-2.5h2.4a5.2,5.2,0,0,0,.7,2.2,6.7,6.7,0,0,0,1.5,1.4,5.9,5.9,0,0,0,2,.7,7.5,7.5,0,0,0,2.1.2,9.5,9.5,0,0,0,2.5-.3,5.1,5.1,0,0,0,1.8-.9,3.5,3.5,0,0,0,1.1-1.3A3.3,3.3,0,0,0,1485.5,645Z"/><path d="M1497.3,622.7v5.7h4.6v2h-4.6v14.9a5,5,0,0,0,.3,1.9,2.4,2.4,0,0,0,.6,1.1,2,2,0,0,0,.9.5l1.1.2h2v2l-1.2.2h-1.4a6.4,6.4,0,0,1-2-.3,2.9,2.9,0,0,1-1.5-.9,5.2,5.2,0,0,1-1-1.8,11.1,11.1,0,0,1-.4-2.8V630.4h-4.1v-2h4.1v-5.7Z"/><path d="M1521.1,650.7c-.1-.4-.2-.8-.3-1.4a9.7,9.7,0,0,1-.1-1.7,9.2,9.2,0,0,1-1.4,1.4,7.1,7.1,0,0,1-1.7,1.1l-2,.7a10.1,10.1,0,0,1-2.5.3,7.3,7.3,0,0,1-3-.5,6.1,6.1,0,0,1-2.2-1.3,5.9,5.9,0,0,1-1.5-2,7,7,0,0,1-.5-2.5,5.4,5.4,0,0,1,.7-2.9,6.3,6.3,0,0,1,2-2.3,10.4,10.4,0,0,1,3.2-1.4,18.8,18.8,0,0,1,4.3-.5h4.5v-2.5a5,5,0,0,0-1.4-3.8,6.1,6.1,0,0,0-4.3-1.3,8.8,8.8,0,0,0-2.4.3,8.5,8.5,0,0,0-1.9,1,3.9,3.9,0,0,0-1.2,1.4,3.7,3.7,0,0,0-.5,1.8h-2.5a4.4,4.4,0,0,1,.7-2.4,5.6,5.6,0,0,1,1.7-2.1,8.7,8.7,0,0,1,2.7-1.5,12.9,12.9,0,0,1,3.5-.5,11.5,11.5,0,0,1,3.3.4,6.8,6.8,0,0,1,2.5,1.4,6.6,6.6,0,0,1,1.7,2.3,7.5,7.5,0,0,1,.6,3.1v12c.1.5.1.9.2,1.2a3.6,3.6,0,0,0,.2,1.1l.3,1v.2Zm-7.7-1.8a10.1,10.1,0,0,0,2.5-.3,7.2,7.2,0,0,0,2-.9,7.9,7.9,0,0,0,1.7-1.4,6.4,6.4,0,0,0,1-1.8v-4.9h-4.2a12.2,12.2,0,0,0-3.4.4,6.3,6.3,0,0,0-2.5,1,4.3,4.3,0,0,0-1.8,5.3,7.1,7.1,0,0,0,1,1.4,5.1,5.1,0,0,0,1.6.9A6.6,6.6,0,0,0,1513.4,648.9Z"/><path d="M1532,628.4v3.8a10.9,10.9,0,0,1,1.3-1.7l1.7-1.4,2-.8a8.5,8.5,0,0,1,2.3-.3,9.5,9.5,0,0,1,3,.4,4.8,4.8,0,0,1,2.2,1.5,6.1,6.1,0,0,1,1.4,2.5,14,14,0,0,1,.5,3.8v14.5h-2.4V636.2a11.2,11.2,0,0,0-.4-2.9,5,5,0,0,0-1.1-1.9,4.4,4.4,0,0,0-1.6-1,7.8,7.8,0,0,0-2.2-.3,6,6,0,0,0-2.4.5,7.6,7.6,0,0,0-1.9,1.2,7.9,7.9,0,0,0-1.4,1.7,17.4,17.4,0,0,0-1,1.9v15.3h-2.4V628.4Z"/><path d="M1561.1,649a8.5,8.5,0,0,0,2.3-.3,5.7,5.7,0,0,0,1.9-1,5.4,5.4,0,0,0,1.4-1.6,4.4,4.4,0,0,0,.6-2.3h2.4a6.1,6.1,0,0,1-.8,3,10.1,10.1,0,0,1-1.9,2.3,8.7,8.7,0,0,1-2.7,1.5,10.7,10.7,0,0,1-7.3-.3,8.9,8.9,0,0,1-3-2.4,10.6,10.6,0,0,1-1.8-3.5,15.6,15.6,0,0,1-.6-4.4v-.9a16.1,16.1,0,0,1,.6-4.4,10.6,10.6,0,0,1,1.8-3.5,8.9,8.9,0,0,1,3-2.4,10.7,10.7,0,0,1,4.1-.8,11.4,11.4,0,0,1,3.3.5,7.6,7.6,0,0,1,4.5,4.1,7.3,7.3,0,0,1,.8,3.3h-2.4a6,6,0,0,0-.5-2.4,6.2,6.2,0,0,0-1.4-1.8,4.7,4.7,0,0,0-1.9-1.2,7.6,7.6,0,0,0-5.6.3,7,7,0,0,0-2.2,2,7.4,7.4,0,0,0-1.2,2.9,12.7,12.7,0,0,0-.4,3.4v.9a12.7,12.7,0,0,0,.4,3.4,6.9,6.9,0,0,0,1.2,2.9,6.1,6.1,0,0,0,2.2,2A6.6,6.6,0,0,0,1561.1,649Z"/><path d="M1583.3,651.1a8.7,8.7,0,0,1-4-.8,8.2,8.2,0,0,1-3.2-2.3,9.8,9.8,0,0,1-2.1-3.4,12.3,12.3,0,0,1-.7-4.4v-.9a11.9,11.9,0,0,1,.8-4.7,10.7,10.7,0,0,1,2-3.5,8.7,8.7,0,0,1,3.1-2.3,9,9,0,0,1,3.6-.8,9.2,9.2,0,0,1,3.8.7,10.1,10.1,0,0,1,2.8,2.2,10.9,10.9,0,0,1,1.7,3.2,13.5,13.5,0,0,1,.6,4.1v1.5h-16v.5a9.3,9.3,0,0,0,.6,3.4,9,9,0,0,0,1.6,2.9,6.5,6.5,0,0,0,2.4,1.9,7.5,7.5,0,0,0,3.1.6,7.8,7.8,0,0,0,3.5-.7,7.2,7.2,0,0,0,2.7-2.3l1.6,1.2-1.3,1.5a10.9,10.9,0,0,1-1.7,1.3l-2.2.8A11.2,11.2,0,0,1,1583.3,651.1Zm-.5-21a7.5,7.5,0,0,0-2.6.5,8,8,0,0,0-2.1,1.5,9.7,9.7,0,0,0-1.5,2.4,15.7,15.7,0,0,0-.8,3.1h13.4v-.3a8.6,8.6,0,0,0-.5-2.7,5.7,5.7,0,0,0-1.2-2.3,4.9,4.9,0,0,0-1.9-1.6A6.1,6.1,0,0,0,1582.8,630.1Z"/><path d="M1610.7,620.7l11,26.5,11.2-26.5h3.3v30h-2.5V637.6l.2-13.4-11.2,26.5h-1.9l-11.2-26.4.2,13.3v13.1h-2.5v-30Z"/><path d="M1651.9,651.1a9.5,9.5,0,0,1-7.2-3.1,9.6,9.6,0,0,1-2-3.4,12.3,12.3,0,0,1-.8-4.4v-.9a14,14,0,0,1,.8-4.7,10.5,10.5,0,0,1,5.1-5.8,9.5,9.5,0,0,1,3.7-.8,8.7,8.7,0,0,1,3.7.7,8.8,8.8,0,0,1,2.8,2.2,9,9,0,0,1,1.7,3.2,13.5,13.5,0,0,1,.6,4.1v1.5h-15.9v.5a12.1,12.1,0,0,0,.5,3.4,9,9,0,0,0,1.6,2.9,8.8,8.8,0,0,0,2.4,1.9,8.7,8.7,0,0,0,6.6-.1,8.4,8.4,0,0,0,2.8-2.3l1.5,1.2-1.3,1.5a7.6,7.6,0,0,1-1.7,1.3,9.3,9.3,0,0,1-2.2.8A11.2,11.2,0,0,1,1651.9,651.1Zm-.4-21a7.1,7.1,0,0,0-2.6.5,8,8,0,0,0-2.1,1.5,6.1,6.1,0,0,0-1.5,2.4,10.9,10.9,0,0,0-.8,3.1h13.3v-.3a8.4,8.4,0,0,0-.4-2.7,10.1,10.1,0,0,0-1.2-2.3,5.3,5.3,0,0,0-2-1.6A6,6,0,0,0,1651.5,630.1Z"/><path d="M1679.2,650.7a2.9,2.9,0,0,1-.3-1.4,9.9,9.9,0,0,1-.2-1.7l-1.3,1.4-1.7,1.1-2.1.7a10.1,10.1,0,0,1-2.5.3,7.1,7.1,0,0,1-2.9-.5,5.8,5.8,0,0,1-2.3-1.3,5.6,5.6,0,0,1-1.4-2,5.4,5.4,0,0,1-.6-2.5,6.1,6.1,0,0,1,2.8-5.2,8.6,8.6,0,0,1,3.2-1.4,17.3,17.3,0,0,1,4.2-.5h4.6v-2.5a5,5,0,0,0-1.5-3.8,6.1,6.1,0,0,0-4.3-1.3,9.9,9.9,0,0,0-2.4.3l-1.9,1a5.3,5.3,0,0,0-1.2,1.4,3.7,3.7,0,0,0-.4,1.8h-2.5a5.3,5.3,0,0,1,.6-2.4,6.8,6.8,0,0,1,1.7-2.1,11.7,11.7,0,0,1,2.7-1.5,13.4,13.4,0,0,1,3.5-.5,11.5,11.5,0,0,1,3.3.4,7.2,7.2,0,0,1,2.6,1.4,6.3,6.3,0,0,1,1.6,2.3,7.5,7.5,0,0,1,.6,3.1v10.9c0,.3.1.7.1,1.1s.1.9.1,1.2a5.2,5.2,0,0,1,.2,1.1l.3,1v.2Zm-7.8-1.8a9.5,9.5,0,0,0,2.5-.3,6.7,6.7,0,0,0,2.1-.9,10.7,10.7,0,0,0,1.6-1.4,6.7,6.7,0,0,0,1.1-1.8v-4.9h-4.2a11.8,11.8,0,0,0-3.4.4,6.7,6.7,0,0,0-2.6,1,4.3,4.3,0,0,0-1.5,1.5,3.7,3.7,0,0,0-.6,2.1,4.5,4.5,0,0,0,1.4,3.1,3.8,3.8,0,0,0,1.5.9A7.6,7.6,0,0,0,1671.4,648.9Z"/><path d="M1701.1,645a5.9,5.9,0,0,0-.2-1.3,3.8,3.8,0,0,0-.9-1.3,7.8,7.8,0,0,0-1.8-1.1,14.1,14.1,0,0,0-3.1-1,15.9,15.9,0,0,1-3.3-.9,6.7,6.7,0,0,1-2.4-1.2,5.5,5.5,0,0,1-1.6-1.8,5.2,5.2,0,0,1-.5-2.3,5,5,0,0,1,.6-2.4,5.5,5.5,0,0,1,1.5-1.9,7.5,7.5,0,0,1,2.5-1.3,8.8,8.8,0,0,1,3.3-.5,12.9,12.9,0,0,1,3.5.5,7.2,7.2,0,0,1,2.6,1.4,6.5,6.5,0,0,1,1.6,2.1,5.8,5.8,0,0,1,.5,2.6H1701a4.7,4.7,0,0,0-.4-1.6,4.2,4.2,0,0,0-1.1-1.5,5.2,5.2,0,0,0-1.8-1,6.9,6.9,0,0,0-2.5-.4,9,9,0,0,0-2.5.3l-1.6.9a3.1,3.1,0,0,0-1,1.3,3.5,3.5,0,0,0-.3,1.4,5.1,5.1,0,0,0,.2,1.3,4.7,4.7,0,0,0,.9,1.2,10,10,0,0,0,1.8.9l3.1.9a24.2,24.2,0,0,1,3.5,1.1,13.6,13.6,0,0,1,2.4,1.3,6.2,6.2,0,0,1,1.4,1.9,5.2,5.2,0,0,1,.5,2.3,5.1,5.1,0,0,1-.6,2.5,4.7,4.7,0,0,1-1.7,2,7.9,7.9,0,0,1-2.6,1.3,11.8,11.8,0,0,1-3.4.4,13.8,13.8,0,0,1-3.7-.5,10.6,10.6,0,0,1-2.8-1.5,5.4,5.4,0,0,1-1.6-2.1,5.7,5.7,0,0,1-.6-2.5h2.5a4,4,0,0,0,.6,2.2,5.1,5.1,0,0,0,3.5,2.1,7.5,7.5,0,0,0,2.1.2,9,9,0,0,0,2.5-.3,5.1,5.1,0,0,0,1.8-.9,2.8,2.8,0,0,0,1.1-1.3A2.4,2.4,0,0,0,1701.1,645Z"/><path d="M1723.5,647.9a8.1,8.1,0,0,1-2.8,2.4,11,11,0,0,1-4.3.8,9.5,9.5,0,0,1-3-.4,5.1,5.1,0,0,1-2.3-1.5,6.1,6.1,0,0,1-1.5-2.6,11.4,11.4,0,0,1-.6-3.9V628.4h2.5v14.3a8.7,8.7,0,0,0,.4,3,4.3,4.3,0,0,0,1.1,1.9,3.9,3.9,0,0,0,1.7,1.1,5.8,5.8,0,0,0,1.9.3,7.7,7.7,0,0,0,2.7-.4,5.6,5.6,0,0,0,1.9-.9,4.7,4.7,0,0,0,1.4-1.4,7.5,7.5,0,0,0,.8-1.8V628.4h2.5v22.3h-2.4Z"/><path d="M1742.6,630.5H1741a8,8,0,0,0-2.3.3,5.4,5.4,0,0,0-1.8,1.1,5.3,5.3,0,0,0-1.3,1.6,9.3,9.3,0,0,0-.8,2v15.3h-2.5V628.4h2.4v3.5a8.5,8.5,0,0,1,2.4-2.9,6.9,6.9,0,0,1,3.9-1h.9l.7.2Z"/><path d="M1754.8,651.1a8.7,8.7,0,0,1-4-.8,8.2,8.2,0,0,1-3.2-2.3,9.8,9.8,0,0,1-2.1-3.4,12.3,12.3,0,0,1-.7-4.4v-.9a14.1,14.1,0,0,1,.7-4.7,13,13,0,0,1,2.1-3.5,9.1,9.1,0,0,1,6.7-3.1,9.2,9.2,0,0,1,3.8.7,10.1,10.1,0,0,1,2.8,2.2,10.9,10.9,0,0,1,1.7,3.2,13.6,13.6,0,0,1,.5,4.1v1.5h-15.9v.5a9.3,9.3,0,0,0,.6,3.4,9,9,0,0,0,1.6,2.9,6.5,6.5,0,0,0,2.4,1.9,7.5,7.5,0,0,0,3.1.6,7.8,7.8,0,0,0,3.5-.7,7.2,7.2,0,0,0,2.7-2.3l1.6,1.2-1.3,1.5a10.9,10.9,0,0,1-1.7,1.3l-2.2.8A11.2,11.2,0,0,1,1754.8,651.1Zm-.5-21a7.5,7.5,0,0,0-2.6.5,8,8,0,0,0-2.1,1.5,9.7,9.7,0,0,0-1.5,2.4,10.9,10.9,0,0,0-.8,3.1h13.4v-.3a8.6,8.6,0,0,0-.5-2.7,5.7,5.7,0,0,0-1.2-2.3,5.8,5.8,0,0,0-1.9-1.6A6.1,6.1,0,0,0,1754.3,630.1Z"/><path d="M1770.2,628.4V632a10.1,10.1,0,0,1,1.3-1.6,6.5,6.5,0,0,1,1.6-1.3,7,7,0,0,1,2-.8,8.5,8.5,0,0,1,2.3-.3,8.2,8.2,0,0,1,4.2,1,5.7,5.7,0,0,1,2.5,3.3,10.9,10.9,0,0,1,1.3-1.7l1.7-1.4a7.8,7.8,0,0,1,2.1-.9,10.1,10.1,0,0,1,2.5-.3,9.7,9.7,0,0,1,3.1.4,6.1,6.1,0,0,1,2.3,1.5,6.5,6.5,0,0,1,1.4,2.6,10,10,0,0,1,.5,3.7v14.5h-2.4V636.2a12.1,12.1,0,0,0-.4-3,5,5,0,0,0-1.1-1.8,4,4,0,0,0-1.8-1,7.3,7.3,0,0,0-2.2-.3,6.7,6.7,0,0,0-4.7,2,7.5,7.5,0,0,0-1.3,1.8,8.4,8.4,0,0,0-.5,2v14.8h-2.5V636a7.5,7.5,0,0,0-.4-2.8,3.3,3.3,0,0,0-1.1-1.8,3.7,3.7,0,0,0-1.7-1,7.8,7.8,0,0,0-2.2-.3,6.2,6.2,0,0,0-2.5.5,7.6,7.6,0,0,0-1.9,1.2,10.1,10.1,0,0,0-1.3,1.6,16.7,16.7,0,0,0-.8,2v15.3h-2.5V628.4Z"/><path d="M1814,651.1a9.5,9.5,0,0,1-7.2-3.1,11.3,11.3,0,0,1-2-3.4,12.3,12.3,0,0,1-.8-4.4v-.9a14,14,0,0,1,.8-4.7,10.5,10.5,0,0,1,5.1-5.8,9.5,9.5,0,0,1,3.7-.8,9.2,9.2,0,0,1,3.8.7,8.4,8.4,0,0,1,2.7,2.2,9,9,0,0,1,1.7,3.2,13.5,13.5,0,0,1,.6,4.1v1.5h-15.9v.5a12.1,12.1,0,0,0,.5,3.4,9,9,0,0,0,1.6,2.9,8.8,8.8,0,0,0,2.4,1.9,8.1,8.1,0,0,0,3.1.6,7.4,7.4,0,0,0,6.3-3l1.5,1.2a8.7,8.7,0,0,1-1.3,1.5,5.9,5.9,0,0,1-1.7,1.3,10.2,10.2,0,0,1-2.1.8A12.7,12.7,0,0,1,1814,651.1Zm-.4-21a7.1,7.1,0,0,0-2.6.5,8,8,0,0,0-2.1,1.5,9.7,9.7,0,0,0-1.5,2.4,10.9,10.9,0,0,0-.8,3.1h13.3v-.3a8.4,8.4,0,0,0-.4-2.7,10.1,10.1,0,0,0-1.2-2.3,5.3,5.3,0,0,0-2-1.6A6,6,0,0,0,1813.6,630.1Z"/><path d="M1829.6,628.4v3.8a11.5,11.5,0,0,1,1.4-1.7,7.9,7.9,0,0,1,1.7-1.4,9.3,9.3,0,0,1,2-.8,7.8,7.8,0,0,1,2.2-.3,9.5,9.5,0,0,1,3,.4,5.7,5.7,0,0,1,2.3,1.5,7.4,7.4,0,0,1,1.4,2.5,14.3,14.3,0,0,1,.4,3.8v14.5h-2.4V636.2a8.1,8.1,0,0,0-.4-2.9,4.9,4.9,0,0,0-1-1.9,4.8,4.8,0,0,0-1.7-1,7.8,7.8,0,0,0-2.2-.3,6,6,0,0,0-2.4.5,7.6,7.6,0,0,0-1.9,1.2,7.9,7.9,0,0,0-1.4,1.7,8.2,8.2,0,0,0-.9,1.9v15.3h-2.5V628.4Z"/><path d="M1854.2,622.7v5.7h4.7v2h-4.7v14.9a5,5,0,0,0,.3,1.9,3.9,3.9,0,0,0,.6,1.1,1.9,1.9,0,0,0,1,.5l1.1.2h2v2l-1.2.2h-1.5a5.8,5.8,0,0,1-1.9-.3,3.7,3.7,0,0,1-1.6-.9,7.7,7.7,0,0,1-1-1.8,11.4,11.4,0,0,1-.3-2.8V630.4h-4.1v-2h4.1v-5.7Z"/><path d="M1261.5,749.3h-2.6V734.9h-17.2v14.4h-2.5V719.2h2.5v13.5h17.2V719.2h2.6Z"/><path d="M1282.6,749.3l-.3-1.4a11.1,11.1,0,0,1-.2-1.7,15.9,15.9,0,0,1-1.3,1.3l-1.7,1.1a10.2,10.2,0,0,1-2.1.8,9.9,9.9,0,0,1-2.4.3,9.4,9.4,0,0,1-3-.5,7.3,7.3,0,0,1-2.3-1.3,6.6,6.6,0,0,1-1.4-2,5.3,5.3,0,0,1-.5-2.5,6,6,0,0,1,.7-3,5.3,5.3,0,0,1,2-2.2,9.4,9.4,0,0,1,3.2-1.4,17.9,17.9,0,0,1,4.2-.5h4.6v-2.5a4.9,4.9,0,0,0-1.5-3.8,6.2,6.2,0,0,0-4.3-1.4,6.7,6.7,0,0,0-2.4.4,6.6,6.6,0,0,0-1.9.9,5.7,5.7,0,0,0-1.2,1.5,3.3,3.3,0,0,0-.4,1.7h-2.5a5.3,5.3,0,0,1,.6-2.4,6,6,0,0,1,1.8-2.1,8.7,8.7,0,0,1,2.7-1.5,9.3,9.3,0,0,1,3.4-.6,11.4,11.4,0,0,1,3.3.5,7.2,7.2,0,0,1,2.6,1.4,6.2,6.2,0,0,1,1.7,2.2,7.9,7.9,0,0,1,.6,3.2v12c0,.4.1.8.1,1.2a5.2,5.2,0,0,1,.2,1.1,4.6,4.6,0,0,0,.3.9v.3Zm-7.8-1.8a9.5,9.5,0,0,0,2.5-.3,10.2,10.2,0,0,0,2.1-1,5.4,5.4,0,0,0,1.6-1.4,6.2,6.2,0,0,0,1.1-1.7v-4.9h-4.2a17.2,17.2,0,0,0-3.4.3,10,10,0,0,0-2.5,1,4.1,4.1,0,0,0-1.6,1.6,3.6,3.6,0,0,0-.6,2,3.3,3.3,0,0,0,.4,1.7,2.8,2.8,0,0,0,1,1.4,4.9,4.9,0,0,0,1.6,1A6.4,6.4,0,0,0,1274.8,747.5Z"/><path d="M1301.4,729.1l-1.6-.2a5.6,5.6,0,0,0-2.3.4,5.2,5.2,0,0,0-1.8,1,10.1,10.1,0,0,0-1.3,1.6,11.9,11.9,0,0,0-.8,2v15.4h-2.5V727h2.4v3.5a7.1,7.1,0,0,1,2.5-2.9,6.6,6.6,0,0,1,3.8-1.1h.9l.7.2Z"/><path d="M1304,737.9a17.3,17.3,0,0,1,.6-4.7,10,10,0,0,1,1.7-3.6,7.5,7.5,0,0,1,2.7-2.3,8,8,0,0,1,3.6-.8,8.9,8.9,0,0,1,4.1,1,8.6,8.6,0,0,1,2.8,2.6V717.6h2.4v31.7h-2.3v-3a7.5,7.5,0,0,1-2.8,2.5,9,9,0,0,1-4.2.9,6.8,6.8,0,0,1-3.5-.9,6.7,6.7,0,0,1-2.7-2.3,10,10,0,0,1-1.7-3.6,16.5,16.5,0,0,1-.6-4.6Zm2.5.4a21.3,21.3,0,0,0,.3,3.7,11,11,0,0,0,1.2,2.9,6.3,6.3,0,0,0,2.1,1.9,5.4,5.4,0,0,0,2.9.7,8.5,8.5,0,0,0,2.3-.3,4.9,4.9,0,0,0,1.8-.8,7.2,7.2,0,0,0,2.4-2.9V733l-.9-1.6a6.2,6.2,0,0,0-1.4-1.4,7.7,7.7,0,0,0-1.8-1,8.8,8.8,0,0,0-2.4-.3,5.4,5.4,0,0,0-2.9.7,7.6,7.6,0,0,0-2.1,1.9,11.7,11.7,0,0,0-1.2,3,20.2,20.2,0,0,0-.3,3.6Z"/><path d="M1333.8,744.1l.3,2,.5-2.1,5.4-17h2.1l5.3,16.9.6,2.3.4-2.1L1353,727h2.6l-6.5,22.3H1347l-5.7-17.7-.3-1.2-.3,1.2-5.6,17.7H1333l-6.5-22.3h2.5Z"/><path d="M1374.4,749.3a5.7,5.7,0,0,1-.4-1.4c0-.6-.1-1.2-.1-1.7l-1.3,1.3a7.8,7.8,0,0,1-1.8,1.1l-2,.8a10.1,10.1,0,0,1-2.5.3,8.4,8.4,0,0,1-2.9-.5,7.3,7.3,0,0,1-2.3-1.3,9.5,9.5,0,0,1-1.5-2,7,7,0,0,1-.5-2.5,6,6,0,0,1,.7-3,7,7,0,0,1,2-2.2,10.4,10.4,0,0,1,3.2-1.4,18.8,18.8,0,0,1,4.3-.5h4.6v-2.5a4.9,4.9,0,0,0-1.5-3.8,6.2,6.2,0,0,0-4.3-1.4,6.1,6.1,0,0,0-2.4.4,5.6,5.6,0,0,0-1.9.9,5.7,5.7,0,0,0-1.2,1.5,3.4,3.4,0,0,0-.5,1.7h-2.5a5.5,5.5,0,0,1,.7-2.4,6.8,6.8,0,0,1,1.7-2.1,11.7,11.7,0,0,1,2.7-1.5,9.9,9.9,0,0,1,3.5-.6,11.4,11.4,0,0,1,3.3.5,6.8,6.8,0,0,1,2.5,1.4,5.2,5.2,0,0,1,1.7,2.2,7.9,7.9,0,0,1,.6,3.2v10.8a5332726728432.4,5332726728432.4,0,0,1,.2,2.4c.1.4.1.8.2,1.1a4.6,4.6,0,0,0,.3.9v.3Zm-7.8-1.8a10.1,10.1,0,0,0,2.5-.3l2.1-1a7,7,0,0,0,1.6-1.4,9.9,9.9,0,0,0,1.1-1.7v-4.9h-4.3a17.9,17.9,0,0,0-3.4.3,11.8,11.8,0,0,0-2.5,1,4.9,4.9,0,0,0-1.6,1.6,4.6,4.6,0,0,0-.5,2,4.7,4.7,0,0,0,.3,1.7,5,5,0,0,0,1,1.4l1.6,1A6.6,6.6,0,0,0,1366.6,747.5Z"/><path d="M1393.2,729.1l-1.7-.2a5.1,5.1,0,0,0-2.2.4,5.2,5.2,0,0,0-1.8,1,6.5,6.5,0,0,0-1.3,1.6,12.1,12.1,0,0,0-.9,2v15.4h-2.4V727h2.4v3.5a8.9,8.9,0,0,1,2.5-2.9,6.6,6.6,0,0,1,3.8-1.1h1l.7.2Z"/><path d="M1405.4,749.7a11.1,11.1,0,0,1-4.1-.8,10,10,0,0,1-3.1-2.3,10.2,10.2,0,0,1-2.1-3.5,12.2,12.2,0,0,1-.8-4.3v-.9a13.6,13.6,0,0,1,.8-4.7,10.7,10.7,0,0,1,2.1-3.6,10,10,0,0,1,3.1-2.3,8.6,8.6,0,0,1,3.6-.8,9.2,9.2,0,0,1,3.8.8,7.1,7.1,0,0,1,2.7,2.1,7.4,7.4,0,0,1,1.7,3.3,13.1,13.1,0,0,1,.6,4.1v1.5h-15.9v.5a9.7,9.7,0,0,0,.6,3.4,8.4,8.4,0,0,0,1.5,2.8,8.8,8.8,0,0,0,2.4,1.9,6.8,6.8,0,0,0,3.2.7,8.1,8.1,0,0,0,3.5-.7,8.3,8.3,0,0,0,2.7-2.3l1.6,1.1c-.4.6-.9,1.1-1.3,1.6a6.6,6.6,0,0,1-1.7,1.2,8.5,8.5,0,0,1-2.2.9A11.2,11.2,0,0,1,1405.4,749.7Zm-.5-21.1a5.8,5.8,0,0,0-2.6.6,5.1,5.1,0,0,0-2.1,1.5,9.7,9.7,0,0,0-1.5,2.4,9.4,9.4,0,0,0-.8,3.1h13.4v-.3a12.8,12.8,0,0,0-.5-2.7,7.1,7.1,0,0,0-1.2-2.3,5.3,5.3,0,0,0-2-1.6A4.7,4.7,0,0,0,1404.9,728.6Z"/><path d="M1429.4,749.3V719.2h8.4a14,14,0,0,1,5.1,1,12,12,0,0,1,4.1,2.8,14.3,14.3,0,0,1,2.7,4.3,16.4,16.4,0,0,1,.9,5.6v2.7a16,16,0,0,1-.9,5.6,13.2,13.2,0,0,1-2.7,4.3,10.7,10.7,0,0,1-4.1,2.8,15.1,15.1,0,0,1-5.3,1Zm2.5-27.9v25.7h5.7a12.3,12.3,0,0,0,4.4-.8,10,10,0,0,0,3.3-2.4,10.7,10.7,0,0,0,2.1-3.6,17.2,17.2,0,0,0,.7-4.7v-2.8a14,14,0,0,0-.8-4.7,10.5,10.5,0,0,0-2-3.6,10.9,10.9,0,0,0-3.3-2.3,11.6,11.6,0,0,0-4.2-.8Z"/><path d="M1456.3,720.5a1.7,1.7,0,0,1,1.7-1.7,2.1,2.1,0,0,1,1.3.5,2,2,0,0,1,0,2.4,2,2,0,0,1-1.3.4,1.6,1.6,0,0,1-1.2-.4A1.7,1.7,0,0,1,1456.3,720.5Zm2.9,28.8h-2.5V727h2.5Z"/><path d="M1479.3,743.6a6.8,6.8,0,0,0-.2-1.4,7.7,7.7,0,0,0-.9-1.3l-1.8-1.1-3.1-.9-3.3-.9a10.8,10.8,0,0,1-2.4-1.3,4.4,4.4,0,0,1-1.6-1.7,6,6,0,0,1-.5-2.4,4.6,4.6,0,0,1,.6-2.3,5.9,5.9,0,0,1,1.5-2,14.6,14.6,0,0,1,2.5-1.3,11.4,11.4,0,0,1,3.3-.5,12.9,12.9,0,0,1,3.5.5,12.6,12.6,0,0,1,2.6,1.4,6.9,6.9,0,0,1,1.6,2.2,5.8,5.8,0,0,1,.5,2.6h-2.4a5.3,5.3,0,0,0-.4-1.7,4.9,4.9,0,0,0-1.1-1.4,5.4,5.4,0,0,0-1.8-1.1,10.1,10.1,0,0,0-2.5-.4,8.7,8.7,0,0,0-2.5.4,3.5,3.5,0,0,0-1.6.9,3.5,3.5,0,0,0-1.3,2.6,5.9,5.9,0,0,0,.2,1.4,3.1,3.1,0,0,0,.9,1.1,6.1,6.1,0,0,0,1.8,1l3.1.9a24.7,24.7,0,0,1,3.5,1,13.8,13.8,0,0,1,2.4,1.4,4.9,4.9,0,0,1,1.4,1.8,6,6,0,0,1,.5,2.4,5.4,5.4,0,0,1-.6,2.5,5.4,5.4,0,0,1-1.7,2,7.9,7.9,0,0,1-2.6,1.2,11.6,11.6,0,0,1-3.4.5,10.6,10.6,0,0,1-3.7-.6,8.2,8.2,0,0,1-2.8-1.4,6.5,6.5,0,0,1-1.6-2.2,5.4,5.4,0,0,1-.6-2.5h2.5a3.8,3.8,0,0,0,.6,2.2,4,4,0,0,0,1.5,1.4,7,7,0,0,0,2,.8l2.1.2a9,9,0,0,0,2.5-.3,7.6,7.6,0,0,0,1.8-.9,3.3,3.3,0,0,0,1.1-1.3A2.8,2.8,0,0,0,1479.3,743.6Z"/><path d="M1491.2,721.2V727h4.6v2h-4.6v14.8a5,5,0,0,0,.2,1.9,2.3,2.3,0,0,0,.6,1.1,2.1,2.1,0,0,0,1,.6h3.1v2l-1.2.3h-1.5a5.8,5.8,0,0,1-1.9-.3,3.9,3.9,0,0,1-1.6-1,5,5,0,0,1-1-1.8,10.4,10.4,0,0,1-.3-2.8V729h-4.1v-2h4.1v-5.8Z"/><path d="M1515,749.3a3.2,3.2,0,0,1-.3-1.4,11.1,11.1,0,0,1-.2-1.7,15.9,15.9,0,0,1-1.3,1.3l-1.7,1.1-2.1.8a10.1,10.1,0,0,1-2.5.3,8.8,8.8,0,0,1-2.9-.5,7.3,7.3,0,0,1-2.3-1.3,9.5,9.5,0,0,1-1.5-2,7,7,0,0,1-.5-2.5,7.3,7.3,0,0,1,.7-3,6.3,6.3,0,0,1,2.1-2.2,8.6,8.6,0,0,1,3.2-1.4,17.3,17.3,0,0,1,4.2-.5h4.6v-2.5a4.9,4.9,0,0,0-1.5-3.8,6.2,6.2,0,0,0-4.3-1.4,6.1,6.1,0,0,0-2.4.4,6.6,6.6,0,0,0-1.9.9,5.7,5.7,0,0,0-1.2,1.5,3.4,3.4,0,0,0-.5,1.7h-2.4a5.3,5.3,0,0,1,.6-2.4,6.8,6.8,0,0,1,1.7-2.1,11.7,11.7,0,0,1,2.7-1.5,9.9,9.9,0,0,1,3.5-.6,11.4,11.4,0,0,1,3.3.5,8.2,8.2,0,0,1,2.6,1.4,6,6,0,0,1,1.6,2.2,7.9,7.9,0,0,1,.6,3.2v10.8a4.9,4.9,0,0,0,.1,1.2,4.9,4.9,0,0,0,.1,1.2c.1.4.1.8.2,1.1l.3.9v.3Zm-7.8-1.8a10.1,10.1,0,0,0,2.5-.3,10.2,10.2,0,0,0,2.1-1,7,7,0,0,0,1.6-1.4,9.9,9.9,0,0,0,1.1-1.7v-4.9h-4.3a16.9,16.9,0,0,0-3.3.3,12.8,12.8,0,0,0-2.6,1,3.8,3.8,0,0,0-1.5,1.6,3.6,3.6,0,0,0-.6,2,3.3,3.3,0,0,0,.4,1.7,2.8,2.8,0,0,0,1,1.4,5.6,5.6,0,0,0,1.5,1A7.1,7.1,0,0,0,1507.2,747.5Z"/><path d="M1525.9,727v3.8a12.4,12.4,0,0,1,1.4-1.8,7.6,7.6,0,0,1,1.7-1.3,6.1,6.1,0,0,1,2-.9,7.8,7.8,0,0,1,2.2-.3,9.4,9.4,0,0,1,3,.5,6.8,6.8,0,0,1,2.3,1.4,8,8,0,0,1,1.4,2.6,13.8,13.8,0,0,1,.4,3.8v14.5h-2.4V734.7a8.5,8.5,0,0,0-.4-2.9,5.2,5.2,0,0,0-1-1.8,3.7,3.7,0,0,0-1.7-1,7.8,7.8,0,0,0-2.2-.3,6.1,6.1,0,0,0-2.4.4,7.6,7.6,0,0,0-1.9,1.2,11.5,11.5,0,0,0-1.4,1.7,8.8,8.8,0,0,0-.9,2v15.3h-2.5V727Z"/><path d="M1555,747.6a8.3,8.3,0,0,0,2.2-.3,12.4,12.4,0,0,0,2-1,5.5,5.5,0,0,0,1.3-1.7,5.2,5.2,0,0,0,.7-2.2h2.3a6,6,0,0,1-.8,2.9,6.8,6.8,0,0,1-1.8,2.3,7.2,7.2,0,0,1-2.7,1.5,8.7,8.7,0,0,1-3.2.6,9.3,9.3,0,0,1-4.2-.9,8,8,0,0,1-2.9-2.3,10.3,10.3,0,0,1-1.9-3.6,15.1,15.1,0,0,1-.6-4.4v-.8a15.6,15.6,0,0,1,.6-4.4,9.7,9.7,0,0,1,1.8-3.5,8.9,8.9,0,0,1,3-2.4,9.1,9.1,0,0,1,4.1-.9,9.7,9.7,0,0,1,3.4.6,9.2,9.2,0,0,1,2.7,1.6,9.4,9.4,0,0,1,1.8,2.5,8.8,8.8,0,0,1,.7,3.3h-2.3a10.2,10.2,0,0,0-.6-2.5,6.2,6.2,0,0,0-1.4-1.8,6.2,6.2,0,0,0-1.9-1.2,8.6,8.6,0,0,0-2.4-.4,6.6,6.6,0,0,0-3.2.8,7,7,0,0,0-2.2,2,8.4,8.4,0,0,0-1.2,2.9,12.7,12.7,0,0,0-.4,3.4v.8a13.4,13.4,0,0,0,.4,3.5,9.3,9.3,0,0,0,1.2,2.9,7,7,0,0,0,2.2,2A6.7,6.7,0,0,0,1555,747.6Z"/><path d="M1577.1,749.7a10.6,10.6,0,0,1-4-.8,10.4,10.4,0,0,1-3.2-2.3,8.7,8.7,0,0,1-2-3.5,12.2,12.2,0,0,1-.8-4.3v-.9a13.6,13.6,0,0,1,.8-4.7,10.7,10.7,0,0,1,2.1-3.6,10.9,10.9,0,0,1,3-2.3,9.5,9.5,0,0,1,3.7-.8,8.7,8.7,0,0,1,3.7.8,7.4,7.4,0,0,1,2.8,2.1,8.6,8.6,0,0,1,1.7,3.3,13.1,13.1,0,0,1,.6,4.1v1.5h-15.9v.5a12.7,12.7,0,0,0,.5,3.4,8.5,8.5,0,0,0,1.6,2.8,8.8,8.8,0,0,0,2.4,1.9,6.4,6.4,0,0,0,3.1.7,7.8,7.8,0,0,0,3.5-.7,9.8,9.8,0,0,0,2.8-2.3l1.5,1.1a10.1,10.1,0,0,1-1.3,1.6,5.2,5.2,0,0,1-1.7,1.2,7.3,7.3,0,0,1-2.2.9A11.2,11.2,0,0,1,1577.1,749.7Zm-.4-21.1a5.5,5.5,0,0,0-2.6.6,6.2,6.2,0,0,0-2.2,1.5,9.7,9.7,0,0,0-1.5,2.4,12.7,12.7,0,0,0-.8,3.1H1583v-.3a8.4,8.4,0,0,0-.4-2.7,7.1,7.1,0,0,0-1.2-2.3,6.2,6.2,0,0,0-2-1.6A5,5,0,0,0,1576.7,728.6Z"/><path d="M1604.5,719.2l11.1,26.5,11.1-26.5h3.4v30.1h-2.6V736.2l.2-13.4-11.1,26.5h-2l-11.1-26.4.2,13.3v13.1h-2.6V719.2Z"/><path d="M1645.8,749.7a11.1,11.1,0,0,1-4.1-.8,10,10,0,0,1-3.1-2.3,10.2,10.2,0,0,1-2.1-3.5,12.1,12.1,0,0,1-.7-4.3v-.9a13.7,13.7,0,0,1,.7-4.7,10.7,10.7,0,0,1,2.1-3.6,10,10,0,0,1,3.1-2.3,8.6,8.6,0,0,1,3.6-.8,9.2,9.2,0,0,1,3.8.8,7.1,7.1,0,0,1,2.7,2.1,7.4,7.4,0,0,1,1.7,3.3,13.1,13.1,0,0,1,.6,4.1v1.5h-15.9v.5a9.7,9.7,0,0,0,.6,3.4,8.4,8.4,0,0,0,1.5,2.8,8.8,8.8,0,0,0,2.4,1.9,6.8,6.8,0,0,0,3.2.7,8.1,8.1,0,0,0,3.5-.7,8.3,8.3,0,0,0,2.7-2.3l1.6,1.1a10.1,10.1,0,0,1-1.3,1.6,6.6,6.6,0,0,1-1.7,1.2,8.5,8.5,0,0,1-2.2.9A11.2,11.2,0,0,1,1645.8,749.7Zm-.5-21.1a5.8,5.8,0,0,0-2.6.6,5.1,5.1,0,0,0-2.1,1.5,9.7,9.7,0,0,0-1.5,2.4,9.4,9.4,0,0,0-.8,3.1h13.4v-.3a12.8,12.8,0,0,0-.5-2.7,7.1,7.1,0,0,0-1.2-2.3,5.3,5.3,0,0,0-2-1.6A4.7,4.7,0,0,0,1645.3,728.6Z"/><path d="M1673,749.3l-.3-1.4c-.1-.6-.1-1.2-.2-1.7a8,8,0,0,1-1.3,1.3l-1.7,1.1a10.2,10.2,0,0,1-2.1.8,8.8,8.8,0,0,1-2.4.3,9.4,9.4,0,0,1-3-.5,8.6,8.6,0,0,1-2.3-1.3,6.6,6.6,0,0,1-1.4-2,5.3,5.3,0,0,1-.5-2.5,6,6,0,0,1,.7-3,5.3,5.3,0,0,1,2-2.2,9.4,9.4,0,0,1,3.2-1.4,18.6,18.6,0,0,1,4.2-.5h4.6v-2.5a4.9,4.9,0,0,0-1.5-3.8,6,6,0,0,0-4.3-1.4,5.9,5.9,0,0,0-2.3.4,4.8,4.8,0,0,0-1.9.9,4.5,4.5,0,0,0-1.3,1.5,3.3,3.3,0,0,0-.4,1.7h-2.5a5.3,5.3,0,0,1,.6-2.4,6,6,0,0,1,1.8-2.1,8.7,8.7,0,0,1,2.7-1.5,9.5,9.5,0,0,1,3.5-.6,10.7,10.7,0,0,1,3.2.5,7.2,7.2,0,0,1,2.6,1.4,6.2,6.2,0,0,1,1.7,2.2,7.9,7.9,0,0,1,.6,3.2v12a5,5,0,0,0,.2,1.2,3.6,3.6,0,0,0,.2,1.1c.1.4.1.7.3.9v.3Zm-7.7-1.8a8.8,8.8,0,0,0,2.4-.3,10.2,10.2,0,0,0,2.1-1,5.4,5.4,0,0,0,1.6-1.4,6.2,6.2,0,0,0,1.1-1.7v-4.9h-4.2a17.2,17.2,0,0,0-3.4.3,11.8,11.8,0,0,0-2.5,1,4.9,4.9,0,0,0-1.6,1.6,3.5,3.5,0,0,0-.5,2,4.7,4.7,0,0,0,.3,1.7,3.6,3.6,0,0,0,1,1.4,6.2,6.2,0,0,0,1.6,1A6.6,6.6,0,0,0,1665.3,747.5Z"/><path d="M1694.9,743.6a6.8,6.8,0,0,0-.2-1.4,7.7,7.7,0,0,0-.9-1.3,7,7,0,0,0-1.8-1.1l-3-.9-3.3-.9a11.7,11.7,0,0,1-2.5-1.3,3.5,3.5,0,0,1-1.5-1.7,4.7,4.7,0,0,1-.5-2.4,4.6,4.6,0,0,1,.5-2.3,6.2,6.2,0,0,1,1.6-2,11.7,11.7,0,0,1,2.5-1.3,10.2,10.2,0,0,1,3.2-.5,12.3,12.3,0,0,1,3.5.5,12.6,12.6,0,0,1,2.6,1.4,6.9,6.9,0,0,1,1.6,2.2,5.8,5.8,0,0,1,.6,2.6h-2.5a3.5,3.5,0,0,0-.4-1.7,3.6,3.6,0,0,0-1.1-1.4,5.4,5.4,0,0,0-1.8-1.1,9.3,9.3,0,0,0-2.5-.4,8,8,0,0,0-2.4.4,3.9,3.9,0,0,0-1.7.9,4.1,4.1,0,0,0-1,1.3,3.1,3.1,0,0,0-.3,1.3,3.2,3.2,0,0,0,.3,1.4,2.1,2.1,0,0,0,.8,1.1,6.7,6.7,0,0,0,1.9,1l3,.9a24.7,24.7,0,0,1,3.5,1,8.9,8.9,0,0,1,2.4,1.4,4.9,4.9,0,0,1,1.4,1.8,6,6,0,0,1,.5,2.4,5.4,5.4,0,0,1-.6,2.5,6.2,6.2,0,0,1-1.6,2,8.9,8.9,0,0,1-2.6,1.2,12.1,12.1,0,0,1-3.4.5,11.2,11.2,0,0,1-3.8-.6,6.8,6.8,0,0,1-4.4-3.6,5.4,5.4,0,0,1-.6-2.5h2.5a4.8,4.8,0,0,0,.7,2.2,4,4,0,0,0,1.5,1.4,6.4,6.4,0,0,0,1.9.8l2.2.2a8.8,8.8,0,0,0,2.4-.3,5,5,0,0,0,1.8-.9,3.3,3.3,0,0,0,1.1-1.3A2.8,2.8,0,0,0,1694.9,743.6Z"/><path d="M1717.3,746.4a6,6,0,0,1-2.8,2.4,10.1,10.1,0,0,1-7.3.4,6.2,6.2,0,0,1-3.8-4.1,10.9,10.9,0,0,1-.5-3.9V727h2.4v14.3a12.1,12.1,0,0,0,.4,3,6.8,6.8,0,0,0,1.1,1.9,4.2,4.2,0,0,0,1.7,1,6.4,6.4,0,0,0,2,.3,10.3,10.3,0,0,0,2.6-.3,7.2,7.2,0,0,0,2-.9,5.7,5.7,0,0,0,1.3-1.4,7.6,7.6,0,0,0,.9-1.8V727h2.4v22.3h-2.4Z"/><path d="M1736.5,729.1l-1.7-.2a5.9,5.9,0,0,0-2.3.4,6.4,6.4,0,0,0-1.8,1,10.1,10.1,0,0,0-1.3,1.6,11.9,11.9,0,0,0-.8,2v15.4h-2.5V727h2.5v3.5a7.1,7.1,0,0,1,2.5-2.9,6.6,6.6,0,0,1,3.8-1.1h.9l.7.2Z"/><path d="M1748.6,749.7a10.2,10.2,0,0,1-4-.8,10.4,10.4,0,0,1-3.2-2.3,10.2,10.2,0,0,1-2.1-3.5,14.9,14.9,0,0,1-.7-4.3v-.9a13.6,13.6,0,0,1,.8-4.7,10.7,10.7,0,0,1,2.1-3.6,10.9,10.9,0,0,1,3-2.3,9.5,9.5,0,0,1,3.7-.8,8.7,8.7,0,0,1,3.7.8,7.4,7.4,0,0,1,2.8,2.1,8.6,8.6,0,0,1,1.7,3.3,13.1,13.1,0,0,1,.6,4.1v1.5h-15.9v.5a9.7,9.7,0,0,0,.5,3.4,8.5,8.5,0,0,0,1.6,2.8,8.8,8.8,0,0,0,2.4,1.9,6.4,6.4,0,0,0,3.1.7,7.8,7.8,0,0,0,3.5-.7,9.8,9.8,0,0,0,2.8-2.3l1.5,1.1a10.1,10.1,0,0,1-1.3,1.6,5.2,5.2,0,0,1-1.7,1.2,7.3,7.3,0,0,1-2.2.9A11.2,11.2,0,0,1,1748.6,749.7Zm-.4-21.1a5.5,5.5,0,0,0-2.6.6,6.2,6.2,0,0,0-2.2,1.5,9.7,9.7,0,0,0-1.5,2.4,12.7,12.7,0,0,0-.8,3.1h13.4v-.3a12.6,12.6,0,0,0-.4-2.7,7.1,7.1,0,0,0-1.2-2.3,6.2,6.2,0,0,0-2-1.6A5,5,0,0,0,1748.2,728.6Z"/><path d="M1764,727v3.6a10.9,10.9,0,0,1,1.3-1.7l1.6-1.3,2-.8a8.5,8.5,0,0,1,2.3-.3,7.7,7.7,0,0,1,4.2,1.1,5.7,5.7,0,0,1,2.5,3.3,10.9,10.9,0,0,1,1.3-1.7,7.5,7.5,0,0,1,1.7-1.4,8.5,8.5,0,0,1,2.2-.9,9.3,9.3,0,0,1,2.4-.4,9.6,9.6,0,0,1,3.1.5,5.1,5.1,0,0,1,2.3,1.5,6.2,6.2,0,0,1,1.5,2.5,13.2,13.2,0,0,1,.5,3.7v14.6h-2.5V734.7a7.8,7.8,0,0,0-.4-2.9,5,5,0,0,0-1.1-1.9,4,4,0,0,0-1.7-.9,7.8,7.8,0,0,0-2.2-.3,6.1,6.1,0,0,0-2.8.6,6.9,6.9,0,0,0-2,1.3,7.6,7.6,0,0,0-1.2,1.9,8.9,8.9,0,0,0-.6,2v14.8h-2.4V734.5a11.1,11.1,0,0,0-.4-2.8,7.8,7.8,0,0,0-1.1-1.8,5.1,5.1,0,0,0-1.8-.9,7.3,7.3,0,0,0-2.2-.3,6.9,6.9,0,0,0-2.5.4,5.7,5.7,0,0,0-1.8,1.2,5.2,5.2,0,0,0-1.3,1.7,7.2,7.2,0,0,0-.9,2v15.3h-2.4V727Z"/><path d="M1807.9,749.7a11.1,11.1,0,0,1-4.1-.8,10,10,0,0,1-3.1-2.3,10.2,10.2,0,0,1-2.1-3.5,12.1,12.1,0,0,1-.7-4.3v-.9a13.7,13.7,0,0,1,.7-4.7,10.7,10.7,0,0,1,2.1-3.6,10,10,0,0,1,3.1-2.3,8.6,8.6,0,0,1,3.6-.8,9.2,9.2,0,0,1,3.8.8,8.3,8.3,0,0,1,2.8,2.1,10.3,10.3,0,0,1,1.7,3.3,17,17,0,0,1,.5,4.1v1.5h-15.9v.5a9.7,9.7,0,0,0,.6,3.4,8.4,8.4,0,0,0,1.5,2.8,8.8,8.8,0,0,0,2.4,1.9,6.8,6.8,0,0,0,3.2.7,8.1,8.1,0,0,0,3.5-.7,8.3,8.3,0,0,0,2.7-2.3l1.6,1.1a10.1,10.1,0,0,1-1.3,1.6,6.6,6.6,0,0,1-1.7,1.2,8.5,8.5,0,0,1-2.2.9A11.2,11.2,0,0,1,1807.9,749.7Zm-.5-21.1a5.8,5.8,0,0,0-2.6.6,5.1,5.1,0,0,0-2.1,1.5,9.7,9.7,0,0,0-1.5,2.4,9.4,9.4,0,0,0-.8,3.1h13.4v-.3a8.6,8.6,0,0,0-.5-2.7,5.6,5.6,0,0,0-1.2-2.3,5.8,5.8,0,0,0-1.9-1.6A5.1,5.1,0,0,0,1807.4,728.6Z"/><path d="M1823.4,727v3.8a11.8,11.8,0,0,1,1.3-1.8,10.9,10.9,0,0,1,1.7-1.3,7.2,7.2,0,0,1,2-.9,8.5,8.5,0,0,1,2.3-.3,8.4,8.4,0,0,1,2.9.5,5.9,5.9,0,0,1,2.3,1.4,6.5,6.5,0,0,1,1.4,2.6,13.5,13.5,0,0,1,.5,3.8v14.5h-2.5V734.7a8.5,8.5,0,0,0-.4-2.9,5.2,5.2,0,0,0-1-1.8,3.7,3.7,0,0,0-1.7-1,6.6,6.6,0,0,0-2.1-.3,6.1,6.1,0,0,0-2.4.4,5.2,5.2,0,0,0-1.9,1.2,8,8,0,0,0-1.5,1.7,8.8,8.8,0,0,0-.9,2v15.3H1821V727Z"/><path d="M1848.1,721.2V727h4.6v2h-4.6v14.8a8.4,8.4,0,0,0,.2,1.9,2.3,2.3,0,0,0,.7,1.1,1.5,1.5,0,0,0,.9.6h3.1v2l-1.2.3h-1.4a6.4,6.4,0,0,1-2-.3,3.1,3.1,0,0,1-1.5-1,3.2,3.2,0,0,1-1-1.8,7.2,7.2,0,0,1-.4-2.8V729h-4.1v-2h4.1v-5.8Z"/><line class="cls-11" x1="1143.2" y1="639.4" x2="1200.9" y2="639.4"/><line class="cls-12" x1="1143.2" y1="738" x2="1200.9" y2="738"/></g></g></svg>