<svg xmlns="http://www.w3.org/2000/svg" viewBox="0 0 1920 1080"><defs><style>.cls-1{fill:#fff;}.cls-2,.cls-4{fill:none;stroke-miterlimit:10;stroke-width:6px;}.cls-2{stroke:#c6c6c6;}.cls-3{fill:#002d9c;}.cls-4{stroke:#002d9c;}.cls-5{fill:red;}.cls-6{fill:#ff6969;}</style></defs><title>Trilateration - 3</title><g id="Layer_2" data-name="Layer 2"><g id="Other_Layers" data-name="Other Layers"><rect class="cls-1" width="1920" height="1080"/><rect class="cls-2" x="557.4" y="365.4" width="516.2" height="344.16"/><circle class="cls-3" cx="557.2" cy="537.7" r="21.2"/><circle class="cls-3" cx="1073.5" cy="709.8" r="21.2"/><circle class="cls-3" cx="1073.5" cy="365.6" r="21.2"/><path class="cls-4" d="M1210,93.1c99.4,50.3,173.9,155.1,173.8,272.4-.2,155.8-132.1,310.1-310.2,310.1S765.7,519.9,763.3,365.5c-1.5-105.1,55.4-212.9,155.8-269.1C1057.4,19,1195.6,85.9,1210,93.1Z"/><path class="cls-4" d="M995.6,1009.9C876.3,976,763.1,858.6,763.6,709.6c.5-161.9,135.1-310.2,310.2-310.2S1383.5,547.6,1384,709.6c.5,149.8-113.8,267.4-233.6,300.7C1077.9,1030.4,1017,1015.9,995.6,1009.9Z"/><circle class="cls-5" cx="815.3" cy="537.7" r="21.2"/><ellipse class="cls-6" cx="1329.9" cy="534.1" rx="15.2" ry="15.1"/></g></g></svg>