<svg xmlns="http://www.w3.org/2000/svg" viewBox="0 0 1920 1080"><defs><style>.cls-1{fill:#fff;}.cls-2,.cls-4{fill:none;stroke-miterlimit:10;stroke-width:6px;}.cls-2{stroke:#c6c6c6;}.cls-3{fill:#002d9c;}.cls-4{stroke:#002d9c;}.cls-5{fill:#ff6969;}.cls-6{fill:red;}</style></defs><title>Trilateration - 4</title><g id="Layer_2" data-name="Layer 2"><g id="Other_Layers" data-name="Other Layers"><rect class="cls-1" width="1920" height="1080"/><rect class="cls-2" x="559.7" y="355.5" width="538.9" height="359.25"/><circle class="cls-3" cx="559.5" cy="535.4" r="22.2"/><circle class="cls-3" cx="1098.4" cy="715" r="22.2"/><circle class="cls-3" cx="1098.4" cy="355.7" r="22.2"/><path class="cls-4" d="M1240.9,71.3c103.8,52.4,181.6,161.8,181.4,284.3-.2,162.6-137.9,323.8-323.8,323.8S777.1,516.7,774.7,355.6C773,245.9,832.5,133.4,937.2,74.7,1081.6-6.1,1225.9,63.7,1240.9,71.3Z"/><path class="cls-4" d="M1017.1,1028.2C892.6,992.9,774.4,870.3,774.9,714.8c.6-169,141-323.8,323.8-323.8S1422,545.7,1422.6,714.8c.5,156.4-118.9,279.1-243.9,313.8C1103,1049.7,1039.4,1034.5,1017.1,1028.2Z"/><ellipse class="cls-5" cx="1366" cy="531.6" rx="15.9" ry="15.7"/><circle class="cls-4" cx="559.2" cy="534.7" r="269.4"/><circle class="cls-6" cx="828.9" cy="535.4" r="22.2"/><ellipse class="cls-5" cx="775.1" cy="373.5" rx="15.9" ry="15.7"/><ellipse class="cls-5" cx="775.1" cy="695.9" rx="15.9" ry="15.7"/></g></g></svg>