<svg xmlns="http://www.w3.org/2000/svg" viewBox="0 0 1920 1080"><defs><style>.cls-1{fill:#fff;}.cls-2,.cls-4{fill:none;stroke-miterlimit:10;stroke-width:6px;}.cls-2{stroke:#c6c6c6;}.cls-3{fill:#002d9c;}.cls-4{stroke:#002d9c;}.cls-5{fill:red;}.cls-6{fill:#ff6969;}</style></defs><title>Trilateration - 2</title><g id="Layer_2" data-name="Layer 2"><g id="Other_Layers" data-name="Other Layers"><rect class="cls-1" width="1920" height="1080"/><rect class="cls-2" x="343.5" y="505.8" width="776.1" height="517.38"/><circle class="cls-3" cx="343.2" cy="764.7" r="31.9"/><circle class="cls-3" cx="1119.3" cy="1023.4" r="31.9"/><circle class="cls-3" cx="1119.3" cy="506" r="31.9"/><path class="cls-4" d="M1324.6,96.4C1474,171.9,1586,329.5,1585.8,505.8c-.3,234.3-198.6,466.3-466.3,466.3S656.6,737.9,653.1,505.8c-2.4-157.9,83.2-320,234.1-404.5C1095.1-15,1303,85.5,1324.6,96.4Z"/><line class="cls-4" x1="1118.9" y1="506.4" x2="730.9" y2="765.1"/><circle class="cls-5" cx="731.3" cy="764.7" r="31.9"/><ellipse class="cls-6" cx="820.8" cy="864" rx="22.9" ry="22.6"/><ellipse class="cls-6" cx="910" cy="923.5" rx="22.9" ry="22.6"/><ellipse class="cls-6" cx="1020" cy="962.3" rx="22.9" ry="22.6"/><ellipse class="cls-6" cx="1180.4" cy="968.8" rx="22.9" ry="22.6"/><ellipse class="cls-6" cx="1277.4" cy="946.2" rx="22.9" ry="22.6"/><ellipse class="cls-6" cx="1362.7" cy="900.9" rx="22.9" ry="22.6"/><ellipse class="cls-6" cx="1585.8" cy="505.8" rx="22.9" ry="22.6"/><ellipse class="cls-6" cx="1514.1" cy="742.5" rx="22.9" ry="22.6"/><ellipse class="cls-6" cx="1568.4" cy="624.8" rx="22.9" ry="22.6"/><ellipse class="cls-6" cx="1453.3" cy="830.4" rx="22.9" ry="22.6"/><ellipse class="cls-6" cx="653.1" cy="505.8" rx="22.9" ry="22.6"/><ellipse class="cls-6" cx="664.5" cy="602.1" rx="22.9" ry="22.6"/><ellipse class="cls-6" cx="687.4" cy="692" rx="22.9" ry="22.6"/><ellipse class="cls-6" cx="731.5" cy="249.7" rx="22.9" ry="22.6"/><ellipse class="cls-6" cx="1484.3" cy="233.5" rx="22.9" ry="22.6"/><ellipse class="cls-6" cx="809.1" cy="160.4" rx="22.9" ry="22.6"/><ellipse class="cls-6" cx="1404.1" cy="153.4" rx="22.9" ry="22.6"/><ellipse class="cls-6" cx="676" cy="364.8" rx="22.9" ry="22.6"/><ellipse class="cls-6" cx="1559.8" cy="364.8" rx="22.9" ry="22.6"/><ellipse class="cls-6" cx="884.2" cy="102.9" rx="22.9" ry="22.6"/><ellipse class="cls-6" cx="1006.6" cy="55.9" rx="22.9" ry="22.6"/><ellipse class="cls-6" cx="1133.4" cy="47.3" rx="22.9" ry="22.6"/><ellipse class="cls-6" cx="1277.4" cy="76.6" rx="22.9" ry="22.6"/></g></g></svg>