<svg xmlns="http://www.w3.org/2000/svg" viewBox="0 0 1920 1080"><defs><style>.cls-1{fill:#fff;}.cls-2{fill:none;stroke:#c6c6c6;stroke-miterlimit:10;stroke-width:6px;}.cls-3{fill:#002d9c;}.cls-4{fill:#0043ce;}.cls-5{fill:red;}</style></defs><title>Trilateration - 1_1</title><g id="Layer_2" data-name="Layer 2"><g id="Other_Layers" data-name="Other Layers"><rect class="cls-1" width="1920" height="1080"/><rect class="cls-2" x="534.4" y="151.9" width="697" height="464.68"/><circle class="cls-3" cx="534.2" cy="384.5" r="28.7"/><circle class="cls-3" cx="1231.2" cy="616.8" r="28.7"/><circle class="cls-3" cx="1231.2" cy="152.2" r="28.7"/><path class="cls-4" d="M154.4,389.1H135.6l-4.2,11.6h-3.7l15.6-41.3h3.3l15.7,41.3h-3.7Zm-17.7-3h16.6L145,363.6Z"/><path class="cls-4" d="M170.8,370v5.2a18.8,18.8,0,0,1,1.8-2.4A13,13,0,0,1,175,371a13.9,13.9,0,0,1,2.8-1.2,10.6,10.6,0,0,1,3.1-.4,13.1,13.1,0,0,1,4.1.6,7.2,7.2,0,0,1,3.1,2,9.1,9.1,0,0,1,1.9,3.5,16,16,0,0,1,.7,5.2v20h-3.4v-20a15,15,0,0,0-.5-4,6.5,6.5,0,0,0-1.4-2.6,5.3,5.3,0,0,0-2.3-1.3,9.5,9.5,0,0,0-3-.4,8.8,8.8,0,0,0-3.3.6,7.6,7.6,0,0,0-2.6,1.6,14.3,14.3,0,0,0-2,2.3,16.6,16.6,0,0,0-1.3,2.7v21.1h-3.3V370Z"/><path class="cls-4" d="M210.8,398.4a10.6,10.6,0,0,0,3.1-.5,8.7,8.7,0,0,0,2.7-1.4,8.2,8.2,0,0,0,1.9-2.2,6.2,6.2,0,0,0,.8-3.1h3.3a9.2,9.2,0,0,1-1.1,4,9.9,9.9,0,0,1-2.6,3.2,11.2,11.2,0,0,1-3.7,2.1,12.7,12.7,0,0,1-4.4.7,14.5,14.5,0,0,1-5.7-1.1,12,12,0,0,1-4.1-3.3,15.1,15.1,0,0,1-2.5-4.9,22.3,22.3,0,0,1-.8-6v-1.2a23.5,23.5,0,0,1,.8-6,15.1,15.1,0,0,1,2.5-4.9,12.2,12.2,0,0,1,9.8-4.4,14.4,14.4,0,0,1,4.6.8,9.5,9.5,0,0,1,3.6,2.2,11,11,0,0,1,2.6,3.4,13.4,13.4,0,0,1,1,4.5h-3.3a7.3,7.3,0,0,0-.8-3.3,6.4,6.4,0,0,0-1.8-2.5,7.4,7.4,0,0,0-2.7-1.6,8.7,8.7,0,0,0-3.2-.6,8.8,8.8,0,0,0-4.5,1,8.9,8.9,0,0,0-3,2.8,12.5,12.5,0,0,0-1.7,3.9,24.2,24.2,0,0,0-.5,4.7v1.2a23.4,23.4,0,0,0,.5,4.7,12.1,12.1,0,0,0,1.7,4,7.7,7.7,0,0,0,3,2.7A8.8,8.8,0,0,0,210.8,398.4Z"/><path class="cls-4" d="M232.8,375.2a10.8,10.8,0,0,1,1.8-2.4,12,12,0,0,1,5-3,10.6,10.6,0,0,1,3.1-.4,12.7,12.7,0,0,1,4.1.6,6.7,6.7,0,0,1,3.1,2,9.2,9.2,0,0,1,2,3.5,19.6,19.6,0,0,1,.6,5.2v20h-3.4v-20a11.8,11.8,0,0,0-.5-4,6.5,6.5,0,0,0-1.4-2.6,4.8,4.8,0,0,0-2.3-1.3,9.5,9.5,0,0,0-3-.4,8.8,8.8,0,0,0-3.3.6,8.7,8.7,0,0,0-2.6,1.6,13.7,13.7,0,0,0-1.9,2.3,11.1,11.1,0,0,0-1.3,2.7v21.1h-3.4V357.1h3.4Z"/><path class="cls-4" d="M259.4,384.9a17.5,17.5,0,0,1,1-6.2,13.7,13.7,0,0,1,2.7-4.9,12.1,12.1,0,0,1,4.3-3.2,13.2,13.2,0,0,1,5.7-1.2,12.8,12.8,0,0,1,5.6,1.2,11.6,11.6,0,0,1,4.4,3.2,13.7,13.7,0,0,1,2.7,4.9,17.5,17.5,0,0,1,1,6.2v.9a17.9,17.9,0,0,1-1,6.2,13.7,13.7,0,0,1-2.7,4.9,15.1,15.1,0,0,1-4.3,3.2,14.8,14.8,0,0,1-5.7,1.1,12.9,12.9,0,0,1-10-4.3,13.7,13.7,0,0,1-2.7-4.9,17.9,17.9,0,0,1-1-6.2Zm3.4.9a15.1,15.1,0,0,0,.7,4.8,10.8,10.8,0,0,0,2,4,7.6,7.6,0,0,0,3.2,2.7,9.4,9.4,0,0,0,8.8,0,7.6,7.6,0,0,0,3.2-2.7,10.8,10.8,0,0,0,2-4,15.1,15.1,0,0,0,.7-4.8v-.9a15.1,15.1,0,0,0-.7-4.8,11.6,11.6,0,0,0-2-4,8.7,8.7,0,0,0-3.2-2.8,9.2,9.2,0,0,0-4.4-1,8.9,8.9,0,0,0-4.4,1,8.7,8.7,0,0,0-3.2,2.8,11.6,11.6,0,0,0-2,4,15.1,15.1,0,0,0-.7,4.8Z"/><path class="cls-4" d="M308,372.9a8.6,8.6,0,0,0-2.3-.2,7.5,7.5,0,0,0-3.1.5,6.8,6.8,0,0,0-2.5,1.4,9.6,9.6,0,0,0-1.8,2.2,8.6,8.6,0,0,0-1.1,2.8v21.1h-3.4V370h3.3v4.9a8.9,8.9,0,0,1,3.4-4,8.6,8.6,0,0,1,5.2-1.5h1.3l1,.3Z"/><path class="cls-4" d="M359,400.7h-3.5l-23.7-35.4v35.4h-3.6V359.4h3.6l23.7,35.3V359.4H359Z"/><path class="cls-4" d="M366.8,384.9a17.5,17.5,0,0,1,1-6.2,15.7,15.7,0,0,1,2.8-4.9,11.3,11.3,0,0,1,4.3-3.2,12.8,12.8,0,0,1,5.6-1.2,13.2,13.2,0,0,1,5.7,1.2,11.3,11.3,0,0,1,4.3,3.2,15.7,15.7,0,0,1,2.8,4.9,20.2,20.2,0,0,1,.9,6.2v.9a20.6,20.6,0,0,1-.9,6.2,15.7,15.7,0,0,1-2.8,4.9,13.8,13.8,0,0,1-4.3,3.2,15.1,15.1,0,0,1-11.3,0,13.8,13.8,0,0,1-4.3-3.2,15.7,15.7,0,0,1-2.8-4.9,17.9,17.9,0,0,1-1-6.2Zm3.4.9a15.1,15.1,0,0,0,.7,4.8,12.5,12.5,0,0,0,2,4,8.3,8.3,0,0,0,3.2,2.7,9.3,9.3,0,0,0,4.4,1.1,9.4,9.4,0,0,0,4.5-1.1,9.1,9.1,0,0,0,3.2-2.7,15,15,0,0,0,2-4,18.6,18.6,0,0,0,.6-4.8v-.9a18.6,18.6,0,0,0-.6-4.8,16.6,16.6,0,0,0-2-4,9.9,9.9,0,0,0-3.3-2.8,10.2,10.2,0,0,0-8.8,0,9.5,9.5,0,0,0-3.2,2.8,13.6,13.6,0,0,0-2,4,15.1,15.1,0,0,0-.7,4.8Z"/><path class="cls-4" d="M399.9,385a21.6,21.6,0,0,1,.8-6.4,13.9,13.9,0,0,1,2.3-4.9,11.6,11.6,0,0,1,3.8-3.2,11,11,0,0,1,4.9-1.1,10.8,10.8,0,0,1,5.6,1.3,11.2,11.2,0,0,1,3.9,3.6V357.1h3.4v43.6h-3.2l-.2-4.1a10.7,10.7,0,0,1-3.9,3.4,11.9,11.9,0,0,1-5.6,1.2,10.7,10.7,0,0,1-4.9-1.1,13,13,0,0,1-3.8-3.2,14.8,14.8,0,0,1-2.3-4.9,22,22,0,0,1-.8-6.4Zm3.4.6a25.7,25.7,0,0,0,.5,5,12.6,12.6,0,0,0,1.7,4.1,7,7,0,0,0,2.8,2.6,7.2,7.2,0,0,0,4,1,14.6,14.6,0,0,0,3.1-.4,8.3,8.3,0,0,0,2.5-1.2,10.5,10.5,0,0,0,1.9-1.7,13.5,13.5,0,0,0,1.4-2.2V378.3a25.3,25.3,0,0,0-1.3-2.2,8.1,8.1,0,0,0-1.8-1.9,6.6,6.6,0,0,0-2.5-1.3,8.2,8.2,0,0,0-3.3-.5,8.4,8.4,0,0,0-4,.9,8.1,8.1,0,0,0-2.8,2.7,13.1,13.1,0,0,0-1.7,4,27.3,27.3,0,0,0-.5,5Z"/><path class="cls-4" d="M445.4,401.2a12.3,12.3,0,0,1-5.5-1.1,12.5,12.5,0,0,1-4.4-3.1,14.3,14.3,0,0,1-2.9-4.8,18.9,18.9,0,0,1-1-6V385a18.3,18.3,0,0,1,1.1-6.4,15.3,15.3,0,0,1,2.9-5,14.3,14.3,0,0,1,4.2-3.1,11.8,11.8,0,0,1,5-1.1,11.9,11.9,0,0,1,5.1,1.1,10.2,10.2,0,0,1,3.9,2.9,12.3,12.3,0,0,1,2.3,4.4,20.7,20.7,0,0,1,.8,5.7v2H435v.7a14,14,0,0,0,.8,4.7,12.2,12.2,0,0,0,2.1,3.9,10.3,10.3,0,0,0,3.3,2.6,10.4,10.4,0,0,0,4.3,1,12.1,12.1,0,0,0,4.8-1,10.3,10.3,0,0,0,3.8-3.2l2.1,1.6a12,12,0,0,1-1.7,2.1,8.1,8.1,0,0,1-2.4,1.7,13.4,13.4,0,0,1-3,1.2A14,14,0,0,1,445.4,401.2Zm-.6-28.9a8.4,8.4,0,0,0-6.5,2.8,9.3,9.3,0,0,0-2.1,3.3,18,18,0,0,0-1.1,4.3h18.4v-.4a11.5,11.5,0,0,0-.6-3.7,9,9,0,0,0-1.7-3.2,7.5,7.5,0,0,0-2.7-2.3A8.4,8.4,0,0,0,444.8,372.3Z"/><path class="cls-5" d="M794.4,286.8H780.2v38.4h-3.5V286.8H762.6v-2.9h31.8Z"/><path class="cls-5" d="M816.4,325.2a10.1,10.1,0,0,1-.4-2,17.9,17.9,0,0,1-.2-2.3,10.9,10.9,0,0,1-1.9,1.8,13.4,13.4,0,0,1-2.3,1.6,12.4,12.4,0,0,1-2.9,1,11.5,11.5,0,0,1-3.3.4,13.1,13.1,0,0,1-4.1-.6,9.6,9.6,0,0,1-3.1-1.9,6.6,6.6,0,0,1-2-2.7,8.1,8.1,0,0,1-.7-3.5,8.7,8.7,0,0,1,.9-4,10.3,10.3,0,0,1,2.8-3.1,13.6,13.6,0,0,1,4.4-1.9,21,21,0,0,1,5.8-.7h6.3v-3.5a6.6,6.6,0,0,0-2-5.2c-1.3-1.2-3.3-1.8-5.9-1.8a11.5,11.5,0,0,0-3.3.4,9.2,9.2,0,0,0-2.6,1.4,6.1,6.1,0,0,0-1.7,1.9,5.3,5.3,0,0,0-.6,2.4h-3.4a7.6,7.6,0,0,1,.8-3.3,9.6,9.6,0,0,1,2.4-2.9,13.7,13.7,0,0,1,3.8-2,14.2,14.2,0,0,1,4.8-.8,16.3,16.3,0,0,1,4.5.6,10.8,10.8,0,0,1,3.5,1.9,9,9,0,0,1,2.3,3.1,11.9,11.9,0,0,1,.8,4.4v14.8a9.7,9.7,0,0,0,.1,1.7,28809774956446.7,28809774956446.7,0,0,0,.4,3.2,8.4,8.4,0,0,1,.4,1.2v.4Zm-10.6-2.5a9.7,9.7,0,0,0,3.4-.5A11.8,11.8,0,0,0,812,321a8.5,8.5,0,0,0,2.2-2,6.5,6.5,0,0,0,1.5-2.3v-6.8h-5.8a20.9,20.9,0,0,0-4.6.5,12.8,12.8,0,0,0-3.5,1.3,5.8,5.8,0,0,0-2.2,2.2,5.3,5.3,0,0,0-.7,2.8,6.4,6.4,0,0,0,.4,2.4,8.5,8.5,0,0,0,1.4,1.9,8.3,8.3,0,0,0,5.1,1.7Z"/><path class="cls-5" d="M826.8,309.5a24.9,24.9,0,0,1,.8-6.4,13.9,13.9,0,0,1,2.3-4.9,10.5,10.5,0,0,1,3.8-3.2,11.2,11.2,0,0,1,5-1.1,11.3,11.3,0,0,1,5.6,1.3,10.6,10.6,0,0,1,3.9,3.7l.2-4.4h3.1v30.1a15.3,15.3,0,0,1-.9,5.4,11.5,11.5,0,0,1-2.4,4,11.4,11.4,0,0,1-3.9,2.5,13.6,13.6,0,0,1-5.1.9l-2.9-.3-2.9-1a12.4,12.4,0,0,1-2.7-1.7,9.7,9.7,0,0,1-2.2-2.3l1.9-2a13.2,13.2,0,0,0,4,3.3,9,9,0,0,0,4.6,1.1,10,10,0,0,0,3.9-.7,6.7,6.7,0,0,0,2.8-1.9,7.5,7.5,0,0,0,1.8-3,13.1,13.1,0,0,0,.6-4.1v-3.6a10.4,10.4,0,0,1-3.9,3.3,12.2,12.2,0,0,1-5.6,1.2,11,11,0,0,1-4.9-1.1,13,13,0,0,1-3.8-3.2,14.4,14.4,0,0,1-2.3-5,24.7,24.7,0,0,1-.8-6.3Zm3.4.6a19.6,19.6,0,0,0,.6,5,11.2,11.2,0,0,0,1.6,4,7.2,7.2,0,0,0,2.8,2.7,8.5,8.5,0,0,0,4,1,10.7,10.7,0,0,0,3.2-.5,8,8,0,0,0,2.5-1.1,7.7,7.7,0,0,0,1.8-1.8,10.2,10.2,0,0,0,1.4-2.2V302.9a10.1,10.1,0,0,0-1.2-2.3,6.9,6.9,0,0,0-1.9-1.9,9.5,9.5,0,0,0-2.4-1.4,11.4,11.4,0,0,0-3.3-.5,8.9,8.9,0,0,0-4.1,1,9,9,0,0,0-2.8,2.7,12,12,0,0,0-1.6,4,20.1,20.1,0,0,0-.6,5Z"/><path class="cls-5" d="M906,325.2h-3.5l-23.7-35.4v35.4h-3.5V283.9h3.5l23.8,35.3V283.9H906Z"/><path class="cls-5" d="M913.9,309.4a20.2,20.2,0,0,1,.9-6.2,15.7,15.7,0,0,1,2.8-4.9,11.3,11.3,0,0,1,4.3-3.2,13.9,13.9,0,0,1,11.3,0,10.6,10.6,0,0,1,4.3,3.2,13.9,13.9,0,0,1,2.8,4.9,20.1,20.1,0,0,1,1,6.2v.9a20.6,20.6,0,0,1-1,6.2,13.9,13.9,0,0,1-2.8,4.9,12.7,12.7,0,0,1-4.3,3.2,14,14,0,0,1-5.6,1.1,14.8,14.8,0,0,1-5.7-1.1,15.1,15.1,0,0,1-4.3-3.2,15.7,15.7,0,0,1-2.8-4.9,20.6,20.6,0,0,1-.9-6.2Zm3.4.9a18.6,18.6,0,0,0,.6,4.8,15,15,0,0,0,2,4,9.6,9.6,0,0,0,3.3,2.7,9.4,9.4,0,0,0,8.8,0,8.4,8.4,0,0,0,3.2-2.7,10.8,10.8,0,0,0,2-4,15.1,15.1,0,0,0,.7-4.8v-.9a15.1,15.1,0,0,0-.7-4.8,10.8,10.8,0,0,0-2-4,8.7,8.7,0,0,0-3.2-2.8,9.3,9.3,0,0,0-4.5-1,8.5,8.5,0,0,0-4.3,1,9.9,9.9,0,0,0-3.3,2.8,15,15,0,0,0-2,4,18.6,18.6,0,0,0-.6,4.8Z"/><path class="cls-5" d="M946.9,309.5a24.9,24.9,0,0,1,.8-6.4,16,16,0,0,1,2.4-4.9,9.5,9.5,0,0,1,3.7-3.2,11.5,11.5,0,0,1,5-1.1,11.3,11.3,0,0,1,5.6,1.3,11.9,11.9,0,0,1,3.8,3.6V281.6h3.4v43.6h-3.2v-4.1a10.7,10.7,0,0,1-3.9,3.4,12.6,12.6,0,0,1-5.7,1.2,10.2,10.2,0,0,1-8.6-4.3,16.6,16.6,0,0,1-2.4-5,24.7,24.7,0,0,1-.8-6.3Zm3.4.6a19.6,19.6,0,0,0,.6,5,11.2,11.2,0,0,0,1.6,4,8,8,0,0,0,2.8,2.7,8.5,8.5,0,0,0,4,1,15.5,15.5,0,0,0,3.2-.4,11.5,11.5,0,0,0,2.5-1.2,15.4,15.4,0,0,0,1.9-1.7,10.5,10.5,0,0,0,1.3-2.3V302.8a11.9,11.9,0,0,0-1.2-2.2,8.1,8.1,0,0,0-1.8-1.9,10.1,10.1,0,0,0-2.5-1.4,11.4,11.4,0,0,0-3.3-.5,8.9,8.9,0,0,0-4.1,1,10.3,10.3,0,0,0-2.8,2.7,12,12,0,0,0-1.6,4,20.1,20.1,0,0,0-.6,5Z"/><path class="cls-5" d="M992.4,325.7a14.2,14.2,0,0,1-5.5-1.1,13.5,13.5,0,0,1-4.4-3.1,15.2,15.2,0,0,1-2.8-4.8,16.4,16.4,0,0,1-1-6v-1.2a19.3,19.3,0,0,1,1-6.5,15.9,15.9,0,0,1,2.9-4.9,12.7,12.7,0,0,1,4.2-3.1,12.9,12.9,0,0,1,10.2-.1,10.2,10.2,0,0,1,3.8,3,12.3,12.3,0,0,1,2.3,4.4,17.1,17.1,0,0,1,.8,5.7v2H982v.7a14,14,0,0,0,.8,4.7,10.7,10.7,0,0,0,2.2,3.9,9.3,9.3,0,0,0,3.3,2.6,10.1,10.1,0,0,0,4.3,1,12.1,12.1,0,0,0,4.8-1,12.5,12.5,0,0,0,3.8-3.2l2.1,1.6a16.8,16.8,0,0,1-1.8,2.1,9.8,9.8,0,0,1-2.3,1.7,13.4,13.4,0,0,1-3,1.2A14.8,14.8,0,0,1,992.4,325.7Zm-.6-28.9a8.6,8.6,0,0,0-3.6.7,9.8,9.8,0,0,0-2.9,2.1,10.8,10.8,0,0,0-2,3.3,11.9,11.9,0,0,0-1.1,4.2h18.4v-.3a15.9,15.9,0,0,0-.7-3.8,8.3,8.3,0,0,0-1.6-3.1,7.5,7.5,0,0,0-2.7-2.3A9.2,9.2,0,0,0,991.8,296.8Z"/><circle class="cls-5" cx="882.7" cy="384.5" r="28.7"/><path class="cls-4" d="M494,688.6h-6v50.3h6v2.9h-9.4V685.7H494Z"/><path class="cls-4" d="M522.7,715.7a37,37,0,0,1-.8,7.9,15.6,15.6,0,0,1-2.5,5.5,9.8,9.8,0,0,1-4,3.3,12.5,12.5,0,0,1-5.3,1.1,13.3,13.3,0,0,1-5.4-1.1,10.4,10.4,0,0,1-4-3.3,15.6,15.6,0,0,1-2.5-5.5,31.2,31.2,0,0,1-.9-7.9v-7a31.2,31.2,0,0,1,.9-7.9,16.4,16.4,0,0,1,2.5-5.5,10.3,10.3,0,0,1,4-3.2A12.9,12.9,0,0,1,510,691a13.3,13.3,0,0,1,5.4,1.1,11.1,11.1,0,0,1,4,3.2,18.7,18.7,0,0,1,2.5,5.5,37,37,0,0,1,.8,7.9Zm-3.4-7.4c0-4.7-.8-8.3-2.3-10.7a7.6,7.6,0,0,0-7-3.7,7.7,7.7,0,0,0-7,3.7c-1.5,2.4-2.3,6-2.3,10.7v7.8a29,29,0,0,0,.6,6.2,13.2,13.2,0,0,0,1.8,4.5,7.1,7.1,0,0,0,2.9,2.8,7.8,7.8,0,0,0,4.1,1,7.4,7.4,0,0,0,4-1,6.5,6.5,0,0,0,2.9-2.8,11.4,11.4,0,0,0,1.7-4.5,29,29,0,0,0,.6-6.2Z"/><path class="cls-4" d="M533.8,731.5a11.5,11.5,0,0,1-.3,2.6,8.4,8.4,0,0,1-.7,2.4,15.9,15.9,0,0,1-1.3,2.2,7.7,7.7,0,0,1-1.7,1.9l-2-1.5a11.3,11.3,0,0,0,2-3.5,10.2,10.2,0,0,0,.7-4v-4h3.3Z"/><path class="cls-4" d="M566,715.7a37,37,0,0,1-.8,7.9,15.6,15.6,0,0,1-2.5,5.5,9.8,9.8,0,0,1-4,3.3,12.5,12.5,0,0,1-5.3,1.1,13.3,13.3,0,0,1-5.4-1.1,10.4,10.4,0,0,1-4-3.3,17.5,17.5,0,0,1-2.5-5.5,31.2,31.2,0,0,1-.9-7.9v-7a31.2,31.2,0,0,1,.9-7.9,16.4,16.4,0,0,1,2.5-5.5,10.3,10.3,0,0,1,4-3.2,12.9,12.9,0,0,1,5.3-1.1,13.3,13.3,0,0,1,5.4,1.1,11.1,11.1,0,0,1,4,3.2,16.4,16.4,0,0,1,2.5,5.5,37,37,0,0,1,.8,7.9Zm-3.4-7.4c0-4.7-.7-8.3-2.3-10.7a7.6,7.6,0,0,0-7-3.7,7.7,7.7,0,0,0-7,3.7c-1.5,2.4-2.3,6-2.3,10.7v7.8a29,29,0,0,0,.6,6.2,13.2,13.2,0,0,0,1.8,4.5,7.9,7.9,0,0,0,7,3.8,7.4,7.4,0,0,0,4-1,6.5,6.5,0,0,0,2.9-2.8,13.2,13.2,0,0,0,1.8-4.5,38,38,0,0,0,.5-6.2Z"/><path class="cls-4" d="M569.4,685.7h9.4v56.1h-9.4v-2.9h6V688.6h-6Z"/><path class="cls-4" d="M1159.6,688.6h-5.9v50.3h5.9v2.9h-9.3V685.7h9.3Z"/><path class="cls-4" d="M1183.5,691.3v3h-.5a19,19,0,0,0-6.6,1.1,14.5,14.5,0,0,0-8.3,8.5,23.4,23.4,0,0,0-1.4,6.9,10.6,10.6,0,0,1,4.4-3.7,12.5,12.5,0,0,1,5.9-1.3,12.1,12.1,0,0,1,5.2,1.1,9.8,9.8,0,0,1,3.7,3,11.7,11.7,0,0,1,2.2,4.3,17.7,17.7,0,0,1,.8,5.2,16.3,16.3,0,0,1-.9,5.5,11.5,11.5,0,0,1-2.4,4.5,11.4,11.4,0,0,1-3.9,3,11.9,11.9,0,0,1-5.1,1.1,13.1,13.1,0,0,1-5.6-1.2,13.4,13.4,0,0,1-4.2-3.3,15.9,15.9,0,0,1-2.6-4.8,18.7,18.7,0,0,1-1-5.9v-3.6a36,36,0,0,1,1.2-9.6,23.3,23.3,0,0,1,3.7-7.4,16.2,16.2,0,0,1,6.2-4.7,21.4,21.4,0,0,1,8.7-1.7Zm-7.1,17.4a10.1,10.1,0,0,0-6.1,2,12,12,0,0,0-2.3,2.2,8.7,8.7,0,0,0-1.4,2.7v2.8a16,16,0,0,0,.8,5.1,10.9,10.9,0,0,0,2.2,3.8,7.9,7.9,0,0,0,3.1,2.4,8.6,8.6,0,0,0,3.9.9,7.5,7.5,0,0,0,3.7-.9,8.1,8.1,0,0,0,2.8-2.4,10.6,10.6,0,0,0,1.8-3.5,14.9,14.9,0,0,0,.6-4.3,13.5,13.5,0,0,0-.6-4.1,9.4,9.4,0,0,0-1.6-3.5,8.8,8.8,0,0,0-6.9-3.2Z"/><path class="cls-4" d="M1220.6,715.7a31.2,31.2,0,0,1-.9,7.9,15.6,15.6,0,0,1-2.5,5.5,9.5,9.5,0,0,1-3.9,3.3,13.3,13.3,0,0,1-5.4,1.1,12.9,12.9,0,0,1-5.3-1.1,9.8,9.8,0,0,1-4-3.3,14,14,0,0,1-2.5-5.5,31.2,31.2,0,0,1-.9-7.9v-7a37,37,0,0,1,.8-7.9,18.7,18.7,0,0,1,2.5-5.5,11.1,11.1,0,0,1,4-3.2,13.6,13.6,0,0,1,10.7,0,10.3,10.3,0,0,1,4,3.2,16.4,16.4,0,0,1,2.5,5.5,31.2,31.2,0,0,1,.9,7.9Zm-3.4-7.4c0-4.7-.8-8.3-2.4-10.7a7.5,7.5,0,0,0-6.9-3.7,7.6,7.6,0,0,0-7,3.7c-1.6,2.4-2.3,6-2.3,10.7v7.8a38,38,0,0,0,.5,6.2,13.2,13.2,0,0,0,1.8,4.5,7.3,7.3,0,0,0,3,2.8,7.4,7.4,0,0,0,4,1,7.9,7.9,0,0,0,7-3.8,15.7,15.7,0,0,0,1.7-4.5,29,29,0,0,0,.6-6.2Z"/><path class="cls-4" d="M1252.8,715.7a31.2,31.2,0,0,1-.9,7.9,15.6,15.6,0,0,1-2.5,5.5,9.5,9.5,0,0,1-3.9,3.3,13.3,13.3,0,0,1-5.4,1.1,12.5,12.5,0,0,1-5.3-1.1,9.8,9.8,0,0,1-4-3.3,15.6,15.6,0,0,1-2.6-5.5,37,37,0,0,1-.8-7.9v-7a37,37,0,0,1,.8-7.9,16.4,16.4,0,0,1,2.5-5.5,10.3,10.3,0,0,1,4-3.2,13.6,13.6,0,0,1,10.7,0,10.3,10.3,0,0,1,4,3.2,16.4,16.4,0,0,1,2.5,5.5,31.2,31.2,0,0,1,.9,7.9Zm-3.5-7.4c0-4.7-.7-8.3-2.3-10.7a8.4,8.4,0,0,0-13.9,0c-1.6,2.4-2.4,6-2.4,10.7v7.8a29,29,0,0,0,.6,6.2,13.2,13.2,0,0,0,1.8,4.5,7.7,7.7,0,0,0,2.9,2.8,8,8,0,0,0,4.1,1,7.9,7.9,0,0,0,7-3.8,15.7,15.7,0,0,0,1.7-4.5,29.4,29.4,0,0,0,.5-6.2Z"/><path class="cls-4" d="M1263.8,731.5a11.4,11.4,0,0,1-.2,2.6,13.5,13.5,0,0,1-.8,2.4,9.8,9.8,0,0,1-1.3,2.2,7.4,7.4,0,0,1-1.6,1.9l-2-1.5a13.3,13.3,0,0,0,1.9-3.5,10.2,10.2,0,0,0,.7-4v-4h3.3Z"/><path class="cls-4" d="M1296.1,715.7a31.2,31.2,0,0,1-.9,7.9,15.6,15.6,0,0,1-2.5,5.5,9.5,9.5,0,0,1-3.9,3.3,13.3,13.3,0,0,1-5.4,1.1,12.5,12.5,0,0,1-5.3-1.1,9.8,9.8,0,0,1-4-3.3,14,14,0,0,1-2.5-5.5,31.2,31.2,0,0,1-.9-7.9v-7a37,37,0,0,1,.8-7.9,18.7,18.7,0,0,1,2.5-5.5,11.1,11.1,0,0,1,4-3.2,13.6,13.6,0,0,1,10.7,0,10.3,10.3,0,0,1,4,3.2,16.4,16.4,0,0,1,2.5,5.5,31.2,31.2,0,0,1,.9,7.9Zm-3.4-7.4c0-4.7-.8-8.3-2.4-10.7a7.5,7.5,0,0,0-6.9-3.7,7.6,7.6,0,0,0-7,3.7c-1.6,2.4-2.3,6-2.3,10.7v7.8a38,38,0,0,0,.5,6.2,13.2,13.2,0,0,0,1.8,4.5,7.3,7.3,0,0,0,3,2.8,7.4,7.4,0,0,0,4,1,7.9,7.9,0,0,0,7-3.8,15.7,15.7,0,0,0,1.7-4.5,29,29,0,0,0,.6-6.2Z"/><path class="cls-4" d="M1299.5,685.7h9.4v56.1h-9.4v-2.9h5.9V688.6h-5.9Z"/><path class="cls-4" d="M360.8,428.4h-5.9v50.2h5.9v2.9h-9.3v-56h9.3Z"/><path class="cls-4" d="M389.5,455.5a31.5,31.5,0,0,1-.8,7.9,16.4,16.4,0,0,1-2.5,5.5,9.5,9.5,0,0,1-3.9,3.3,13.3,13.3,0,0,1-5.4,1.1,12.5,12.5,0,0,1-5.3-1.1,9.8,9.8,0,0,1-4-3.3,16.5,16.5,0,0,1-2.6-5.5,37,37,0,0,1-.8-7.9v-7a36.3,36.3,0,0,1,.8-7.9,16.4,16.4,0,0,1,2.5-5.5,10.3,10.3,0,0,1,4-3.2,13.6,13.6,0,0,1,10.7,0,10.3,10.3,0,0,1,4,3.2,16.4,16.4,0,0,1,2.5,5.5,31,31,0,0,1,.8,7.9Zm-3.4-7.4c0-4.8-.7-8.3-2.3-10.8a8.5,8.5,0,0,0-13.9,0c-1.6,2.5-2.4,6-2.4,10.8v7.7a28.3,28.3,0,0,0,.6,6.2,13.8,13.8,0,0,0,1.8,4.6,8.6,8.6,0,0,0,2.9,2.8,8.9,8.9,0,0,0,8.2,0,8.6,8.6,0,0,0,2.9-2.8,16.4,16.4,0,0,0,1.7-4.6,28.8,28.8,0,0,0,.5-6.2Z"/><path class="cls-4" d="M400.6,471.3a22.8,22.8,0,0,1-.2,2.6,22.5,22.5,0,0,1-.8,2.4,15.9,15.9,0,0,1-1.3,2.2,14.6,14.6,0,0,1-1.6,1.9l-2-1.5a13.3,13.3,0,0,0,1.9-3.5,10.2,10.2,0,0,0,.7-4v-4h3.3Z"/><path class="cls-4" d="M433.8,472.7H408v-2.6l13.5-15.4,3.2-3.8a22.1,22.1,0,0,0,2.1-3.3,9.4,9.4,0,0,0,1.2-2.8,11.5,11.5,0,0,0,.3-2.6,9.3,9.3,0,0,0-.5-3.4,7.7,7.7,0,0,0-1.7-2.7,7.5,7.5,0,0,0-2.7-1.8,10.2,10.2,0,0,0-3.7-.6,11.2,11.2,0,0,0-3.8.7,9.3,9.3,0,0,0-3,2,8.7,8.7,0,0,0-1.8,3.1,9.2,9.2,0,0,0-.7,3.8H407a12.8,12.8,0,0,1,.9-4.8,11.8,11.8,0,0,1,2.5-4,12.8,12.8,0,0,1,4-2.7,14.7,14.7,0,0,1,5.3-1,15,15,0,0,1,5,.8,9.5,9.5,0,0,1,3.8,2.2,7.9,7.9,0,0,1,2.4,3.5,11.1,11.1,0,0,1,.9,4.6,10.2,10.2,0,0,1-.7,3.8,32.6,32.6,0,0,1-1.8,3.8c-.8,1.2-1.6,2.4-2.6,3.7l-3.1,3.6-11.5,13h21.7Z"/><path class="cls-4" d="M465,455.5a31.5,31.5,0,0,1-.8,7.9,16.4,16.4,0,0,1-2.5,5.5,9.5,9.5,0,0,1-3.9,3.3,13.3,13.3,0,0,1-5.4,1.1,12.5,12.5,0,0,1-5.3-1.1,9.8,9.8,0,0,1-4-3.3,16.5,16.5,0,0,1-2.6-5.5,37,37,0,0,1-.8-7.9v-7a36.3,36.3,0,0,1,.8-7.9,16.4,16.4,0,0,1,2.5-5.5,10.3,10.3,0,0,1,4-3.2,13.6,13.6,0,0,1,10.7,0,10.3,10.3,0,0,1,4,3.2,16.4,16.4,0,0,1,2.5,5.5,31,31,0,0,1,.8,7.9Zm-3.4-7.4c0-4.8-.7-8.3-2.3-10.8a8.5,8.5,0,0,0-13.9,0c-1.6,2.5-2.4,6-2.4,10.8v7.7a28.3,28.3,0,0,0,.6,6.2,13.8,13.8,0,0,0,1.8,4.6,8.6,8.6,0,0,0,2.9,2.8,8.9,8.9,0,0,0,8.2,0,8.6,8.6,0,0,0,2.9-2.8,16.4,16.4,0,0,0,1.7-4.6,28.8,28.8,0,0,0,.5-6.2Z"/><path class="cls-4" d="M497.2,455.5a31.5,31.5,0,0,1-.8,7.9,16.4,16.4,0,0,1-2.5,5.5,9.8,9.8,0,0,1-4,3.3,13.3,13.3,0,0,1-10.6,0,9.8,9.8,0,0,1-4-3.3,16.5,16.5,0,0,1-2.6-5.5,31.5,31.5,0,0,1-.8-7.9v-7a31,31,0,0,1,.8-7.9,16.4,16.4,0,0,1,2.5-5.5,10.3,10.3,0,0,1,4-3.2,12.9,12.9,0,0,1,5.3-1.1,13.3,13.3,0,0,1,5.4,1.1,10.3,10.3,0,0,1,4,3.2,16.4,16.4,0,0,1,2.5,5.5,36.3,36.3,0,0,1,.8,7.9Zm-3.4-7.4c0-4.8-.7-8.3-2.3-10.8a8.5,8.5,0,0,0-13.9,0c-1.6,2.5-2.4,6-2.4,10.8v7.7a28.3,28.3,0,0,0,.6,6.2,13.8,13.8,0,0,0,1.8,4.6,8.6,8.6,0,0,0,2.9,2.8,8.9,8.9,0,0,0,8.2,0,8.6,8.6,0,0,0,2.9-2.8,16.4,16.4,0,0,0,1.7-4.6,37,37,0,0,0,.5-6.2Z"/><path class="cls-4" d="M500.6,425.5H510v56h-9.4v-2.9h6V428.4h-6Z"/><path class="cls-4" d="M1294.8,122.9h-5.9v50.2h5.9V176h-9.3V120h9.3Z"/><path class="cls-4" d="M1318.7,125.6v2.9h-.5a17.8,17.8,0,0,0-6.7,1.2,12.7,12.7,0,0,0-4.9,3.2,15.4,15.4,0,0,0-3.3,5.2,21.7,21.7,0,0,0-1.4,6.9,11.8,11.8,0,0,1,4.3-3.7,14.7,14.7,0,0,1,6-1.3,12.4,12.4,0,0,1,5.2,1.1,11.6,11.6,0,0,1,5.9,7.3,18.1,18.1,0,0,1,.7,5.2,16.9,16.9,0,0,1-.8,5.6,16.1,16.1,0,0,1-2.4,4.5,12.4,12.4,0,0,1-3.9,2.9,10.6,10.6,0,0,1-5.1,1.1,12.8,12.8,0,0,1-5.6-1.2,12.1,12.1,0,0,1-4.2-3.2,16.1,16.1,0,0,1-2.7-4.8,19.2,19.2,0,0,1-.9-5.9v-3.7a36,36,0,0,1,1.2-9.6,20.9,20.9,0,0,1,3.7-7.3,15.5,15.5,0,0,1,6.2-4.8,20.8,20.8,0,0,1,8.7-1.6Zm-7.1,17.4a9.5,9.5,0,0,0-3.3.5,7.6,7.6,0,0,0-2.8,1.5,9.3,9.3,0,0,0-2.3,2.1,11.6,11.6,0,0,0-1.4,2.7v2.8a16.2,16.2,0,0,0,.8,5.2,11.7,11.7,0,0,0,2.1,3.8,10.8,10.8,0,0,0,3.2,2.4,8.5,8.5,0,0,0,3.9.8,8.7,8.7,0,0,0,3.7-.8,8.1,8.1,0,0,0,2.8-2.4,10.6,10.6,0,0,0,1.8-3.5,15.6,15.6,0,0,0,.6-4.4,14,14,0,0,0-.6-4.1,9.9,9.9,0,0,0-1.7-3.4,8.1,8.1,0,0,0-2.8-2.4A9.8,9.8,0,0,0,1311.6,143Z"/><path class="cls-4" d="M1355.7,149.9a30.5,30.5,0,0,1-.8,7.9,16.1,16.1,0,0,1-2.5,5.6,12.3,12.3,0,0,1-3.9,3.3,13.3,13.3,0,0,1-5.4,1,12.5,12.5,0,0,1-5.3-1,11.6,11.6,0,0,1-4-3.3,16.2,16.2,0,0,1-2.6-5.6,35.6,35.6,0,0,1-.8-7.9V143a30.5,30.5,0,0,1,.8-7.9,15.6,15.6,0,0,1,2.5-5.5,10.3,10.3,0,0,1,4-3.2,13.6,13.6,0,0,1,10.7,0,10.3,10.3,0,0,1,4,3.2,15.6,15.6,0,0,1,2.5,5.5,30.5,30.5,0,0,1,.8,7.9Zm-3.4-7.4c0-4.7-.7-8.3-2.3-10.7a8.5,8.5,0,0,0-13.9,0c-1.6,2.4-2.4,6-2.4,10.7v7.8a29,29,0,0,0,.6,6.2,14.7,14.7,0,0,0,1.8,4.6,8.6,8.6,0,0,0,2.9,2.8,8.9,8.9,0,0,0,8.2,0,8.6,8.6,0,0,0,2.9-2.8,17.7,17.7,0,0,0,1.7-4.6,38,38,0,0,0,.5-6.2Z"/><path class="cls-4" d="M1387.9,149.9a35.6,35.6,0,0,1-.8,7.9,16.1,16.1,0,0,1-2.5,5.6,11.6,11.6,0,0,1-4,3.3,14.5,14.5,0,0,1-10.6,0,10.8,10.8,0,0,1-4-3.3,16.2,16.2,0,0,1-2.6-5.6,30.1,30.1,0,0,1-.9-7.9V143a30.1,30.1,0,0,1,.9-7.9,15.6,15.6,0,0,1,2.5-5.5,10.3,10.3,0,0,1,4-3.2,12.9,12.9,0,0,1,5.3-1.1,13.3,13.3,0,0,1,5.4,1.1,10.3,10.3,0,0,1,4,3.2,15.6,15.6,0,0,1,2.5,5.5,35.6,35.6,0,0,1,.8,7.9Zm-3.4-7.4c0-4.7-.7-8.3-2.3-10.7a7.7,7.7,0,0,0-7-3.6,7.8,7.8,0,0,0-7,3.6c-1.5,2.4-2.3,6-2.3,10.7v7.8a29,29,0,0,0,.6,6.2,14.7,14.7,0,0,0,1.8,4.6,8.6,8.6,0,0,0,2.9,2.8,8.9,8.9,0,0,0,8.2,0,7.5,7.5,0,0,0,2.8-2.8,14.7,14.7,0,0,0,1.8-4.6,38,38,0,0,0,.5-6.2Z"/><path class="cls-4" d="M1399,165.8a22.8,22.8,0,0,1-.2,2.6,22.5,22.5,0,0,1-.8,2.4,15.9,15.9,0,0,1-1.3,2.2,14.6,14.6,0,0,1-1.6,1.9l-2.1-1.5a12.5,12.5,0,0,0,2-3.5,10.2,10.2,0,0,0,.7-4v-4.1h3.3Z"/><path class="cls-4" d="M1427.2,153.9h6.4v2.8h-6.4v10.5h-3.4V156.7h-19.4v-1.9l19.1-28.9h3.7Zm-18.7,0h15.3V130.3l-1.5,2.6Z"/><path class="cls-4" d="M1463.4,149.9a35.6,35.6,0,0,1-.8,7.9,16.1,16.1,0,0,1-2.5,5.6,11.6,11.6,0,0,1-4,3.3,12.5,12.5,0,0,1-5.3,1,13.3,13.3,0,0,1-5.4-1,11.3,11.3,0,0,1-3.9-3.3,16.2,16.2,0,0,1-2.6-5.6,30.1,30.1,0,0,1-.9-7.9V143a30.1,30.1,0,0,1,.9-7.9,15.6,15.6,0,0,1,2.5-5.5,10.3,10.3,0,0,1,4-3.2,12.9,12.9,0,0,1,5.3-1.1,13.3,13.3,0,0,1,5.4,1.1,11.1,11.1,0,0,1,4,3.2,15.6,15.6,0,0,1,2.5,5.5,35.6,35.6,0,0,1,.8,7.9Zm-3.4-7.4c0-4.7-.7-8.3-2.3-10.7a7.7,7.7,0,0,0-7-3.6,7.8,7.8,0,0,0-7,3.6c-1.5,2.4-2.3,6-2.3,10.7v7.8a29,29,0,0,0,.6,6.2,14.7,14.7,0,0,0,1.8,4.6,8.6,8.6,0,0,0,2.9,2.8,8.9,8.9,0,0,0,8.2,0,7.5,7.5,0,0,0,2.8-2.8,14.7,14.7,0,0,0,1.8-4.6,38,38,0,0,0,.5-6.2Z"/><path class="cls-4" d="M1495.6,149.9a35.6,35.6,0,0,1-.8,7.9,16.1,16.1,0,0,1-2.5,5.6,11.6,11.6,0,0,1-4,3.3,12.5,12.5,0,0,1-5.3,1,13.3,13.3,0,0,1-5.4-1,12.6,12.6,0,0,1-4-3.3,16.1,16.1,0,0,1-2.5-5.6,30.1,30.1,0,0,1-.9-7.9V143a30.1,30.1,0,0,1,.9-7.9,15.6,15.6,0,0,1,2.5-5.5,10.3,10.3,0,0,1,4-3.2,12.9,12.9,0,0,1,5.3-1.1,13.3,13.3,0,0,1,5.4,1.1,11.1,11.1,0,0,1,4,3.2,17.5,17.5,0,0,1,2.5,5.5,35.6,35.6,0,0,1,.8,7.9Zm-3.4-7.4c0-4.7-.8-8.3-2.3-10.7a7.7,7.7,0,0,0-7-3.6,7.8,7.8,0,0,0-7,3.6c-1.5,2.4-2.3,6-2.3,10.7v7.8a29,29,0,0,0,.6,6.2,14.7,14.7,0,0,0,1.8,4.6,7.8,7.8,0,0,0,2.9,2.8,8.9,8.9,0,0,0,4.1,1,8.5,8.5,0,0,0,4-1,7.1,7.1,0,0,0,2.9-2.8,14.7,14.7,0,0,0,1.8-4.6,38,38,0,0,0,.5-6.2Z"/><path class="cls-4" d="M1499,120h9.4v56H1499v-2.9h6V122.9h-6Z"/><path class="cls-5" d="M948.6,356.4h-5.9v50.2h5.9v2.9h-9.3v-56h9.3Z"/><path class="cls-5" d="M960,378.2h3.5a10.9,10.9,0,0,0,4.2-.7,8.7,8.7,0,0,0,3-1.7,7.2,7.2,0,0,0,1.8-2.5,8.7,8.7,0,0,0,.6-3.2,12.7,12.7,0,0,0-.5-3.4,7.6,7.6,0,0,0-1.6-2.6,6.4,6.4,0,0,0-2.7-1.8,11.4,11.4,0,0,0-3.9-.6,10.5,10.5,0,0,0-3.6.6A8.8,8.8,0,0,0,958,364a6.6,6.6,0,0,0-1.9,2.7,7.8,7.8,0,0,0-.7,3.5H952a11.4,11.4,0,0,1,.9-4.6,11.9,11.9,0,0,1,2.6-3.6,13.3,13.3,0,0,1,4-2.4,15.7,15.7,0,0,1,9.9,0,9.5,9.5,0,0,1,3.8,2.2,10.1,10.1,0,0,1,2.5,3.6,14.4,14.4,0,0,1,.8,4.9,8.4,8.4,0,0,1-.4,2.7,9.4,9.4,0,0,1-1.4,2.6,9.2,9.2,0,0,1-2.2,2.2,11.1,11.1,0,0,1-3,1.7,12.5,12.5,0,0,1,3.5,1.6,8.5,8.5,0,0,1,2.4,2.2,11.1,11.1,0,0,1,1.4,2.9,11.4,11.4,0,0,1,.5,3.3,11.7,11.7,0,0,1-3.6,8.7,13.6,13.6,0,0,1-4.1,2.3,15.9,15.9,0,0,1-5,.7,16.1,16.1,0,0,1-4.9-.7,12,12,0,0,1-4.2-2.2,9.8,9.8,0,0,1-3-3.7,10.6,10.6,0,0,1-1.1-5.1h3.4a8.6,8.6,0,0,0,.7,3.6,8,8,0,0,0,2,2.8,8.7,8.7,0,0,0,3.1,1.8,12.4,12.4,0,0,0,4,.7,9.6,9.6,0,0,0,6.8-2.3c1.7-1.5,2.5-3.7,2.5-6.5a9.3,9.3,0,0,0-.8-3.9,6.7,6.7,0,0,0-2.1-2.6,10.1,10.1,0,0,0-3.3-1.6,18.7,18.7,0,0,0-4.2-.4H960Z"/><path class="cls-5" d="M1009.6,383.4a30.1,30.1,0,0,1-.9,7.9,16.1,16.1,0,0,1-2.5,5.6,11.3,11.3,0,0,1-3.9,3.3,13.3,13.3,0,0,1-5.4,1,12.5,12.5,0,0,1-5.3-1,11.6,11.6,0,0,1-4-3.3,14.5,14.5,0,0,1-2.5-5.6,30.1,30.1,0,0,1-.9-7.9v-6.9a35.6,35.6,0,0,1,.8-7.9,15.6,15.6,0,0,1,2.5-5.5,10.3,10.3,0,0,1,4-3.2,13.6,13.6,0,0,1,10.7,0,10.3,10.3,0,0,1,4,3.2,15.6,15.6,0,0,1,2.5,5.5,30.1,30.1,0,0,1,.9,7.9Zm-3.4-7.4c0-4.7-.8-8.3-2.4-10.7a8.5,8.5,0,0,0-13.9,0c-1.6,2.4-2.4,6-2.4,10.7v7.8a29,29,0,0,0,.6,6.2,14.7,14.7,0,0,0,1.8,4.6,8,8,0,0,0,3,2.8,8.5,8.5,0,0,0,4,1,8.9,8.9,0,0,0,4.1-1,8.6,8.6,0,0,0,2.9-2.8,17.7,17.7,0,0,0,1.7-4.6,29,29,0,0,0,.6-6.2Z"/><path class="cls-5" d="M1041.7,383.4a30.5,30.5,0,0,1-.8,7.9,16.1,16.1,0,0,1-2.5,5.6,11.3,11.3,0,0,1-3.9,3.3,13.3,13.3,0,0,1-5.4,1,12.5,12.5,0,0,1-5.3-1,11.6,11.6,0,0,1-4-3.3,16.2,16.2,0,0,1-2.6-5.6,35.6,35.6,0,0,1-.8-7.9v-6.9a35.6,35.6,0,0,1,.8-7.9,15.6,15.6,0,0,1,2.5-5.5,10.3,10.3,0,0,1,4-3.2,13.6,13.6,0,0,1,10.7,0,10.3,10.3,0,0,1,4,3.2,15.6,15.6,0,0,1,2.5,5.5,30.5,30.5,0,0,1,.8,7.9Zm-3.4-7.4c0-4.7-.7-8.3-2.3-10.7a8.5,8.5,0,0,0-13.9,0c-1.6,2.4-2.4,6-2.4,10.7v7.8a29,29,0,0,0,.6,6.2,14.7,14.7,0,0,0,1.8,4.6,8.6,8.6,0,0,0,2.9,2.8,8.9,8.9,0,0,0,8.2,0,8.6,8.6,0,0,0,2.9-2.8,17.7,17.7,0,0,0,1.7-4.6,29.4,29.4,0,0,0,.5-6.2Z"/><path class="cls-5" d="M1052.8,399.3a22.8,22.8,0,0,1-.2,2.6,22.5,22.5,0,0,1-.8,2.4,15.9,15.9,0,0,1-1.3,2.2,14.6,14.6,0,0,1-1.6,1.9l-2-1.5a15.1,15.1,0,0,0,1.9-3.5,10.2,10.2,0,0,0,.7-4v-4.1h3.3Z"/><path class="cls-5" d="M1086,400.7h-25.8v-2.6l13.5-15.4c1.2-1.4,2.3-2.7,3.2-3.9a17.5,17.5,0,0,0,2.1-3.2,9.4,9.4,0,0,0,1.2-2.8,12.2,12.2,0,0,0,.3-2.6,9,9,0,0,0-.5-3.4,6.2,6.2,0,0,0-1.7-2.7,6.4,6.4,0,0,0-2.7-1.8,10.2,10.2,0,0,0-3.7-.6,9.3,9.3,0,0,0-6.8,2.7,8.7,8.7,0,0,0-1.8,3.1,9.2,9.2,0,0,0-.7,3.8h-3.4a12.8,12.8,0,0,1,.9-4.8,10.9,10.9,0,0,1,2.5-4,12.6,12.6,0,0,1,9.3-3.7,15,15,0,0,1,5,.8,10.7,10.7,0,0,1,3.8,2.1,9.2,9.2,0,0,1,2.4,3.5,11.9,11.9,0,0,1,.9,4.7,10.6,10.6,0,0,1-.7,3.8,31.4,31.4,0,0,1-1.8,3.7,42.8,42.8,0,0,1-2.6,3.8l-3.1,3.6-11.5,13H1086Z"/><path class="cls-5" d="M1117.2,383.4a30.5,30.5,0,0,1-.8,7.9,16.1,16.1,0,0,1-2.5,5.6,12.3,12.3,0,0,1-3.9,3.3,13.3,13.3,0,0,1-5.4,1,12.5,12.5,0,0,1-5.3-1,11.6,11.6,0,0,1-4-3.3,16.2,16.2,0,0,1-2.6-5.6,35.6,35.6,0,0,1-.8-7.9v-6.9a35.6,35.6,0,0,1,.8-7.9,15.6,15.6,0,0,1,2.5-5.5,10.3,10.3,0,0,1,4-3.2,13.6,13.6,0,0,1,10.7,0,10.3,10.3,0,0,1,4,3.2,15.6,15.6,0,0,1,2.5,5.5,30.5,30.5,0,0,1,.8,7.9Zm-3.4-7.4c0-4.7-.7-8.3-2.3-10.7a8.5,8.5,0,0,0-13.9,0c-1.6,2.4-2.4,6-2.4,10.7v7.8a29,29,0,0,0,.6,6.2,14.7,14.7,0,0,0,1.8,4.6,8.6,8.6,0,0,0,2.9,2.8,8.9,8.9,0,0,0,8.2,0,8.6,8.6,0,0,0,2.9-2.8,17.7,17.7,0,0,0,1.7-4.6,29.4,29.4,0,0,0,.5-6.2Z"/><path class="cls-5" d="M1149.4,383.4a30.5,30.5,0,0,1-.8,7.9,16.1,16.1,0,0,1-2.5,5.6,11.6,11.6,0,0,1-4,3.3,14.5,14.5,0,0,1-10.6,0,11.6,11.6,0,0,1-4-3.3,16.2,16.2,0,0,1-2.6-5.6,30.5,30.5,0,0,1-.8-7.9v-6.9a30.5,30.5,0,0,1,.8-7.9,15.6,15.6,0,0,1,2.5-5.5,10.3,10.3,0,0,1,4-3.2,12.9,12.9,0,0,1,5.3-1.1,13.3,13.3,0,0,1,5.4,1.1,10.3,10.3,0,0,1,4,3.2,15.6,15.6,0,0,1,2.5,5.5,35.6,35.6,0,0,1,.8,7.9ZM1146,376c0-4.7-.7-8.3-2.3-10.7a7.7,7.7,0,0,0-7-3.6,7.6,7.6,0,0,0-6.9,3.6c-1.6,2.4-2.4,6-2.4,10.7v7.8a29,29,0,0,0,.6,6.2,14.7,14.7,0,0,0,1.8,4.6,8.6,8.6,0,0,0,2.9,2.8,8.9,8.9,0,0,0,8.2,0,7.5,7.5,0,0,0,2.8-2.8,14.7,14.7,0,0,0,1.8-4.6,38,38,0,0,0,.5-6.2Z"/><path class="cls-5" d="M1152.8,353.5h9.4v56h-9.4v-2.9h6V356.4h-6Z"/><path class="cls-4" d="M461.5,65.9h-6v50.3h6v2.9h-9.4V63h9.4Z"/><path class="cls-4" d="M490.2,93a30.7,30.7,0,0,1-.9,7.9,15.1,15.1,0,0,1-2.4,5.6,10.3,10.3,0,0,1-4,3.2,13.6,13.6,0,0,1-10.7,0,10.3,10.3,0,0,1-4-3.2,17,17,0,0,1-2.5-5.6,30.7,30.7,0,0,1-.9-7.9V86a29.9,29.9,0,0,1,.9-7.8,15.6,15.6,0,0,1,2.5-5.5,10.6,10.6,0,0,1,4-3.3,14.5,14.5,0,0,1,10.6,0,10.6,10.6,0,0,1,4,3.3,14,14,0,0,1,2.5,5.5,29.9,29.9,0,0,1,.9,7.8Zm-3.4-7.4c0-4.7-.8-8.3-2.3-10.7a8.6,8.6,0,0,0-14,0c-1.5,2.4-2.3,6-2.3,10.7v7.8a29,29,0,0,0,.6,6.2,14.7,14.7,0,0,0,1.8,4.6,7.8,7.8,0,0,0,2.9,2.8,8.7,8.7,0,0,0,4,.9,7.6,7.6,0,0,0,7-3.7,14.7,14.7,0,0,0,1.7-4.6,29,29,0,0,0,.6-6.2Z"/><path class="cls-4" d="M501.3,108.9a10.7,10.7,0,0,1-.3,2.5,10.4,10.4,0,0,1-.8,2.5,11.9,11.9,0,0,1-1.2,2.2,15.4,15.4,0,0,1-1.7,1.9l-2-1.5a16.2,16.2,0,0,0,2-3.6,11.9,11.9,0,0,0,.7-4v-4h3.3Z"/><path class="cls-4" d="M529.4,96.9h6.5v2.9h-6.5v10.4H526V99.8H506.6V97.9l19.1-29h3.7Zm-18.6,0H526V73.3L524.5,76Z"/><path class="cls-4" d="M565.7,93a30.7,30.7,0,0,1-.9,7.9,15.1,15.1,0,0,1-2.4,5.6,10.3,10.3,0,0,1-4,3.2,13.6,13.6,0,0,1-10.7,0,10.3,10.3,0,0,1-4-3.2,17,17,0,0,1-2.5-5.6,30.7,30.7,0,0,1-.9-7.9V86a29.9,29.9,0,0,1,.9-7.8,14,14,0,0,1,2.5-5.5,10.6,10.6,0,0,1,4-3.3,14.5,14.5,0,0,1,10.6,0,10.6,10.6,0,0,1,4,3.3,15.6,15.6,0,0,1,2.5,5.5,29.9,29.9,0,0,1,.9,7.8Zm-3.4-7.4c0-4.7-.8-8.3-2.3-10.7a8.6,8.6,0,0,0-14,0c-1.5,2.4-2.3,6-2.3,10.7v7.8a29,29,0,0,0,.6,6.2,14.7,14.7,0,0,0,1.8,4.6A7.8,7.8,0,0,0,549,107a8.7,8.7,0,0,0,4,.9,8.8,8.8,0,0,0,4.1-.9,8.6,8.6,0,0,0,2.9-2.8,14.7,14.7,0,0,0,1.7-4.6,29,29,0,0,0,.6-6.2Z"/><path class="cls-4" d="M597.9,93a30.7,30.7,0,0,1-.9,7.9,16.9,16.9,0,0,1-2.4,5.6,10.3,10.3,0,0,1-4,3.2,13.3,13.3,0,0,1-5.4,1.1,12.9,12.9,0,0,1-5.3-1.1,10.3,10.3,0,0,1-4-3.2,17,17,0,0,1-2.5-5.6,30.7,30.7,0,0,1-.9-7.9V86a29.9,29.9,0,0,1,.9-7.8,14,14,0,0,1,2.5-5.5,10.3,10.3,0,0,1,3.9-3.3,13.3,13.3,0,0,1,5.4-1,12.9,12.9,0,0,1,5.3,1,10.6,10.6,0,0,1,4,3.3,15.6,15.6,0,0,1,2.5,5.5,29.9,29.9,0,0,1,.9,7.8Zm-3.4-7.4c0-4.7-.8-8.3-2.3-10.7a7.8,7.8,0,0,0-7-3.6,7.7,7.7,0,0,0-7,3.6c-1.6,2.4-2.3,6-2.3,10.7v7.8a29,29,0,0,0,.6,6.2,17.7,17.7,0,0,0,1.7,4.6,8.9,8.9,0,0,0,3,2.8,8.4,8.4,0,0,0,4,.9,8.8,8.8,0,0,0,4.1-.9,8.6,8.6,0,0,0,2.9-2.8,14.7,14.7,0,0,0,1.7-4.6,29,29,0,0,0,.6-6.2Z"/><path class="cls-4" d="M601.3,63h9.4v56.1h-9.4v-2.9h6V65.9h-6Z"/><path class="cls-4" d="M1141.5,916.2h-13.4l-2.8,8.9h-8.6l13.9-41.3h8.5l13.8,41.3h-8.6Zm-11.4-6.5h9.4l-4.6-14.5h-.2Z"/><path class="cls-4" d="M1162.5,894.4l.4,4.4a12.7,12.7,0,0,1,3.7-3.6,9.7,9.7,0,0,1,5.1-1.3,8.9,8.9,0,0,1,7.2,3c1.8,2,2.6,5.1,2.6,9.4v18.8h-8.3V906.4a7.9,7.9,0,0,0-1.1-4.7,4.4,4.4,0,0,0-3.5-1.4,7.9,7.9,0,0,0-3.2.7,6.2,6.2,0,0,0-2.3,1.9v22.2h-8.3V894.4Z"/><path class="cls-4" d="M1200.5,919.4a5,5,0,0,0,3.5-1.3,5,5,0,0,0,1.2-3.5h7.6v.2a9.5,9.5,0,0,1-3.4,7.8,12.9,12.9,0,0,1-8.9,3.1c-4.5,0-8-1.4-10.5-4.3s-3.7-6.6-3.7-11.2v-.8c0-4.5,1.2-8.2,3.7-11.1s6-4.4,10.5-4.4a12.9,12.9,0,0,1,9,3.2,10.7,10.7,0,0,1,3.3,8.5v.2h-7.6a6.5,6.5,0,0,0-1.2-4,4.4,4.4,0,0,0-3.5-1.5,4.7,4.7,0,0,0-4.6,2.5,14.1,14.1,0,0,0-1.3,6.6v.8a14.3,14.3,0,0,0,1.3,6.7A5,5,0,0,0,1200.5,919.4Z"/><path class="cls-4" d="M1225.8,898.3a9.9,9.9,0,0,1,8.1-4.4c3.2,0,5.8,1,7.6,3.2s2.7,5.4,2.7,9.8v18.2h-8.3V906.9c0-2.4-.3-4.1-1.1-5.1a4.1,4.1,0,0,0-3.5-1.5,8.8,8.8,0,0,0-3.3.6,4.9,4.9,0,0,0-2.2,1.8v22.4h-8.3V880.9h8.3Z"/><path class="cls-4" d="M1249.2,909.5a16.5,16.5,0,0,1,3.8-11.2c2.6-3,6.1-4.4,10.6-4.4s8.1,1.4,10.7,4.3,3.8,6.7,3.8,11.3v.6c0,4.6-1.2,8.4-3.8,11.3s-6.1,4.3-10.6,4.3-8.1-1.4-10.7-4.3a16.8,16.8,0,0,1-3.8-11.3Zm8.2.6a13,13,0,0,0,1.5,6.7,5.2,5.2,0,0,0,4.8,2.6,5.1,5.1,0,0,0,4.7-2.6,13,13,0,0,0,1.5-6.7v-.6a13.6,13.6,0,0,0-1.5-6.7,5.2,5.2,0,0,0-4.8-2.5,5,5,0,0,0-4.7,2.6,12.9,12.9,0,0,0-1.5,6.6Z"/><path class="cls-4" d="M1299.4,901.6h-3.1a5.6,5.6,0,0,0-3,.7,5.5,5.5,0,0,0-1.8,2.2v20.7h-8.3V894.4h7.7l.4,4.6a9.2,9.2,0,0,1,2.8-3.8,6.1,6.1,0,0,1,3.9-1.3h1.2l1.1.2Z"/><path class="cls-4" d="M1327.1,918.8h18.5v6.3h-26.8V883.8h8.3Z"/><path class="cls-4" d="M1349.2,909.5c0-4.6,1.2-8.3,3.8-11.2s6.1-4.4,10.6-4.4,8.1,1.4,10.7,4.3a17,17,0,0,1,3.8,11.3v.6a16.8,16.8,0,0,1-3.8,11.3c-2.6,2.9-6.1,4.3-10.7,4.3s-8-1.4-10.6-4.3-3.8-6.7-3.8-11.3Zm8.2.6a13,13,0,0,0,1.5,6.7,5.1,5.1,0,0,0,4.7,2.6,5,5,0,0,0,4.7-2.6,13,13,0,0,0,1.5-6.7v-.6a13.6,13.6,0,0,0-1.5-6.7,5.1,5.1,0,0,0-4.7-2.5,5,5,0,0,0-4.7,2.6,12.9,12.9,0,0,0-1.5,6.6Z"/><path class="cls-4" d="M1396,919.4a5,5,0,0,0,3.5-1.3,5,5,0,0,0,1.2-3.5h7.6v.2a9.5,9.5,0,0,1-3.4,7.8,12.9,12.9,0,0,1-8.9,3.1c-4.5,0-8-1.4-10.5-4.3s-3.7-6.6-3.7-11.2v-.8c0-4.5,1.2-8.2,3.7-11.1s6-4.4,10.5-4.4a12.9,12.9,0,0,1,9,3.2,10.7,10.7,0,0,1,3.3,8.5v.2h-7.6a6.5,6.5,0,0,0-1.2-4,4.4,4.4,0,0,0-3.5-1.5,4.7,4.7,0,0,0-4.6,2.5,14.1,14.1,0,0,0-1.3,6.6v.8a14.3,14.3,0,0,0,1.3,6.7A5,5,0,0,0,1396,919.4Z"/><path class="cls-4" d="M1431.3,925.1a14.3,14.3,0,0,1-.8-2.2,16.9,16.9,0,0,1-.5-2.4,11.2,11.2,0,0,1-3.4,3.8,8.9,8.9,0,0,1-5,1.4c-3.2,0-5.6-.8-7.4-2.5a8.9,8.9,0,0,1-2.6-6.7,8.1,8.1,0,0,1,3.5-7c2.3-1.7,5.7-2.5,10.1-2.5h4.7v-2.4a5,5,0,0,0-1.2-3.5,4.6,4.6,0,0,0-3.5-1.2,4.5,4.5,0,0,0-3.1,1,3.5,3.5,0,0,0-1,2.7h-8v-.2a7.9,7.9,0,0,1,3.4-6.7c2.4-1.9,5.5-2.8,9.4-2.8s6.7.9,8.9,2.8a9.5,9.5,0,0,1,3.5,7.9v12.7a27.3,27.3,0,0,0,.3,4.1,17,17,0,0,0,1,3.7Zm-7.6-5.5a7,7,0,0,0,3.8-1.1,5.2,5.2,0,0,0,2.4-2.5v-4.3h-4.7a5.5,5.5,0,0,0-4,1.3,4.2,4.2,0,0,0-1.3,3.2,3.2,3.2,0,0,0,1,2.5A4.1,4.1,0,0,0,1423.7,919.6Z"/><path class="cls-4" d="M1454.3,886.9v7.5h5.2v5.9h-5.2v15.6a3.4,3.4,0,0,0,.7,2.5,2.4,2.4,0,0,0,2,.8h1.1l1.2-.2.6,6a15.1,15.1,0,0,1-5,.8,9.3,9.3,0,0,1-6.6-2.3c-1.5-1.6-2.3-4.1-2.3-7.5V900.3h-4.4v-5.9h4.4v-7.5Z"/><path class="cls-4" d="M1473.3,887.1H1465v-6.2h8.3Zm0,38H1465V894.4h8.3Z"/><path class="cls-4" d="M1478.8,909.5a16.1,16.1,0,0,1,3.9-11.2c2.5-3,6-4.4,10.6-4.4s8.1,1.4,10.6,4.3a16.5,16.5,0,0,1,3.9,11.3v.6c0,4.6-1.3,8.4-3.9,11.3s-6.1,4.3-10.6,4.3-8.1-1.4-10.6-4.3-3.9-6.7-3.9-11.3Zm8.3.6a13,13,0,0,0,1.5,6.7,4.9,4.9,0,0,0,4.7,2.6,5,5,0,0,0,4.7-2.6,13,13,0,0,0,1.5-6.7v-.6a13.6,13.6,0,0,0-1.5-6.7,5.1,5.1,0,0,0-4.7-2.5,4.9,4.9,0,0,0-4.7,2.6,12.9,12.9,0,0,0-1.5,6.6Z"/><path class="cls-4" d="M1520.5,894.4l.3,4.4a11.9,11.9,0,0,1,3.8-3.6,9.6,9.6,0,0,1,5-1.3,9.3,9.3,0,0,1,7.3,3c1.7,2,2.6,5.1,2.6,9.4v18.8h-8.3V906.4c0-2.2-.4-3.8-1.2-4.7a4.2,4.2,0,0,0-3.4-1.4,8.8,8.8,0,0,0-3.3.7,7.1,7.1,0,0,0-2.3,1.9v22.2h-8.3V894.4Z"/><path class="cls-4" d="M1571.9,908.3h-13.6v-2.8h13.6Z"/><path class="cls-4" d="M1602.2,904.6l-5.8,5.8v14.7h-3.5V883.8h3.5v22.3l5.6-5.9,15.6-16.4h4.4l-17.3,18.4,18.6,22.9H1619Z"/><path class="cls-4" d="M1631.4,894.4v5.3a10.8,10.8,0,0,1,1.8-2.4,13,13,0,0,1,2.3-1.8,13.9,13.9,0,0,1,2.8-1.2,10.1,10.1,0,0,1,3.1-.4,13.1,13.1,0,0,1,4.1.6,7.9,7.9,0,0,1,3.1,2,9.1,9.1,0,0,1,1.9,3.5,18.7,18.7,0,0,1,.7,5.2v19.9h-3.4v-20a14.2,14.2,0,0,0-.5-3.9,6.6,6.6,0,0,0-1.5-2.6,5.9,5.9,0,0,0-2.3-1.4,12.7,12.7,0,0,0-2.9-.4,8.1,8.1,0,0,0-3.3.6,7.8,7.8,0,0,0-2.6,1.7,8.7,8.7,0,0,0-2,2.3,16.6,16.6,0,0,0-1.3,2.7v21h-3.4V894.4Z"/><path class="cls-4" d="M1658.2,909.3a19.5,19.5,0,0,1,.9-6.1,14.6,14.6,0,0,1,2.8-4.9,12.7,12.7,0,0,1,4.3-3.3,15.1,15.1,0,0,1,11.3,0,12.7,12.7,0,0,1,4.3,3.3,14.6,14.6,0,0,1,2.8,4.9,19.5,19.5,0,0,1,1,6.1v1a20.6,20.6,0,0,1-1,6.2,15.2,15.2,0,0,1-2.8,4.8,12.7,12.7,0,0,1-4.3,3.3,14.3,14.3,0,0,1-5.6,1.1,14.8,14.8,0,0,1-5.7-1.1,13.7,13.7,0,0,1-4.3-3.3,15.2,15.2,0,0,1-2.8-4.8,20.6,20.6,0,0,1-.9-6.2Zm3.4,1a18.6,18.6,0,0,0,.6,4.8,16.6,16.6,0,0,0,2,4,10.9,10.9,0,0,0,3.3,2.7,8.7,8.7,0,0,0,4.4,1,9.2,9.2,0,0,0,4.4-1,10.5,10.5,0,0,0,3.2-2.7,13.6,13.6,0,0,0,2-4,15.1,15.1,0,0,0,.7-4.8v-1a14.9,14.9,0,0,0-.7-4.7,12.5,12.5,0,0,0-2-4,9.5,9.5,0,0,0-3.2-2.8,9.3,9.3,0,0,0-4.5-1,9.2,9.2,0,0,0-4.4,1,10.6,10.6,0,0,0-3.2,2.8,15,15,0,0,0-2,4,18.4,18.4,0,0,0-.6,4.7Z"/><path class="cls-4" d="M1699.9,918.1l.5,2.6.7-2.8,7.4-23.5h2.9l7.3,23.3.7,3.3.7-3,6.3-23.6h3.5l-8.9,30.7h-2.9l-7.9-24.3-.4-1.7-.3,1.7-7.8,24.3h-2.9l-8.9-30.7h3.5Z"/><path class="cls-4" d="M1739.6,894.4v5.3a10.8,10.8,0,0,1,1.8-2.4,13,13,0,0,1,2.3-1.8,13.9,13.9,0,0,1,2.8-1.2,10.6,10.6,0,0,1,3.1-.4,13.1,13.1,0,0,1,4.1.6,7.2,7.2,0,0,1,3.1,2,9.1,9.1,0,0,1,1.9,3.5,15.6,15.6,0,0,1,.7,5.2v19.9h-3.4v-20a14.2,14.2,0,0,0-.5-3.9,6.5,6.5,0,0,0-1.4-2.6,6.8,6.8,0,0,0-2.3-1.4,13.6,13.6,0,0,0-3-.4,8.8,8.8,0,0,0-3.3.6,7.8,7.8,0,0,0-2.6,1.7,11,11,0,0,0-2,2.3,16.6,16.6,0,0,0-1.3,2.7v21h-3.4V894.4Z"/><path class="cls-5" d="M1148.8,959.9H1137v34.9h-8.3V959.9H1117v-6.4h31.8Z"/><path class="cls-5" d="M1168.4,994.8a14.3,14.3,0,0,1-.8-2.2,17.2,17.2,0,0,1-.4-2.4,12.4,12.4,0,0,1-3.4,3.8,9.2,9.2,0,0,1-5,1.4c-3.2,0-5.7-.8-7.4-2.4a8.9,8.9,0,0,1-2.6-6.8,8.1,8.1,0,0,1,3.4-7c2.3-1.7,5.7-2.5,10.2-2.5h4.6v-2.4a5.4,5.4,0,0,0-1.1-3.5,4.8,4.8,0,0,0-3.5-1.2,4.3,4.3,0,0,0-3.1,1,3.5,3.5,0,0,0-1.1,2.7h-8v-.2c-.2-2.6,1-4.8,3.4-6.7s5.5-2.8,9.3-2.8a13.6,13.6,0,0,1,9,2.8c2.3,1.8,3.4,4.5,3.4,7.9V987a27.3,27.3,0,0,0,.3,4.1,17.3,17.3,0,0,0,1.1,3.7Zm-7.6-5.5a7.1,7.1,0,0,0,3.9-1.1,5.5,5.5,0,0,0,2.3-2.5v-4.3h-4.6a5.4,5.4,0,0,0-4,1.3,4.3,4.3,0,0,0-1.4,3.2,3.6,3.6,0,0,0,1,2.5A4.1,4.1,0,0,0,1160.8,989.3Z"/><path class="cls-5" d="M1180.3,979.7c0-4.8,1-8.7,3.1-11.7a10.4,10.4,0,0,1,8.9-4.4,9.4,9.4,0,0,1,4.5,1.1,11,11,0,0,1,3.4,3.4l.6-4h7.1v30.6q0,6-3.9,9.3c-2.6,2.1-6.2,3.2-10.9,3.2a21.8,21.8,0,0,1-4.9-.6,17.1,17.1,0,0,1-4.8-1.8l1.3-6.1a18.7,18.7,0,0,0,4,1.3,15.2,15.2,0,0,0,4.4.5,7.8,7.8,0,0,0,5-1.4,5.9,5.9,0,0,0,1.6-4.4v-2.8a9.9,9.9,0,0,1-3.2,2.6,10,10,0,0,1-4.3.9,10.4,10.4,0,0,1-8.8-4.1c-2.1-2.8-3.1-6.4-3.1-11Zm8.3.6a13,13,0,0,0,1.3,6.4,4.8,4.8,0,0,0,4.4,2.3,6.1,6.1,0,0,0,3.2-.7,6,6,0,0,0,2.2-2V973a5.8,5.8,0,0,0-2.2-2.2,5.9,5.9,0,0,0-3.1-.8,4.6,4.6,0,0,0-4.4,2.7,14.6,14.6,0,0,0-1.4,7Z"/><path class="cls-5" d="M1237.7,988.5h18.5v6.3h-26.8V953.5h8.3Z"/><path class="cls-5" d="M1259.8,979.2c0-4.6,1.2-8.3,3.8-11.2s6.1-4.4,10.6-4.4,8.1,1.4,10.7,4.4a16.5,16.5,0,0,1,3.8,11.2v.6a16.8,16.8,0,0,1-3.8,11.3c-2.6,2.9-6.1,4.3-10.6,4.3s-8.1-1.4-10.7-4.3-3.8-6.7-3.8-11.3Zm8.2.6a13,13,0,0,0,1.5,6.7,5.2,5.2,0,0,0,4.8,2.6,4.9,4.9,0,0,0,4.6-2.6,13,13,0,0,0,1.5-6.7v-.6a13.6,13.6,0,0,0-1.5-6.7,5.1,5.1,0,0,0-4.7-2.5,5,5,0,0,0-4.7,2.6,12.9,12.9,0,0,0-1.5,6.6Z"/><path class="cls-5" d="M1306.6,989.1a5,5,0,0,0,3.5-1.3,5,5,0,0,0,1.2-3.5h7.6v.2a9.5,9.5,0,0,1-3.4,7.8,12.9,12.9,0,0,1-8.9,3.1c-4.5,0-8-1.4-10.5-4.3s-3.7-6.6-3.7-11.2v-.8c0-4.5,1.2-8.2,3.7-11.1s6-4.4,10.5-4.4a12.9,12.9,0,0,1,9,3.2,10.7,10.7,0,0,1,3.3,8.5v.2h-7.6a6.5,6.5,0,0,0-1.2-4,4.4,4.4,0,0,0-3.5-1.5,4.7,4.7,0,0,0-4.6,2.5,14.1,14.1,0,0,0-1.3,6.6v.8a14.3,14.3,0,0,0,1.3,6.7A5,5,0,0,0,1306.6,989.1Z"/><path class="cls-5" d="M1341.9,994.8a14.3,14.3,0,0,1-.8-2.2,16.9,16.9,0,0,1-.5-2.4,11.2,11.2,0,0,1-3.4,3.8,8.8,8.8,0,0,1-4.9,1.4c-3.3,0-5.7-.8-7.5-2.4a9.3,9.3,0,0,1-2.6-6.8,8.2,8.2,0,0,1,3.5-7c2.3-1.7,5.7-2.5,10.1-2.5h4.7v-2.4a5,5,0,0,0-1.2-3.5,5.5,5.5,0,0,0-6.6-.2,3.5,3.5,0,0,0-1,2.7h-8v-.2a7.9,7.9,0,0,1,3.4-6.7c2.4-1.9,5.5-2.8,9.4-2.8s6.7.9,8.9,2.8a9.5,9.5,0,0,1,3.5,7.9V987a27.3,27.3,0,0,0,.3,4.1,17,17,0,0,0,1,3.7Zm-7.6-5.5a7.7,7.7,0,0,0,3.9-1.1,5.5,5.5,0,0,0,2.3-2.5v-4.3h-4.7a5.5,5.5,0,0,0-4,1.3,4.2,4.2,0,0,0-1.3,3.2,3.2,3.2,0,0,0,1,2.5A4.1,4.1,0,0,0,1334.3,989.3Z"/><path class="cls-5" d="M1364.9,956.6v7.5h5.2V970h-5.2v15.6a3.4,3.4,0,0,0,.7,2.5,2.4,2.4,0,0,0,2,.8h1.2l1.1-.2.6,6a15.1,15.1,0,0,1-5,.8,8.9,8.9,0,0,1-6.5-2.3q-2.4-2.4-2.4-7.5V970h-4.4v-5.9h4.4v-7.5Z"/><path class="cls-5" d="M1383.9,956.8h-8.3v-6.2h8.3Zm0,38h-8.3V964.1h8.3Z"/><path class="cls-5" d="M1389.4,979.2a16.1,16.1,0,0,1,3.9-11.2c2.5-3,6-4.4,10.6-4.4s8.1,1.4,10.6,4.4a16.1,16.1,0,0,1,3.9,11.2v.6c0,4.6-1.3,8.4-3.9,11.3s-6.1,4.3-10.6,4.3-8.1-1.4-10.6-4.3-3.9-6.7-3.9-11.3Zm8.3.6a13,13,0,0,0,1.5,6.7,4.9,4.9,0,0,0,4.7,2.6,5,5,0,0,0,4.7-2.6,13,13,0,0,0,1.5-6.7v-.6a13.6,13.6,0,0,0-1.5-6.7,5.1,5.1,0,0,0-4.7-2.5,4.9,4.9,0,0,0-4.7,2.6,12.9,12.9,0,0,0-1.5,6.6Z"/><path class="cls-5" d="M1431.1,964.1l.3,4.4a13,13,0,0,1,3.8-3.6,9.6,9.6,0,0,1,5-1.3,9.3,9.3,0,0,1,7.3,3c1.7,2,2.6,5.1,2.6,9.4v18.8h-8.3V976.1c0-2.2-.4-3.8-1.2-4.7a4.2,4.2,0,0,0-3.4-1.4,8.8,8.8,0,0,0-3.3.7,7.1,7.1,0,0,0-2.3,1.9v22.2h-8.3V964.1Z"/><path class="cls-5" d="M1482.5,978H1469v-2.8h13.5Z"/><path class="cls-5" d="M1532,953.5v28a14.1,14.1,0,0,1-1.2,6.1,11.3,11.3,0,0,1-3.1,4.3,11.7,11.7,0,0,1-4.6,2.6,17.9,17.9,0,0,1-5.7.9,17.5,17.5,0,0,1-5.7-.9,11,11,0,0,1-4.6-2.6,11.3,11.3,0,0,1-3.1-4.3,15.8,15.8,0,0,1-1.1-6.1v-28h3.5v28a11.8,11.8,0,0,0,.8,4.8,8.2,8.2,0,0,0,2.3,3.4,10.2,10.2,0,0,0,3.5,2.1,15,15,0,0,0,4.4.7,16.3,16.3,0,0,0,4.5-.7,11.3,11.3,0,0,0,3.5-2.1,9.1,9.1,0,0,0,2.2-3.4,11.7,11.7,0,0,0,.9-4.8v-28Z"/><path class="cls-5" d="M1544.1,964.1l.2,5.3a10.8,10.8,0,0,1,1.8-2.4,10.2,10.2,0,0,1,2.3-1.8,13.1,13.1,0,0,1,2.7-1.2,11.2,11.2,0,0,1,3.2-.4,13.1,13.1,0,0,1,4.1.6,7.9,7.9,0,0,1,3.1,2,10.6,10.6,0,0,1,1.9,3.5,18.7,18.7,0,0,1,.7,5.2v19.9h-3.4v-20a14.2,14.2,0,0,0-.5-3.9,8.1,8.1,0,0,0-1.5-2.6,5.9,5.9,0,0,0-2.3-1.4,13.6,13.6,0,0,0-3-.4,7.9,7.9,0,0,0-3.2.6,9.5,9.5,0,0,0-2.7,1.7,10.6,10.6,0,0,0-1.9,2.3,11.1,11.1,0,0,0-1.3,2.7v21h-3.4V964.1Z"/><path class="cls-5" d="M1580.1,979.4l-3.9,3.7v11.7h-3.4V951.3h3.4v27.9l3.2-3.5,11.8-11.6h4.2l-13,13,14.2,17.7h-4.1Z"/><path class="cls-5" d="M1604.5,964.1v5.3a10.8,10.8,0,0,1,1.8-2.4,13,13,0,0,1,2.3-1.8,13.9,13.9,0,0,1,2.8-1.2,10.6,10.6,0,0,1,3.1-.4,12.7,12.7,0,0,1,4.1.6,7.2,7.2,0,0,1,3.1,2,7.9,7.9,0,0,1,1.9,3.5,15.6,15.6,0,0,1,.7,5.2v19.9H1621v-20a11.2,11.2,0,0,0-.5-3.9,6.5,6.5,0,0,0-1.4-2.6,6.8,6.8,0,0,0-2.3-1.4,13.6,13.6,0,0,0-3-.4,8.8,8.8,0,0,0-3.3.6,9,9,0,0,0-2.6,1.7,11,11,0,0,0-2,2.3c-.5.9-.9,1.8-1.3,2.7v21h-3.3V964.1Z"/><path class="cls-5" d="M1631.3,979a17,17,0,0,1,1-6.1,12.9,12.9,0,0,1,2.7-4.9,13.1,13.1,0,0,1,4.4-3.3,14,14,0,0,1,5.6-1.1,14.8,14.8,0,0,1,5.7,1.1,13.7,13.7,0,0,1,4.3,3.3,12.9,12.9,0,0,1,2.7,4.9,17,17,0,0,1,1,6.1v1a17.9,17.9,0,0,1-1,6.2,14.7,14.7,0,0,1-2.7,4.9,15.1,15.1,0,0,1-4.3,3.2,14.8,14.8,0,0,1-5.7,1.1,14.3,14.3,0,0,1-5.6-1.1,13.8,13.8,0,0,1-4.3-3.2,14.9,14.9,0,0,1-2.8-4.9,17.9,17.9,0,0,1-1-6.2Zm3.4,1a15.1,15.1,0,0,0,.7,4.8,11.6,11.6,0,0,0,2,4,9.4,9.4,0,0,0,3.2,2.7,9.2,9.2,0,0,0,4.4,1,8.7,8.7,0,0,0,4.4-1,10.9,10.9,0,0,0,3.3-2.7,13.4,13.4,0,0,0,1.9-4,15.1,15.1,0,0,0,.7-4.8v-1a14.9,14.9,0,0,0-.7-4.7,12.4,12.4,0,0,0-1.9-4,9.9,9.9,0,0,0-3.3-2.8,9.2,9.2,0,0,0-4.4-1,8.9,8.9,0,0,0-4.4,1,8.7,8.7,0,0,0-3.2,2.8,10.8,10.8,0,0,0-2,4,14.9,14.9,0,0,0-.7,4.7Z"/><path class="cls-5" d="M1673,987.8l.6,2.6.6-2.8,7.4-23.5h2.9l7.3,23.3.8,3.3.6-3,6.3-23.6h3.6l-9,30.7h-2.9l-7.9-24.3-.3-1.7-.4,1.7-7.7,24.3H1672l-8.9-30.7h3.4Z"/><path class="cls-5" d="M1712.7,964.1v5.3a15.5,15.5,0,0,1,1.9-2.4,10.2,10.2,0,0,1,2.3-1.8,10.5,10.5,0,0,1,5.8-1.6,13.7,13.7,0,0,1,4.2.6,6.9,6.9,0,0,1,3,2,9.2,9.2,0,0,1,2,3.5,19,19,0,0,1,.6,5.2v19.9h-3.3v-20a11,11,0,0,0-.6-3.9,6.5,6.5,0,0,0-1.4-2.6,5.9,5.9,0,0,0-2.3-1.4,13.6,13.6,0,0,0-3-.4,8.8,8.8,0,0,0-3.3.6,10.1,10.1,0,0,0-4.5,4,11.1,11.1,0,0,0-1.3,2.7v21h-3.4V964.1Z"/></g></g></svg>