<svg xmlns="http://www.w3.org/2000/svg" xmlns:xlink="http://www.w3.org/1999/xlink" viewBox="0 0 1007.1 831.6"><defs><style>.cls-1,.cls-11,.cls-7{fill:none;}.cls-2{fill:#fff;}.cls-3{clip-path:url(#clip-path);}.cls-4{fill:blue;stroke:blue;}.cls-4,.cls-5,.cls-6{stroke-linejoin:round;}.cls-5{fill:red;stroke:red;}.cls-6,.cls-7,.cls-8{stroke:#000;}.cls-11,.cls-12,.cls-17,.cls-18,.cls-23,.cls-24,.cls-6,.cls-7{stroke-width:0.8px;}.cls-11,.cls-12,.cls-17,.cls-18,.cls-23,.cls-24,.cls-7{stroke-linecap:square;}.cls-10,.cls-22,.cls-8{stroke-miterlimit:10;}.cls-8{stroke-width:0.5px;}.cls-9{opacity:0.25;}.cls-10{fill:#fcc35e;}.cls-10,.cls-11,.cls-12,.cls-17,.cls-18,.cls-22,.cls-23,.cls-24{stroke:#fff;}.cls-12{fill:#f95f5f;}.cls-13{fill:#5d81f4;}.cls-14{fill:#00d819;}.cls-15{fill:#087318;}.cls-16{fill:#6b5256;}.cls-17{fill:#c900ff;}.cls-18{fill:#e76800;}.cls-19{clip-path:url(#clip-path-3);}.cls-20{clip-path:url(#clip-path-5);}.cls-21{clip-path:url(#clip-path-7);}.cls-22{fill:#ffff15;}.cls-23{fill:#f93535;}.cls-24{fill:#ff7503;}</style><clipPath id="clip-path" transform="translate(0 -1.4)"><rect class="cls-1" x="63.3" y="39.8" width="419.6" height="180.88"/></clipPath><clipPath id="clip-path-3" transform="translate(0 -1.4)"><rect class="cls-1" x="70.6" y="327.1" width="419.6" height="180.88"/></clipPath><clipPath id="clip-path-5" transform="translate(0 -1.4)"><rect class="cls-1" x="575.9" y="326.6" width="419.6" height="180.88"/></clipPath><clipPath id="clip-path-7" transform="translate(0 -1.4)"><rect class="cls-1" x="76.4" y="615.3" width="418.8" height="180.54"/></clipPath></defs><title>walmart</title><g id="Layer_2" data-name="Layer 2"><g id="Layer_1-2" data-name="Layer 1"><g id="patch_2" data-name="patch 2"><path class="cls-2" d="M63.3,220.7H483V39.8H63.3Z" transform="translate(0 -1.4)"/></g><g id="PathCollection_1" data-name="PathCollection 1"><g class="cls-3"><path id="m66d42a26bc" class="cls-4" d="M82.5,220a7.7,7.7,0,0,0,5.4-2.2,7.9,7.9,0,0,0,2.2-5.4,7.5,7.5,0,0,0-2.2-5.3,7.4,7.4,0,0,0-5.4-2.3,7.6,7.6,0,0,0-5.4,2.3,7.5,7.5,0,0,0-2.2,5.3,7.5,7.5,0,0,0,7.6,7.6Z" transform="translate(0 -1.4)"/><path id="m66d42a26bc-2" data-name="m66d42a26bc" class="cls-4" d="M82.5,216.7a7.5,7.5,0,0,0,7.6-7.6,7.5,7.5,0,0,0-2.2-5.3,7.4,7.4,0,0,0-5.4-2.3,7.6,7.6,0,0,0-5.4,2.3,7.5,7.5,0,0,0-2.2,5.3,7.7,7.7,0,0,0,2.2,5.4A7.9,7.9,0,0,0,82.5,216.7Z" transform="translate(0 -1.4)"/><path id="m66d42a26bc-3" data-name="m66d42a26bc" class="cls-4" d="M90.1,220a7.7,7.7,0,0,0,7.7-7.6,7.6,7.6,0,0,0-13-5.3,7.2,7.2,0,0,0-2.3,5.3,7.6,7.6,0,0,0,2.3,5.4A7.5,7.5,0,0,0,90.1,220Z" transform="translate(0 -1.4)"/><path id="m66d42a26bc-4" data-name="m66d42a26bc" class="cls-4" d="M90.1,216.7a7.6,7.6,0,0,0,5.4-2.2,7.4,7.4,0,0,0,2.3-5.4,7.6,7.6,0,0,0-13-5.3,7.2,7.2,0,0,0-2.3,5.3,7.4,7.4,0,0,0,2.3,5.4A7.5,7.5,0,0,0,90.1,216.7Z" transform="translate(0 -1.4)"/><path id="m66d42a26bc-5" data-name="m66d42a26bc" class="cls-4" d="M463.8,55.6a7.9,7.9,0,0,0,5.4-2.2,7.5,7.5,0,0,0,2.2-5.3,7.7,7.7,0,0,0-2.2-5.4,7.9,7.9,0,0,0-5.4-2.2,7.5,7.5,0,0,0-7.6,7.6,7.5,7.5,0,0,0,2.2,5.3A7.7,7.7,0,0,0,463.8,55.6Z" transform="translate(0 -1.4)"/></g></g><g id="PathCollection_2" data-name="PathCollection 2"><g class="cls-3"><path id="m2ca8b612ac" class="cls-5" d="M177.8,178.9a7.6,7.6,0,0,0,5.4-2.2,7.7,7.7,0,0,0,2.2-5.4,7.5,7.5,0,0,0-2.2-5.3,7.7,7.7,0,0,0-13,5.3,7.4,7.4,0,0,0,2.3,5.4A7.5,7.5,0,0,0,177.8,178.9Z" transform="translate(0 -1.4)"/><path id="m2ca8b612ac-2" data-name="m2ca8b612ac" class="cls-5" d="M273.2,137.8a7.5,7.5,0,0,0,5.3-2.2,7.4,7.4,0,0,0,2.3-5.4,7.2,7.2,0,0,0-2.3-5.3,7.6,7.6,0,0,0-12.9,5.3,7.7,7.7,0,0,0,2.2,5.4A7.6,7.6,0,0,0,273.2,137.8Z" transform="translate(0 -1.4)"/><path id="m2ca8b612ac-3" data-name="m2ca8b612ac" class="cls-5" d="M368.5,96.7a7.9,7.9,0,0,0,5.4-2.2,7.6,7.6,0,0,0,0-10.7,7.9,7.9,0,0,0-5.4-2.2,7.7,7.7,0,0,0-5.4,2.2,7.6,7.6,0,0,0,0,10.7A7.7,7.7,0,0,0,368.5,96.7Z" transform="translate(0 -1.4)"/></g></g><g id="matplotlib.axis_1" data-name="matplotlib.axis 1"><g id="xtick_1" data-name="xtick 1"><g id="line2d_1" data-name="line2d 1"><path id="m5250c6ff19" class="cls-6" d="M82.5,220.7v8.8" transform="translate(0 -1.4)"/></g><g id="text_1" data-name="text 1"><path id="DejaVuSans-48" d="M82.5,240.8a3.1,3.1,0,0,0-2.9,1.9,13,13,0,0,0-1,5.6,13.2,13.2,0,0,0,1,5.7,3.1,3.1,0,0,0,2.9,1.9,3,3,0,0,0,2.9-1.9c.7-1.2,1-3.1,1-5.7a11.7,11.7,0,0,0-1-5.6A3,3,0,0,0,82.5,240.8Zm0-2a5.5,5.5,0,0,1,4.8,2.4c1.1,1.7,1.6,4,1.6,7.1s-.5,5.5-1.6,7.1a5.3,5.3,0,0,1-4.8,2.5,5.2,5.2,0,0,1-4.7-2.5c-1.1-1.6-1.7-4-1.7-7.1a12.8,12.8,0,0,1,1.7-7.1A5.3,5.3,0,0,1,82.5,238.8Z" transform="translate(0 -1.4)"/></g></g><g id="xtick_2" data-name="xtick 2"><g id="line2d_2" data-name="line2d 2"><path id="m5250c6ff19-2" data-name="m5250c6ff19" class="cls-6" d="M177.8,220.7v8.8" transform="translate(0 -1.4)"/></g><g id="text_2" data-name="text 2"><path id="DejaVuSans-50" d="M166.6,255.4h8.7v2.1H163.6v-2.1l3.8-3.9,3.1-3.2a12,12,0,0,0,1.7-2.3,4.1,4.1,0,0,0,.5-1.8,3.3,3.3,0,0,0-1-2.4,4,4,0,0,0-2.7-.9,7.7,7.7,0,0,0-2.5.4l-2.8,1.2V240l2.8-.9,2.4-.3a7.2,7.2,0,0,1,4.6,1.4,4.9,4.9,0,0,1,1.7,3.8,5.4,5.4,0,0,1-.4,2.2,9,9,0,0,1-1.6,2.4l-1.9,2Z" transform="translate(0 -1.4)"/><path id="DejaVuSans-53" d="M180.6,239.1h9.8v2.1h-7.5v4.5l1.1-.3h1a6.9,6.9,0,0,1,4.9,1.6,6.5,6.5,0,0,1,0,9.2,7.6,7.6,0,0,1-5.2,1.7l-2.4-.2-2.5-.6v-2.5a9.2,9.2,0,0,0,2.3.9,10.1,10.1,0,0,0,2.5.3,5.1,5.1,0,0,0,3.4-1.1,4.2,4.2,0,0,0,1.3-3.1,3.8,3.8,0,0,0-1.3-3,4.7,4.7,0,0,0-3.4-1.1,6.8,6.8,0,0,0-2,.2,5.3,5.3,0,0,0-2,.7Z" transform="translate(0 -1.4)"/></g></g><g id="xtick_3" data-name="xtick 3"><g id="line2d_3" data-name="line2d 3"><path id="m5250c6ff19-3" data-name="m5250c6ff19" class="cls-6" d="M273.2,220.7v8.8" transform="translate(0 -1.4)"/></g><g id="text_3" data-name="text 3"><path id="DejaVuSans-53-2" data-name="DejaVuSans-53" d="M259.8,239.1h9.8v2.1h-7.5v4.5l1-.3h1.1a6.9,6.9,0,0,1,4.9,1.6,6.2,6.2,0,0,1,1.8,4.6,5.9,5.9,0,0,1-1.8,4.6,7.7,7.7,0,0,1-5.2,1.7l-2.4-.2a22.7,22.7,0,0,1-2.5-.6v-2.5a9.2,9.2,0,0,0,2.3.9,10.1,10.1,0,0,0,2.5.3,5.1,5.1,0,0,0,3.4-1.1,4.1,4.1,0,0,0,1.2-3.1,3.8,3.8,0,0,0-1.2-3,4.7,4.7,0,0,0-3.4-1.1,6.8,6.8,0,0,0-2,.2,5.3,5.3,0,0,0-2,.7Z" transform="translate(0 -1.4)"/><path id="DejaVuSans-48-2" data-name="DejaVuSans-48" d="M281.2,240.8a3.1,3.1,0,0,0-2.9,1.9,13,13,0,0,0-1,5.6,13.2,13.2,0,0,0,1,5.7,3.1,3.1,0,0,0,2.9,1.9,3,3,0,0,0,2.9-1.9c.7-1.2,1-3.1,1-5.7a11.7,11.7,0,0,0-1-5.6A3,3,0,0,0,281.2,240.8Zm0-2a5.5,5.5,0,0,1,4.8,2.4c1.1,1.7,1.6,4,1.6,7.1s-.5,5.5-1.6,7.1a5.3,5.3,0,0,1-4.8,2.5,5.2,5.2,0,0,1-4.7-2.5c-1.1-1.6-1.7-4-1.7-7.1a12.8,12.8,0,0,1,1.7-7.1A5.3,5.3,0,0,1,281.2,238.8Z" transform="translate(0 -1.4)"/></g></g><g id="xtick_4" data-name="xtick 4"><g id="line2d_4" data-name="line2d 4"><path id="m5250c6ff19-4" data-name="m5250c6ff19" class="cls-6" d="M368.5,220.7v8.8" transform="translate(0 -1.4)"/></g><g id="text_4" data-name="text 4"><path id="DejaVuSans-55" d="M354.4,239.1h11.9v1.1l-6.7,17.3H357l6.3-16.3h-8.9Z" transform="translate(0 -1.4)"/><path id="DejaVuSans-53-3" data-name="DejaVuSans-53" d="M371.2,239.1H381v2.1h-7.5v4.5l1.1-.3h1.1a7.1,7.1,0,0,1,4.9,1.6,6.2,6.2,0,0,1,1.8,4.6,5.6,5.6,0,0,1-1.9,4.6,7.6,7.6,0,0,1-5.2,1.7l-2.4-.2-2.5-.6v-2.5a10.9,10.9,0,0,0,2.3.9,10.7,10.7,0,0,0,2.5.3,5,5,0,0,0,3.4-1.1,3.9,3.9,0,0,0,1.3-3.1,3.5,3.5,0,0,0-1.3-3,4.5,4.5,0,0,0-3.4-1.1,7.1,7.1,0,0,0-2,.2,6,6,0,0,0-2,.7Z" transform="translate(0 -1.4)"/></g></g><g id="xtick_5" data-name="xtick 5"><g id="line2d_5" data-name="line2d 5"><path id="m5250c6ff19-5" data-name="m5250c6ff19" class="cls-6" d="M463.8,220.7v8.8" transform="translate(0 -1.4)"/></g><g id="text_5" data-name="text 5"><path id="DejaVuSans-49" d="M442.7,255.4h4.1v-14l-4.4.9V240l4.4-.9h2.5v16.3h4.1v2.1H442.7Z" transform="translate(0 -1.4)"/><path id="DejaVuSans-48-3" data-name="DejaVuSans-48" d="M463.8,240.8a3,3,0,0,0-2.9,1.9,11.7,11.7,0,0,0-1,5.6c0,2.6.3,4.5,1,5.7a3.2,3.2,0,0,0,5.8,0c.7-1.2,1-3.1,1-5.7a11.7,11.7,0,0,0-1-5.6A3,3,0,0,0,463.8,240.8Zm0-2a5.3,5.3,0,0,1,4.7,2.4,12.8,12.8,0,0,1,1.7,7.1c0,3.1-.6,5.5-1.7,7.1a5.2,5.2,0,0,1-4.7,2.5,5.3,5.3,0,0,1-4.8-2.5c-1.1-1.6-1.6-4-1.6-7.1s.5-5.4,1.6-7.1A5.5,5.5,0,0,1,463.8,238.8Z" transform="translate(0 -1.4)"/><path id="DejaVuSans-48-4" data-name="DejaVuSans-48" d="M479.9,240.8a3.1,3.1,0,0,0-2.9,1.9,13,13,0,0,0-1,5.6,13.2,13.2,0,0,0,1,5.7,3.1,3.1,0,0,0,2.9,1.9,3,3,0,0,0,2.9-1.9c.7-1.2,1-3.1,1-5.7a11.7,11.7,0,0,0-1-5.6A3,3,0,0,0,479.9,240.8Zm0-2a5.5,5.5,0,0,1,4.8,2.4c1.1,1.7,1.6,4,1.6,7.1s-.5,5.5-1.6,7.1a5.3,5.3,0,0,1-4.8,2.5,5.2,5.2,0,0,1-4.7-2.5c-1.1-1.6-1.7-4-1.7-7.1a12.8,12.8,0,0,1,1.7-7.1A5.3,5.3,0,0,1,479.9,238.8Z" transform="translate(0 -1.4)"/></g></g></g><g id="matplotlib.axis_2" data-name="matplotlib.axis 2"><g id="ytick_1" data-name="ytick 1"><g id="line2d_6" data-name="line2d 6"><path id="m4dbcec3680" class="cls-6" d="M63.3,212.4H54.5" transform="translate(0 -1.4)"/></g><g id="text_6" data-name="text 6"><path id="DejaVuSans-48-5" data-name="DejaVuSans-48" d="M37.5,205.2a3.3,3.3,0,0,0-2.9,1.9,18.5,18.5,0,0,0,0,11.4,3.1,3.1,0,0,0,2.9,1.9,3,3,0,0,0,2.9-1.9,16.7,16.7,0,0,0,0-11.4A3.1,3.1,0,0,0,37.5,205.2Zm0-1.9a5.5,5.5,0,0,1,4.8,2.4c1.1,1.6,1.6,4,1.6,7.1s-.5,5.5-1.6,7.1a5.8,5.8,0,0,1-9.5,0c-1.1-1.6-1.7-4-1.7-7.1s.6-5.5,1.7-7.1A5.4,5.4,0,0,1,37.5,203.3Z" transform="translate(0 -1.4)"/></g></g><g id="ytick_2" data-name="ytick 2"><g id="line2d_7" data-name="line2d 7"><path id="m4dbcec3680-2" data-name="m4dbcec3680" class="cls-6" d="M63.3,130.2H54.5" transform="translate(0 -1.4)"/></g><g id="text_7" data-name="text 7"><path id="DejaVuSans-53-4" data-name="DejaVuSans-53" d="M16.1,121.4h9.8v2.1H18.4V128l1.1-.2h1a6.9,6.9,0,0,1,4.9,1.6,6.5,6.5,0,0,1,0,9.2,7.6,7.6,0,0,1-5.2,1.7l-2.4-.2-2.5-.6v-2.5a9.2,9.2,0,0,0,2.3.9,10.1,10.1,0,0,0,2.5.3,5.1,5.1,0,0,0,3.4-1.1,4.2,4.2,0,0,0,1.3-3.1,3.8,3.8,0,0,0-1.3-3,4.7,4.7,0,0,0-3.4-1.1,6.8,6.8,0,0,0-2,.2,8,8,0,0,0-2,.7Z" transform="translate(0 -1.4)"/><path id="DejaVuSans-48-6" data-name="DejaVuSans-48" d="M37.5,123.1a3.1,3.1,0,0,0-2.9,1.9,13.3,13.3,0,0,0-.9,5.6,13.5,13.5,0,0,0,.9,5.7,3.1,3.1,0,0,0,2.9,1.9,3,3,0,0,0,2.9-1.9c.7-1.2,1-3.1,1-5.7a11.7,11.7,0,0,0-1-5.6A3,3,0,0,0,37.5,123.1Zm0-2a5.5,5.5,0,0,1,4.8,2.4c1.1,1.7,1.6,4,1.6,7.1s-.5,5.5-1.6,7.1a5.3,5.3,0,0,1-4.8,2.5,5.3,5.3,0,0,1-4.7-2.5c-1.1-1.6-1.7-4-1.7-7.1a12.8,12.8,0,0,1,1.7-7.1A5.4,5.4,0,0,1,37.5,121.1Z" transform="translate(0 -1.4)"/></g></g><g id="ytick_3" data-name="ytick 3"><g id="line2d_8" data-name="line2d 8"><path id="m4dbcec3680-3" data-name="m4dbcec3680" class="cls-6" d="M63.3,48.1H54.5" transform="translate(0 -1.4)"/></g><g id="text_8" data-name="text 8"><path id="DejaVuSans-49-2" data-name="DejaVuSans-49" d="M.4,55.6h4V41.5L0,42.4V40.1l4.4-.9H6.9V55.6H11v2.1H.4Z" transform="translate(0 -1.4)"/><path id="DejaVuSans-48-7" data-name="DejaVuSans-48" d="M21.4,40.9a3,3,0,0,0-2.9,1.9c-.7,1.2-1,3.1-1,5.7a11.7,11.7,0,0,0,1,5.6A3,3,0,0,0,21.4,56a3,3,0,0,0,2.9-1.9,11.7,11.7,0,0,0,1-5.6c0-2.6-.3-4.5-1-5.7A3,3,0,0,0,21.4,40.9Zm0-2a5.1,5.1,0,0,1,4.7,2.5c1.1,1.6,1.7,4,1.7,7.1a12.8,12.8,0,0,1-1.7,7.1A5.2,5.2,0,0,1,21.4,58a5.2,5.2,0,0,1-4.7-2.4A12.8,12.8,0,0,1,15,48.5c0-3.1.6-5.5,1.7-7.1A5.1,5.1,0,0,1,21.4,38.9Z" transform="translate(0 -1.4)"/><path id="DejaVuSans-48-8" data-name="DejaVuSans-48" d="M37.5,40.9a3.1,3.1,0,0,0-2.9,1.9,13.5,13.5,0,0,0-.9,5.7,13.3,13.3,0,0,0,.9,5.6A3.1,3.1,0,0,0,37.5,56a3,3,0,0,0,2.9-1.9,11.7,11.7,0,0,0,1-5.6c0-2.6-.3-4.5-1-5.7A3,3,0,0,0,37.5,40.9Zm0-2a5.3,5.3,0,0,1,4.8,2.5c1.1,1.6,1.6,4,1.6,7.1s-.5,5.4-1.6,7.1A5.5,5.5,0,0,1,37.5,58a5.4,5.4,0,0,1-4.7-2.4,12.8,12.8,0,0,1-1.7-7.1c0-3.1.6-5.5,1.7-7.1A5.3,5.3,0,0,1,37.5,38.9Z" transform="translate(0 -1.4)"/></g></g></g><g id="patch_3" data-name="patch 3"><path class="cls-7" d="M63.3,220.7V39.8" transform="translate(0 -1.4)"/></g><g id="patch_4" data-name="patch 4"><path class="cls-7" d="M483,220.7V39.8" transform="translate(0 -1.4)"/></g><g id="patch_5" data-name="patch 5"><path class="cls-7" d="M63.3,220.7H483" transform="translate(0 -1.4)"/></g><g id="patch_6" data-name="patch 6"><path class="cls-7" d="M63.3,39.8H483" transform="translate(0 -1.4)"/></g><g id="text_9" data-name="text 9"><path id="DejaVuSans-79" class="cls-8" d="M225.6,4.6A6.4,6.4,0,0,0,220.4,7a10.8,10.8,0,0,0-1.9,6.6,10.8,10.8,0,0,0,1.9,6.6,6.5,6.5,0,0,0,5.2,2.5,6.4,6.4,0,0,0,5.2-2.5,10.2,10.2,0,0,0,1.9-6.6A10.2,10.2,0,0,0,230.8,7,6.3,6.3,0,0,0,225.6,4.6Zm0-2.4a9.6,9.6,0,0,1,7.5,3.1,12.2,12.2,0,0,1,2.8,8.3,12.5,12.5,0,0,1-2.8,8.4,10.6,10.6,0,0,1-15,0,12.5,12.5,0,0,1-2.7-8.4,12.2,12.2,0,0,1,2.7-8.3A9.6,9.6,0,0,1,225.6,2.2Z" transform="translate(0 -1.4)"/><path id="DejaVuSans-114" class="cls-8" d="M250.1,10.6l-1-.4h-1.2a4.5,4.5,0,0,0-3.6,1.5,6.9,6.9,0,0,0-1.2,4.3v8.8h-2.8V8.1h2.8v2.6a6.1,6.1,0,0,1,2.2-2.3,7.4,7.4,0,0,1,3.4-.7h1.4Z" transform="translate(0 -1.4)"/><path id="DejaVuSans-105" class="cls-8" d="M253,8.1h2.7V24.7H253Zm0-6.5h2.7V5.1H253Z" transform="translate(0 -1.4)"/><path id="DejaVuSans-103" class="cls-8" d="M272.4,16.2a7.6,7.6,0,0,0-1.3-4.6,4.4,4.4,0,0,0-6.8,0,7.6,7.6,0,0,0-1.3,4.6,7.3,7.3,0,0,0,1.3,4.5,4.3,4.3,0,0,0,6.8,0A7.3,7.3,0,0,0,272.4,16.2Zm2.7,6.4c0,2.8-.6,4.9-1.9,6.3s-3.2,2-5.8,2a12.3,12.3,0,0,1-2.7-.2,11.4,11.4,0,0,1-2.5-.6V27.4a8.2,8.2,0,0,0,2.4,1,9.9,9.9,0,0,0,2.4.3,5.4,5.4,0,0,0,4-1.4,5.7,5.7,0,0,0,1.4-4.2V21.7a5.8,5.8,0,0,1-2.2,2.2,6.3,6.3,0,0,1-3.2.8,5.9,5.9,0,0,1-4.9-2.4,9.1,9.1,0,0,1-1.9-6.1,9.4,9.4,0,0,1,1.9-6.2A6.1,6.1,0,0,1,267,7.7a6.3,6.3,0,0,1,3.2.7,5.8,5.8,0,0,1,2.2,2.2V8.1h2.7Z" transform="translate(0 -1.4)"/><path id="DejaVuSans-105-2" data-name="DejaVuSans-105" class="cls-8" d="M280.7,8.1h2.8V24.7h-2.8Zm0-6.5h2.8V5.1h-2.8Z" transform="translate(0 -1.4)"/><path id="DejaVuSans-110" class="cls-8" d="M303,14.7v10h-2.7v-10a5.2,5.2,0,0,0-1-3.5,3.1,3.1,0,0,0-2.7-1.1,4.2,4.2,0,0,0-3.5,1.4,5.2,5.2,0,0,0-1.3,3.8v9.4h-2.7V8.1h2.7v2.6a7.2,7.2,0,0,1,2.3-2.3,6.2,6.2,0,0,1,3.1-.7,5.2,5.2,0,0,1,4.3,1.8C302.5,10.6,303,12.4,303,14.7Z" transform="translate(0 -1.4)"/><path id="DejaVuSans-97" class="cls-8" d="M316,16.3a9.9,9.9,0,0,0-4.6.8,2.8,2.8,0,0,0-1.3,2.6,3.3,3.3,0,0,0,1,2.3,4,4,0,0,0,2.6.8,4.7,4.7,0,0,0,3.7-1.6,6.5,6.5,0,0,0,1.3-4.3v-.6Zm5.5-1.1v9.5h-2.8V22.1a6.3,6.3,0,0,1-2.3,2.3,8.6,8.6,0,0,1-3.4.7,6,6,0,0,1-4.1-1.4,5.3,5.3,0,0,1-1.5-3.9,5,5,0,0,1,1.9-4.2,9.4,9.4,0,0,1,5.6-1.4h3.8v-.3a3.7,3.7,0,0,0-1.2-2.9,5.2,5.2,0,0,0-3.5-1,13.3,13.3,0,0,0-2.8.3,14.5,14.5,0,0,0-2.6,1.1V8.8l2.9-.8,2.8-.3c2.4,0,4.2.6,5.4,1.9S321.5,12.7,321.5,15.2Z" transform="translate(0 -1.4)"/><path id="DejaVuSans-108" class="cls-8" d="M327.1,1.6h2.7V24.7h-2.7Z" transform="translate(0 -1.4)"/></g><g class="cls-9"><rect class="cls-10" x="63.4" y="39.2" width="419.4" height="181.21"/><rect class="cls-11" x="63.4" y="91.8" width="119.9" height="107"/><rect class="cls-11" x="63.4" y="39.2" width="119.9" height="52.64"/><rect class="cls-12" x="63.4" y="198.8" width="119.9" height="21.57"/><rect class="cls-11" x="183.4" y="39.2" width="119.9" height="52.64"/><rect class="cls-13" x="183.4" y="91.8" width="119.9" height="107"/><rect class="cls-14" x="303.3" y="39.2" width="179.5" height="159.64"/><rect class="cls-15" x="63.4" y="91.8" width="119.9" height="107"/><rect class="cls-16" x="419.8" y="148.8" width="63" height="50.05"/><rect class="cls-17" x="63.4" y="39.2" width="119.9" height="52.64"/><rect class="cls-18" x="183.4" y="39.2" width="119.9" height="52.64"/></g><g id="patch_27" data-name="patch 27"><path class="cls-2" d="M70.6,508H490.2V327.1H70.6Z" transform="translate(0 -1.4)"/></g><g id="PathCollection_11" data-name="PathCollection 11"><g class="cls-19"><path id="m66d42a26bc-6" data-name="m66d42a26bc" class="cls-4" d="M354.4,504.9a7.6,7.6,0,1,0,0-15.2,7.7,7.7,0,0,0-5.4,2.2,7.7,7.7,0,0,0,0,10.8A7.7,7.7,0,0,0,354.4,504.9Z" transform="translate(0 -1.4)"/><path id="m66d42a26bc-7" data-name="m66d42a26bc" class="cls-4" d="M348.2,507.3a7.6,7.6,0,0,0,5.4-2.2,7.7,7.7,0,0,0,2.2-5.4,7.5,7.5,0,0,0-2.2-5.3,7.7,7.7,0,0,0-13,5.3,7.4,7.4,0,0,0,2.3,5.4A7.5,7.5,0,0,0,348.2,507.3Z" transform="translate(0 -1.4)"/><path id="m66d42a26bc-8" data-name="m66d42a26bc" class="cls-4" d="M351.4,500a7.9,7.9,0,0,0,5.4-2.2,7.7,7.7,0,0,0,2.2-5.4,7.5,7.5,0,0,0-2.2-5.3,7.9,7.9,0,0,0-5.4-2.2,7.7,7.7,0,0,0-5.4,2.2,7.5,7.5,0,0,0-2.2,5.3,7.5,7.5,0,0,0,7.6,7.6Z" transform="translate(0 -1.4)"/><path id="m66d42a26bc-9" data-name="m66d42a26bc" class="cls-4" d="M346.9,502.3a7.6,7.6,0,0,0,5.4-2.2,7.7,7.7,0,0,0,2.2-5.4,7.6,7.6,0,0,0-12.9-5.3,7.2,7.2,0,0,0-2.3,5.3,7.4,7.4,0,0,0,2.3,5.4A7.5,7.5,0,0,0,346.9,502.3Z" transform="translate(0 -1.4)"/><path id="m66d42a26bc-10" data-name="m66d42a26bc" class="cls-4" d="M89.7,371.2a7.6,7.6,0,0,0,5.4-2.2,7.9,7.9,0,0,0,2.2-5.4,7.5,7.5,0,0,0-2.2-5.3,7.7,7.7,0,0,0-13,5.3,7.6,7.6,0,0,0,2.3,5.4A7.5,7.5,0,0,0,89.7,371.2Z" transform="translate(0 -1.4)"/></g></g><g id="PathCollection_12" data-name="PathCollection 12"><g class="cls-19"><path id="m2ca8b612ac-4" data-name="m2ca8b612ac" class="cls-5" d="M353.1,433.8a7.7,7.7,0,0,0,5.4-2.2,7.7,7.7,0,0,0,0-10.8,7.7,7.7,0,0,0-5.4-2.2,7.6,7.6,0,1,0,0,15.2Z" transform="translate(0 -1.4)"/><path id="m2ca8b612ac-5" data-name="m2ca8b612ac" class="cls-5" d="M408.1,390.4a7.9,7.9,0,0,0,5.4-2.2,7.7,7.7,0,0,0,2.2-5.4,7.5,7.5,0,0,0-2.2-5.3,7.9,7.9,0,0,0-5.4-2.2,7.7,7.7,0,0,0-5.4,2.2,7.5,7.5,0,0,0-2.2,5.3,7.5,7.5,0,0,0,7.6,7.6Z" transform="translate(0 -1.4)"/><path id="m2ca8b612ac-6" data-name="m2ca8b612ac" class="cls-5" d="M463.1,347a7.5,7.5,0,0,0,5.3-2.2,7.2,7.2,0,0,0,2.3-5.3,7.4,7.4,0,0,0-2.3-5.4,7.6,7.6,0,0,0-10.7,0,7.4,7.4,0,0,0-2.3,5.4,7.2,7.2,0,0,0,2.3,5.3A7.6,7.6,0,0,0,463.1,347Z" transform="translate(0 -1.4)"/></g></g><g id="matplotlib.axis_11" data-name="matplotlib.axis 11"><g id="xtick_24" data-name="xtick 24"><g id="line2d_37" data-name="line2d 37"><path id="m5250c6ff19-6" data-name="m5250c6ff19" class="cls-6" d="M78.2,508v8.8" transform="translate(0 -1.4)"/></g><g id="text_42" data-name="text 42"><path id="DejaVuSans-8722" d="M46.1,535.9H62V538H46.1Z" transform="translate(0 -1.4)"/><path id="DejaVuSans-49-3" data-name="DejaVuSans-49" d="M67.8,542.7h4.1v-14l-4.4.9v-2.3l4.4-.9h2.5v16.3h4.1v2.1H67.8Z" transform="translate(0 -1.4)"/><path id="DejaVuSans-48-9" data-name="DejaVuSans-48" d="M88.9,528.1A3,3,0,0,0,86,530c-.7,1.2-1,3.1-1,5.7a11.7,11.7,0,0,0,1,5.6,3,3,0,0,0,2.9,1.9,3.1,3.1,0,0,0,2.9-1.9,13.3,13.3,0,0,0,.9-5.6,13.5,13.5,0,0,0-.9-5.7A3.1,3.1,0,0,0,88.9,528.1Zm0-2a5.3,5.3,0,0,1,4.7,2.5c1.1,1.6,1.6,3.9,1.6,7.1s-.5,5.4-1.6,7a5.3,5.3,0,0,1-4.7,2.5,5.3,5.3,0,0,1-4.8-2.5c-1.1-1.6-1.6-3.9-1.6-7s.5-5.5,1.6-7.1A5.3,5.3,0,0,1,88.9,526.1Z" transform="translate(0 -1.4)"/><path id="DejaVuSans-48-10" data-name="DejaVuSans-48" d="M105,528.1a3,3,0,0,0-2.9,1.9c-.7,1.2-1,3.1-1,5.7a11.7,11.7,0,0,0,1,5.6,3.2,3.2,0,0,0,5.8,0,11.7,11.7,0,0,0,1-5.6c0-2.6-.3-4.5-1-5.7A3,3,0,0,0,105,528.1Zm0-2a5.2,5.2,0,0,1,4.7,2.5c1.1,1.6,1.7,3.9,1.7,7.1s-.6,5.4-1.7,7a5.2,5.2,0,0,1-4.7,2.5,5.3,5.3,0,0,1-4.8-2.5c-1.1-1.6-1.6-3.9-1.6-7s.5-5.5,1.6-7.1A5.3,5.3,0,0,1,105,526.1Z" transform="translate(0 -1.4)"/></g></g><g id="xtick_25" data-name="xtick 25"><g id="line2d_38" data-name="line2d 38"><path id="m5250c6ff19-7" data-name="m5250c6ff19" class="cls-6" d="M188.2,508v8.8" transform="translate(0 -1.4)"/></g><g id="text_43" data-name="text 43"><path id="DejaVuSans-8722-2" data-name="DejaVuSans-8722" d="M164.1,535.9H180V538H164.1Z" transform="translate(0 -1.4)"/><path id="DejaVuSans-53-5" data-name="DejaVuSans-53" d="M185.4,526.4h9.8v2.1h-7.5V533l1.1-.2h1.1a6.5,6.5,0,0,1,4.9,1.7,5.8,5.8,0,0,1,1.8,4.5,5.5,5.5,0,0,1-1.9,4.6,7.4,7.4,0,0,1-5.2,1.7l-2.4-.2-2.5-.6v-2.5a9.9,9.9,0,0,0,4.9,1.2,4.9,4.9,0,0,0,3.3-1.1,3.9,3.9,0,0,0,1.3-3.1,3.7,3.7,0,0,0-1.3-3,4.4,4.4,0,0,0-3.3-1.1,6.5,6.5,0,0,0-2,.2,8.6,8.6,0,0,0-2.1.7Z" transform="translate(0 -1.4)"/><path id="DejaVuSans-48-11" data-name="DejaVuSans-48" d="M206.9,528.1A3,3,0,0,0,204,530c-.7,1.2-1,3.1-1,5.7a11.7,11.7,0,0,0,1,5.6,3,3,0,0,0,2.9,1.9,3.1,3.1,0,0,0,2.9-1.9,13,13,0,0,0,1-5.6,13.2,13.2,0,0,0-1-5.7A3.1,3.1,0,0,0,206.9,528.1Zm0-2a5.3,5.3,0,0,1,4.7,2.5c1.1,1.6,1.7,3.9,1.7,7.1s-.6,5.4-1.7,7a5.3,5.3,0,0,1-4.7,2.5,5.3,5.3,0,0,1-4.8-2.5c-1.1-1.6-1.6-3.9-1.6-7s.5-5.5,1.6-7.1A5.3,5.3,0,0,1,206.9,526.1Z" transform="translate(0 -1.4)"/></g></g><g id="xtick_26" data-name="xtick 26"><g id="line2d_39" data-name="line2d 39"><path id="m5250c6ff19-8" data-name="m5250c6ff19" class="cls-6" d="M298.1,508v8.8" transform="translate(0 -1.4)"/></g><g id="text_44" data-name="text 44"><path id="DejaVuSans-48-12" data-name="DejaVuSans-48" d="M298.1,528.1a3.1,3.1,0,0,0-2.9,1.9,13.5,13.5,0,0,0-.9,5.7,13.3,13.3,0,0,0,.9,5.6,3.1,3.1,0,0,0,2.9,1.9,3,3,0,0,0,2.9-1.9,11.7,11.7,0,0,0,1-5.6c0-2.6-.3-4.5-1-5.7A3,3,0,0,0,298.1,528.1Zm0-2a5.3,5.3,0,0,1,4.8,2.5c1.1,1.6,1.6,3.9,1.6,7.1s-.5,5.4-1.6,7a5.3,5.3,0,0,1-4.8,2.5,5.3,5.3,0,0,1-4.7-2.5c-1.1-1.6-1.7-3.9-1.7-7s.6-5.5,1.7-7.1A5.3,5.3,0,0,1,298.1,526.1Z" transform="translate(0 -1.4)"/></g></g><g id="xtick_27" data-name="xtick 27"><g id="line2d_40" data-name="line2d 40"><path id="m5250c6ff19-9" data-name="m5250c6ff19" class="cls-6" d="M408.1,508v8.8" transform="translate(0 -1.4)"/></g><g id="text_45" data-name="text 45"><path id="DejaVuSans-53-6" data-name="DejaVuSans-53" d="M394.7,526.4h9.8v2.1H397V533l1.1-.2h1.1a6.7,6.7,0,0,1,4.9,1.7,6.5,6.5,0,0,1-.1,9.1,7.6,7.6,0,0,1-5.2,1.7l-2.4-.2-2.5-.6v-2.5a10.9,10.9,0,0,0,2.3.9,10.1,10.1,0,0,0,2.5.3,5,5,0,0,0,3.4-1.1,4.2,4.2,0,0,0,1.3-3.1,4,4,0,0,0-1.3-3,4.5,4.5,0,0,0-3.4-1.1,7.1,7.1,0,0,0-2,.2,9.6,9.6,0,0,0-2,.7Z" transform="translate(0 -1.4)"/><path id="DejaVuSans-48-13" data-name="DejaVuSans-48" d="M416.1,528.1a3.2,3.2,0,0,0-2.9,1.9,13.5,13.5,0,0,0-.9,5.7,13.3,13.3,0,0,0,.9,5.6,3.2,3.2,0,0,0,2.9,1.9,3.2,3.2,0,0,0,3-1.9,13.3,13.3,0,0,0,.9-5.6,13.5,13.5,0,0,0-.9-5.7A3.2,3.2,0,0,0,416.1,528.1Zm0-2a5.3,5.3,0,0,1,4.8,2.5c1.1,1.6,1.6,3.9,1.6,7.1s-.5,5.4-1.6,7a5.3,5.3,0,0,1-4.8,2.5,5.3,5.3,0,0,1-4.7-2.5c-1.1-1.6-1.6-3.9-1.6-7s.5-5.5,1.6-7.1A5.3,5.3,0,0,1,416.1,526.1Z" transform="translate(0 -1.4)"/></g></g></g><g id="matplotlib.axis_12" data-name="matplotlib.axis 12"><g id="ytick_14" data-name="ytick 14"><g id="line2d_41" data-name="line2d 41"><path id="m4dbcec3680-4" data-name="m4dbcec3680" class="cls-6" d="M70.6,469.6H61.7" transform="translate(0 -1.4)"/></g><g id="text_46" data-name="text 46"><path id="DejaVuSans-48-14" data-name="DejaVuSans-48" d="M44.8,462.4a3,3,0,0,0-2.9,1.9c-.7,1.2-1,3.1-1,5.7a11.7,11.7,0,0,0,1,5.6,3.2,3.2,0,0,0,5.8,0,13,13,0,0,0,1-5.6,13.2,13.2,0,0,0-1-5.7A3,3,0,0,0,44.8,462.4Zm0-2a5.2,5.2,0,0,1,4.7,2.5c1.1,1.6,1.7,4,1.7,7.1a12.8,12.8,0,0,1-1.7,7.1,5.3,5.3,0,0,1-4.7,2.4,5.5,5.5,0,0,1-4.8-2.4c-1.1-1.7-1.6-4-1.6-7.1s.5-5.5,1.6-7.1A5.3,5.3,0,0,1,44.8,460.4Z" transform="translate(0 -1.4)"/></g></g><g id="ytick_15" data-name="ytick 15"><g id="line2d_42" data-name="line2d 42"><path id="m4dbcec3680-5" data-name="m4dbcec3680" class="cls-6" d="M70.6,382.8H61.7" transform="translate(0 -1.4)"/></g><g id="text_47" data-name="text 47"><path id="DejaVuSans-53-7" data-name="DejaVuSans-53" d="M23.3,374h9.9v2.1H25.6v4.5l1.1-.3h1.1a6.9,6.9,0,0,1,4.9,1.6,6.2,6.2,0,0,1,1.8,4.6,5.9,5.9,0,0,1-1.8,4.6,7.8,7.8,0,0,1-5.3,1.7l-2.4-.2a10.5,10.5,0,0,1-2.4-.6v-2.5a9.2,9.2,0,0,0,2.3.9,9.5,9.5,0,0,0,2.5.3,5.3,5.3,0,0,0,3.4-1.1,4.1,4.1,0,0,0,1.2-3.1,3.8,3.8,0,0,0-1.2-3,4.8,4.8,0,0,0-3.4-1.1,6.5,6.5,0,0,0-2,.2,8.6,8.6,0,0,0-2.1.7Z" transform="translate(0 -1.4)"/><path id="DejaVuSans-48-15" data-name="DejaVuSans-48" d="M44.8,375.7a3,3,0,0,0-2.9,1.9,11.7,11.7,0,0,0-1,5.6c0,2.6.3,4.5,1,5.7a3.2,3.2,0,0,0,5.8,0,13.2,13.2,0,0,0,1-5.7,13,13,0,0,0-1-5.6A3,3,0,0,0,44.8,375.7Zm0-2a5.3,5.3,0,0,1,4.7,2.4,12.8,12.8,0,0,1,1.7,7.1c0,3.1-.6,5.5-1.7,7.1a5.2,5.2,0,0,1-4.7,2.5,5.3,5.3,0,0,1-4.8-2.5c-1.1-1.6-1.6-4-1.6-7.1s.5-5.4,1.6-7.1A5.5,5.5,0,0,1,44.8,373.7Z" transform="translate(0 -1.4)"/></g></g></g><g id="patch_28" data-name="patch 28"><path class="cls-7" d="M70.6,508V327.1" transform="translate(0 -1.4)"/></g><g id="patch_29" data-name="patch 29"><path class="cls-7" d="M490.2,508V327.1" transform="translate(0 -1.4)"/></g><g id="patch_30" data-name="patch 30"><path class="cls-7" d="M70.6,508H490.2" transform="translate(0 -1.4)"/></g><g id="patch_31" data-name="patch 31"><path class="cls-7" d="M70.6,327.1H490.2" transform="translate(0 -1.4)"/></g><path id="DejaVuSans-78" class="cls-5" d="M177.6,294.4h4l9.9,18.5V294.4h2.9v22.1h-4.1L180.5,298v18.5h-2.9Z" transform="translate(0 -1.4)"/><path id="DejaVuSans-111" class="cls-5" d="M206.7,301.8a4.1,4.1,0,0,0-3.5,1.7,7.5,7.5,0,0,0-1.3,4.7,7.3,7.3,0,0,0,1.3,4.7,4.1,4.1,0,0,0,3.5,1.7,4.1,4.1,0,0,0,3.4-1.7,7.3,7.3,0,0,0,1.3-4.7,7.2,7.2,0,0,0-1.3-4.6A3.9,3.9,0,0,0,206.7,301.8Zm0-2.3a7.4,7.4,0,0,1,5.6,2.3,9.8,9.8,0,0,1,2,6.4,9.6,9.6,0,0,1-2,6.4,8.1,8.1,0,0,1-11.3,0,9.6,9.6,0,0,1-2-6.4,9.8,9.8,0,0,1,2-6.4A7.5,7.5,0,0,1,206.7,299.5Z" transform="translate(0 -1.4)"/><path id="DejaVuSans-115" class="cls-5" d="M238.5,300.5V303a7.5,7.5,0,0,0-2.4-.8,10.9,10.9,0,0,0-2.6-.3,5.6,5.6,0,0,0-3,.6,2,2,0,0,0-1.1,1.8,1.6,1.6,0,0,0,.8,1.5,7.8,7.8,0,0,0,2.9,1.1l.9.2a9.8,9.8,0,0,1,4.2,1.7,4.2,4.2,0,0,1,1.2,3.2,4.3,4.3,0,0,1-1.8,3.6,8.8,8.8,0,0,1-5.1,1.4l-2.8-.3a19.2,19.2,0,0,1-3-.8v-2.8a18.8,18.8,0,0,0,3,1.2,9.2,9.2,0,0,0,2.9.4,4.8,4.8,0,0,0,2.9-.7,2.1,2.1,0,0,0,.3-3.5,9.5,9.5,0,0,0-3.3-1.2l-.9-.2a7.5,7.5,0,0,1-3.7-1.6,4.4,4.4,0,0,1-1.1-3,4,4,0,0,1,1.7-3.6,7.1,7.1,0,0,1,4.7-1.3l2.8.2A10.3,10.3,0,0,1,238.5,300.5Z" transform="translate(0 -1.4)"/><path id="DejaVuSans-105-3" data-name="DejaVuSans-105" class="cls-5" d="M218.2,300.4h2.7V317h-2.7Zm0-6.4h2.7v3.4h-2.7Z" transform="translate(0 -1.4)"/><path id="DejaVuSans-121" class="cls-5" d="M250,318a9.5,9.5,0,0,1-2.2,3.9,4.5,4.5,0,0,1-3,.9h-2.1v-2.3h1.6a2.9,2.9,0,0,0,1.7-.5,7.5,7.5,0,0,0,1.4-2.5l.5-1.3-6.7-16.3h2.9l5.2,13,5.2-13h2.9Z" transform="translate(0 -1.4)"/><path id="DejaVuSans-77" class="cls-5" d="M270.9,294.4h4.5l5.6,15,5.7-15h4.5v22.1h-2.9V297.1l-5.7,15.1h-3.1l-5.7-15.1v19.4h-2.9Z" transform="translate(0 -1.4)"/><path id="DejaVuSans-68" class="cls-5" d="M300.2,296.9V314h3.6c3,0,5.3-.7,6.7-2s2.1-3.6,2.1-6.6-.7-5.1-2.1-6.5-3.7-2-6.7-2Zm-3-2.5h6.1c4.3,0,7.5.9,9.5,2.7s3,4.5,3,8.3-1,6.6-3,8.4-5.2,2.7-9.5,2.7h-6.1Z" transform="translate(0 -1.4)"/><path id="DejaVuSans-83" class="cls-5" d="M333.9,295.1V298l-3.2-1.2a16.5,16.5,0,0,0-3-.4,6.1,6.1,0,0,0-3.8,1,3.2,3.2,0,0,0-1.3,2.7,2.8,2.8,0,0,0,.9,2.2,7.6,7.6,0,0,0,3.3,1.2l1.9.4a8.9,8.9,0,0,1,4.9,2.2,6.6,6.6,0,0,1-.6,9.2c-1.4,1.1-3.5,1.6-6.3,1.6l-3.3-.3a30.4,30.4,0,0,1-3.7-1.1v-3.1a18.9,18.9,0,0,0,3.6,1.6,13.3,13.3,0,0,0,3.4.5,6.8,6.8,0,0,0,4-1,3.4,3.4,0,0,0,1.4-2.9,3.4,3.4,0,0,0-1-2.5,7.3,7.3,0,0,0-3.3-1.4l-1.8-.4a9.8,9.8,0,0,1-4.9-2,5.4,5.4,0,0,1-1.5-4,5.6,5.6,0,0,1,2.1-4.6,9,9,0,0,1,5.7-1.7l3.2.3Z" transform="translate(0 -1.4)"/><g class="cls-9"><rect class="cls-10" x="70.3" y="349.4" width="301.6" height="158.34" transform="translate(442.2 855.7) rotate(180)"/><rect class="cls-11" x="285.7" y="395.4" width="86.3" height="93.5" transform="translate(657.6 882.8) rotate(180)"/><rect class="cls-11" x="285.7" y="349.4" width="86.3" height="45.99" transform="translate(657.6 743.3) rotate(180)"/><rect class="cls-12" x="285.7" y="488.9" width="86.3" height="18.85" transform="translate(657.6 995.2) rotate(180)"/><rect class="cls-11" x="199.4" y="349.4" width="86.3" height="45.99" transform="translate(485.1 743.3) rotate(180)"/><rect class="cls-13" x="199.4" y="395.4" width="86.3" height="93.5" transform="translate(485.1 882.8) rotate(180)"/><rect class="cls-14" x="70.3" y="349.4" width="129.1" height="139.49" transform="translate(269.7 836.8) rotate(180)"/><rect class="cls-15" x="285.7" y="395.4" width="86.3" height="93.5" transform="translate(657.6 882.8) rotate(180)"/><rect class="cls-16" x="70.3" y="445.1" width="45.3" height="43.73" transform="translate(186 932.6) rotate(180)"/><rect class="cls-17" x="285.7" y="349.4" width="86.3" height="45.99" transform="translate(657.6 743.3) rotate(180)"/><rect class="cls-18" x="199.4" y="349.4" width="86.3" height="45.99" transform="translate(485.1 743.3) rotate(180)"/></g><g id="patch_32" data-name="patch 32"><path class="cls-2" d="M575.9,507.5H995.5V326.6H575.9Z" transform="translate(0 -1.4)"/></g><g id="PathCollection_13" data-name="PathCollection 13"><g class="cls-20"><path id="m66d42a26bc-11" data-name="m66d42a26bc" class="cls-4" d="M595.1,506.8a7.6,7.6,0,0,0,5.4-2.3,7.5,7.5,0,0,0,2.2-5.3,7.5,7.5,0,0,0-7.6-7.6,7.7,7.7,0,0,0-5.4,2.2,7.9,7.9,0,0,0-2.2,5.4,7.5,7.5,0,0,0,2.2,5.3A7.4,7.4,0,0,0,595.1,506.8Z" transform="translate(0 -1.4)"/><path id="m66d42a26bc-12" data-name="m66d42a26bc" class="cls-4" d="M611.2,506.8a7.6,7.6,0,0,0,5.4-2.3,7.5,7.5,0,0,0,2.2-5.3,7.5,7.5,0,0,0-7.6-7.6,7.7,7.7,0,0,0-5.4,2.2,7.9,7.9,0,0,0-2.2,5.4,7.5,7.5,0,0,0,2.2,5.3A7.4,7.4,0,0,0,611.2,506.8Z" transform="translate(0 -1.4)"/><path id="m66d42a26bc-13" data-name="m66d42a26bc" class="cls-4" d="M597.2,501a7.9,7.9,0,0,0,7.6-7.6,7.6,7.6,0,0,0-2.3-5.4,7.5,7.5,0,0,0-5.3-2.2,7.7,7.7,0,0,0-5.4,2.2,7.9,7.9,0,0,0-2.2,5.4,7.5,7.5,0,0,0,2.2,5.3A7.4,7.4,0,0,0,597.2,501Z" transform="translate(0 -1.4)"/><path id="m66d42a26bc-14" data-name="m66d42a26bc" class="cls-4" d="M606.9,502.3a7.7,7.7,0,0,0,7.7-7.6,7.7,7.7,0,0,0-15.3,0,7.6,7.6,0,0,0,2.3,5.4A7.5,7.5,0,0,0,606.9,502.3Z" transform="translate(0 -1.4)"/><path id="m66d42a26bc-15" data-name="m66d42a26bc" class="cls-4" d="M879.5,342.4a7.7,7.7,0,0,0,5.4-2.2,7.6,7.6,0,0,0,0-10.7,7.7,7.7,0,0,0-5.4-2.2,7.9,7.9,0,0,0-5.4,2.2,7.6,7.6,0,0,0,0,10.7A7.9,7.9,0,0,0,879.5,342.4Z" transform="translate(0 -1.4)"/></g></g><g id="PathCollection_14" data-name="PathCollection 14"><g class="cls-20"><path id="m2ca8b612ac-7" data-name="m2ca8b612ac" class="cls-5" d="M719.3,462.5a7.9,7.9,0,0,0,5.4-2.2,7.6,7.6,0,0,0,0-10.7,7.9,7.9,0,0,0-5.4-2.2,7.7,7.7,0,0,0-5.4,2.2,7.6,7.6,0,0,0,0,10.7A7.7,7.7,0,0,0,719.3,462.5Z" transform="translate(0 -1.4)"/><path id="m2ca8b612ac-8" data-name="m2ca8b612ac" class="cls-5" d="M843.5,418.3a7.5,7.5,0,0,0,7.6-7.6,7.5,7.5,0,0,0-2.2-5.3,7.4,7.4,0,0,0-5.4-2.3,7.6,7.6,0,0,0-5.4,2.3,7.5,7.5,0,0,0-2.2,5.3,7.7,7.7,0,0,0,2.2,5.4A7.9,7.9,0,0,0,843.5,418.3Z" transform="translate(0 -1.4)"/><path id="m2ca8b612ac-9" data-name="m2ca8b612ac" class="cls-5" d="M967.7,374.1a7.4,7.4,0,0,0,5.4-2.3,7.5,7.5,0,0,0,2.2-5.3,7.5,7.5,0,0,0-7.6-7.6,7.9,7.9,0,0,0-5.4,2.2,7.7,7.7,0,0,0-2.2,5.4,7.5,7.5,0,0,0,2.2,5.3A7.6,7.6,0,0,0,967.7,374.1Z" transform="translate(0 -1.4)"/></g></g><g id="matplotlib.axis_13" data-name="matplotlib.axis 13"><g id="xtick_28" data-name="xtick 28"><g id="line2d_43" data-name="line2d 43"><path id="m5250c6ff19-10" data-name="m5250c6ff19" class="cls-6" d="M595.1,507.5v8.8" transform="translate(0 -1.4)"/></g><g id="text_49" data-name="text 49"><path id="DejaVuSans-48-16" data-name="DejaVuSans-48" d="M595.1,527.5a3.1,3.1,0,0,0-2.9,1.9,16.7,16.7,0,0,0,0,11.4,3,3,0,0,0,2.9,1.9,3.1,3.1,0,0,0,2.9-1.9,16.7,16.7,0,0,0,0-11.4A3.3,3.3,0,0,0,595.1,527.5Zm0-1.9a5.4,5.4,0,0,1,4.7,2.4,12.8,12.8,0,0,1,1.7,7.1c0,3.1-.6,5.5-1.7,7.1a5.3,5.3,0,0,1-4.7,2.5,5.3,5.3,0,0,1-4.8-2.5c-1.1-1.6-1.6-4-1.6-7.1s.5-5.4,1.6-7.1A5.5,5.5,0,0,1,595.1,525.6Z" transform="translate(0 -1.4)"/></g></g><g id="xtick_29" data-name="xtick 29"><g id="line2d_44" data-name="line2d 44"><path id="m5250c6ff19-11" data-name="m5250c6ff19" class="cls-6" d="M694.5,507.5v8.8" transform="translate(0 -1.4)"/></g><g id="text_50" data-name="text 50"><path id="DejaVuSans-50-2" data-name="DejaVuSans-50" d="M683.2,542.2h8.7v2.1H680.2v-2.1q1.3-1.5,3.9-3.9l3-3.2a12,12,0,0,0,1.7-2.3,4.1,4.1,0,0,0,.5-1.8,3,3,0,0,0-1-2.4,4,4,0,0,0-2.7-.9,7.7,7.7,0,0,0-2.5.4,13.1,13.1,0,0,0-2.8,1.2v-2.5l2.8-.9,2.4-.3a7.2,7.2,0,0,1,4.6,1.4,4.9,4.9,0,0,1,1.7,3.8,5.4,5.4,0,0,1-.4,2.2,9,9,0,0,1-1.6,2.4l-1.9,2Z" transform="translate(0 -1.4)"/><path id="DejaVuSans-48-17" data-name="DejaVuSans-48" d="M702.5,527.5a3.3,3.3,0,0,0-2.9,1.9,16.7,16.7,0,0,0,0,11.4,3.1,3.1,0,0,0,2.9,1.9,3,3,0,0,0,2.9-1.9,16.7,16.7,0,0,0,0-11.4A3.1,3.1,0,0,0,702.5,527.5Zm0-1.9a5.5,5.5,0,0,1,4.8,2.4,13.8,13.8,0,0,1,1.6,7.1,13.6,13.6,0,0,1-1.6,7.1,5.3,5.3,0,0,1-4.8,2.5,5.2,5.2,0,0,1-4.7-2.5c-1.1-1.6-1.7-4-1.7-7.1a12.8,12.8,0,0,1,1.7-7.1A5.3,5.3,0,0,1,702.5,525.6Z" transform="translate(0 -1.4)"/></g></g><g id="xtick_30" data-name="xtick 30"><g id="line2d_45" data-name="line2d 45"><path id="m5250c6ff19-12" data-name="m5250c6ff19" class="cls-6" d="M793.8,507.5v8.8" transform="translate(0 -1.4)"/></g><g id="text_51" data-name="text 51"><path id="DejaVuSans-52" d="M787.3,528.1l-6.3,9.8h6.3Zm-.7-2.2h3.2v12h2.6V540h-2.6v4.3h-2.5V540h-8.4v-2.4Z" transform="translate(0 -1.4)"/><path id="DejaVuSans-48-18" data-name="DejaVuSans-48" d="M801.9,527.5a3.1,3.1,0,0,0-2.9,1.9,16.7,16.7,0,0,0,0,11.4,3,3,0,0,0,2.9,1.9,3.1,3.1,0,0,0,2.9-1.9,16.7,16.7,0,0,0,0-11.4A3.3,3.3,0,0,0,801.9,527.5Zm0-1.9a5.4,5.4,0,0,1,4.7,2.4,12.8,12.8,0,0,1,1.7,7.1c0,3.1-.6,5.5-1.7,7.1a5.3,5.3,0,0,1-4.7,2.5,5.3,5.3,0,0,1-4.8-2.5c-1.1-1.6-1.6-4-1.6-7.1s.5-5.4,1.6-7.1A5.5,5.5,0,0,1,801.9,525.6Z" transform="translate(0 -1.4)"/></g></g><g id="xtick_31" data-name="xtick 31"><g id="line2d_46" data-name="line2d 46"><path id="m5250c6ff19-13" data-name="m5250c6ff19" class="cls-6" d="M893.2,507.5v8.8" transform="translate(0 -1.4)"/></g><g id="text_52" data-name="text 52"><path id="DejaVuSans-54" d="M885.4,534.1a3.1,3.1,0,0,0-2.6,1.2,5.3,5.3,0,0,0,0,6.2,3.1,3.1,0,0,0,2.6,1.2,3.3,3.3,0,0,0,2.7-1.2,5.3,5.3,0,0,0,0-6.2A3.3,3.3,0,0,0,885.4,534.1Zm5-7.8v2.3l-1.9-.7-1.9-.2a4.5,4.5,0,0,0-3.8,1.6,8.6,8.6,0,0,0-1.5,5.1,4.8,4.8,0,0,1,1.8-1.7,5.4,5.4,0,0,1,2.5-.6,6,6,0,0,1,4.4,1.7,7.2,7.2,0,0,1-.1,9.2,6.1,6.1,0,0,1-4.5,1.7,5.6,5.6,0,0,1-4.9-2.5c-1.1-1.6-1.7-4-1.7-7.1a10.5,10.5,0,0,1,2.1-6.9,6.7,6.7,0,0,1,5.6-2.6,6.2,6.2,0,0,1,1.9.2Z" transform="translate(0 -1.4)"/><path id="DejaVuSans-48-19" data-name="DejaVuSans-48" d="M901.2,527.5a3.4,3.4,0,0,0-2.9,1.9,18.5,18.5,0,0,0,0,11.4,3.2,3.2,0,0,0,2.9,1.9,3.2,3.2,0,0,0,3-1.9,18.5,18.5,0,0,0,0-11.4A3.4,3.4,0,0,0,901.2,527.5Zm0-1.9A5.5,5.5,0,0,1,906,528c1.1,1.7,1.6,4,1.6,7.1s-.5,5.5-1.6,7.1a5.3,5.3,0,0,1-4.8,2.5,5.3,5.3,0,0,1-4.7-2.5c-1.1-1.6-1.6-4-1.6-7.1s.5-5.4,1.6-7.1A5.4,5.4,0,0,1,901.2,525.6Z" transform="translate(0 -1.4)"/></g></g><g id="xtick_32" data-name="xtick 32"><g id="line2d_47" data-name="line2d 47"><path id="m5250c6ff19-14" data-name="m5250c6ff19" class="cls-6" d="M992.6,507.5v8.8" transform="translate(0 -1.4)"/></g><g id="text_53" data-name="text 53"><path id="DejaVuSans-56" d="M984.5,535.6a4.1,4.1,0,0,0-2.8.9,3.4,3.4,0,0,0-1,2.6,3.3,3.3,0,0,0,1,2.6,4.4,4.4,0,0,0,5.6,0,3.3,3.3,0,0,0,1-2.6,3.4,3.4,0,0,0-1-2.6A4.1,4.1,0,0,0,984.5,535.6Zm-2.5-1.1a3.8,3.8,0,0,1-2.5-1.5,4.4,4.4,0,0,1,.7-6.1,7.8,7.8,0,0,1,8.6,0,4.4,4.4,0,0,1,.7,6.1,3.8,3.8,0,0,1-2.5,1.5,4.8,4.8,0,0,1,2.8,1.7,4.3,4.3,0,0,1,1,2.9,5,5,0,0,1-1.6,4.1,6.8,6.8,0,0,1-4.7,1.5,6.6,6.6,0,0,1-4.7-1.5,5.1,5.1,0,0,1-1.7-4.1,4.4,4.4,0,0,1,1.1-2.9A4.5,4.5,0,0,1,982,534.5Zm-.9-3.9a2.8,2.8,0,0,0,.9,2.2,4.3,4.3,0,0,0,5,0,2.8,2.8,0,0,0,.9-2.2,3,3,0,0,0-.9-2.3,4.3,4.3,0,0,0-5,0A3,3,0,0,0,981.1,530.6Z" transform="translate(0 -1.4)"/><path id="DejaVuSans-48-20" data-name="DejaVuSans-48" d="M1000.6,527.5a3.3,3.3,0,0,0-2.9,1.9,16.7,16.7,0,0,0,0,11.4,3.1,3.1,0,0,0,2.9,1.9,3,3,0,0,0,2.9-1.9,16.7,16.7,0,0,0,0-11.4A3.1,3.1,0,0,0,1000.6,527.5Zm0-1.9a5.5,5.5,0,0,1,4.8,2.4c1.1,1.7,1.6,4,1.6,7.1s-.5,5.5-1.6,7.1a5.3,5.3,0,0,1-4.8,2.5,5.2,5.2,0,0,1-4.7-2.5c-1.1-1.6-1.7-4-1.7-7.1a12.8,12.8,0,0,1,1.7-7.1A5.3,5.3,0,0,1,1000.6,525.6Z" transform="translate(0 -1.4)"/></g></g></g><g id="matplotlib.axis_14" data-name="matplotlib.axis 14"><g id="ytick_16" data-name="ytick 16"><g id="line2d_48" data-name="line2d 48"><path id="m4dbcec3680-6" data-name="m4dbcec3680" class="cls-6" d="M575.9,499.2H567" transform="translate(0 -1.4)"/></g><g id="text_54" data-name="text 54"><path id="DejaVuSans-48-21" data-name="DejaVuSans-48" d="M550.1,492a3.1,3.1,0,0,0-2.9,1.9,16.7,16.7,0,0,0,0,11.4,3.1,3.1,0,0,0,2.9,1.9,3.3,3.3,0,0,0,2.9-1.9,18.5,18.5,0,0,0,0-11.4A3.3,3.3,0,0,0,550.1,492Zm0-1.9a5.4,5.4,0,0,1,4.7,2.4c1.1,1.6,1.6,4,1.6,7.1s-.5,5.5-1.6,7.1a5.4,5.4,0,0,1-4.7,2.4,5.5,5.5,0,0,1-4.8-2.4c-1.1-1.6-1.6-4-1.6-7.1s.5-5.5,1.6-7.1A5.5,5.5,0,0,1,550.1,490.1Z" transform="translate(0 -1.4)"/></g></g><g id="ytick_17" data-name="ytick 17"><g id="line2d_49" data-name="line2d 49"><path id="m4dbcec3680-7" data-name="m4dbcec3680" class="cls-6" d="M575.9,410.7H567" transform="translate(0 -1.4)"/></g><g id="text_55" data-name="text 55"><path id="DejaVuSans-53-8" data-name="DejaVuSans-53" d="M528.6,401.9h9.8V404h-7.5v4.5l1.1-.3h1.1a7.1,7.1,0,0,1,4.9,1.7,6.2,6.2,0,0,1,1.8,4.6,5.6,5.6,0,0,1-1.9,4.6,7.6,7.6,0,0,1-5.2,1.7l-2.4-.2-2.5-.6v-2.5a10.9,10.9,0,0,0,2.3.9,10.7,10.7,0,0,0,2.5.3,4.5,4.5,0,0,0,3.4-1.2,4.1,4.1,0,0,0,0-6,4.5,4.5,0,0,0-3.4-1.2l-2,.3a6,6,0,0,0-2,.7Z" transform="translate(0 -1.4)"/><path id="DejaVuSans-48-22" data-name="DejaVuSans-48" d="M550.1,403.5a3.4,3.4,0,0,0-3,1.9,18.5,18.5,0,0,0,0,11.4,3.2,3.2,0,0,0,3,1.9,3.2,3.2,0,0,0,2.9-1.9,18.5,18.5,0,0,0,0-11.4A3.4,3.4,0,0,0,550.1,403.5Zm0-1.9a5.4,5.4,0,0,1,4.7,2.4c1.1,1.7,1.6,4,1.6,7.1s-.5,5.5-1.6,7.1a5.3,5.3,0,0,1-4.7,2.5,5.3,5.3,0,0,1-4.8-2.5c-1.1-1.6-1.6-4-1.6-7.1s.5-5.4,1.6-7.1A5.5,5.5,0,0,1,550.1,401.6Z" transform="translate(0 -1.4)"/></g></g></g><g id="patch_33" data-name="patch 33"><path class="cls-7" d="M575.9,507.5V326.6" transform="translate(0 -1.4)"/></g><g id="patch_34" data-name="patch 34"><path class="cls-7" d="M995.5,507.5V326.6" transform="translate(0 -1.4)"/></g><g id="patch_35" data-name="patch 35"><path class="cls-7" d="M575.9,507.5H995.5" transform="translate(0 -1.4)"/></g><g id="patch_36" data-name="patch 36"><path class="cls-7" d="M575.9,326.6H995.5" transform="translate(0 -1.4)"/></g><path id="DejaVuSans-73" class="cls-5" d="M814.3,292.7h3v22.1h-3Z" transform="translate(0 -1.4)"/><path id="DejaVuSans-80" class="cls-5" d="M826.3,295.1v8.3h3.8a4.6,4.6,0,0,0,3.2-1,4.1,4.1,0,0,0,1.1-3.1,3.9,3.9,0,0,0-1.1-3.1,4.6,4.6,0,0,0-3.2-1.1Zm-3-2.4h6.8c2.4,0,4.3.5,5.6,1.7a7.3,7.3,0,0,1,0,9.8,8.5,8.5,0,0,1-5.6,1.7h-3.8v8.9h-3Z" transform="translate(0 -1.4)"/><path id="DejaVuSans-78-2" data-name="DejaVuSans-78" class="cls-5" d="M721.2,289.8h4.1l9.8,18.4V289.8H738v22h-4l-9.8-18.4v18.4h-3Z" transform="translate(0 -1.4)"/><path id="DejaVuSans-111-2" data-name="DejaVuSans-111" class="cls-5" d="M750.3,297.2a4.4,4.4,0,0,0-3.5,1.7,8,8,0,0,0-1.2,4.7,7.6,7.6,0,0,0,1.2,4.6,4.3,4.3,0,0,0,7,0,7.8,7.8,0,0,0,1.3-4.6,8.2,8.2,0,0,0-1.3-4.7A4.3,4.3,0,0,0,750.3,297.2Zm0-2.3a6.8,6.8,0,0,1,5.6,2.3,9,9,0,0,1,2.1,6.4,9.3,9.3,0,0,1-2.1,6.4,7.1,7.1,0,0,1-5.6,2.3,7.2,7.2,0,0,1-5.6-2.3,9.8,9.8,0,0,1-2-6.4,9.4,9.4,0,0,1,2-6.4A6.9,6.9,0,0,1,750.3,294.9Z" transform="translate(0 -1.4)"/><path id="DejaVuSans-115-2" data-name="DejaVuSans-115" class="cls-5" d="M782.2,295.8v2.6a11.7,11.7,0,0,0-2.4-.9,11.5,11.5,0,0,0-2.6-.3,6.3,6.3,0,0,0-3.1.6,2.1,2.1,0,0,0-1,1.9,1.8,1.8,0,0,0,.7,1.5,10.1,10.1,0,0,0,3,1l.9.2a8.3,8.3,0,0,1,4.1,1.8,4,4,0,0,1,1.2,3.1,4.3,4.3,0,0,1-1.8,3.7,8.2,8.2,0,0,1-5,1.3l-2.8-.2-3.1-.8v-2.8a18.8,18.8,0,0,0,3,1.2l2.9.3a6.1,6.1,0,0,0,3-.6,2.2,2.2,0,0,0,1-1.9,2.1,2.1,0,0,0-.7-1.7,10.1,10.1,0,0,0-3.3-1.1l-1-.2a7.1,7.1,0,0,1-3.6-1.7,3.7,3.7,0,0,1-1.1-3,4.1,4.1,0,0,1,1.6-3.6,8,8,0,0,1,4.7-1.3,13.6,13.6,0,0,1,2.9.3A10.2,10.2,0,0,1,782.2,295.8Z" transform="translate(0 -1.4)"/><path id="DejaVuSans-105-4" data-name="DejaVuSans-105" class="cls-5" d="M761.8,295.8h2.8v16.5h-2.8Zm0-6.5h2.8v3.5h-2.8Z" transform="translate(0 -1.4)"/><path id="DejaVuSans-121-2" data-name="DejaVuSans-121" class="cls-5" d="M793.7,313.4c-.8,1.9-1.5,3.2-2.3,3.8a4.4,4.4,0,0,1-2.9.9h-2.2v-2.2h1.6a2.4,2.4,0,0,0,1.8-.6,6.5,6.5,0,0,0,1.4-2.5l.5-1.2-6.8-16.3h2.9l5.2,12.9,5.2-12.9H801Z" transform="translate(0 -1.4)"/><g class="cls-9"><rect class="cls-10" x="575.6" y="325.5" width="317.5" height="180.78"/><rect class="cls-11" x="575.6" y="378.1" width="90.8" height="106.74"/><rect class="cls-11" x="575.6" y="325.5" width="90.8" height="52.51"/><rect class="cls-12" x="575.6" y="484.8" width="90.8" height="21.52"/><rect class="cls-11" x="666.4" y="325.5" width="90.8" height="52.51"/><rect class="cls-13" x="666.4" y="378.1" width="90.8" height="106.74"/><rect class="cls-14" x="757.2" y="325.5" width="135.9" height="159.26"/><rect class="cls-15" x="575.6" y="378.1" width="90.8" height="106.74"/><rect class="cls-16" x="845.4" y="434.9" width="47.7" height="49.93"/><rect class="cls-17" x="575.6" y="325.5" width="90.8" height="52.51"/><rect class="cls-18" x="666.4" y="325.5" width="90.8" height="52.51"/></g><g id="patch_42" data-name="patch 42"><path class="cls-2" d="M76.4,795.9H495.3V615.3H76.4Z" transform="translate(0 -1.4)"/></g><g id="PathCollection_17" data-name="PathCollection 17"><g class="cls-21"><path id="m66d42a26bc-16" data-name="m66d42a26bc" class="cls-4" d="M95.6,795.2a7.5,7.5,0,0,0,5.3-2.2,7.7,7.7,0,0,0,2.2-5.4,7.6,7.6,0,0,0-15.1,0,7.7,7.7,0,0,0,2.2,5.4A7.6,7.6,0,0,0,95.6,795.2Z" transform="translate(0 -1.4)"/><path id="m66d42a26bc-17" data-name="m66d42a26bc" class="cls-4" d="M107.2,795.2a7.9,7.9,0,0,0,5.4-2.2,7.7,7.7,0,0,0,2.2-5.4,7.5,7.5,0,0,0-2.2-5.3,7.9,7.9,0,0,0-5.4-2.2,7.7,7.7,0,0,0-5.4,2.2,7.5,7.5,0,0,0-2.2,5.3,7.5,7.5,0,0,0,7.6,7.6Z" transform="translate(0 -1.4)"/><path id="m66d42a26bc-18" data-name="m66d42a26bc" class="cls-4" d="M97.1,790.6a7.6,7.6,0,1,0-5.4-12.9,7.5,7.5,0,0,0,0,10.6A7.3,7.3,0,0,0,97.1,790.6Z" transform="translate(0 -1.4)"/><path id="m66d42a26bc-19" data-name="m66d42a26bc" class="cls-4" d="M104.1,791.6a7.7,7.7,0,0,0,5.4-2.2,7.6,7.6,0,0,0,0-10.7,7.7,7.7,0,0,0-5.4-2.2,7.5,7.5,0,0,0-5.3,2.2,7.4,7.4,0,0,0,0,10.7A7.5,7.5,0,0,0,104.1,791.6Z" transform="translate(0 -1.4)"/><path id="m66d42a26bc-20" data-name="m66d42a26bc" class="cls-4" d="M476.1,631.1a7.7,7.7,0,0,0,5.4-2.2,7.5,7.5,0,0,0,2.2-5.3,7.9,7.9,0,0,0-2.2-5.4,7.7,7.7,0,0,0-5.4-2.2,7.5,7.5,0,0,0-5.3,2.2,7.6,7.6,0,0,0-2.3,5.4,7.2,7.2,0,0,0,2.3,5.3A7.5,7.5,0,0,0,476.1,631.1Z" transform="translate(0 -1.4)"/></g></g><g id="PathCollection_18" data-name="PathCollection 18"><g class="cls-21"><path id="m2ca8b612ac-10" data-name="m2ca8b612ac" class="cls-5" d="M185.2,759.9a7.6,7.6,0,0,0,0-15.2,7.4,7.4,0,0,0-5.4,2.3,7.5,7.5,0,0,0,0,10.6A7.4,7.4,0,0,0,185.2,759.9Z" transform="translate(0 -1.4)"/><path id="m2ca8b612ac-11" data-name="m2ca8b612ac" class="cls-5" d="M274.8,724.5a7.9,7.9,0,0,0,5.4-2.2,7.6,7.6,0,0,0,0-10.7,7.9,7.9,0,0,0-5.4-2.2,7.7,7.7,0,0,0-5.4,2.2,7.6,7.6,0,0,0,0,10.7A7.7,7.7,0,0,0,274.8,724.5Z" transform="translate(0 -1.4)"/><path id="m2ca8b612ac-12" data-name="m2ca8b612ac" class="cls-5" d="M364.4,689.2a7.5,7.5,0,0,0,7.6-7.6,7.6,7.6,0,0,0-15.2,0,7.5,7.5,0,0,0,7.6,7.6Z" transform="translate(0 -1.4)"/></g></g><g id="matplotlib.axis_17" data-name="matplotlib.axis 17"><g id="xtick_37" data-name="xtick 37"><g id="line2d_56" data-name="line2d 56"><path id="m5250c6ff19-15" data-name="m5250c6ff19" class="cls-6" d="M95.6,795.9v8.8" transform="translate(0 -1.4)"/></g><g id="text_64" data-name="text 64"><path id="DejaVuSans-48-23" data-name="DejaVuSans-48" d="M95.5,815.9a3.1,3.1,0,0,0-2.8,1.9,16.7,16.7,0,0,0,0,11.4,3.1,3.1,0,0,0,2.8,1.9,3.4,3.4,0,0,0,3-1.9,18.5,18.5,0,0,0,0-11.4A3.4,3.4,0,0,0,95.5,815.9Zm0-1.9a5.5,5.5,0,0,1,4.8,2.4c1.1,1.6,1.6,4,1.6,7.1s-.5,5.4-1.6,7.1a5.5,5.5,0,0,1-4.8,2.4,5.4,5.4,0,0,1-4.7-2.4c-1.1-1.7-1.6-4-1.6-7.1s.5-5.5,1.6-7.1A5.4,5.4,0,0,1,95.5,814Z" transform="translate(0 -1.4)"/></g></g><g id="xtick_38" data-name="xtick 38"><g id="line2d_57" data-name="line2d 57"><path id="m5250c6ff19-16" data-name="m5250c6ff19" class="cls-6" d="M185.2,795.9v8.8" transform="translate(0 -1.4)"/></g><g id="text_65" data-name="text 65"><path id="DejaVuSans-50-3" data-name="DejaVuSans-50" d="M173.9,830.6h8.7v2.1H170.9v-2.1l3.9-4,3.1-3.1a18.7,18.7,0,0,0,1.7-2.3,3.9,3.9,0,0,0,.4-1.8,3,3,0,0,0-1-2.4,4,4,0,0,0-2.7-.9,7.7,7.7,0,0,0-2.5.4,10.7,10.7,0,0,0-2.8,1.2v-2.5l2.9-.9a9.9,9.9,0,0,1,2.4-.3,6.4,6.4,0,0,1,4.5,1.4,4.4,4.4,0,0,1,1.7,3.8,5.4,5.4,0,0,1-.4,2.2,14.5,14.5,0,0,1-1.5,2.3l-2,2.1Z" transform="translate(0 -1.4)"/><path id="DejaVuSans-53-9" data-name="DejaVuSans-53" d="M187.9,814.3h9.8v2.1h-7.5v4.5l1.1-.3h1.1a7.3,7.3,0,0,1,4.9,1.7,5.9,5.9,0,0,1,1.8,4.6,6.1,6.1,0,0,1-1.9,4.6A7.5,7.5,0,0,1,192,833a9.7,9.7,0,0,1-2.4-.2l-2.5-.6v-2.5a10.9,10.9,0,0,0,2.3.9,10.1,10.1,0,0,0,2.5.3,4.5,4.5,0,0,0,3.4-1.1,4,4,0,0,0,1.3-3,4.2,4.2,0,0,0-1.3-3.1,5,5,0,0,0-3.4-1.1l-2,.2-2,.7Z" transform="translate(0 -1.4)"/></g></g><g id="xtick_39" data-name="xtick 39"><g id="line2d_58" data-name="line2d 58"><path id="m5250c6ff19-17" data-name="m5250c6ff19" class="cls-6" d="M274.8,795.9v8.8" transform="translate(0 -1.4)"/></g><g id="text_66" data-name="text 66"><path id="DejaVuSans-53-10" data-name="DejaVuSans-53" d="M261.4,814.3h9.8v2.1h-7.5v4.5l1.1-.3h1.1a7.1,7.1,0,0,1,4.9,1.7,5.9,5.9,0,0,1,1.8,4.6,5.8,5.8,0,0,1-1.9,4.6,7.5,7.5,0,0,1-5.2,1.6,9.7,9.7,0,0,1-2.4-.2l-2.5-.6v-2.5a10.9,10.9,0,0,0,2.3.9,10.7,10.7,0,0,0,2.5.3,4.5,4.5,0,0,0,3.4-1.1,3.7,3.7,0,0,0,1.3-3,3.9,3.9,0,0,0-1.3-3.1,5,5,0,0,0-3.4-1.1l-2,.2-2,.7Z" transform="translate(0 -1.4)"/><path id="DejaVuSans-48-24" data-name="DejaVuSans-48" d="M282.8,815.9a3.3,3.3,0,0,0-2.9,1.9,18.5,18.5,0,0,0,0,11.4,3.3,3.3,0,0,0,2.9,1.9,3.1,3.1,0,0,0,2.9-1.9,16.7,16.7,0,0,0,0-11.4A3.1,3.1,0,0,0,282.8,815.9Zm0-1.9a5.5,5.5,0,0,1,4.8,2.4c1.1,1.6,1.6,4,1.6,7.1s-.5,5.4-1.6,7.1a5.5,5.5,0,0,1-4.8,2.4,5.4,5.4,0,0,1-4.7-2.4c-1.1-1.7-1.6-4-1.6-7.1s.5-5.5,1.6-7.1A5.4,5.4,0,0,1,282.8,814Z" transform="translate(0 -1.4)"/></g></g><g id="xtick_40" data-name="xtick 40"><g id="line2d_59" data-name="line2d 59"><path id="m5250c6ff19-18" data-name="m5250c6ff19" class="cls-6" d="M364.4,795.9v8.8" transform="translate(0 -1.4)"/></g><g id="text_67" data-name="text 67"><path id="DejaVuSans-55-2" data-name="DejaVuSans-55" d="M350.4,814.3h11.8v1.1l-6.7,17.3h-2.6l6.3-16.3h-8.8Z" transform="translate(0 -1.4)"/><path id="DejaVuSans-53-11" data-name="DejaVuSans-53" d="M367.1,814.3h9.8v2.1h-7.5v4.5l1.1-.3h1.1a7.1,7.1,0,0,1,4.9,1.7,5.9,5.9,0,0,1,1.8,4.6,5.8,5.8,0,0,1-1.9,4.6,7.4,7.4,0,0,1-5.2,1.6,9.7,9.7,0,0,1-2.4-.2l-2.5-.6v-2.5l2.3.9a10.9,10.9,0,0,0,2.6.3,4.4,4.4,0,0,0,3.3-1.1,3.7,3.7,0,0,0,1.3-3,3.9,3.9,0,0,0-1.3-3.1,4.9,4.9,0,0,0-3.3-1.1l-2,.2-2.1.7Z" transform="translate(0 -1.4)"/></g></g><g id="xtick_41" data-name="xtick 41"><g id="line2d_60" data-name="line2d 60"><path id="m5250c6ff19-19" data-name="m5250c6ff19" class="cls-6" d="M454,795.9v8.8" transform="translate(0 -1.4)"/></g><g id="text_68" data-name="text 68"><path id="DejaVuSans-49-4" data-name="DejaVuSans-49" d="M433,830.6h4.1v-14l-4.5.8v-2.2l4.5-.9h2.4v16.3h4.1v2.1H433Z" transform="translate(0 -1.4)"/><path id="DejaVuSans-48-25" data-name="DejaVuSans-48" d="M454,815.9a3.3,3.3,0,0,0-2.9,1.9,16.7,16.7,0,0,0,0,11.4,3.3,3.3,0,0,0,2.9,1.9,3.1,3.1,0,0,0,2.9-1.9,16.7,16.7,0,0,0,0-11.4A3.1,3.1,0,0,0,454,815.9Zm0-1.9a5.2,5.2,0,0,1,4.7,2.4c1.1,1.6,1.7,4,1.7,7.1a12.8,12.8,0,0,1-1.7,7.1A5.2,5.2,0,0,1,454,833a5.3,5.3,0,0,1-4.7-2.4,12.8,12.8,0,0,1-1.7-7.1c0-3.1.6-5.5,1.7-7.1A5.3,5.3,0,0,1,454,814Z" transform="translate(0 -1.4)"/><path id="DejaVuSans-48-26" data-name="DejaVuSans-48" d="M470.1,815.9a3.3,3.3,0,0,0-2.9,1.9,16.7,16.7,0,0,0,0,11.4,3.3,3.3,0,0,0,2.9,1.9,3.1,3.1,0,0,0,2.9-1.9,16.7,16.7,0,0,0,0-11.4A3.1,3.1,0,0,0,470.1,815.9Zm0-1.9a5.3,5.3,0,0,1,4.7,2.4c1.1,1.6,1.7,4,1.7,7.1a12.8,12.8,0,0,1-1.7,7.1,5.8,5.8,0,0,1-9.4,0,12.8,12.8,0,0,1-1.7-7.1c0-3.1.6-5.5,1.7-7.1A5.3,5.3,0,0,1,470.1,814Z" transform="translate(0 -1.4)"/></g></g></g><g id="matplotlib.axis_18" data-name="matplotlib.axis 18"><g id="ytick_20" data-name="ytick 20"><g id="line2d_61" data-name="line2d 61"><path id="m4dbcec3680-8" data-name="m4dbcec3680" class="cls-6" d="M76.4,787.6H67.6" transform="translate(0 -1.4)"/></g><g id="text_69" data-name="text 69"><path id="DejaVuSans-48-27" data-name="DejaVuSans-48" d="M50.7,780.5a3,3,0,0,0-2.9,1.9,11.7,11.7,0,0,0-1,5.6c0,2.6.3,4.5,1,5.7a3,3,0,0,0,2.9,1.9,3.2,3.2,0,0,0,2.9-1.9,13.5,13.5,0,0,0,.9-5.7,13.3,13.3,0,0,0-.9-5.6A3.2,3.2,0,0,0,50.7,780.5Zm0-2a5.3,5.3,0,0,1,4.7,2.5c1.1,1.6,1.6,3.9,1.6,7s-.5,5.5-1.6,7.1a5.3,5.3,0,0,1-4.7,2.5,5.3,5.3,0,0,1-4.8-2.5c-1.1-1.6-1.6-4-1.6-7.1s.5-5.4,1.6-7A5.3,5.3,0,0,1,50.7,778.5Z" transform="translate(0 -1.4)"/></g></g><g id="ytick_21" data-name="ytick 21"><g id="line2d_62" data-name="line2d 62"><path id="m4dbcec3680-9" data-name="m4dbcec3680" class="cls-6" d="M76.4,717H67.6" transform="translate(0 -1.4)"/></g><g id="text_70" data-name="text 70"><path id="DejaVuSans-53-12" data-name="DejaVuSans-53" d="M29.2,708.2H39v2.1H31.5v4.4l1.1-.2h1.1a6.5,6.5,0,0,1,4.9,1.7,5.8,5.8,0,0,1,1.8,4.5,5.6,5.6,0,0,1-1.9,4.6,7.4,7.4,0,0,1-5.2,1.7l-2.3-.2a10.2,10.2,0,0,1-2.5-.6v-2.5a9.2,9.2,0,0,0,2.3.9,10.1,10.1,0,0,0,2.5.3,5.3,5.3,0,0,0,3.4-1.1,4.1,4.1,0,0,0,1.2-3.1,3.9,3.9,0,0,0-1.2-3,4.8,4.8,0,0,0-3.4-1.1,6.5,6.5,0,0,0-2,.2,8.6,8.6,0,0,0-2.1.7Z" transform="translate(0 -1.4)"/><path id="DejaVuSans-48-28" data-name="DejaVuSans-48" d="M50.6,709.8a3,3,0,0,0-2.8,1.9c-.7,1.2-1,3.1-1,5.7a11.7,11.7,0,0,0,1,5.6,3,3,0,0,0,2.8,1.9,3.2,3.2,0,0,0,3-1.9,13.3,13.3,0,0,0,.9-5.6,13.5,13.5,0,0,0-.9-5.7A3.2,3.2,0,0,0,50.6,709.8Zm0-2a5.3,5.3,0,0,1,4.8,2.5c1.1,1.6,1.6,4,1.6,7.1s-.5,5.4-1.6,7a5.3,5.3,0,0,1-4.8,2.5,5.3,5.3,0,0,1-4.7-2.5c-1.1-1.6-1.6-3.9-1.6-7s.5-5.5,1.6-7.1A5.3,5.3,0,0,1,50.6,707.8Z" transform="translate(0 -1.4)"/></g></g><g id="ytick_22" data-name="ytick 22"><g id="line2d_63" data-name="line2d 63"><path id="m4dbcec3680-10" data-name="m4dbcec3680" class="cls-6" d="M76.4,646.3H67.6" transform="translate(0 -1.4)"/></g><g id="text_71" data-name="text 71"><path id="DejaVuSans-49-5" data-name="DejaVuSans-49" d="M13.6,653.7h4v-14l-4.4.9v-2.2l4.4-.9h2.5v16.2h4.1v2.1H13.6Z" transform="translate(0 -1.4)"/><path id="DejaVuSans-48-29" data-name="DejaVuSans-48" d="M34.6,639.1a3,3,0,0,0-2.9,1.9,12.1,12.1,0,0,0-1,5.7,11.7,11.7,0,0,0,1,5.6,3,3,0,0,0,2.9,1.9,3.2,3.2,0,0,0,2.9-1.9,13.3,13.3,0,0,0,.9-5.6,13.8,13.8,0,0,0-.9-5.7A3.2,3.2,0,0,0,34.6,639.1Zm0-2a5.5,5.5,0,0,1,4.7,2.5c1.1,1.6,1.6,4,1.6,7.1s-.5,5.4-1.6,7.1a5.4,5.4,0,0,1-4.7,2.4,5.5,5.5,0,0,1-4.8-2.4c-1.1-1.7-1.6-4-1.6-7.1s.5-5.5,1.6-7.1A5.5,5.5,0,0,1,34.6,637.1Z" transform="translate(0 -1.4)"/><path id="DejaVuSans-48-30" data-name="DejaVuSans-48" d="M50.6,639.1a3,3,0,0,0-2.8,1.9,12.1,12.1,0,0,0-1,5.7,11.7,11.7,0,0,0,1,5.6,3,3,0,0,0,2.8,1.9,3.2,3.2,0,0,0,3-1.9,13.3,13.3,0,0,0,.9-5.6,13.8,13.8,0,0,0-.9-5.7A3.2,3.2,0,0,0,50.6,639.1Zm0-2a5.5,5.5,0,0,1,4.8,2.5c1.1,1.6,1.6,4,1.6,7.1s-.5,5.4-1.6,7.1a5.5,5.5,0,0,1-4.8,2.4,5.4,5.4,0,0,1-4.7-2.4c-1.1-1.7-1.6-4-1.6-7.1s.5-5.5,1.6-7.1A5.5,5.5,0,0,1,50.6,637.1Z" transform="translate(0 -1.4)"/></g></g></g><g id="patch_43" data-name="patch 43"><path class="cls-7" d="M76.4,795.9V615.3" transform="translate(0 -1.4)"/></g><g id="patch_44" data-name="patch 44"><path class="cls-7" d="M495.3,795.9V615.3" transform="translate(0 -1.4)"/></g><g id="patch_45" data-name="patch 45"><path class="cls-7" d="M76.4,795.9H495.3" transform="translate(0 -1.4)"/></g><g id="patch_46" data-name="patch 46"><path class="cls-7" d="M76.4,615.3H495.3" transform="translate(0 -1.4)"/></g><path id="DejaVuSans-82" class="cls-5" d="M307.4,593.2a4.6,4.6,0,0,1,1.9,1.4,14.6,14.6,0,0,1,1.8,2.9l3,6h-3.2l-2.8-5.6a8.9,8.9,0,0,0-2.1-3,5.8,5.8,0,0,0-2.8-.7h-3.3v9.3h-3v-22h6.8c2.5,0,4.4.5,5.6,1.6a6.7,6.7,0,0,1,.9,8.2A4.7,4.7,0,0,1,307.4,593.2Zm-7.5-9.2v7.8h3.8a4.9,4.9,0,0,0,3.2-1,3.7,3.7,0,0,0,1.1-3,3.6,3.6,0,0,0-1.1-2.9,4.9,4.9,0,0,0-3.2-.9Z" transform="translate(0 -1.4)"/><path id="DejaVuSans-84" class="cls-5" d="M314.9,581.5h18.7V584h-7.8v19.5h-3V584h-7.9Z" transform="translate(0 -1.4)"/><path id="DejaVuSans-82-2" data-name="DejaVuSans-82" class="cls-5" d="M347,593.2a4.6,4.6,0,0,1,1.9,1.4,14.6,14.6,0,0,1,1.8,2.9l3.1,6h-3.3l-2.8-5.6a7.7,7.7,0,0,0-2.1-3,5.8,5.8,0,0,0-2.8-.7h-3.3v9.3h-3v-22h6.8c2.5,0,4.4.5,5.6,1.6a6.7,6.7,0,0,1,.9,8.2A4.7,4.7,0,0,1,347,593.2Zm-7.5-9.2v7.8h3.8a4.9,4.9,0,0,0,3.2-1,3.7,3.7,0,0,0,1.1-3,3.6,3.6,0,0,0-1.1-2.9,4.9,4.9,0,0,0-3.2-.9Z" transform="translate(0 -1.4)"/><path id="DejaVuSans-82-3" data-name="DejaVuSans-82" class="cls-5" d="M368.1,593.2a4.6,4.6,0,0,1,1.9,1.4,14.6,14.6,0,0,1,1.8,2.9l3,6h-3.2l-2.8-5.6a7.7,7.7,0,0,0-2.1-3,5.8,5.8,0,0,0-2.8-.7h-3.3v9.3h-3v-22h6.8c2.5,0,4.4.5,5.6,1.6a6.7,6.7,0,0,1,.9,8.2A4.7,4.7,0,0,1,368.1,593.2Zm-7.5-9.2v7.8h3.8a4.9,4.9,0,0,0,3.2-1,3.7,3.7,0,0,0,1.1-3,3.6,3.6,0,0,0-1.1-2.9,4.9,4.9,0,0,0-3.2-.9Z" transform="translate(0 -1.4)"/><path id="DejaVuSans-78-3" data-name="DejaVuSans-78" class="cls-5" d="M203.2,581.5h4l9.8,18.4V581.5h2.9v22h-4l-9.8-18.4v18.4h-2.9Z" transform="translate(0 -1.4)"/><path id="DejaVuSans-111-3" data-name="DejaVuSans-111" class="cls-5" d="M232.2,588.9a4.3,4.3,0,0,0-3.5,1.7,9.8,9.8,0,0,0,0,9.4,4.5,4.5,0,0,0,7,0,9.8,9.8,0,0,0,0-9.4A4.3,4.3,0,0,0,232.2,588.9Zm0-2.3a7.2,7.2,0,0,1,5.6,2.3,11.2,11.2,0,0,1,0,12.8,8,8,0,0,1-11.2,0,11.2,11.2,0,0,1,0-12.8A7.2,7.2,0,0,1,232.2,586.6Z" transform="translate(0 -1.4)"/><path id="DejaVuSans-115-3" data-name="DejaVuSans-115" class="cls-5" d="M264,587.5v2.6a11.7,11.7,0,0,0-2.4-.9,10.9,10.9,0,0,0-2.6-.3,4.9,4.9,0,0,0-3,.7,2,2,0,0,0-1.1,1.8,1.9,1.9,0,0,0,.8,1.5,7.2,7.2,0,0,0,2.9,1l.9.2a8.7,8.7,0,0,1,4.2,1.8,4,4,0,0,1,1.2,3.1,4.2,4.2,0,0,1-1.9,3.7,8.2,8.2,0,0,1-5,1.3l-2.8-.2-3-.8v-2.8a18.8,18.8,0,0,0,3,1.2,13.6,13.6,0,0,0,2.9.3,5.7,5.7,0,0,0,2.9-.6,2.2,2.2,0,0,0,.3-3.6,10.1,10.1,0,0,0-3.3-1.1l-.9-.2a8.5,8.5,0,0,1-3.7-1.6,4.5,4.5,0,0,1-1.1-3.1,4.5,4.5,0,0,1,1.7-3.6,7.8,7.8,0,0,1,4.7-1.2,12.7,12.7,0,0,1,2.8.2A18.3,18.3,0,0,1,264,587.5Z" transform="translate(0 -1.4)"/><path id="DejaVuSans-105-5" data-name="DejaVuSans-105" class="cls-5" d="M243.7,587.5h2.7V604h-2.7Zm0-6.4h2.7v3.4h-2.7Z" transform="translate(0 -1.4)"/><path id="DejaVuSans-121-3" data-name="DejaVuSans-121" class="cls-5" d="M275.5,605.1a11,11,0,0,1-2.2,3.8,4.7,4.7,0,0,1-3,.9h-2.2v-2.2h1.6a2.4,2.4,0,0,0,1.8-.6,6.5,6.5,0,0,0,1.4-2.5l.5-1.2L266.7,587h2.8l5.2,12.9,5.2-12.9h2.9Z" transform="translate(0 -1.4)"/><g class="cls-9"><rect class="cls-10" x="79.4" y="613.7" width="410.7" height="180.78"/><rect class="cls-11" x="79.4" y="666.3" width="117.5" height="106.74"/><rect class="cls-11" x="79.4" y="613.7" width="117.5" height="52.51"/><rect class="cls-12" x="79.4" y="773" width="117.5" height="21.52"/><rect class="cls-11" x="196.9" y="613.7" width="117.5" height="52.51"/><rect class="cls-13" x="196.9" y="666.3" width="117.5" height="106.74"/><rect class="cls-14" x="314.3" y="613.7" width="175.8" height="159.26"/><rect class="cls-15" x="79.4" y="666.3" width="117.5" height="106.74"/><rect class="cls-16" x="428.4" y="723.1" width="61.7" height="49.93"/><rect class="cls-17" x="79.4" y="613.7" width="117.5" height="52.51"/><rect class="cls-18" x="196.9" y="613.7" width="117.5" height="52.51"/></g><rect class="cls-22" x="587.2" y="37.8" width="419.4" height="181.21"/><rect class="cls-11" x="587.2" y="90.4" width="119.9" height="107"/><rect class="cls-11" x="587.2" y="37.8" width="119.9" height="52.64"/><rect class="cls-23" x="587.2" y="197.4" width="119.9" height="21.57"/><rect class="cls-11" x="707.1" y="37.8" width="119.9" height="52.64"/><rect class="cls-13" x="707.1" y="90.4" width="119.9" height="107"/><rect class="cls-14" x="827.1" y="37.8" width="179.5" height="159.64"/><rect class="cls-15" x="587.2" y="90.4" width="119.9" height="107"/><rect class="cls-16" x="943.6" y="147.4" width="63" height="50.05"/><rect class="cls-17" x="587.2" y="37.8" width="119.9" height="52.64"/><rect class="cls-24" x="707.1" y="37.8" width="119.9" height="52.64"/><path d="M722.7,19.5h.1l2.9-15h4.6l-5.2,22.1H721L717,12h-.1l-4.1,14.6h-4.1L703.6,4.5h4.5l3,15h.1l3.9-15h3.6Z" transform="translate(0 -1.4)"/><path d="M741.5,26.6a5.6,5.6,0,0,1-.4-1.2l-.3-1.3a4.9,4.9,0,0,1-1.8,2,4.5,4.5,0,0,1-2.6.8,5.4,5.4,0,0,1-4-1.3,5,5,0,0,1-1.4-3.7,4.3,4.3,0,0,1,1.8-3.7,9.5,9.5,0,0,1,5.5-1.3h2.5V15.6a2.9,2.9,0,0,0-.7-1.9,2.4,2.4,0,0,0-1.8-.6,2.9,2.9,0,0,0-1.7.5A1.8,1.8,0,0,0,736,15h-4.3a4.4,4.4,0,0,1,1.9-3.6,7.6,7.6,0,0,1,5-1.5,8.3,8.3,0,0,1,4.8,1.4,5.4,5.4,0,0,1,1.8,4.3v6.8a7.8,7.8,0,0,0,.2,2.2,19.4,19.4,0,0,0,.5,2Zm-4.1-3a3.7,3.7,0,0,0,2.1-.6,3.3,3.3,0,0,0,1.3-1.3V19.4h-2.5a2.9,2.9,0,0,0-2.2.7,2.4,2.4,0,0,0-.7,1.7,1.5,1.5,0,0,0,.6,1.3A1.6,1.6,0,0,0,737.4,23.6Z" transform="translate(0 -1.4)"/><path d="M753.2,26.6h-4.5V2.9h4.5Z" transform="translate(0 -1.4)"/><path d="M760.9,10.2l.2,2.1a4.9,4.9,0,0,1,2-1.8,6,6,0,0,1,2.7-.6,4.5,4.5,0,0,1,2.7.7,3.7,3.7,0,0,1,1.7,2.1,5.8,5.8,0,0,1,2-2.1,5.4,5.4,0,0,1,2.9-.7,4.6,4.6,0,0,1,3.8,1.7,8.3,8.3,0,0,1,1.4,5.2v9.8h-4.4V16.8a3.8,3.8,0,0,0-.7-2.7,2.2,2.2,0,0,0-1.8-.8,2.9,2.9,0,0,0-1.6.4,4.3,4.3,0,0,0-1.1,1.2V26.6h-4.4V16.8a4.5,4.5,0,0,0-.6-2.7,2.2,2.2,0,0,0-1.8-.8,4.1,4.1,0,0,0-1.6.3,5.2,5.2,0,0,0-1.1,1v12h-4.4V10.2Z" transform="translate(0 -1.4)"/><path d="M793.4,26.6l-.5-1.2a5.1,5.1,0,0,1-.2-1.3,7,7,0,0,1-1.8,2,5,5,0,0,1-2.7.8,5.7,5.7,0,0,1-4-1.3,5,5,0,0,1-1.4-3.7,4.4,4.4,0,0,1,1.9-3.7,9.2,9.2,0,0,1,5.4-1.3h2.5V15.6a2.9,2.9,0,0,0-.6-1.9,3.1,3.1,0,0,0-3.5-.1,1.8,1.8,0,0,0-.6,1.4h-4.3a4,4,0,0,1,1.8-3.6,8,8,0,0,1,5-1.5,7.8,7.8,0,0,1,4.8,1.4,5.4,5.4,0,0,1,1.8,4.3v6.8a15,15,0,0,0,.2,2.2,8.9,8.9,0,0,0,.6,2Zm-4.1-3a3.7,3.7,0,0,0,2.1-.6,2.5,2.5,0,0,0,1.2-1.3V19.4h-2.5a2.8,2.8,0,0,0-2.1.7,2.1,2.1,0,0,0-.7,1.7,1.7,1.7,0,0,0,.5,1.3A2,2,0,0,0,789.3,23.6Z" transform="translate(0 -1.4)"/><path d="M809,14h-1.6a3.4,3.4,0,0,0-1.6.4,2.3,2.3,0,0,0-1,1.2V26.6h-4.4V10.2h4.1l.2,2.4a5.3,5.3,0,0,1,1.5-2,3.1,3.1,0,0,1,2.1-.7h1.2Z" transform="translate(0 -1.4)"/><path d="M816.9,6.1v4.1h2.7v3.1h-2.7v8.3a1.8,1.8,0,0,0,.4,1.4,1.2,1.2,0,0,0,1,.4h.6l.6-.2.4,3.2-1.3.4h-1.4a4.5,4.5,0,0,1-3.5-1.3c-.8-.8-1.2-2.1-1.2-4V13.3h-2.4V10.2h2.4V6.1Z" transform="translate(0 -1.4)"/><path d="M834.9,23.2h9.9v3.4H830.4V4.5h4.5Z" transform="translate(0 -1.4)"/><path d="M857,26.6l-.4-1.2a5.1,5.1,0,0,1-.2-1.3,7,7,0,0,1-1.8,2,5,5,0,0,1-2.7.8,5.7,5.7,0,0,1-4-1.3,5,5,0,0,1-1.4-3.7,4.4,4.4,0,0,1,1.9-3.7c1.2-.9,3-1.3,5.4-1.3h2.5V15.6a2.9,2.9,0,0,0-.6-1.9,3.1,3.1,0,0,0-3.5-.1,1.8,1.8,0,0,0-.6,1.4h-4.3a4,4,0,0,1,1.8-3.6,8,8,0,0,1,5-1.5,7.8,7.8,0,0,1,4.8,1.4,5.4,5.4,0,0,1,1.8,4.3v6.8a15,15,0,0,0,.2,2.2,8.9,8.9,0,0,0,.6,2Zm-4-3a3.7,3.7,0,0,0,2.1-.6,2.5,2.5,0,0,0,1.2-1.3V19.4h-2.5a2.8,2.8,0,0,0-2.1.7,2.1,2.1,0,0,0-.7,1.7,1.4,1.4,0,0,0,.5,1.3A2,2,0,0,0,853,23.6Z" transform="translate(0 -1.4)"/><path d="M869.7,19.7l.2.9h.1l3.2-10.4h4.7L871.3,29a9.1,9.1,0,0,1-1.9,3,4.9,4.9,0,0,1-3.6,1.2h-1.1l-1.1-.2.5-3.3h.8a2.9,2.9,0,0,0,1.7-.5,3.4,3.4,0,0,0,.9-1.4l.5-1.2-5.8-16.4H867Z" transform="translate(0 -1.4)"/><path d="M878.8,18.2a9.2,9.2,0,0,1,2-6,8.2,8.2,0,0,1,11.4,0,8.8,8.8,0,0,1,2.1,6v.3a8.9,8.9,0,0,1-2.1,6.1,7.3,7.3,0,0,1-5.7,2.3,7.5,7.5,0,0,1-5.7-2.3,9.3,9.3,0,0,1-2-6.1Zm4.4.3a7.4,7.4,0,0,0,.8,3.6,2.7,2.7,0,0,0,2.5,1.4,2.6,2.6,0,0,0,2.5-1.4,6.4,6.4,0,0,0,.8-3.6v-.3a6.3,6.3,0,0,0-.8-3.5,2.5,2.5,0,0,0-2.5-1.4,2.6,2.6,0,0,0-2.5,1.4,7.2,7.2,0,0,0-.8,3.5Z" transform="translate(0 -1.4)"/><path d="M907.1,24.1a5.8,5.8,0,0,1-2,2.1,5.4,5.4,0,0,1-6.7-1.1c-1-1.1-1.5-3-1.5-5.4V10.2h4.4v9.5a5.6,5.6,0,0,0,.6,3,2.2,2.2,0,0,0,1.8.8,4.8,4.8,0,0,0,1.8-.4,4.1,4.1,0,0,0,1.3-1V10.2h4.4V26.6h-3.7Z" transform="translate(0 -1.4)"/><path d="M919.8,6.1v4.1h2.8v3.1h-2.8v8.3a2.3,2.3,0,0,0,.4,1.4,1.5,1.5,0,0,0,1.1.4h.6l.6-.2.4,3.2-1.3.4h-1.4a4.5,4.5,0,0,1-3.5-1.3c-.9-.8-1.3-2.1-1.3-4V13.3H913V10.2h2.4V6.1Z" transform="translate(0 -1.4)"/><path class="cls-2" d="M955.1,174.9a1.8,1.8,0,0,0-.4-1,6.2,6.2,0,0,0-1.6-.7,7.8,7.8,0,0,1-2.9-1.4,2.4,2.4,0,0,1-1-2.1,2.8,2.8,0,0,1,1.1-2.2,4.6,4.6,0,0,1,2.9-.9,3.9,3.9,0,0,1,2.9,1,2.8,2.8,0,0,1,1.1,2.4H955a1.3,1.3,0,0,0-.5-1.2,2,2,0,0,0-1.4-.5,1.6,1.6,0,0,0-1.2.4,1.4,1.4,0,0,0-.5,1,1.1,1.1,0,0,0,.5.9,5.4,5.4,0,0,0,1.7.8,8.1,8.1,0,0,1,2.8,1.3,2.9,2.9,0,0,1,.9,2.2,2.8,2.8,0,0,1-1.1,2.3,5,5,0,0,1-2.9.8,5.4,5.4,0,0,1-3.1-.9,3.1,3.1,0,0,1-1.2-2.6h2.1a1.9,1.9,0,0,0,.6,1.5,2.5,2.5,0,0,0,1.6.4,1.7,1.7,0,0,0,1.3-.4A1.1,1.1,0,0,0,955.1,174.9Z" transform="translate(0 -1.4)"/><path class="cls-2" d="M963.8,176.6a2.4,2.4,0,0,1-1,1,1.8,1.8,0,0,1-1.3.4,2.3,2.3,0,0,1-2-.9,4.1,4.1,0,0,1-.8-2.7v-4.8h2.2v4.8a2.8,2.8,0,0,0,.3,1.5,1.3,1.3,0,0,0,.9.4l.9-.2a1.8,1.8,0,0,0,.7-.5v-6h2.2v8.2H964Z" transform="translate(0 -1.4)"/><path class="cls-2" d="M974.9,174a4.3,4.3,0,0,1-.8,2.9,2.7,2.7,0,0,1-2.3,1.1,2.8,2.8,0,0,1-1.3-.3,2,2,0,0,1-.9-.9l-.2,1h-1.9V166h2.2v4.5l.9-.8,1.1-.2a2.6,2.6,0,0,1,2.4,1.2,4.8,4.8,0,0,1,.8,3.1Zm-2.2-.2a5,5,0,0,0-.3-1.9,1.3,1.3,0,0,0-1.2-.7l-.9.2-.6.6v3.5a3.4,3.4,0,0,0,.6.6l.9.2a1.2,1.2,0,0,0,1.2-.6,4,4,0,0,0,.3-1.7Z" transform="translate(0 -1.4)"/><path class="cls-2" d="M983.4,174.8h.1l1-5.2h2.1l-2,8.2h-1.9l-1.5-4.7h-.1l-1.5,4.7h-1.8l-2.1-8.2h2.1l1,5.2h.1l1.5-5.2h1.5Z" transform="translate(0 -1.4)"/><path class="cls-2" d="M992.6,177.8a1.4,1.4,0,0,1-.2-.6c-.1-.2-.1-.4-.2-.6a2.8,2.8,0,0,1-.9,1,1.8,1.8,0,0,1-1.3.4,2.6,2.6,0,0,1-2-.7,2.5,2.5,0,0,1-.7-1.8,2.2,2.2,0,0,1,1-1.9,4.9,4.9,0,0,1,2.7-.6h1.2v-.7a1.3,1.3,0,0,0-2.1-.9.8.8,0,0,0-.3.7h-2.1a2.3,2.3,0,0,1,.9-1.8,3.9,3.9,0,0,1,2.5-.7,3.6,3.6,0,0,1,2.4.7,2.6,2.6,0,0,1,.9,2.1v3.4a3.7,3.7,0,0,0,.1,1.1l.3,1Zm-2-1.4a1.9,1.9,0,0,0,1-.3,1.9,1.9,0,0,0,.6-.7v-1.2H991a1.6,1.6,0,0,0-1.1.4,1.2,1.2,0,0,0-.4.8.9.9,0,0,0,.3.7A1,1,0,0,0,990.6,176.4Z" transform="translate(0 -1.4)"/><path class="cls-2" d="M998.9,174.4v.4h.1l1.5-5.2h2.4l-3.3,9.5a4.5,4.5,0,0,1-1,1.4,2.4,2.4,0,0,1-1.8.6h-1.1l.3-1.6h.4a1.2,1.2,0,0,0,.9-.3c.2-.1.3-.4.4-.6l.3-.7-2.9-8.2h2.3Z" transform="translate(0 -1.4)"/><path class="cls-2" d="M888.8,94.3a4,4,0,0,1-1.6,1.2,6.3,6.3,0,0,1-2.6.5,4.8,4.8,0,0,1-3.3-1.2,4.9,4.9,0,0,1-1.3-3.3V89.2a4.7,4.7,0,0,1,1.3-3.3,4.4,4.4,0,0,1,3.2-1.2,5,5,0,0,1,3.1.9,3.4,3.4,0,0,1,1,2.6h-2.1a1.7,1.7,0,0,0-.5-1.3,1.8,1.8,0,0,0-1.5-.5,1.9,1.9,0,0,0-1.6.7,3.5,3.5,0,0,0-.7,2.1v2.3a3.2,3.2,0,0,0,.7,2,1.9,1.9,0,0,0,1.7.8h1.2l.7-.4V91.6h-2.1V90.1h4.4Z" transform="translate(0 -1.4)"/><path class="cls-2" d="M894.8,89.6H894l-.8.2-.5.6v5.6h-2.2V87.6h2v1.3a2.1,2.1,0,0,1,.8-1,1.3,1.3,0,0,1,1-.4h.6Z" transform="translate(0 -1.4)"/><path class="cls-2" d="M895.5,91.7a4.4,4.4,0,0,1,1-3,3.5,3.5,0,0,1,2.8-1.2,3.7,3.7,0,0,1,2.9,1.2,4,4,0,0,1,1,3h0a4.5,4.5,0,0,1-1,3.1,4,4,0,0,1-2.9,1.1,3.8,3.8,0,0,1-2.8-1.1,4.5,4.5,0,0,1-1-3.1Zm2.2.1a3,3,0,0,0,.4,1.8,1.1,1.1,0,0,0,1.2.7,1.4,1.4,0,0,0,1.3-.7,3,3,0,0,0,.4-1.8h0a3.2,3.2,0,0,0-.4-1.8,1.4,1.4,0,0,0-1.3-.7,1.1,1.1,0,0,0-1.2.7,3.4,3.4,0,0,0-.4,1.8Z" transform="translate(0 -1.4)"/><path class="cls-2" d="M908,94.3a1.2,1.2,0,0,0,.9-.3,1.8,1.8,0,0,0,.4-1h2a2.9,2.9,0,0,1-.9,2.1,4.1,4.1,0,0,1-2.4.8,3.6,3.6,0,0,1-2.8-1.1,4.4,4.4,0,0,1-1-3v-.3a4.1,4.1,0,0,1,1-2.9,3.4,3.4,0,0,1,2.8-1.2,3.2,3.2,0,0,1,2.4.9,2.8,2.8,0,0,1,.9,2.2h-2a2.1,2.1,0,0,0-.4-1.1,1,1,0,0,0-.9-.4,1.1,1.1,0,0,0-1.2.7,2.9,2.9,0,0,0-.4,1.7v.3a2.9,2.9,0,0,0,.4,1.7A1.1,1.1,0,0,0,908,94.3Z" transform="translate(0 -1.4)"/><path class="cls-2" d="M916.1,96a3.8,3.8,0,0,1-2.8-1.1,4.2,4.2,0,0,1-1.1-2.9v-.3a4.9,4.9,0,0,1,1-3,3.5,3.5,0,0,1,2.8-1.2,3,3,0,0,1,2.5,1,4,4,0,0,1,.9,2.7v1.2h-4.9a2.2,2.2,0,0,0,.5,1.4,2,2,0,0,0,1.4.5h1.2l1.1-.5.6,1.4a3.9,3.9,0,0,1-1.3.6A5.8,5.8,0,0,1,916.1,96Zm-.1-6.8a1.1,1.1,0,0,0-1,.5,2.2,2.2,0,0,0-.5,1.2h2.7a2.1,2.1,0,0,0-.3-1.2A1,1,0,0,0,916,89.2Z" transform="translate(0 -1.4)"/><path class="cls-2" d="M925,89.6h-.8l-.8.2-.5.6v5.6h-2.2V87.6h2.1v1.3a1.5,1.5,0,0,1,.7-1,1.5,1.5,0,0,1,1.1-.4h.6Z" transform="translate(0 -1.4)"/><path class="cls-2" d="M928.5,85.7h-2.2V84h2.2Zm0,10.2h-2.2V87.6h2.2Z" transform="translate(0 -1.4)"/><path class="cls-2" d="M933.9,96a3.8,3.8,0,0,1-2.9-1.1,4.1,4.1,0,0,1-1-2.9v-.3a4.4,4.4,0,0,1,1-3,3.3,3.3,0,0,1,2.7-1.2,3.3,3.3,0,0,1,2.6,1,4,4,0,0,1,.8,2.7v1.2h-4.9a2.9,2.9,0,0,0,.5,1.4,2.2,2.2,0,0,0,1.4.5h1.3l1-.5.6,1.4a3.2,3.2,0,0,1-1.3.6A5.7,5.7,0,0,1,933.9,96Zm-.2-6.8a1.2,1.2,0,0,0-1,.5,2.1,2.1,0,0,0-.4,1.2H935a2.1,2.1,0,0,0-.3-1.2A1.1,1.1,0,0,0,933.7,89.2Z" transform="translate(0 -1.4)"/><path class="cls-2" d="M942.9,93.6a.5.5,0,0,0-.4-.6,2.3,2.3,0,0,0-1.3-.5,5.6,5.6,0,0,1-2.2-.9,1.9,1.9,0,0,1-.7-1.6,2.3,2.3,0,0,1,.9-1.8,4.5,4.5,0,0,1,4.8,0,2,2,0,0,1,.9,1.9h-2.1a1.1,1.1,0,0,0-.3-.8,1.5,1.5,0,0,0-1.8,0,.9.9,0,0,0-.3.6.9.9,0,0,0,.3.7l1.3.4a5.5,5.5,0,0,1,2.3.9,1.9,1.9,0,0,1,.7,1.6,2.3,2.3,0,0,1-.9,1.8,4.1,4.1,0,0,1-2.5.7,4,4,0,0,1-2.6-.8,2.1,2.1,0,0,1-.9-1.9h2a1.3,1.3,0,0,0,.4,1,2,2,0,0,0,1.1.3l1-.2A.9.9,0,0,0,942.9,93.6Z" transform="translate(0 -1.4)"/><path class="cls-2" d="M735.6,64.3h-4.1v3.1h4.9v1.7h-7.1v-11h7.1v1.7h-4.9v2.7h4.1Z" transform="translate(0 -1.4)"/><path class="cls-2" d="M740.1,69.1h-2.2V57.3h2.2Z" transform="translate(0 -1.4)"/><path class="cls-2" d="M745.5,69.3a3.7,3.7,0,0,1-2.9-1.2,3.9,3.9,0,0,1-1-2.9v-.3a4.4,4.4,0,0,1,1-3,3.6,3.6,0,0,1,5.3-.1,3.7,3.7,0,0,1,.9,2.7v1.1h-5a2,2,0,0,0,.6,1.3,1.5,1.5,0,0,0,1.3.6l1.3-.2,1-.4.6,1.3a3.2,3.2,0,0,1-1.3.7A5.2,5.2,0,0,1,745.5,69.3Zm-.2-6.8a1.2,1.2,0,0,0-1,.4,2.1,2.1,0,0,0-.4,1.2h2.7V64a1.6,1.6,0,0,0-.3-1.1A1.1,1.1,0,0,0,745.3,62.5Z" transform="translate(0 -1.4)"/><path class="cls-2" d="M753.5,67.6a1,1,0,0,0,.9-.4,1.2,1.2,0,0,0,.3-.9h2.1a2.4,2.4,0,0,1-1,2.1,3.2,3.2,0,0,1-2.3.9,3.4,3.4,0,0,1-2.8-1.2,4.4,4.4,0,0,1-1-3v-.2a4.4,4.4,0,0,1,1-3,3.8,3.8,0,0,1,5.2-.3,3,3,0,0,1,.9,2.3h-2.1a1.7,1.7,0,0,0-.3-1,1,1,0,0,0-.9-.4,1.5,1.5,0,0,0-1.3.6,4.8,4.8,0,0,0-.3,1.8v.2a4.5,4.5,0,0,0,.3,1.8A1.6,1.6,0,0,0,753.5,67.6Z" transform="translate(0 -1.4)"/><path class="cls-2" d="M760.7,58.9v2h1.4v1.6h-1.4v4.1a1,1,0,0,0,.2.7c.1.2.3.2.5.2h.6l.2,1.6-.6.2h-.7a2.1,2.1,0,0,1-1.8-.7,2.7,2.7,0,0,1-.6-2V62.5h-1.2V60.9h1.2v-2Z" transform="translate(0 -1.4)"/><path class="cls-2" d="M767.8,62.8H767c-.4,0-.6,0-.8.2s-.4.3-.5.6v5.5h-2.2V60.9h2v1.2a2.7,2.7,0,0,1,.8-1,1.8,1.8,0,0,1,1-.4h.6Z" transform="translate(0 -1.4)"/><path class="cls-2" d="M768.4,64.9a4.4,4.4,0,0,1,1.1-3,3.9,3.9,0,0,1,5.6,0,4.4,4.4,0,0,1,1.1,3v.2a4.4,4.4,0,0,1-1.1,3,3.9,3.9,0,0,1-5.6,0,4.4,4.4,0,0,1-1.1-3Zm2.2.2a4.8,4.8,0,0,0,.4,1.8,1.6,1.6,0,0,0,2.6,0,4.8,4.8,0,0,0,.4-1.8v-.2a4.8,4.8,0,0,0-.4-1.8,1.7,1.7,0,0,0-2.6,0,4.8,4.8,0,0,0-.4,1.8Z" transform="translate(0 -1.4)"/><path class="cls-2" d="M779.6,60.9v1.2a2.4,2.4,0,0,1,1-1,2.8,2.8,0,0,1,1.3-.4,2.8,2.8,0,0,1,2,.8,4.5,4.5,0,0,1,.7,2.6v5h-2.3v-5a2.3,2.3,0,0,0-.3-1.3,1.2,1.2,0,0,0-.9-.3,1.5,1.5,0,0,0-.9.2l-.6.5v5.9h-2.2V60.9Z" transform="translate(0 -1.4)"/><path class="cls-2" d="M788.6,58.9h-2.2V57.3h2.2Zm0,10.2h-2.2V60.9h2.2Z" transform="translate(0 -1.4)"/><path class="cls-2" d="M793.9,67.6a1,1,0,0,0,.9-.4,1.2,1.2,0,0,0,.3-.9h2.1a2.6,2.6,0,0,1-.9,2.1,3.6,3.6,0,0,1-2.4.9,3.4,3.4,0,0,1-2.8-1.2,4.4,4.4,0,0,1-1-3v-.2a4.4,4.4,0,0,1,1-3,3.4,3.4,0,0,1,2.8-1.2,3.2,3.2,0,0,1,2.4.9,3,3,0,0,1,.9,2.3h-2.1a1.7,1.7,0,0,0-.3-1,1,1,0,0,0-.9-.4,1.2,1.2,0,0,0-1.2.6,3.4,3.4,0,0,0-.4,1.8v.2a3.2,3.2,0,0,0,.4,1.8A1.3,1.3,0,0,0,793.9,67.6Z" transform="translate(0 -1.4)"/><path class="cls-2" d="M802.9,66.8a.9.9,0,0,0-.3-.6l-1.4-.5a4,4,0,0,1-2.1-.8,1.9,1.9,0,0,1-.8-1.6,2.3,2.3,0,0,1,.9-1.8,3.6,3.6,0,0,1,2.4-.8,3.9,3.9,0,0,1,2.5.8,2.3,2.3,0,0,1,.9,1.8h-2.2a1.1,1.1,0,0,0-.3-.8,1.2,1.2,0,0,0-.9-.3l-.9.2a.9.9,0,0,0-.3.7.7.7,0,0,0,.4.6,2.4,2.4,0,0,0,1.3.4,5,5,0,0,1,2.2.9,2.1,2.1,0,0,1,.8,1.6,2.4,2.4,0,0,1-1,1.9,4.6,4.6,0,0,1-2.5.7,3.6,3.6,0,0,1-2.6-.9,2.3,2.3,0,0,1-.9-1.9h2a1.6,1.6,0,0,0,.5,1l1,.2c.5,0,.8,0,1-.2A.9.9,0,0,0,802.9,66.8Z" transform="translate(0 -1.4)"/><path class="cls-2" d="M746.1,147.4h-4.2v4.5h-2.2v-11h7.2v1.7h-5v3h4.2Z" transform="translate(0 -1.4)"/><path class="cls-2" d="M752.7,151.9c-.1-.1-.1-.3-.2-.5a2,2,0,0,1-.1-.7l-.9,1a2.1,2.1,0,0,1-1.4.4,2.7,2.7,0,0,1-2-.7,2.4,2.4,0,0,1-.6-1.8,2,2,0,0,1,.9-1.8,4.1,4.1,0,0,1,2.7-.7h1.2v-.7a1.4,1.4,0,0,0-.3-.9,1.2,1.2,0,0,0-.9-.3,1,1,0,0,0-.8.3.8.8,0,0,0-.3.7h-2.2a2.3,2.3,0,0,1,.9-1.8,4.1,4.1,0,0,1,2.5-.7,3.6,3.6,0,0,1,2.4.7,2.7,2.7,0,0,1,1,2.2v4.4l.3,1Zm-2-1.4a1.7,1.7,0,0,0,1-.3,1.3,1.3,0,0,0,.6-.7v-1.2h-1.2a1.8,1.8,0,0,0-1.1.4,1.2,1.2,0,0,0-.3.9,1.1,1.1,0,0,0,.2.6A1.1,1.1,0,0,0,750.7,150.5Z" transform="translate(0 -1.4)"/><path class="cls-2" d="M760.6,149.7a.9.9,0,0,0-.3-.7l-1.3-.4a5,5,0,0,1-2.2-.9,1.9,1.9,0,0,1-.7-1.6,2.5,2.5,0,0,1,.8-1.8,3.6,3.6,0,0,1,2.4-.7,3.7,3.7,0,0,1,2.5.7,2.3,2.3,0,0,1,.9,1.9h-2.1a.9.9,0,0,0-.4-.8,1.2,1.2,0,0,0-.9-.3,1.1,1.1,0,0,0-.8.3.9.9,0,0,0-.3.6.6.6,0,0,0,.3.6,3.4,3.4,0,0,0,1.3.5,5.5,5.5,0,0,1,2.3.9,2.2,2.2,0,0,1,.7,1.6,2.1,2.1,0,0,1-1,1.8,3.7,3.7,0,0,1-2.5.7,3.9,3.9,0,0,1-2.5-.8,2.4,2.4,0,0,1-1-1.9h2.1a1.1,1.1,0,0,0,.4,1,1.8,1.8,0,0,0,1.1.3,1.2,1.2,0,0,0,.9-.3A.6.6,0,0,0,760.6,149.7Z" transform="translate(0 -1.4)"/><path class="cls-2" d="M766.4,144.8a2.6,2.6,0,0,1,.9-.9,2.9,2.9,0,0,1,3.3.5,4.1,4.1,0,0,1,.7,2.7v4.8h-2.2v-4.8a2.4,2.4,0,0,0-.3-1.4,1,1,0,0,0-.9-.4l-.9.2a.9.9,0,0,0-.6.4v6h-2.2V140.1h2.2Z" transform="translate(0 -1.4)"/><path class="cls-2" d="M775.3,141.8h-2.2v-1.7h2.2Zm0,10.1h-2.2v-8.2h2.2Z" transform="translate(0 -1.4)"/><path class="cls-2" d="M776.8,147.8a4,4,0,0,1,1-3,3.6,3.6,0,0,1,2.9-1.2,3.5,3.5,0,0,1,2.8,1.2,4,4,0,0,1,1,3h0a4,4,0,0,1-1,3,3.5,3.5,0,0,1-2.8,1.2,3.7,3.7,0,0,1-2.9-1.2,4,4,0,0,1-1-3Zm2.2.1a3,3,0,0,0,.4,1.8,1.4,1.4,0,0,0,1.3.7,1.2,1.2,0,0,0,1.2-.7,3,3,0,0,0,.4-1.8h0a3,3,0,0,0-.4-1.8,1.2,1.2,0,0,0-1.2-.7,1.4,1.4,0,0,0-1.3.7,3,3,0,0,0-.4,1.8Z" transform="translate(0 -1.4)"/><path class="cls-2" d="M787.9,143.7v1.2a4.7,4.7,0,0,1,1-1,3.2,3.2,0,0,1,1.4-.3,2.4,2.4,0,0,1,1.9.8,3.6,3.6,0,0,1,.7,2.5v5h-2.2v-5a1.7,1.7,0,0,0-.3-1.2,1,1,0,0,0-.9-.4l-.9.2a1,1,0,0,0-.6.5v5.9h-2.2v-8.2Z" transform="translate(0 -1.4)"/><path class="cls-2" d="M631.5,67.6h-3.6l-.7,2.4h-2.3l3.7-11.1h2.3L634.6,70h-2.3Zm-3-1.7H631L629.7,62h0Z" transform="translate(0 -1.4)"/><path class="cls-2" d="M640.4,68.8a3.2,3.2,0,0,1-1,1,2.5,2.5,0,0,1-1.3.3,2.4,2.4,0,0,1-2-.9,3.8,3.8,0,0,1-.8-2.7V61.8h2.2v4.7a2.6,2.6,0,0,0,.3,1.5,1,1,0,0,0,.9.4l.9-.2a1.2,1.2,0,0,0,.7-.5V61.8h2.2V70h-1.9Z" transform="translate(0 -1.4)"/><path class="cls-2" d="M646.8,59.8v2h1.4v1.5h-1.4v4.2a1.4,1.4,0,0,0,.2.7l.5.2h.6l.2,1.6-.6.2H647a2.4,2.4,0,0,1-1.8-.6,2.8,2.8,0,0,1-.6-2V63.3h-1.2V61.8h1.2v-2Z" transform="translate(0 -1.4)"/><path class="cls-2" d="M649.2,65.8a4.9,4.9,0,0,1,1-3,3.7,3.7,0,0,1,2.9-1.2,3.5,3.5,0,0,1,2.8,1.2,4.4,4.4,0,0,1,1.1,3h0a4.5,4.5,0,0,1-1.1,3.1,3.8,3.8,0,0,1-2.8,1.1,4,4,0,0,1-2.9-1.1,5,5,0,0,1-1-3.1Zm2.2.1a4.9,4.9,0,0,0,.4,1.9,1.5,1.5,0,0,0,1.3.6,1.1,1.1,0,0,0,1.2-.7,3,3,0,0,0,.4-1.8h0a3.4,3.4,0,0,0-.4-1.8,1.1,1.1,0,0,0-1.2-.7,1.4,1.4,0,0,0-1.3.7,4.8,4.8,0,0,0-.4,1.8Z" transform="translate(0 -1.4)"/><path class="cls-2" d="M609.4,149.4V138.3h3.8a4.2,4.2,0,0,1,3.3,1.3,4.5,4.5,0,0,1,1.4,3.3v1.9a4.6,4.6,0,0,1-4.7,4.6Zm2.2-9.4v7.7h1.6a2.3,2.3,0,0,0,1.8-.9,3.2,3.2,0,0,0,.6-2v-1.9a3.7,3.7,0,0,0-.6-2.1,2.5,2.5,0,0,0-1.8-.8Z" transform="translate(0 -1.4)"/><path class="cls-2" d="M622,149.4h-2.2V138.3H622Z" transform="translate(0 -1.4)"/><path class="cls-2" d="M627.9,143.4h0l2.4-5.1h2.5l-3.8,7.2v3.9h-2.2v-4l-3.8-7.1h2.5Z" transform="translate(0 -1.4)"/><path class="cls-2" d="M638.8,150.3h-2.2l4.1-12h2.1Z" transform="translate(0 -1.4)"/><path class="cls-2" d="M656.8,149.4h-2.2v-4.6h-4.5v4.6h-2.2V138.3h2.2v4.8h4.5v-4.8h2.2Z" transform="translate(0 -1.4)"/><path class="cls-2" d="M658.3,145.2a4.4,4.4,0,0,1,1-3,3.7,3.7,0,0,1,2.9-1.2,3.5,3.5,0,0,1,2.8,1.2,4,4,0,0,1,1,3h0a4.5,4.5,0,0,1-1,3.1,3.8,3.8,0,0,1-2.8,1.1,4,4,0,0,1-2.9-1.1,4.5,4.5,0,0,1-1-3.1Zm2.2.1a3,3,0,0,0,.4,1.8,1.4,1.4,0,0,0,1.3.7,1.1,1.1,0,0,0,1.2-.7,3,3,0,0,0,.4-1.8h0a3.2,3.2,0,0,0-.4-1.8,1.2,1.2,0,0,0-1.2-.7,1.4,1.4,0,0,0-1.3.7,3.4,3.4,0,0,0-.4,1.8Z" transform="translate(0 -1.4)"/><path class="cls-2" d="M669.5,141.1v1.1a2.2,2.2,0,0,1,1-.9,2.5,2.5,0,0,1,1.3-.3,2.9,2.9,0,0,1,1.4.3,2.3,2.3,0,0,1,.8,1.1,3.2,3.2,0,0,1,1-1,2.3,2.3,0,0,1,1.4-.4,2.5,2.5,0,0,1,2,.9,4.3,4.3,0,0,1,.7,2.6v4.9h-2.3v-4.9a2.4,2.4,0,0,0-.3-1.4,1,1,0,0,0-.9-.4l-.8.2-.5.6v5.9h-2.2v-4.9a2.4,2.4,0,0,0-.3-1.4,1.3,1.3,0,0,0-.9-.4l-.8.2-.6.5v6h-2.2v-8.3Z" transform="translate(0 -1.4)"/><path class="cls-2" d="M684.4,149.5a4,4,0,0,1-2.9-1.1,4.6,4.6,0,0,1-1-2.9v-.3a4.2,4.2,0,0,1,1-3,3.5,3.5,0,0,1,2.8-1.2,3,3,0,0,1,2.5,1,4,4,0,0,1,.9,2.7v1.2h-4.9a2.2,2.2,0,0,0,.5,1.4,1.7,1.7,0,0,0,1.3.5h1.3l1.1-.5.6,1.4a3.7,3.7,0,0,1-1.4.6A4.8,4.8,0,0,1,684.4,149.5Zm-.1-6.8a1.4,1.4,0,0,0-1.1.5,3.4,3.4,0,0,0-.4,1.2h2.7a2.1,2.1,0,0,0-.3-1.2A1,1,0,0,0,684.3,142.7Z" transform="translate(0 -1.4)"/><path class="cls-2" d="M611.6,209.2v4h-2.2v-11h4.2a4.7,4.7,0,0,1,3,.9,3.5,3.5,0,0,1,1.1,2.6,3.1,3.1,0,0,1-1.1,2.5,4.2,4.2,0,0,1-3,1Zm0-1.7h2a2,2,0,0,0,1.4-.5,1.9,1.9,0,0,0,0-2.6,1.6,1.6,0,0,0-1.4-.5h-2Z" transform="translate(0 -1.4)"/><path class="cls-2" d="M621.3,206a2.4,2.4,0,0,1,.9-.8l1.2-.3a2.5,2.5,0,0,1,2.1.8,4.7,4.7,0,0,1,.7,2.6v4.9H624v-4.9a2.1,2.1,0,0,0-.3-1.3,1.1,1.1,0,0,0-1-.4h-.8a1,1,0,0,0-.6.5v6H619V201.4h2.3Z" transform="translate(0 -1.4)"/><path class="cls-2" d="M632.7,213.2a1.4,1.4,0,0,1-.2-.6,1.3,1.3,0,0,1-.1-.6l-.9,1a3.3,3.3,0,0,1-1.4.4,3.2,3.2,0,0,1-2-.7,2.5,2.5,0,0,1-.7-1.8,2.2,2.2,0,0,1,1-1.9,4.9,4.9,0,0,1,2.7-.6h1.2v-.7a1.1,1.1,0,0,0-1.2-1.2l-.8.2a.9.9,0,0,0-.3.7h-2.2a2.3,2.3,0,0,1,.9-1.8,4.1,4.1,0,0,1,2.5-.7,3.6,3.6,0,0,1,2.4.7,2.6,2.6,0,0,1,.9,2.1v3.4c0,.4.1.8.1,1.1l.3,1Zm-2-1.5a1.7,1.7,0,0,0,1-.3,1.2,1.2,0,0,0,.6-.6v-1.2h-1.2a1.4,1.4,0,0,0-1.1.4,1.1,1.1,0,0,0-.3.8.8.8,0,0,0,.2.7Z" transform="translate(0 -1.4)"/><path class="cls-2" d="M640.5,206.9h-.8l-.8.2a1,1,0,0,0-.5.6v5.5h-2.2V205h2.1v1.2a2.3,2.3,0,0,1,.7-1,2,2,0,0,1,1.1-.3h.5Z" transform="translate(0 -1.4)"/><path class="cls-2" d="M643.7,205v1.1a2.8,2.8,0,0,1,1-.9,3.2,3.2,0,0,1,1.4-.3,2.5,2.5,0,0,1,1.3.3,2,2,0,0,1,.9,1.1,2.7,2.7,0,0,1,1-1.1,2.9,2.9,0,0,1,1.4-.3,2.2,2.2,0,0,1,1.9.8,4,4,0,0,1,.7,2.6v4.9h-2.2v-4.9a2.1,2.1,0,0,0-.3-1.3,1,1,0,0,0-.9-.4,1.1,1.1,0,0,0-.8.2c-.3.1-.4.3-.6.6v5.8h-2.2v-4.9a2.1,2.1,0,0,0-.3-1.3,1,1,0,0,0-.9-.4h-.8l-.5.5v6h-2.2V205Z" transform="translate(0 -1.4)"/><path class="cls-2" d="M659.9,213.2a1.4,1.4,0,0,0-.2-.6c0-.2-.1-.4-.1-.6a2.5,2.5,0,0,1-2.2,1.4,3,3,0,0,1-2-.7,2.1,2.1,0,0,1-.7-1.8,2.3,2.3,0,0,1,.9-1.9,4.9,4.9,0,0,1,2.7-.6h1.3v-.7a1.2,1.2,0,0,0-.3-.9,1.5,1.5,0,0,0-1-.3l-.8.2a.9.9,0,0,0-.3.7h-2.1a1.8,1.8,0,0,1,.9-1.8,3.7,3.7,0,0,1,2.5-.7,3.6,3.6,0,0,1,2.4.7,2.6,2.6,0,0,1,.9,2.1v3.4a3.7,3.7,0,0,0,.1,1.1,1.9,1.9,0,0,0,.3,1Zm-2-1.5a2.3,2.3,0,0,0,1.1-.3,1.2,1.2,0,0,0,.6-.6v-1.2h-1.3a1.2,1.2,0,0,0-1,.4,1,1,0,0,0-.1,1.5Z" transform="translate(0 -1.4)"/><path class="cls-2" d="M666.9,211.7a1,1,0,0,0,.9-.4,1.2,1.2,0,0,0,.3-.9h2.1a2.4,2.4,0,0,1-1,2.1,3.2,3.2,0,0,1-2.3.9,3.4,3.4,0,0,1-2.8-1.2,4.4,4.4,0,0,1-1-3V209a4.4,4.4,0,0,1,1-3,3.3,3.3,0,0,1,2.8-1.1,2.9,2.9,0,0,1,3.3,3.1h-2.1a1.7,1.7,0,0,0-.3-1,1,1,0,0,0-.9-.4,1.5,1.5,0,0,0-1.3.6,4.8,4.8,0,0,0-.3,1.8v.2a4.5,4.5,0,0,0,.3,1.8A1.6,1.6,0,0,0,666.9,211.7Z" transform="translate(0 -1.4)"/><path class="cls-2" d="M674.4,209.8v.4h.1l1.5-5.2h2.4l-3.3,9.4a5.6,5.6,0,0,1-1,1.5,2.4,2.4,0,0,1-1.8.6h-.5l-.6-.2.3-1.6h.4a1,1,0,0,0,.8-.3,1.8,1.8,0,0,0,.5-.7l.3-.6-3-8.2H673Z" transform="translate(0 -1.4)"/><path d="M810.1,209.6h0a3.8,3.8,0,0,1-1.1,2.8,4.8,4.8,0,0,1-3.1,1,4.6,4.6,0,0,1-3.2-1.3,4.8,4.8,0,0,1-1.2-3.3v-2.2a4.8,4.8,0,0,1,1.2-3.3,3.9,3.9,0,0,1,3.1-1.3,4.6,4.6,0,0,1,3.2,1,3.8,3.8,0,0,1,1.1,2.8h-2.2a2.1,2.1,0,0,0-.5-1.6,2.3,2.3,0,0,0-1.6-.5,1.9,1.9,0,0,0-1.5.8,3.3,3.3,0,0,0-.6,2.1v2.2a3.7,3.7,0,0,0,.6,2.1,2.2,2.2,0,0,0,3.1.3,2.1,2.1,0,0,0,.5-1.6Z" transform="translate(0 -1.4)"/><path d="M813.7,206a2.4,2.4,0,0,1,.9-.8,2.8,2.8,0,0,1,1.3-.3,2.4,2.4,0,0,1,2,.8,4,4,0,0,1,.7,2.6v4.9h-2.2v-4.9a2.1,2.1,0,0,0-.3-1.3,1,1,0,0,0-.9-.4h-.9a1,1,0,0,0-.6.5v6h-2.3V201.4h2.3Z" transform="translate(0 -1.4)"/><path d="M823.8,213.4a3.4,3.4,0,0,1-2.8-1.2,4,4,0,0,1-1.1-2.9V209a4.9,4.9,0,0,1,1-3,3.1,3.1,0,0,1,2.8-1.1,3,3,0,0,1,2.5,1,3.7,3.7,0,0,1,.9,2.7v1.1h-4.9a1.9,1.9,0,0,0,.5,1.3,1.7,1.7,0,0,0,1.4.6l1.2-.2,1.1-.4.6,1.3a4,4,0,0,1-1.3.7A5.8,5.8,0,0,1,823.8,213.4Zm-.1-6.8a1.1,1.1,0,0,0-1,.4,2.2,2.2,0,0,0-.5,1.2h2.7v-.2a1.6,1.6,0,0,0-.3-1.1A1,1,0,0,0,823.7,206.6Z" transform="translate(0 -1.4)"/><path d="M831.8,211.7a1.4,1.4,0,0,0,1.3-1.3h2a2.6,2.6,0,0,1-.9,2.1,3.4,3.4,0,0,1-2.4.9,3.5,3.5,0,0,1-2.8-1.2,4.4,4.4,0,0,1-1-3V209a4.4,4.4,0,0,1,1-3,3.4,3.4,0,0,1,2.8-1.1,2.9,2.9,0,0,1,3.3,3.1h-2a1.3,1.3,0,0,0-.4-1,1,1,0,0,0-.9-.4,1.2,1.2,0,0,0-1.2.6,3.4,3.4,0,0,0-.4,1.8v.2a3.2,3.2,0,0,0,.4,1.8A1.3,1.3,0,0,0,831.8,211.7Z" transform="translate(0 -1.4)"/><path d="M839.2,209.8h-.6v3.4h-2.2V201.4h2.2v6.7h.5l2-3.1h2.5l-2.6,3.7,3,4.5h-2.6Z" transform="translate(0 -1.4)"/><path d="M844.4,209a4.4,4.4,0,0,1,1-3,3.4,3.4,0,0,1,2.8-1.1,3.6,3.6,0,0,1,2.9,1.1,4.4,4.4,0,0,1,1,3v.2a4.4,4.4,0,0,1-1,3,3.5,3.5,0,0,1-2.8,1.2,3.6,3.6,0,0,1-2.9-1.2,4.4,4.4,0,0,1-1-3Zm2.2.2a3.4,3.4,0,0,0,.4,1.8,1.4,1.4,0,0,0,1.3.7,1.5,1.5,0,0,0,1.2-.7,3.4,3.4,0,0,0,.4-1.8V209a3.4,3.4,0,0,0-.4-1.8,1.5,1.5,0,0,0-1.3-.6,1.2,1.2,0,0,0-1.2.7,2.9,2.9,0,0,0-.4,1.7Z" transform="translate(0 -1.4)"/><path d="M858.5,212a2.4,2.4,0,0,1-1,1,1.8,1.8,0,0,1-1.3.4,2.4,2.4,0,0,1-2-.9,4.1,4.1,0,0,1-.8-2.7V205h2.2v4.8a2.2,2.2,0,0,0,.3,1.4,1,1,0,0,0,.9.4h.9a1.8,1.8,0,0,0,.7-.5v-6h2.2v8.2h-1.9Z" transform="translate(0 -1.4)"/><path d="M864.9,203v2h1.4v1.6h-1.4v4.1a1,1,0,0,0,.2.7c.1.2.3.2.5.2h.6l.2,1.6-.6.2h-.7a2.1,2.1,0,0,1-1.8-.7,2.7,2.7,0,0,1-.6-2v-4.1h-1.2V205h1.2v-2Z" transform="translate(0 -1.4)"/></g></g></svg>